<?xml version="1.0" standalone="no"?>
<!DOCTYPE svg PUBLIC "-//W3C//DTD SVG 1.1//EN" "http://www.w3.org/Graphics/SVG/1.1/DTD/svg11.dtd" >
<svg>
<metadata>
Created by FontForge 20090622 at Thu Nov  7 20:48:03 2013
 By ffonts
Copyright (c) 2013 by Jaime Vicente. All rights reserved.
</metadata>
<defs>
<font id="CatFont" horiz-adv-x="832" >
  <font-face 
    font-family="Cat Font"
    font-weight="400"
    font-stretch="normal"
    units-per-em="1000"
    panose-1="2 0 0 0 0 0 0 0 0 0"
    ascent="900"
    descent="-100"
    x-height="700"
    cap-height="708"
    bbox="-101.067 -261.852 1184.1 964.571"
    underline-thickness="50"
    underline-position="20"
    unicode-range="U+000D-U+F6C0"
  />
<missing-glyph horiz-adv-x="350" 
 />
    <glyph glyph-name="LL" unicode="LL" horiz-adv-x="1095" 
d="M616 724q11 2 15.5 -3t5.5 -12q3 -11 -0.5 -25.5t-0.5 -22.5q0 -2 3 -3t5 -1q5 -1 9 8.5t10 15.5q7 8 12.5 13t11.5 8q15 8 23.5 -2t7.5 -27q-2 -14 -6 -29t-7 -31t-4 -32.5t3 -33.5q2 -16 7 -31.5t11 -29.5l14 -35t9 -44q0 -6 1 -31t1 -53.5t-0.5 -51.5t-2.5 -26
q-1 -1 -3.5 3.5t-5.5 7.5q-8 8 -22 10.5t-30 -1.5q-8 -2 -14.5 -6t-10.5 -6v7q0 3 0.5 5t0.5 4q2 7 2 13.5t1 15.5q0 5 1.5 12.5t-2.5 9.5q-6 1 -6.5 -9.5t-1.5 -19.5l-3 -31q-1 -10 -1.5 -13t-3.5 -8q-6 -8 -9.5 -18t-6.5 -21q-1 -2 -1.5 -5.5t-2.5 -2.5q-1 0 -0.5 12.5
t1.5 29t2.5 34t1.5 28.5v17.5t-2 12.5q-3 1 -4.5 -2t-2.5 -6.5t-1.5 -8t-0.5 -6.5q-2 -20 -2.5 -45t-2.5 -44q-2 -13 -1 -23t-1 -24q-1 -14 -2.5 -38t-2.5 -44q-1 -11 0.5 -23.5t-3.5 -18.5l-3 -2t-7 -3.5l-8 -3t-5 -0.5t-0.5 4t1.5 5q2 23 2 44.5t1 44.5l3 52
q0 41 1.5 66.5t1.5 57.5q0 13 -2.5 25.5t-4.5 23.5q-6 25 -6.5 53.5t4.5 53.5q2 10 4.5 20t7.5 21q4 8 8.5 18t3.5 21q0 9 -7.5 15.5t-13.5 14.5q-9 13 -15.5 29.5t-2.5 36.5q1 6 3.5 13.5t5.5 12.5q4 12 14.5 30t21.5 25q1 1 2 1t2 1q1 0 1 1h-1zM697 256q23 3 36.5 -14.5
t18.5 -35.5q5 -11 7 -26t3 -27q2 -25 1 -54.5t-2 -52.5q0 -3 -1 -10t5 -6q3 1 4 5t0.5 9t-0.5 9t2 6q1 1 6.5 1h12t13 -0.5t9.5 -0.5q35 -1 70 -1t70 2q12 1 26.5 3t27.5 1.5t22 -5.5t9 -18q0 -17 -13.5 -26t-27.5 -12q-16 -3 -36 -3h-37q-56 -1 -120.5 -0.5t-121.5 0.5
q-7 0 -23.5 -0.5t-33.5 -0.5t-31.5 1t-16.5 4q-5 4 1 13q6 8 19.5 9.5t20.5 11.5q2 3 2.5 6l1.5 9q2 7 2 15t1 16q2 50 9 91t30 65q7 6 14.5 10t19.5 6zM576 193q2 -1 1.5 -4.5t-0.5 -8.5q-2 -27 -3 -55.5t-1 -58.5q0 -12 -0.5 -22t-3.5 -18q-2 -5 -2.5 -5.5t-2.5 -5.5
q-1 -3 -0.5 -5.5t-0.5 -6.5q-2 -3 -9 -3h-9q-6 0 -13 -0.5t-12 0.5t-7.5 4t1.5 9q2 3 7 5t10 3.5t9.5 4.5t6.5 8q6 11 5.5 27t-0.5 29q2 25 2.5 46.5t4.5 36.5q3 10 9 16q2 2 4.5 3.5t3.5 0.5zM318 709q11 3 21 -4q18 -12 25 -40t-2 -54q-4 -17 -13 -32.5t-10 -32.5
q-1 -9 1.5 -16.5t6.5 -15.5l7.5 -15.5t4.5 -16.5q3 -12 3 -21q3 -30 0.5 -55.5t-7 -50t-8.5 -49t-4 -51.5q0 -48 1.5 -99t9.5 -96l5 -30q2 -11 4 -19.5t-2 -10.5q-9 -5 -12.5 4t-5.5 18l-4 23t-3 24q-4 42 -7 84.5t-5 84.5l-2 43q0 -1 -0.5 3t-3.5 4q-2 0 -3.5 -3.5
t-1.5 -8.5q0 -17 0.5 -29t1.5 -27q2 -40 5 -82.5t8 -81.5q2 -14 2.5 -18.5t2.5 -13.5q2 -8 4.5 -16.5t-5.5 -10.5q-9 -2 -12.5 11.5t-4.5 22.5q-8 53 -13 103t-9 111l-2 36q-1 11 -2.5 19t-6.5 5q-1 -1 -1 -6t0.5 -11.5l1 -12.5t0.5 -7q3 -54 7.5 -109t12.5 -108l4 -27
q2 -8 3 -15t-2 -10q-2 -2 -8 -1.5t-8 3.5q0 1 1 3.5t0 6.5q-3 13 -20 18q-3 1 -8.5 1.5t-12 1.5t-12 3t-6.5 5q-1 4 2.5 13.5t5.5 12.5q5 10 7.5 18t4.5 16q4 19 7 42.5t3.5 48.5t-1.5 49.5t-7 46.5q-3 12 -9 25t-15 23t-21.5 14t-28.5 -3q-5 -2 -10 -7.5t-6 -3.5t0 9t1 9
q4 35 9.5 71t20.5 63q11 17 19.5 31.5t11.5 39.5q1 17 -2 34.5t-5.5 35t-2 34.5t8.5 32q7 15 18 15q14 1 21 -7.5t10 -16.5q3 -7 5 -17t8 -9q5 0 6 7t3 15t6.5 17t13.5 11zM193 337q11 5 22 -2.5t15 -15.5q10 -13 13 -30q8 -29 10 -67.5t-3 -74.5q-4 -30 -9.5 -49t-13.5 -38
q-2 -6 -4.5 -15.5t0.5 -13.5q2 -3 11.5 -5.5t14.5 -3.5q5 0 12 -0.5t13 -2t9.5 -5t0.5 -9.5q-1 -3 -7 -4.5t-13.5 -1.5t-15.5 0.5t-12 0.5q-18 1 -36 1t-33.5 1.5t-27.5 6t-18 15.5q-4 7 -5.5 19t0.5 23.5t9 20t19 8.5q2 0 1 -10.5t-1 -15.5t-1.5 -15.5t5.5 -10.5q3 -1 4 3
t1 9.5v10.5v7v25q1 23 0.5 48.5t1.5 48.5q2 22 2.5 46t2.5 47q1 17 9.5 31.5t23.5 17.5zM496 86q21 -4 18 -30q-2 -13 -14 -24.5t-25 -17.5q-17 -10 -36.5 -12t-42.5 -2q-5 0 -12 1t-10 5t-5 15.5l-3 17.5q-1 5 -1.5 9.5t0.5 4.5q4 1 9 -1t7 -3q13 -5 20 -4t17 3
q20 6 32 17.5t28 17.5q6 2 9.5 3t8.5 0z" />
    <glyph glyph-name="ll" unicode="ll" horiz-adv-x="1161" 
d="M273 705q14 3 22.5 -5t13 -20.5t5 -28.5t-0.5 -29q-2 -20 -8.5 -38l-12.5 -35t-9.5 -35.5t-0.5 -39.5q3 -14 8 -27.5t9 -27.5l9.5 -34.5t7.5 -36.5q4 -27 7.5 -58t5.5 -64t2 -65.5t-1 -62.5q-1 -9 -0.5 -18t1.5 -17q0 -6 2.5 -17t11.5 -9q5 1 4 7.5t-2 11.5
q0 5 -1.5 14.5t1.5 11.5h17q24 0 50 3t44 9q11 3 20 8.5t23 7.5q19 1 31 -8.5t12 -26.5q1 -21 -8 -35.5t-24.5 -23t-35.5 -12t-40 -3.5q-23 0 -42 -0.5t-45 -0.5h-62q-5 0 -13 -1t-9 1q-2 1 -2 6t0.5 11l1 12t0.5 9q2 39 0.5 81t-0.5 84q0 36 1 77t-1 79q0 3 -0.5 9l-1 11.5
t-2.5 8.5t-6 2q-2 0 -2.5 -7t-1 -15.5t-0.5 -17v-12.5q2 -28 1 -52t-1 -52q0 -34 0.5 -61.5t0.5 -59.5q0 -28 0.5 -55t-10.5 -50q-2 -5 -9.5 -10.5t-16 -8t-17 -1t-13.5 11.5q-3 7 -1 13t6.5 12.5l9 12.5t6.5 13q5 20 6 36t1 42v28t-1 28q0 37 -0.5 76t-0.5 76
q1 10 0.5 19.5t-0.5 17.5q0 9 -0.5 19.5t-8.5 10.5q-3 0 -4 -7t-2 -16t-1 -18v-13q0 -54 1.5 -96t1.5 -87q0 -31 1 -61t-9 -50q-2 -5 -6 -12t-9 -13t-12 -8.5t-14 0.5q-10 5 -14 15t3 21q8 12 12.5 23.5t6.5 24t2 27v33.5v28q-1 29 -1.5 64.5t-0.5 72v71.5v63q0 32 -3.5 50
t-8.5 32t-10 30.5t-8 45.5q-2 23 4 46.5t22 31.5q8 5 16 4.5t15 -5t12 -10.5t8 -12q7 -15 7.5 -26.5t6.5 -11.5q7 -1 10 8t5 16q6 16 14.5 27t24.5 13zM657 707q17 2 30 -9t19 -25q3 -6 4 -13t2.5 -13t3.5 -10t7 -4q8 0 12 14.5t11 25.5q8 14 24 22.5t36 -1.5q9 -5 12.5 -17
t1.5 -26q-3 -17 -10.5 -32l-15 -30t-13.5 -30.5t-6 -34.5q-1 -51 5.5 -100.5t7.5 -103.5q1 -32 5 -62.5t7 -62.5l7.5 -64t10.5 -59q2 -11 3 -22t11 -8q3 1 3 8t-1.5 17t-3.5 20t-3 16l-2 11.5t1 7.5t8 2h11q35 -1 64.5 -1t65.5 1q17 1 31.5 4t31.5 1q28 0 45.5 -17.5
t15.5 -44.5q-1 -26 -21 -42t-44 -19q-25 -4 -53 -4.5t-57 -0.5q-26 0 -53.5 -0.5t-51.5 0.5q-17 1 -35.5 0t-38.5 0q-9 0 -13 1.5t-5 4.5t0 7.5t1 10.5l25 332q1 5 2 16t-6 13q-4 1 -6 -3.5t-3.5 -11.5t-2 -14t-0.5 -10l-10 -141l-10 -147l-4 -35t-8 -28q-6 -8 -17.5 -16.5
t-25.5 -3.5q-10 3 -11.5 10.5t0.5 16.5t5.5 18t4.5 15q3 38 7 77.5t6 77.5l7 107q2 11 2.5 21.5t2.5 27.5q0 4 1.5 11.5t2.5 14.5t-0.5 12.5t-5.5 5.5t-6 -4.5t-3 -10.5t-1.5 -13t-0.5 -11q-5 -51 -7 -95.5t-7 -88.5q-2 -20 -4.5 -42.5l-5.5 -49.5q-2 -13 -3 -27t-4.5 -26.5
t-9.5 -22t-17 -13.5q-14 -5 -24 2t-4 21q4 13 11 22.5t11 23.5q2 13 2.5 27t1.5 28l16 190.5l16 188.5q3 38 -6.5 66.5l-17.5 54.5q-12 32 -4 61.5t40 34.5z" />
    <glyph glyph-name=".notdef" horiz-adv-x="350" 
 />
    <glyph glyph-name="NULL" horiz-adv-x="0" 
 />
    <glyph glyph-name="NULL" horiz-adv-x="0" 
 />
    <glyph glyph-name="nonmarkingreturn" unicode="&#xd;" horiz-adv-x="350" 
 />
    <glyph glyph-name="space" unicode=" " horiz-adv-x="350" 
 />
    <glyph glyph-name="quotesingle" unicode="'" horiz-adv-x="439" 
d="M282 746q11 1 19 -4t13 -10q4 -6 4.5 -12.5t-2.5 -11.5t-9 -7.5t-14 0.5q-14 5 -24 18q-6 8 -2 17t15 10zM244 710q45 5 39 -42q-1 -8 -4.5 -14.5t-8.5 -12.5q-2 -3 -5.5 -7t-6.5 -6q-4 -3 -12 -5.5t-15 -0.5q-16 2 -25 16.5t-6 32.5q1 8 5 14t8 11q11 11 31 14zM344 699
q8 2 12.5 -7t7.5 -14t6 -11t1 -11q-2 -3 -5 -2.5t-5 2.5q-4 4 -7 14.5t-8 10.5q-2 0 -4.5 -4t-3.5 -6q-3 -5 -9.5 -13t-16.5 -3q-5 2 -9.5 11.5t-6.5 14.5q-1 5 0 10t7 1q5 -3 7.5 -12.5t7.5 -10.5q1 0 4.5 4t7 9.5t7.5 10.5t7 6zM137 672q17 1 31 0q3 -1 11 -2t8 -4
q1 -4 -6.5 -4t-11.5 -1l-25 -4t-24 -5t-21 -6.5t-22 -4.5q-10 0 -12 6q-1 5 2.5 8.5t8.5 5.5q14 7 28.5 8t32.5 3zM173 643l-12 -13q-3 -3 -8 -6t-10 -5t-9.5 -5t-9.5 -5q-7 -2 -12 -5.5t-13 -5.5q-6 -1 -12.5 -1t-11.5 1.5t-7 5.5t1 12q5 11 17.5 14.5t23.5 8.5
q13 5 26.5 8t29.5 6q3 1 9.5 2t9.5 0zM194 647q1 -5 5.5 -12.5t9.5 -11.5q4 -3 8 -4t4 -6q1 -5 -1 -11.5t-4 -9.5q-2 -4 -6 -6.5t-6 -7.5q-4 -5 -5 -12t-3 -12q-3 -6 -9.5 -11.5t-13.5 -5.5q-10 0 -14.5 6.5t-6 16t0 20t4.5 18.5q5 17 13.5 27.5t19.5 21.5q4 4 4 0zM273 636
q5 2 7 -5t5 -8q6 -2 12 -0.5t10 -3.5q3 -5 6.5 -17.5t4.5 -19.5q1 -5 -0.5 -9.5t-6.5 -3.5q-3 1 -3.5 4t-1.5 6l-2.5 12t-2.5 11q-1 2 -1 4t-2 4q-5 5 -11.5 2t-11.5 2q-2 2 -4.5 11t2.5 11zM253 613q5 2 6 -2.5t1 -8.5q0 -8 -0.5 -16.5t-2.5 -14.5q-2 -5 -7.5 -8t-7.5 -9
q-1 -5 0 -10t0 -10q0 -11 -3 -21t-10 -13q-4 -2 -7 -0.5t-2 6.5q1 2 4 6t5 8q3 7 2.5 15t0.5 17q1 12 8 16.5t9 15.5q1 5 0 9.5t0 9.5q0 2 1 5.5t3 4.5z" />
    <glyph glyph-name="parenleft" unicode="(" horiz-adv-x="493" 
d="M352 751q8 -1 7.5 -9.5t-4.5 -16.5q-19 -32 -35.5 -69l-32.5 -75q-2 -4 -5 -11.5t-5.5 -15t-3.5 -13.5t3 -6q2 -1 10 12.5t18 34.5l21.5 46l22.5 48l19 40l11 23q4 6 10 9.5t10.5 3t7 -5.5t-1.5 -15q-15 -38 -29.5 -67.5l-27.5 -57t-24.5 -55.5t-20.5 -62
q-8 -29 -14.5 -61.5t-8.5 -63.5q-1 -4 0.5 -12.5t-1.5 -13.5q-3 -1 -4.5 1.5t-4.5 4.5q-8 8 -19.5 12t-22.5 3t-21 -7.5t-16 -18.5q-1 -2 -2 -7t-1 -11t1.5 -10.5t4.5 -5.5q7 2 6 5.5t0 8.5q2 14 13 26t31 5q7 -2 14 -6.5t13 -9.5l10.5 -8.5t7.5 -3.5q2 0 4.5 5t4.5 11.5
t3.5 13t2.5 9.5l20 49t29 40q5 4 12 5.5t11 -0.5q7 -4 5.5 -10.5t-6.5 -13.5t-11 -13t-8 -9q-14 -26 -20 -59t-13 -63q-2 -8 -3 -16.5t-3.5 -15t-7.5 -10.5t-14 -4t-16 3.5t-12 7.5t-8.5 6.5t-6.5 -0.5q-3 -6 7 -13.5t15 -9.5t10 -3t8 -3q3 -3 2.5 -13.5t1.5 -18.5
q9 -48 30 -95.5t44 -85.5q3 -5 10 -13t12.5 -16t6 -13t-10.5 -2q-9 2 -19.5 10.5t-21.5 21.5q-36 38 -72 86.5l-67 93.5q-18 26 -31.5 59t-19.5 77q-4 26 -1 51t9 45q1 4 3 9.5t3 10.5t-0.5 9.5t-6.5 5.5q-6 1 -14.5 -1t-17 -3.5t-16.5 -0.5t-12 7q-9 14 -6 30t19 21
q11 4 20 -0.5t20 -3.5q8 1 8 4t-3 6t-8 5.5t-7 4.5q-8 4 -17 12.5t-11 20.5q-3 17 10 24.5t25 3.5q7 -3 13 -8.5t11 -11t9 -8.5t7 -1q1 1 2.5 13.5t4.5 29.5t7 36.5t12 34.5q4 9 8.5 9.5t7.5 -4t5.5 -11.5t4.5 -12q5 -17 6.5 -33.5l2.5 -27.5q0 -1 6.5 13.5l16.5 35.5
l21 44.5t20 40.5q5 9 14.5 22.5t19.5 13.5z" />
    <glyph glyph-name="parenright" unicode=")" horiz-adv-x="485" 
d="M136 745q9 0 17.5 -14.5l13.5 -23.5l64 -111.5t56 -122.5l18.5 -52.5t17.5 -56.5q8 -33 11 -67t-4 -66q-9 -30 -21 -50.5l-28 -46.5l-7.5 -10.5t-4.5 -10.5q0 -8 10.5 -9.5t24.5 -12.5q6 -5 10.5 -12.5t5 -16t-4 -15t-17.5 -9.5q-8 -2 -19 6q-5 3 -10.5 11.5t-11.5 8.5
q-8 0 -10 -4.5t1 -9.5q2 -5 7 -10t9.5 -10.5t7 -13t0.5 -16.5q-3 -10 -12 -11.5t-16 0.5q-6 2 -10.5 7t-9 9.5t-9.5 7.5t-13 1t-16.5 -10t-16.5 -17q-7 -8 -13.5 -18t-16.5 -12q-6 -1 -8 3t-2 9.5t1.5 12t3.5 10.5q8 17 15.5 41t12.5 47q3 13 11.5 26t24.5 17q4 1 9 0
t9 -1.5t6 -0.5t-1 4q-10 11 -25 7t-22 -10q-13 -12 -24 -25t-27 -18q-17 -5 -21 6t7 16l11.5 6t11.5 8q14 12 24.5 26t24.5 22t32 4t27 -12q7 -6 10.5 -5t1 5.5t-12 10t-27.5 9.5q-5 1 -11.5 1.5t-4.5 2.5q8 16 14 34l11 32q1 4 2 9t1.5 9.5t2 6.5t3.5 0q5 -5 12 -8
q10 -5 23 -3.5t25 7t20 14.5t8 19q-1 7 -5.5 1t-7.5 -9q-8 -10 -23 -18t-31 -3q-14 5 -20.5 15t-14.5 18q-6 6 -12 4.5t-12 -6t-10.5 -11.5t-7.5 -11l-23 -35t-28 -28q-8 -4 -16 -0.5t-3 13.5q2 4 7.5 7t10.5 8q20 20 34.5 44.5t28.5 51.5q3 4 5.5 11.5t6 14.5t8.5 12t13 5
q13 -2 21.5 -13.5t19.5 -15.5q8 -3 15 -2.5t3 6.5q-2 4 -8.5 2t-13.5 5q-8 8 -7.5 13.5t-0.5 17.5q-1 30 -9 63t-18 59q-8 27 -18.5 53l-21.5 51q-10 23 -18.5 40l-19.5 41q-1 3 -5 9.5t-7 13t-2.5 12.5t8.5 7z" />
    <glyph glyph-name="asterisk" unicode="*" horiz-adv-x="590" 
d="M291 781q8 0 15 -5t10 -11q9 -17 10.5 -37t-1.5 -40q0 -2 -1 -7.5t-1.5 -10.5t-1.5 -9t-2 -4q-2 0 -10.5 0.5t-8.5 1.5v20v24t-1 8q-1 4 -4.5 4.5t-5.5 -2.5q-1 -3 -1 -11q0 -10 0.5 -18.5t0.5 -14.5q0 -3 1 -7t-1 -4t-10 -2q-4 -1 -8 -1q-2 3 -4.5 14.5t-4 26.5
t-1.5 30.5t3 26.5t9.5 18.5t17.5 9.5zM407 739q17 0 25.5 -10t1.5 -28q-10 -21 -24.5 -36.5t-30.5 -27.5q-4 -2 -8 -6t-7 -3q-1 0 -6.5 4.5t-5.5 5.5q0 2 4.5 5.5t6.5 5.5l19 18l4.5 4.5t5.5 7t1 6t-8 1.5q-6 -2 -11.5 -8t-11.5 -13.5t-11 -13t-9 -5.5q-1 0 -7 2q-3 1 -5 3
q0 1 1 3.5t2 4.5l17.5 34t22.5 27q7 6 15 12t19 7zM185 732q24 -2 41.5 -21.5t25.5 -39.5q1 -3 4 -10.5t2 -9.5q0 -2 -5 -4.5t-7 -4.5t-7.5 2.5t-12 11l-12.5 12t-9 5.5q-2 0 -4.5 -1.5t-1.5 -3.5q2 -6 12 -15.5t14 -12.5q4 -4 8 -6q2 -2 4 -2q-2 -5 -4 -9q-1 -2 -1.5 -3.5
t-1.5 -2.5q-1 -2 -2 -2t-5.5 1.5t-7.5 3.5q-21 8 -41.5 27.5t-21.5 48.5q0 16 8 26t25 10zM290 644q15 2 31 -4.5t24 -14.5t11.5 -20t2.5 -24t-6 -23t-14 -18q-15 -11 -36.5 -10.5t-41.5 5.5q-14 3 -20.5 16t-6.5 28.5t5.5 30t15.5 21.5q6 5 15.5 8t19.5 5zM415 623
q20 -2 43.5 -10.5t34.5 -22.5q10 -13 5 -24q-7 -11 -23 -14.5t-32 -3.5q-35 0 -61 10q-3 2 -8 3.5t-4 3.5t2 9.5t2 8.5t6.5 -1t9.5 -3q8 -2 25 -4.5t22 0.5q3 1 5 4t-1 7q-2 2 -7 2.5t-10 0.5q-10 0 -26 2t-25 4q-2 0 -2.5 5t-3.5 12q-2 4 5.5 6t12.5 3q10 2 16 2.5t14 -0.5
zM154 623q14 0 30.5 -4.5t28.5 -9.5q2 -1 6.5 -3t5.5 -4l-2 -10q0 -2 -6 -1.5t-11 -0.5q-11 -1 -35 -6q-6 -2 -7 -7t6 -6h5t8 2q22 6 30.5 7.5t8.5 -0.5q0 -5 0.5 -9.5t-0.5 -5.5q-1 -3 -13.5 -8t-16.5 -6q-14 -5 -30 -4.5t-30 5.5t-23 14.5t-9 23.5q0 9 5.5 15t13.5 10
t17.5 6t17.5 2zM233 538q-7 -8 -18 -19t-12 -13q-2 -7 2 -7t8 2q5 4 15 14.5l14 14.5q4 -2 7.5 -4.5t8.5 -4.5q4 -1 -3 -10t-18 -20.5t-23 -21.5t-18 -14t-16 -7.5t-20.5 -5t-19.5 1t-13 11.5q-5 10 -0.5 19t9.5 15q28 36 66 53q8 4 11.5 6t10.5 4q1 -3 3 -6q4 -6 6 -8z
M362 552q10 -4 23 -14.5t22 -19.5q11 -12 17.5 -21.5t11.5 -24.5q5 -14 2 -25t-13 -16q-12 -6 -26 1t-27 19.5t-23.5 27.5t-14.5 24q-1 1 -4.5 8.5t-2.5 9.5q0 2 2.5 2.5t4.5 1.5l7 3.5t5 -4.5l19 -25t18 -21q3 -3 6 -1t2 7q-1 6 -12 20t-18 22q-1 2 -5.5 6.5t-3.5 6.5z
M277 518q3 -1 6 -1h7q1 -1 1 -7t-0.5 -13.5l-1 -15.5t-0.5 -12q-1 -5 1 -8t4.5 -3.5t5 1.5t3.5 6q3 16 1 36q0 2 -1 8.5t0 7.5q2 1 7.5 0.5t6.5 -0.5q2 -1 5 -11.5t4 -17.5q2 -16 1 -34.5t-6 -33.5t-15.5 -25t-28.5 -10q-15 0 -20.5 15t-3.5 32q3 23 9.5 46.5t14.5 39.5z
" />
    <glyph glyph-name="plus" unicode="+" horiz-adv-x="689" 
d="M293 564q11 1 19 -6t10 -15q1 -3 2 -8.5t2.5 -11t4 -9t6.5 -2.5q5 0 10 12t9 17q10 14 23.5 19.5t26.5 -6.5q5 -4 7 -10.5t3 -13.5q2 -26 -8 -49t-22 -37q-8 -10 -21.5 -19t-29.5 -7q-18 3 -31 14t-24 28q-7 11 -13 27.5t-4 38.5q0 33 30 38zM390 434q4 0 9.5 -10.5
t7.5 -15.5q5 -10 16 -19.5t26 -8.5q15 0 29.5 5l28.5 10q26 8 52 1t36 -24t0 -29q-7 -8 -15 -8t-17 3t-18 7t-17 4q-16 0 -27 -8t-24 -13q-19 -7 -40.5 -7.5t-38.5 9.5q-2 1 -6.5 5.5t-6.5 3.5q-3 -1 -1.5 -4t4.5 -6.5t6.5 -6.5t3.5 -4q0 -2 -4 -2t-9 -2q-11 -4 -23 -12
t-15 -19q-2 -7 1.5 -7t5.5 5q5 6 9.5 12t17.5 11q17 6 28.5 -3t9.5 -27q-2 -13 -8 -24t-11 -24q-4 -10 -7.5 -20t-5.5 -21q0 -1 -1 -4.5t2 -4.5q4 -1 6 9q3 12 8.5 26.5t13 28.5t16 25t17.5 16q10 6 17 -2t5 -16q0 -4 -2.5 -10t-4.5 -9q-8 -17 -16.5 -31t-17.5 -34
l-10.5 -26.5t-9.5 -28.5q-2 -7 -6 -16.5t-9 -14.5q-5 -7 -16 -6t-15 9q-5 8 -6 19t0 22l2 47v7t-2 6q-3 1 -5 -4.5t-2.5 -13.5l-1 -15.5t-0.5 -10.5q0 -13 -4 -20.5t-10 2.5q-3 5 -3.5 20t-2.5 25q-1 6 -5.5 9.5t-4.5 -8.5q0 -8 1.5 -18t2.5 -21.5t0 -22t-6 -17.5
q-7 -11 -18 -7t-17 12q-9 13 -13 26.5t-13 33.5t-18 38t-20 35q-4 6 -9 17.5t-2 20.5q3 11 13 10t17 -8q10 -10 18 -23.5t14.5 -28.5t12 -30t12.5 -28q2 -5 5 -5.5t0 7.5q-7 20 -17.5 43.5t-17.5 45.5q-6 15 -2 32.5t21 20.5q10 1 20 -7t14 -16q2 -3 3 -9.5t4 -6.5q4 0 3 6
t-1 7q-2 9 -11 19.5t-17 12.5q-4 2 -10 1t-6 1q-2 4 3.5 8t8.5 6t7.5 9t1.5 9t-6.5 -3t-7.5 -8q-21 -17 -36.5 -15.5t-35.5 9.5l-15.5 5t-18.5 4q-12 1 -21 -1t-17.5 -5l-17.5 -6t-20 -2t-17.5 9t0.5 20q7 14 24.5 24.5t33.5 12.5q11 2 21.5 1t20 -3.5t19.5 -4.5t20 -2
q16 2 27.5 10.5t21.5 18.5q3 3 7 6.5t9 3.5q3 -1 4.5 -3.5t6.5 -5.5q8 -5 18 -8.5t24 -1.5q6 0 13.5 4t14.5 9q8 5 15 12z" />
    <glyph glyph-name="comma" unicode="," horiz-adv-x="293" 
d="M127 149q5 2 12.5 1t12.5 -5q23 -17 38 -40t13 -61q0 -13 -3 -25q-2 -6 -3 -12t-1 -11q0 -9 3 -18.5t5.5 -19t3.5 -19.5t-3 -20q-5 -12 -10 -10t-8.5 10.5t-6 19t-0.5 16.5l2 6t0 5q-2 3 -4.5 -1.5t-3.5 -9.5q-1 -7 0 -13.5t0 -12.5q0 -7 -6 -16.5t-11 -14.5
q-22 -24 -53 -35q-12 -5 -27 -6l-31 -2q-27 -3 -44 -15.5t-28 -32.5q-2 -3 -5 -8.5t-8 -5.5q-8 1 -10.5 13t-4.5 19q-1 11 -1.5 18t0.5 17q0 7 3.5 19.5t9.5 12.5q3 0 5.5 -3.5t4.5 -5.5q5 -8 16.5 -11.5t24.5 -3.5t26 3.5t22 10.5q7 5 11 12t8 13q11 21 12.5 51t1 61.5
t1.5 61t14 50.5q3 5 8.5 10.5t13.5 7.5zM81 -7q2 0 2 -12t-2 -18q0 -2 -5 -4.5t-10.5 -4t-9 -0.5t-1.5 8q2 8 10.5 19t15.5 12z" />
    <glyph glyph-name="hyphen" unicode="-" horiz-adv-x="500" 
d="M346 405q11 3 23.5 -2.5t19.5 -9.5q13 -7 26.5 -20t8.5 -33q-4 -16 -18.5 -27.5t-29.5 -16.5q-6 -2 -16.5 -4.5t-15.5 0.5q-6 3 -7.5 9t-2 13t-2.5 13t-8 8q-12 4 -17.5 -3t-7.5 -17q0 -6 0.5 -14.5t-4.5 -10.5q-4 0 -5.5 4t-2.5 9.5t-1 11.5t-1 9q-3 11 -14.5 12.5
t-14.5 -10.5q-1 -8 -1.5 -20.5t-5.5 -13.5t-6.5 4.5t-2.5 12.5t-1 14t-1 10q-2 5 -8.5 8t-9.5 -4q-3 -6 -2.5 -19t-5.5 -13q-6 -1 -7 5t-1 13.5t-0.5 14t-6.5 6.5t-7.5 -5.5t-1.5 -12.5v-13t-4 -7q-7 -2 -7.5 5.5t-1.5 11.5q-3 11 -10.5 12t-16.5 -2t-18 -8t-15 -6
q-10 -4 -22 -0.5t-9 17.5q1 6 8 6.5t15 0.5t14 0.5t5 6.5q0 5 -8.5 7.5t-11.5 4.5q-3 1 -8 4.5t-8 8t-4 9t4 8.5t12 1.5t11 -5.5q10 -7 20 -15.5t23 -10.5q8 -2 10.5 -0.5t4.5 5.5q1 3 1 7.5v9.5t1 8.5t4 3.5q5 0 6 -6t1.5 -13t3 -12t10.5 -3q4 0 5 7.5t1.5 16t2.5 14t8 2.5
q5 -2 5 -9t-0.5 -14.5t1.5 -13t11 -3.5q5 0 6 7t1.5 15t2 14t8.5 4q4 0 5 -4t0.5 -9.5l-1 -11t0.5 -9.5q2 -8 10.5 -9t13.5 7q2 4 2 10.5v12.5t2 10.5t7 4.5q4 -1 5.5 -6t1.5 -11.5v-12.5t2 -8q5 -5 13 -5.5t13 4.5q5 4 7 10t3.5 12t3.5 11t7 7z" />
    <glyph glyph-name="period" unicode="." horiz-adv-x="441" 
d="M189 170q8 0 15 -4l14 -8q3 -2 9.5 -5.5t6.5 -5.5q0 -3 -7.5 -3t-14.5 -1t-12.5 -2t-10.5 -3t-6 0q-5 3 -5.5 12t1.5 14q2 6 10 6zM229 134q18 1 36 -4.5t33.5 -15.5t27 -23t17.5 -28q8 -19 8.5 -39.5t-1.5 -37.5q0 -3 -1.5 -9.5t-4 -12.5t-5.5 -9.5t-6 -0.5
q-2 2 -4.5 7.5t-4.5 10.5q-1 2 -5 8.5t-7 4.5q-2 -2 -0.5 -7t3.5 -9q3 -5 4.5 -12t-4.5 -5q-3 0 -7 4q-6 6 -12.5 14t-11.5 15q-13 16 -27 27q-4 3 -10.5 7t-11.5 1q-4 -2 -7.5 -8t-5.5 -11q-2 -3 -4.5 -7.5t-6 -8t-6.5 -4t-6 4.5q-2 3 -2.5 13t0.5 14q0 2 1 5t0 3
q-2 0 -4 -1t-3 -1q-14 -7 -20.5 -25t-4.5 -39q1 -9 4.5 -20t9 -20.5t13 -15.5t17.5 -5q11 0 19 8t14 18l10.5 18t7.5 8q6 0 7.5 -7t3.5 -11q4 -9 11.5 -10.5t18.5 -0.5q2 0 6 0.5t7.5 0t4.5 -2t-2 -5.5q-19 -19 -47 -28t-53 -12q-45 -2 -78.5 25t-44.5 69q-5 15 -5.5 32.5
t2.5 31.5q7 27 24 49.5t40 37.5q14 9 32.5 13.5t40.5 5.5z" />
    <glyph glyph-name="slash" unicode="/" horiz-adv-x="592" 
d="M517 727q8 0 13.5 -3.5t2.5 -11.5q-2 -6 -9.5 -6.5t-9.5 -6.5q-2 -5 1 -10t2 -11q-1 -5 -4 -6.5t-6 -2.5t-8 -1.5t-6 -5.5q-2 -4 1.5 -8t3.5 -10q-1 -8 -5.5 -11.5t-9.5 -6t-9 -6t-5 -10.5q-1 -5 -0.5 -8.5t-0.5 -9.5q-2 -13 -9 -24t-13 -23l-25 -48l-26.5 -51t-27.5 -50
q-5 -6 -7.5 -13t-7.5 -14q-3 -7 -7 -13t-7 -13q-12 -26 -25.5 -50.5t-27.5 -47.5q-7 -11 -12.5 -22.5t-12.5 -22.5q-20 -32 -38.5 -66l-36.5 -67q-6 -11 -13.5 -21.5l-14.5 -20.5q-11 -17 -27.5 -28.5t-42.5 -24.5q-8 -4 -17 -7t-10 2t9 11t12 8q5 3 12.5 10t6.5 10
q-1 4 -7 0.5t-7 -4.5q-8 -5 -13.5 -9t-13.5 -9q-4 -3 -9.5 -5.5t-10.5 -3t-9 2t-4 10.5q0 7 3 13t6 10q7 10 19 20t25 18q14 9 31 18t28 22q10 12 17.5 25.5t16.5 27.5q39 61 76 130q7 13 14 23.5t12 22.5l51 90t49 92q16 27 29.5 58t37.5 54q5 4 8 5t5 5q2 5 -0.5 8t-1.5 9
q1 8 11 12q3 2 6.5 3t5.5 3q2 5 -0.5 10t-2.5 10q0 8 8 14q3 2 7 3t7 4q2 2 2 6t2 8q2 5 7 9.5t12 5.5z" />
    <glyph glyph-name="zero" unicode="0" horiz-adv-x="667" 
d="M324 -6q-42 0 -75 17t-55 44.5t-30.5 62.5t-0.5 71q2 11 6 19.5t8.5 16.5t8.5 17.5t6 23.5t0 28t3 31q2 10 11.5 14.5t18.5 -5.5q6 -7 8.5 -19.5t2.5 -27t-2.5 -29t-5.5 -26.5q-5 -16 -14 -28.5t-9 -28.5q0 -5 1.5 -7t-0.5 -4q-4 -5 -9.5 -10t-9.5 -8q-5 -7 -4.5 -17
t8.5 -16q7 -8 18.5 -12t25.5 -6q5 0 10.5 -1t6.5 1q1 5 -7 6.5t-7 1.5q-7 1 -17.5 4.5t-18.5 8.5t-11 12.5t5 16.5l16 12q17 11 33 25t34 27q3 2 7 5.5t8.5 6.5t8.5 3t6 -4q2 -3 1 -7.5t-2 -6.5q-9 -14 -24 -23.5t-27 -19.5q-5 -5 -12 -11t-13 -13q-2 -1 -3 -3q-3 -3 -2 -6
q2 -2 8 4l8 8q14 14 31 22q18 9 36 2.5t28 -13.5q14 -11 20 -31t3 -40q-5 -20 -15 -33.5t-24 -21.5q-1 0 -3.5 -0.5t-5.5 -1t-5 -1.5t-1 -3t3 -3t10 0q16 2 29.5 17.5t17.5 29.5q5 16 5.5 33t-4.5 31q-1 3 -3 6t-2 6q0 4 8 12.5t10 12.5q17 18 28.5 41t21.5 47l19 57.5
t16 61.5q5 26 7 45t4 45q1 8 3 14.5t6 7.5q6 1 8.5 -4.5t3 -14.5t0.5 -18.5v-14.5q0 -29 -3 -61t-5 -65q-1 -10 -1.5 -13t1.5 -7q1 -2 5.5 -4t8.5 -4l25 -9.5t21 -12.5q12 -10 21.5 -26.5t11.5 -36.5q1 -7 -1.5 -13t-7 -9.5t-10 -3t-10.5 7.5l-4.5 7t-4.5 2q-2 0 -1.5 -5.5
t0.5 -7.5q0 -7 -0.5 -15t-4.5 -11q-6 -8 -17 -5t-17 9q-2 1 -2.5 3.5t-2.5 4.5q-2 3 -3 5q-8 -36 -24 -63t-42 -56q-17 -19 -42.5 -34.5t-64.5 -15.5zM171 263q-6 -2 -8 4q-3 9 -3.5 25t-0.5 26v30.5t0.5 25t2.5 26t6 33.5q1 4 -6 5t-16 4q-11 3 -23 8.5t-19 13.5
q-8 10 -15 26.5t1 34.5q3 7 11.5 7t14.5 -5q2 -2 7.5 -9t8.5 -5q2 1 -0.5 9t-2.5 11q-2 11 0.5 22t13.5 11q5 0 10 -3.5t7 -3.5q1 0 6 8.5l12 20l14 22.5t12 17q38 46 91.5 67.5t113.5 -1.5q37 -14 61.5 -46t28.5 -80q1 -21 -4 -36t-13 -28.5t-16.5 -26t-12.5 -28.5
q-2 -6 -3 -15.5t-3.5 -18t-7 -13.5t-12.5 -3q-13 4 -14 19.5t1 30.5q2 14 9 29.5t14.5 29.5t14 25t6.5 17t-2.5 12t-0.5 11q2 6 7.5 11.5t6.5 14.5q1 17 -15.5 27.5t-34.5 14.5q-4 1 -10.5 0.5t-6.5 -4.5t6 -3.5t9 -0.5l15 -4.5t15 -7t11 -10.5t3 -13q-2 -12 -12 -20
t-16 -18l-16.5 -23t-16.5 -26q-5 -9 -7.5 -16t-12.5 -8q-9 0 -10.5 5.5t0.5 13t5.5 14.5t5.5 10q10 15 21.5 28t21.5 28q3 5 -1 3.5t-6 -3.5q-9 -6 -21 -10.5t-25.5 -6.5t-27 -0.5t-25.5 6.5q-11 5 -20 18t-8 30q2 14 11.5 26.5t18.5 17.5q6 4 13 8t14 6q9 3 15 2t5 4
t-10 3.5t-12 -2.5q-16 -4 -32 -15t-23 -23q-8 -14 -10.5 -26t6.5 -29l9 -14q5 -5 5 -8t-2.5 -5t-3.5 -3q-19 -15 -34 -31t-30 -39q-11 -17 -20.5 -34.5t-13.5 -38.5q-4 -18 -7.5 -39.5t-5.5 -42.5q-2 -17 -2.5 -33t-2.5 -33q-1 -6 -3 -8t-4 -2zM149 268q-4 -1 -7 1.5
t-5 13.5q-4 22 -5.5 50t-1.5 48v17.5t1 18.5q0 11 1 21q1 0 5 -1t8.5 -2t8.5 -2t5 -2q2 -2 -1.5 -18t-4.5 -47q-1 -26 -0.5 -45t1.5 -38v-7q-2 -8 -5 -8zM513 285l-9 3.5t-4 2.5q-1 2 -0.5 5t0.5 4q2 33 5 68.5t2 69.5q0 6 -0.5 16.5t6.5 11.5q3 0 6.5 -2t5.5 -8
q2 -10 3 -23t1 -26v-63q0 -6 -0.5 -16.5l-1 -21t-1 -18t-1.5 -7.5z" />
    <glyph glyph-name="one" unicode="1" horiz-adv-x="524" 
d="M292 713q23 4 40.5 -5.5t22.5 -22.5q7 -20 6 -50.5t0 -59.5q0 -18 2 -33.5t7 -33.5q2 -8 5.5 -17.5t4.5 -17.5q3 -25 -1.5 -49t-15.5 -43t-28 -31.5t-40 -14.5q-17 -2 -25 7t-10 22.5t0 29.5t5 29q0 3 1 5v5q-2 1 -4 -2t-3.5 -7.5t-3 -8.5t-2.5 -5q-16 -43 -37 -72
q-2 -3 -6.5 -7t-10 -6.5t-9.5 -1.5t-5 7q-1 7 3 10t7 7q6 8 11 17t10 20l52 116q2 5 5 11.5t10 4.5q5 -2 8 -14t4 -20q0 -3 1 -8.5t1.5 -11.5t2 -10.5t3.5 -5.5q7 -2 5 7t-3 17q-1 12 -3.5 26.5t-6.5 21.5q-2 5 -4 8.5t-2 11.5t1 11.5t1 11.5q0 15 0.5 34t-1.5 32q-1 7 -6 8
t-11.5 -1.5t-13 -6.5t-9.5 -6q-32 -20 -66 -45.5t-68 -48.5q-6 -4 -14.5 -6.5t-17 -2.5t-15.5 4t-9 14q-3 11 1.5 21.5t13.5 19.5t20 17t21 14l61 40.5l60 40.5q17 11 27 16t28 8zM389 422q1 0 1.5 -3.5t0.5 -5.5q2 -42 -10 -79t-26 -67q-4 -8 -7.5 -20.5t4.5 -14.5t14 0.5
t14 -1.5q12 -6 13.5 -22.5t-8.5 -25.5q-2 -2 -8 -5t-11 -6.5t-7 -7.5t5 -8q9 -5 16.5 -7.5t13.5 -11.5q10 -15 -1.5 -26.5t-25.5 -13.5t-28 0t-27 7.5t-22 14t-12 20.5l-1 27v8.5t-1 11t-2.5 9.5t-4.5 4t-4.5 -6t-1.5 -11q0 -28 3 -50q5 -35 13.5 -60.5t16.5 -54.5
q3 -10 0 -19t-17 -5q-6 1 -9.5 7.5t-6.5 14.5t-5.5 16.5t-4.5 14.5q-7 24 -11 41t-8 43q-3 20 -4 27.5t-1 16.5q0 40 6 74t17 65l4.5 13t5.5 7q4 0 7 -3t12 -5q18 -5 39 2.5t30 17.5q14 14 21.5 31t13.5 34q1 2 1.5 7t2.5 5zM310 92q1 1 6.5 -1t7.5 -2q5 -1 11.5 -1.5
t8.5 -2.5q2 -1 2.5 -8.5t1.5 -10.5q2 -10 7 -21.5t8 -22.5q5 -16 -3.5 -21.5t-18.5 4.5q-9 11 -18 30.5t-11 35.5l-2 13.5t0 7.5z" />
    <glyph glyph-name="two" unicode="2" horiz-adv-x="611" 
d="M282 713q43 0 83 -12t69.5 -37.5t45 -65.5t10.5 -94q-5 -33 -17 -66.5t-32 -59.5l-11 -13q-7 -1 -11 -4t-12 -11q-5 -5 -8 -11.5t-5 -7.5t-6 6t-9 9q-10 5 -20.5 0.5t-16.5 -11.5q-8 -8 -11.5 -18.5t-6.5 -24.5q-2 -11 -4 -27t-11 -21q-7 -5 -18 -5.5t-19 -2.5
q-45 -8 -68 -29.5t-37 -59.5q-5 -14 -7 -25t-1 -29q0 -6 2 -12.5t7 -5.5q3 1 0.5 16t2.5 32q8 30 25 56.5t48 37.5q8 3 20 4t24 2.5t22.5 4.5t15.5 11q6 9 7 24t4 27q1 5 4 14t7.5 16.5t10.5 12t15 1.5q2 -1 5 -5t4 -7q2 -5 4.5 -16t7.5 -10q3 0 5 7t4 15q2 11 10.5 21.5
t18.5 13.5q10 2 14 -3.5t5.5 -14.5t1.5 -18.5t2 -15.5q4 -11 13.5 -17.5t11.5 -19.5q3 -18 -5.5 -30t-20.5 -21.5t-22.5 -19t-12.5 -23.5q-3 -14 -2 -26.5t3 -29.5l7 -53v-5t1 -6q0 -4 1 -7q-1 -2 -10 0t-11 4t-2.5 8t-1.5 11l-7 55q-1 5 -2 14t-5 9q-5 0 -5.5 -7t0.5 -18
t3.5 -23.5t4.5 -24.5q1 -6 2.5 -11.5t-0.5 -7.5t-11 3t-11 10q-2 7 -4 17.5t-4 19.5q-1 6 -2.5 17t-6.5 12q-8 0 -6 -11.5t4 -18.5l2 -8t-2 -5q-4 -1 -6 2t-6 7q-7 7 -18 11t-22 5q-30 2 -46.5 -5.5t-27.5 -18.5q-5 -5 -9.5 -12.5t0.5 -9.5q2 -1 6 5.5t9 10.5q8 7 16 11
t19 6q38 5 61 -7q11 -5 17.5 -15t15.5 -21q6 -7 17.5 -11.5t26 -7.5t29.5 -5.5l28 -4.5q9 -1 18 -4t11 -11t-5 -11.5t-15 -3.5q-21 0 -43 1.5t-44 1.5h-89q-22 0 -47 -1t-48.5 0t-43 5t-30.5 14q-10 9 -13 24.5t-2 35.5q1 32 13.5 59.5t30.5 52t40.5 46l45.5 42.5l83 77.5
t67 81.5q11 20 19 41t8 49q0 27 -11 49.5t-30 39t-44.5 24.5t-53.5 7q-24 -1 -47 -13q-21 -11 -31 -27t-16 -32t-12 -29t-20 -17q-15 -5 -27.5 3.5t-14.5 22.5q-1 13 3.5 28.5t12 30t17 28t18.5 22.5q20 22 52.5 35t64.5 13z" />
    <glyph glyph-name="three" unicode="3" horiz-adv-x="655" 
d="M318 710q44 3 80.5 -10.5t62.5 -32.5q18 -12 32 -33t23.5 -45.5t14 -50t2.5 -45.5q-2 -22 -6 -41.5t-14 -39.5q-3 -6 -11 -15.5t-12 -7.5q-5 2 -7 13t-4 18q-2 8 -7.5 19t-12.5 19q-2 2 -7.5 4.5t-7.5 -2.5q-2 -4 4 -9t8 -9q3 -5 7 -14t6.5 -19.5t1.5 -20t-9 -15.5
q-5 -4 -17 -6t-26 -4q-26 -3 -53 -7t-47 -9l-25.5 -8.5t-27.5 -6.5q-10 0 -18 5t-7 14q1 11 16 17.5t29 9.5q16 3 29.5 5t29.5 3q4 0 11.5 1t14.5 3t12 5t4 8q0 5 -5.5 7t-10.5 7q-6 5 -13 14t-9 16q-8 23 -2.5 45t19.5 33q11 7 27.5 10t35.5 4q5 0 10.5 -0.5t6.5 3.5
q0 5 -6 6t-11 1q-11 0 -18 -0.5t-15 -2.5q-5 -1 -10.5 -3t-9.5 -1q-5 1 -3.5 7t-1.5 15q-2 6 -7 10t-11.5 7t-13 6.5t-10.5 8.5q-4 8 -5 14.5t-6 12.5q-7 7 -24.5 16.5t-31.5 8.5q-11 0 -9 -6q1 -2 6.5 -2.5t10.5 -2.5q8 -2 18.5 -6.5t16.5 -10.5q8 -8 10 -18t8 -16
q3 -3 9 -6l12 -6t11 -6.5t7 -9.5q2 -8 -1.5 -11.5t-9.5 -4.5t-12.5 0.5t-11.5 3.5q-10 4 -16.5 9.5t-13.5 12.5q-8 8 -13.5 15.5t-13.5 12.5q-9 5 -19.5 5.5t-22.5 4.5q-3 1 -8.5 3.5t-7.5 1.5q-6 -5 1.5 -9.5t10.5 -6.5q7 -2 21.5 -4t16.5 -5q2 -7 -3.5 -22t-9.5 -21
q-6 -9 -15.5 -19t-17.5 -14q-16 -8 -21.5 1.5t-4.5 25.5q0 5 3 15.5t1 12.5t-5.5 -2.5t-5.5 -7.5q-3 -5 -11 -10t-16 -7t-14.5 1.5t-7.5 16.5q0 13 6.5 28t11.5 25q15 28 42 50.5t56 34.5q15 8 31.5 11t36.5 5zM503 382q2 0 7.5 -8.5t6.5 -10.5q19 -30 31.5 -71.5
t12.5 -91.5q0 -46 -10 -76t-33 -56q-18 -20 -39.5 -34t-45.5 -26q-36 -11 -83.5 -13.5t-89.5 5.5q-32 6 -62 28.5t-47 48.5q-16 24 -29.5 51.5t-17.5 60.5q-2 16 1 30t11 23.5t20 14t29 0.5q11 -2 19.5 -9.5t14.5 -17.5t10.5 -21.5t7.5 -21.5q9 -32 25.5 -56.5t47.5 -36.5
q13 -5 29.5 -7.5t34 -3t35 2t31.5 8.5q34 14 53 39t25.5 55.5t3.5 62.5t-12 61q-5 11 -9 18.5l-10 18.5q-1 2 -5.5 7t-3.5 5q14 2 25 9t16 12z" />
    <glyph glyph-name="four" unicode="4" horiz-adv-x="621" 
d="M402 707q31 2 46.5 -13t20.5 -41q3 -14 -1 -22q-5 -11 -14.5 -23l-15.5 -19q-1 -1 -3 -3.5t-3 -5t-1 -4.5t4 -2q5 -1 9.5 5.5t7.5 9.5q8 9 14 17.5t14 16.5q6 7 12 10.5t12 1.5q4 -1 4.5 -11.5t0.5 -18.5q1 -14 1 -28.5t2 -28.5l2 -52t6 -53q0 -4 2.5 -12.5t2.5 -16
t-3 -12.5t-13 -1q-7 4 -12 13.5t-7 20.5q-2 18 -3 35.5t-3 40.5v8.5t-1 10.5q0 2 -0.5 9t-5.5 7q-4 0 -5.5 -6t-2 -14l-1 -16t-1.5 -12q-4 -20 -20.5 -32.5t-35.5 -10.5q-14 1 -24.5 9.5t-18.5 20.5t-12.5 26.5t-4.5 27.5q-1 33 5 52.5t16 29.5l7.5 7.5t4.5 6.5t-2.5 4
t-7.5 0q-17 -8 -24.5 -30.5t-10.5 -40.5q-8 -13 -17.5 -24t-16.5 -21q-12 -15 -22.5 -29.5l-21.5 -28.5l-47 -65t-50 -65l-21.5 -28t-20.5 -30q-4 -5 -9 -15t5 -15q9 -2 18.5 -0.5t19.5 0.5t21 -1.5t19.5 -3.5t12 -9.5t0.5 -19.5q-2 -8 -11.5 -12t-21.5 -6q-23 -1 -44 -1
t-37.5 5t-26.5 17t-10 35q0 19 14 44.5t33 52t39 50.5l32 39q29 35 55 72l55 77l27.5 41t27.5 40q12 14 26.5 27t34.5 13zM349 493q2 1 6.5 -8t7.5 -13q10 -14 27.5 -23.5t43.5 -1.5q6 2 15 7t11 3q2 -1 2 -4v-6q-2 -60 -0.5 -116t1.5 -112q0 -25 -1.5 -45t-1.5 -43
q0 -37 -3.5 -72.5t-22.5 -54.5q-3 -3 -10.5 -6t-15 -2.5t-13 4.5t-3.5 14q2 14 9 19t10 16q1 5 1.5 11t0.5 11q2 26 1.5 50t1.5 61q0 6 0.5 15.5t-3.5 9.5q-2 0 -6 -5t-7 -8q-13 -14 -29 -26t-42 -6q-21 4 -40 19l-21.5 19t-9.5 27q3 9 12.5 10.5t20.5 -1.5q6 -1 15 -4t10 4
q1 5 -8.5 9t-15.5 9t-12.5 9.5t-11.5 13.5q-5 13 2.5 25t17.5 13q16 1 29 -5q8 -2 17.5 -6.5t13.5 6.5q1 3 0.5 6t-0.5 7v15t-0.5 31.5t-0.5 40v39.5t0.5 30.5t1.5 13.5zM403 180q3 0 2 -8.5t-1 -13.5q-2 -23 -1 -48.5t-2 -48.5q-1 -13 -8.5 -21.5t-10.5 -19.5q-2 -3 -1 -6
t-1 -6q-2 -5 -9 -8.5t-14.5 -4t-13.5 3t-6 12.5q0 8 3.5 13t7.5 9.5t8 9.5t5 12q2 17 1.5 35.5t0.5 37.5v11.5t1 12.5q2 2 6.5 3.5t12.5 6.5q5 3 11 9.5t9 8.5z" />
    <glyph glyph-name="five" unicode="5" horiz-adv-x="631" 
d="M411 759q12 1 21.5 -11t13.5 -20q3 -7 7 -15t9 -7q4 2 3 10t-1 12q0 9 5 19t19 2q13 -8 23.5 -27t15.5 -35q5 -18 2 -35.5t-11.5 -32t-22.5 -25t-30 -13.5q-11 -2 -21.5 1.5t-23.5 0.5q-5 0 -8 -5t-5 -11.5t-3 -13.5t-2 -13l-8.5 -44.5t-7.5 -45.5q-1 -5 -1.5 -11
t-2.5 -7h-11.5t-11.5 1q-1 2 0 6.5t2 8.5q5 30 10.5 55.5t8.5 55.5q1 5 1 10.5t-5 5.5q-8 0 -8.5 -8.5t-2.5 -17.5q-1 -10 -2.5 -19.5l-3.5 -22.5l-8 -48q-1 -4 -3 -14t-4 -12h-8h-15.5t-15.5 1t-8 2q-2 1 -0.5 4l2.5 5q9 22 17 49t6 58q-2 33 -18 56.5t-44 31.5t-46.5 0.5
t-29.5 -18.5l-13 -14q-5 -5 -5 -2.5t2 7t5 10t4 7.5l11 21t14 21t18.5 17t24.5 9q27 4 58 1.5t57 0.5q19 0 26 14q3 6 4 13.5t3.5 14.5t6 12t11.5 5zM293 605q11 -15 14.5 -35t2 -41t-7 -41.5t-12.5 -35.5q-2 -5 -5 -13.5t-1 -10.5q1 -2 10.5 -3t21.5 -1.5t22.5 -0.5h13.5
q16 0 39 -1.5t32 -8.5q7 -6 5 -15q0 -8 -13.5 -9.5t-21.5 -1.5q-21 0 -42.5 1t-43.5 4l-82 10q-13 1 -13 4q0 11 2.5 22t4.5 25q2 11 3.5 20.5t2.5 19.5q0 3 0.5 9.5t-1.5 7.5q-6 2 -7 -5.5t-2 -12.5q-2 -16 -4.5 -28.5t-4.5 -24.5q-2 -9 -3.5 -18.5t-4.5 -11.5t-8.5 -0.5
t-8.5 2.5t-8 3t-10.5 3.5t-9.5 2t-5 -1.5q-1 -4 3 -5.5t8 -3.5q23 -9 50.5 -14l56.5 -10q53 -8 100 -18t84 -32t65.5 -57t35.5 -88q4 -37 -10.5 -69t-33.5 -54q-18 -21 -41 -35t-48 -22.5t-51 -11.5t-51 -2q-36 1 -63.5 9t-48.5 22t-36 32.5t-27 39.5q-17 32 -24 68
q-3 14 -2.5 28.5t13.5 16.5q14 3 24.5 -2t17.5 -12.5t11.5 -16.5l7.5 -15q13 -32 33 -56.5t49 -38.5q26 -11 45 -13t48 5q26 6 48.5 19t38.5 32q10 11 18 27.5t7 39.5q0 19 -8.5 39t-17.5 31q-5 6 -12 11.5t-12 10.5q-18 13 -43 22t-52 15t-54 10t-48 9q-17 5 -34.5 7.5
t-34.5 8.5q-20 7 -40 18.5t-27 31.5q-8 20 -1.5 41.5t19.5 29.5q5 3 9 2t4 2q1 14 4 30.5t7 27.5q6 16 14.5 33t19.5 31.5t25 25t31 14.5t37.5 -4.5t30.5 -22.5z" />
    <glyph glyph-name="six" unicode="6" horiz-adv-x="726" 
d="M473 712q10 0 19.5 -3t5.5 -14q-4 -10 -19 -15t-25 -10q-32 -17 -62.5 -37t-52.5 -46q-1 -1 -6 -6.5t-6 -1.5q-1 3 -3.5 13.5t-4.5 15.5q-1 3 -2.5 7t-1.5 5q1 5 8.5 10.5l11.5 8.5q26 23 63 45.5t75 27.5zM508 676q12 2 20 -1.5t9 -11.5q1 -6 -3 -12t-10 -11t-12.5 -8.5
t-10.5 -4.5q-11 -5 -27.5 -16.5l-30.5 -21.5q-26 -19 -51.5 -40t-45.5 -49q-66 -80 -66 -189q0 -3 0.5 -9.5l1 -12.5t0 -10t-1.5 -3q-20 8 -39.5 11.5t-39.5 -7.5t-33.5 -30t-15.5 -42q-1 -4 -1.5 -10.5t-2.5 -8.5t-5 3.5t-5 10.5q-6 19 -13 46.5t-7 52.5q0 40 3.5 71.5
t15.5 72.5l13 42t4 45q0 10 -2 22t-3.5 24t-1.5 23t5 20q8 12 21.5 16.5t27.5 -5.5q6 -4 11.5 -14t8.5 -20q1 -3 2 -9.5t2.5 -11.5t3.5 -8t6 1q2 1 2 5.5t-0.5 10l-1 11t-0.5 7.5q-1 16 5 32t23 18q10 0 17 -5.5t10 -10.5q10 -13 16 -31.5t8 -36.5q1 -9 -1 -11.5t-10 -13.5
q-8 -10 -17.5 -25t-14.5 -26q-2 -5 -2.5 -9.5t4.5 -5.5q5 0 11.5 12t8.5 15q25 48 68.5 85t89.5 61q12 8 27.5 14.5t29.5 8.5zM412 426q61 -2 109.5 -22t74.5 -71q13 -23 19.5 -50t7.5 -56q1 -63 -27 -114t-74.5 -81.5t-106 -38t-120.5 16.5q-31 12 -60.5 33.5t-46.5 49.5
q-13 20 -21.5 44.5t-4.5 55.5q3 22 11.5 40.5t27.5 31.5q12 8 26 9.5t28 -2t26 -10.5t20 -15q9 -10 16 -23.5t9 -30.5q1 -8 3 -18t5 -19t7 -14.5t9 -3.5q3 2 0.5 11.5t-2.5 13.5l-5 36t-4 44.5t2.5 42t13.5 28.5q5 7 12.5 6t11.5 -9q4 -6 5.5 -17t1.5 -23t-0.5 -24t0.5 -21
q3 -30 4.5 -57.5t6.5 -62.5q1 -11 4.5 -25t3.5 -26t-5 -19t-21 -5q-7 0 -14.5 4t-12.5 7q-17 11 -31.5 24t-26.5 28q-2 1 -5 5.5t-6.5 8.5t-7 5t-4.5 -3t2 -9.5t7.5 -12t10 -12.5t10.5 -10q14 -14 29.5 -26.5t36.5 -20.5q15 -4 30 -2t21 14q2 5 1 14.5t2 14.5q3 4 11 6t10 3
q53 18 83.5 62t25.5 109q-2 29 -11 48.5t-25 38.5q-17 20 -41 30t-57 14q-11 1 -22.5 1.5t-20.5 3t-13.5 8.5t-1.5 20q4 14 20 17.5t33 4.5z" />
    <glyph glyph-name="seven" unicode="7" horiz-adv-x="708" 
d="M516 705q47 2 73.5 -15.5t23.5 -65.5q-1 -11 -4 -28.5t-9 -25.5q-5 -6 -15.5 -11.5t-18.5 -10.5q-15 -9 -30 -17t-15 -17q0 -8 9.5 -3t13.5 8q17 11 28 17.5t26 14.5l19 11q9 4 17 3.5t7 -14.5q-2 -11 -7 -23l-10 -23q-11 -25 -25 -48.5l-28 -48.5q-11 -20 -17.5 -35.5
t-14.5 -32.5l-10 -22t-12 -15q-13 -5 -17 3.5t-3.5 21t4.5 26t6 18.5l11 30t8 18q5 3 12.5 9t12.5 9q3 2 10.5 8t3.5 12q-3 4 -10 -1.5t-9 -6.5q-16 -12 -36.5 -22t-49.5 -8q-12 0 -24.5 4t-18.5 13q-5 7 -7 18.5t-1.5 24t2.5 24t5 19.5q4 10 10 19.5t10.5 16t4.5 10.5t-8 3
q-5 -1 -11.5 -11t-9.5 -15q-5 -10 -9.5 -24t-6 -29.5t0 -30.5t7.5 -28q7 -15 27 -23t46 -5q10 1 17.5 3t12.5 3q2 1 1 -2t-3 -7t-4.5 -8.5t-3.5 -7.5q-8 -20 -18 -41.5t-20 -39.5l-17.5 -38.5t-29.5 -59.5l-52.5 -96t-56.5 -84q-6 -8 -15 -16t-18 -13q-6 -3 -15 -5
t-17.5 -1.5t-14 5t-4.5 14.5q2 14 16.5 22t22.5 18q28 32 49.5 70.5t41.5 79.5q0 1 2.5 6t1.5 7t-6.5 0.5t-7.5 -3.5q-13 -11 -22 -17t-17.5 -9.5t-16.5 -5.5t-19 -3q-17 -2 -35 -0.5t-34.5 6t-28.5 12t-17 17.5q-5 11 -1.5 21.5t13.5 15.5q3 2 9 3.5t12 4t10.5 5t4.5 6.5
q0 5 -7.5 7.5t-11.5 6.5q-9 5 -16.5 15.5t-1.5 25.5q7 17 28.5 18.5t45.5 -3.5q11 -2 24 -5t24 -1q8 1 15 8t13 15.5t10.5 17.5t8.5 16q8 17 15 39t9 40q3 29 14.5 59t26.5 53l10.5 15t12.5 12q7 5 15.5 5.5t18.5 1.5q8 1 17.5 2t20.5 6q2 1 6 3.5t4 6.5q0 5 -7.5 3t-9.5 -3
q-13 -5 -23 -6.5t-24 -2.5q-56 -3 -114.5 -4t-112.5 7q-17 2 -34 4.5t-34 2.5q-11 0 -23 -3.5t-25 -2.5q-19 0 -27 15t4 30q17 22 54.5 27t75.5 -2l49.5 -6t48.5 -4q30 -2 57.5 0.5t53.5 5.5t52.5 6.5t55.5 5.5zM295 172q3 1 1.5 -3.5t-5 -11t-7.5 -12.5t-5 -9
q-17 -29 -37 -58t-45 -52q-7 -7 -22 -15t-32 -6q-19 3 -21.5 17t13.5 21q11 7 21 11.5t18 14.5q20 20 32.5 40.5t27.5 40.5q4 6 6.5 9t11.5 5t20.5 2.5t22.5 5.5z" />
    <glyph glyph-name="eight" unicode="8" horiz-adv-x="626" 
d="M319 707q81 0 136.5 -38.5t72.5 -101.5q5 -13 5.5 -32t-13.5 -26q-8 -6 -15 0q-8 4 -8.5 13.5t-5.5 17.5q-2 4 -7 4.5t-7 -4.5q-1 -2 -1 -8.5t-0.5 -13.5t-2.5 -12t-8 -5q-1 0 -5 9.5t-6 11.5q-7 11 -12 21.5t-6 22.5q-1 8 1.5 14t-3.5 7q-3 1 -5.5 -6t-2.5 -10
q0 -23 12 -41t20 -37q3 -7 6 -17.5t4.5 -21t0 -20.5t-6.5 -17q-6 -8 -17.5 -7t-13.5 15q-2 12 -2 23.5t-4 22.5q-5 11 -15 20.5t-15 20.5q-5 8 -10 19q-2 3 -3.5 12.5t-3.5 9.5q-3 2 -9.5 0.5t-10.5 -3.5q-4 -1 -9 -4t-8 -3q-5 1 -7.5 6.5t-8.5 11.5q-4 4 -8.5 7t-7.5 -1
q-2 -2 2.5 -5t7.5 -7q12 -15 22.5 -33t11.5 -41q0 -13 -3 -25.5t-5.5 -24.5t-3 -23t5.5 -22q7 -15 18 -31t18 -32q2 -6 3 -15.5t-9 -7.5q-9 0 -17 11q-8 12 -17 22t-17 20q-9 13 -20.5 20.5t-21.5 18.5t-17 26.5t-13.5 32t-13.5 32.5t-16 27q-3 4 -8 8t-9 1q-3 -3 2 -7.5
t7 -7.5q8 -11 13.5 -23l10.5 -23l17 -42q4 -8 8 -15t11 -14q4 -4 12.5 -11.5t8.5 -9.5q0 -1 -7 1.5t-16.5 6.5l-18.5 7.5t-13 5.5q-51 23 -80.5 60t-30.5 92q-1 26 5 47.5t16 38.5q11 18 28.5 33t38.5 26q21 13 45.5 18t54.5 5zM353 419q13 -3 24.5 -10t22.5 -12
q45 -20 82.5 -50t53.5 -78q2 -5 3 -11.5t3 -14.5q10 -50 -6.5 -95.5t-44.5 -77.5q-20 -23 -46.5 -41t-61.5 -26q-17 -4 -36 -6.5t-39 -2.5q-78 0 -132 28t-80 97q-13 35 -15.5 70t7.5 75q4 12 10.5 26t15.5 26.5t20.5 21t25.5 10.5q13 2 23 -4t8 -20q0 -10 -6 -19
q-8 -11 -18.5 -24t-15.5 -28q-5 -16 -6 -37t2 -38q2 -15 6.5 -27t12.5 -24q8 -13 15 -20.5t17 -15.5q28 -25 58.5 -31.5t64.5 -4.5q15 2 30 5t28 7q38 12 62 38.5t34 60.5q13 43 -2 78.5t-43 62.5q-9 8 -22.5 14.5t-15.5 9.5q-8 11 -16 23.5t-15 26.5q-4 7 -7.5 18.5
t-0.5 19.5z" />
    <glyph glyph-name="nine" unicode="9" horiz-adv-x="727" 
d="M529 703q10 2 17.5 -6.5t12.5 -13.5q10 -13 20 -30t12 -35q1 -17 -3.5 -29.5t-11 -23t-12.5 -21.5t-8 -24q-2 -19 -1.5 -38.5t0.5 -38.5q0 -4 -0.5 -13t-2.5 -10q-5 -2 -11 6.5t-7 10.5q-6 10 -8 24t-3.5 29t-3.5 29t-7 23q-2 5 -7.5 10.5t-9.5 7.5q-5 2 -6 -1
q-1 -2 2 -5l4 -4q11 -14 12.5 -34t4.5 -41q6 -39 30 -62q11 -11 23.5 -19.5t21.5 -22.5q6 -11 10 -26t-3 -28q-3 -5 -11.5 -8.5t-16.5 0.5q-11 5 -17 19t-16 26q-10 11 -22 18t-21 15q-6 5 -10.5 15t-5.5 24v8.5t-4 7.5q-5 1 -5 -8v-13t2 -12t4 -14q7 -17 20.5 -23.5
t26.5 -17.5q20 -18 32 -48.5t18 -55.5q5 -19 4.5 -41.5t-5.5 -39.5l-4 -10t-7 -11q-3 -5 -6.5 -9.5t-5.5 -9.5q-8 -28 2 -51.5t19 -41.5l10 -20q6 -10 3 -16t-14 -1q-8 4 -14 15l-11 21q-7 13 -15.5 27t-16.5 34q-3 8 -5.5 20.5t-1.5 20.5q1 7 7 12.5t9 11.5q7 12 11.5 25
t6.5 30q1 10 1 18t-2 21q-2 11 -4.5 21t-7.5 24q-1 2 -3 8.5t-6 6.5q-4 -2 -2 -11t3 -11q9 -28 10 -59.5t-11 -56.5q-6 -12 -14 -20.5t-15 -18.5q-10 -12 -18 -26t-13 -29q-5 -17 -5.5 -35t-3.5 -35q-1 -4 -4 -10t-9 -4q-7 1 -8.5 10.5t-0.5 17.5q1 12 0.5 24.5t-0.5 26.5
t-0.5 28t4.5 23l8 16t6 16q5 21 1.5 45.5t-9.5 41.5l-3.5 10t-5.5 9q-7 2 -13 -2t-16 -9q-26 -14 -55.5 -23t-64.5 -5q-58 7 -95 37t-59 73q-14 29 -22 68t-5 85q8 97 65 150q9 8 20.5 16.5t22.5 13.5q16 9 36 13t40.5 3.5t40 -5.5t35.5 -15q11 -6 24 -18t19 -26
q3 -8 3.5 -16.5t-1.5 -16t-8 -12t-15 -4.5q-10 1 -16.5 5.5t-11.5 11t-9.5 13.5t-10.5 12q-8 7 -19 10.5t-23 5t-23.5 0.5t-20.5 -4q-23 -8 -41 -28.5t-27 -43.5q-7 -17 -11.5 -34.5t-6.5 -39.5q-2 -32 4 -62.5t19 -56t33.5 -44t47.5 -24.5q35 -8 68 2t54 22q9 5 17 10
t13 12q5 5 7.5 12.5t4.5 14.5q4 12 10 38.5t11 57t7 58.5t-1 42t-10 27.5t-8 32.5q0 11 1 23.5t4.5 23t8.5 18t13 10.5q5 2 11.5 0.5t9.5 -5.5t6 -10t5 -12t4.5 -10t5.5 -4q4 1 5.5 11.5t2.5 14.5q1 7 7.5 12.5t13.5 6.5zM561 433l24 -19.5t22 -22.5q8 -10 15 -26t5 -31
q-1 -7 -8 -11.5t-11 3.5q-2 2 -1 5.5t0 9.5q-2 20 -11 33.5t-22 23.5q-4 3 -9 8.5t-5 8.5q0 1 0.5 7t0.5 11z" />
    <glyph glyph-name="colon" unicode=":" horiz-adv-x="381" 
d="M193 38q-32 -1 -55.5 12.5t-35.5 35t-11.5 48t16.5 51.5q2 5 9 11.5t11 8.5q16 11 37.5 12.5t41.5 -6.5q23 -8 36.5 -27.5t10.5 -52.5q-2 -20 -13.5 -37.5t-29.5 -23.5q-23 -8 -47 -0.5t-34 24.5q-6 10 -10 26.5t1 30.5q6 19 23.5 28.5t36 8.5t33 -13.5t14.5 -37.5
q0 -37 -36 -43q-6 -1 -14 0t-14 5q-7 5 -13 15t-3 23q4 14 18.5 19.5t26.5 -1.5q8 -4 7.5 -17t-10.5 -16q-2 -1 -4.5 -1t-4.5 5t2.5 10t-3.5 8q-10 3 -14 -4.5t-2 -16.5q4 -14 20.5 -14t23.5 11q12 16 3.5 33.5t-27.5 19.5q-20 2 -33.5 -10t-15.5 -26q-2 -27 14 -42
t36.5 -15.5t37.5 14t17 45.5q0 49 -49 61q-27 7 -50 -7t-30 -33q-11 -29 -1.5 -56t33.5 -41q8 -6 27 -9.5t32 -0.5q29 4 46 21.5t25 43.5q5 15 5 35t-6 34q-15 34 -29 52.5t-29 32.5l-32 28.5t-38 39.5l-14 17t-10 21q0 2 0.5 7t5.5 5q3 1 8 -7t7 -12q4 -7 6.5 -10.5
t7.5 -9.5q18 -23 39.5 -42t41 -39t34.5 -44.5t22 -58.5q4 -21 -1 -41t-13 -37q-5 -10 -11.5 -18t-14.5 -14q-11 -8 -24.5 -12.5t-33.5 -6.5zM202 330q-9 -2 -18.5 8t-14.5 16q-9 9 -15 17t-11 18q-2 3 -6 7.5t-3 9.5q0 2 2 5t5 2q3 0 7.5 -9t8.5 -13q5 -5 9.5 -10t8.5 -10
q5 -7 10 -12l10 -10q2 -2 7.5 -9.5t-0.5 -9.5zM231 336q-1 0 -3 -0.5t-4 0.5q-4 2 -1.5 12.5t4.5 12.5q2 1 6 -3t6 -8.5t0.5 -9t-8.5 -4.5zM253 347q-6 -2 -8 3q-2 4 -7 12t-5 11q-2 6 0.5 14.5t7.5 3.5q2 -3 4 -8t4 -9q1 -3 4.5 -7t5 -8t1 -7.5t-6.5 -4.5zM210 354
q-6 -1 -11 4q-6 5 -11.5 12.5l-12.5 16.5q-6 8 -13.5 15.5t-9.5 15.5q-1 3 0 9t7 4q3 -1 9 -8t12.5 -16l12.5 -17t8 -11q1 -2 4.5 -5.5t6.5 -7t3.5 -7.5t-5.5 -5zM273 361q-4 0 -5 1q-6 6 -8.5 16t-10.5 19q-2 3 -6 6.5t-5 6.5q0 5 1.5 13.5t2.5 8.5q3 1 6.5 -4.5t5.5 -7.5
q8 -9 16.5 -22t10.5 -24q0 -11 -8 -13zM217 381q-5 -2 -7.5 3t-0.5 13q2 23 6.5 47t7.5 47q1 8 2.5 17t5.5 10q5 1 7.5 -1t3 -5.5t0 -8t-1.5 -7.5q-5 -17 -7.5 -38t-5.5 -40q-1 -3 -1.5 -9t-1.5 -12t-2.5 -10.5t-4.5 -5.5zM289 389q-2 -1 -5 1t-5.5 6t-3.5 7.5t1 5.5t7 2
t8 -2q4 -2 2.5 -10t-4.5 -10zM112 396q-7 0 -7 9q1 8 6.5 15l9.5 12q17 19 33 43t30 43q2 3 10 6.5t10 -2.5q2 -4 -3 -9l-7 -7l-34.5 -47.5t-34.5 -46.5q-3 -4 -6 -10t-7 -6zM197 404q-2 -1 -4.5 2.5t-3.5 6.5q0 2 0.5 9t1 15t1.5 15.5t2 10.5q2 11 3 19t4 16q2 2 6.5 7
t6.5 4t0 -11q-4 -20 -6 -38.5l-4 -37.5q-1 -4 -1.5 -10t-5.5 -8zM292 418q-4 -1 -10 0t-11 3t-8.5 5t-2.5 7q0 2 5 3t11.5 0.5t12.5 -2t7 -3.5q2 -5 0.5 -8.5t-4.5 -4.5zM179 427q-3 -1 -6 2t-5 7t-3 8.5t1 7.5q0 1 3 4.5t6 7.5t5.5 7t3.5 3q2 0 0.5 -11l-2.5 -18
q-1 -5 -1.5 -11t-1.5 -7zM103 431q-2 0 -1.5 4.5t1.5 9.5q2 16 12 32t22 25q9 6 19 9q9 2 4.5 -3.5t-6.5 -8.5q-11 -15 -24 -30.5t-21 -32.5q-3 -5 -6 -5zM285 443q-5 0 -13 0.5t-14.5 2t-10.5 5t-2 8.5q1 3 4 2.5t8 -0.5q6 1 13 1t13.5 -1.5t10 -5t2.5 -10.5q-2 -2 -11 -2z
M284 468q-3 -1 -8.5 -0.5t-11.5 1.5t-10.5 2.5t-4.5 3.5q-3 12 8.5 13t22.5 -4q2 -1 5.5 -7t-1.5 -9zM265 492q-4 1 -8.5 2t-5.5 2q-2 2 -1 7t3 5q3 1 9.5 -3.5t6.5 -8.5q0 -5 -4 -4z" />
    <glyph glyph-name="semicolon" unicode=";" horiz-adv-x="378" 
d="M172 426q12 1 25.5 -1t14.5 -13q2 -10 -3.5 -16t-10.5 -9q-10 -7 -26 -9.5t-32 -3.5q-7 0 -18 2.5t-15 7.5q-9 11 0 19t17 12q11 5 24 8t24 3zM221 416q2 1 6 -1l8 -4q35 -21 49 -63q2 -10 3.5 -23t-0.5 -24q-2 -8 -3 -14.5t-4 -14.5t-3 -0.5v11.5v10t-1 7q-2 26 -15 53
t-31 39q-2 2 -6 3.5t-3 3.5t1 10q0 4 -1 7zM94 391q3 -10 7 -14t11 -6q4 -1 3 -6l-3 -11q-4 -14 -7 -31.5t-1 -37.5q0 -18 4 -33.5t7 -28.5q0 -1 -3.5 2.5t-6.5 5.5q-5 5 -10.5 9.5t-10.5 11.5q-8 11 -14 31t-4 40q1 22 7.5 42.5t20.5 25.5zM216 392q5 0 12.5 -7t9.5 -9
l9 -11t7 -12q4 -9 8.5 -22.5t6.5 -27.5q2 -13 2 -27.5t-5 -25.5q-2 -9 -11 -17t-17 -13l-11 -5q-4 -2 -10 -3.5t-8 0.5q-1 1 1 7q4 19 4.5 41.5t-4.5 42.5q-6 29 -17 53q-2 4 -4.5 10.5t-0.5 7.5l7.5 2.5t7.5 3.5q7 4 8.5 6.5t4.5 5.5zM179 371q2 0 4.5 -8t4.5 -13
q8 -21 14.5 -48t3.5 -57l-3 -19q0 -3 -1.5 -8.5t-3.5 -7.5q-3 -3 -12 -3.5t-14 -0.5q-8 0 -13 0.5t-11 2.5t-12 3.5t-8 4.5q-5 7 -8 20q-5 23 -6 51.5t4 50.5q1 5 3.5 16.5t6.5 11.5q2 0 10 -0.5t13 0.5q8 0 15.5 1t12.5 3zM194 127q7 1 11 -1.5t6 -7t3.5 -10t3.5 -9.5
t4 -5.5t4 -4.5q5 -9 6 -17t0 -19q0 -11 -2 -20.5t0 -19.5q6 -43 -5.5 -74.5t-35.5 -60.5q-20 -23 -45 -34t-59 -18q-14 -2 -28.5 -2h-29.5t-29 -1t-26 -6q-9 -4 -17 -11.5t-19 -9.5q-12 -2 -20 3q-5 4 -3 9t5.5 10t7 11t1.5 13q-2 5 -8.5 6t-11.5 6q-7 6 -8 16t13 12
q15 2 27.5 -5.5t26.5 -8.5q23 -3 44 7.5t38 22.5q16 11 29.5 26.5l25.5 30.5l7 10q2 2 4.5 6t5.5 5q2 1 5 -1.5t5 -4.5q1 -1 5 -4t5 1q0 1 -2.5 3t-3.5 3q-11 13 -22 30t-11 40q0 8 3 17t12 8q15 -2 24.5 -18t14.5 -29l5 -11q4 0 3.5 4.5t-2.5 10t-4.5 10.5t-2.5 6
q-1 3 1.5 13t3.5 15q2 11 4.5 23.5t6.5 21.5q4 5 11 8.5t13 4.5z" />
    <glyph glyph-name="equal" unicode="=" horiz-adv-x="935" 
d="M336 631h20.5t15.5 -1t2 -8t-2 -7q-2 -2 -9 -1.5t-10 0.5q-57 -2 -111.5 -0.5t-109.5 -0.5h-15.5t-11.5 2q-1 3 -1 7q0 7 1 8q2 1 11.5 1h12.5h207zM205 607h9t1 -3q-3 -5 -7.5 -7t-4.5 0t-0.5 6t2.5 4zM261 607q8 3 5 -11q-2 -3 -14.5 -7.5t-16.5 -6.5q-3 -1 -8.5 -4
t-11 -5t-9.5 -1.5t-4 5.5q0 9 9 11.5t14 5.5q8 4 19 7.5zM343 605q5 0 5 -7.5v-12.5q-1 -11 -0.5 -30t-0.5 -30v-14q4 0 15.5 -6t12.5 -20q1 -18 -10.5 -27.5t-25.5 -10.5t-25 8.5t-7 29.5q5 11 12 19t18 8q1 0 1.5 7.5t0.5 17.5v19v12v10.5v12.5t1 10t3 4zM658 596
q5 2 9 -5t7 -10q20 -29 38 -59.5l39 -66.5q5 -11 11 -23l12 -23q8 -10 14.5 -19.5t12.5 -20.5q3 -5 8.5 -11.5t3.5 -10.5q-2 -3 -12 -3h-13q-63 0 -130.5 1.5t-136.5 1.5q-6 0 -14 -0.5t-13 0.5t-7 4.5t4 10.5q30 38 57 82t58 82q12 15 23 32.5t22 31.5l3.5 3.5t3.5 2.5z
M597 435q1 -17 11 -28.5t24 -17t30 -4t30 10.5q10 6 15 20t6 26q0 12 -5.5 24t-15 21t-21 13.5t-23.5 2.5q-22 -4 -37 -23.5t-14 -44.5zM264 581q3 0 2 -14q0 -1 -6 -4l-14 -7l-15.5 -7.5t-10.5 -4.5q-3 -2 -9 -5t-8 -2q-1 0 -1 7.5t1 8.5l15 7.5l18 9t17 8t11 3.5zM266 550
q2 0 1.5 -8t-0.5 -12q-1 -1 -2 -1t-2 -0.5t-2 -0.5l-37 -18q-4 -2 -12 -7t-10 -3v19q1 3 7 5.5l11 4.5q9 5 20.5 10.5t19.5 8.5zM265 498q-1 -2 -6 -5l-10.5 -6t-11 -5t-8.5 -3q-5 -2 -12.5 -6.5t-13.5 -6.5q-1 0 -1.5 7.5t1.5 10.5l2 2l4 2q14 8 28 15t29 13v-9.5t-1 -8.5z
M266 481v-9.5t-2 -9.5q-1 -1 -9.5 -5.5t-13.5 -6.5q-8 -4 -18 -10.5t-20 -9.5q-1 0 -1 2.5v6t0.5 7l0.5 3.5q5 5 19.5 12.5t22.5 10.5l11.5 5.5t9.5 3.5zM266 448q1 -8 0.5 -12t-1.5 -7t-7.5 -6.5l-14.5 -7.5l-15 -7.5t-10 -4.5l-13 -6q-2 -1 -2.5 6.5t0.5 8.5q5 5 11.5 8.5
t12.5 7.5zM266 403q0 -6 -2 -8q-1 -3 -14.5 -3.5t-24.5 0.5q6 4 19 9.5t22 7.5v-6zM153 380q34 0 79 -0.5t86 1.5h13h16h15t10 -1q2 0 2 -7.5t-2 -8.5q-2 -2 -9 -1.5t-10 0.5q-9 0 -21.5 -0.5t-21.5 -0.5q-39 0 -84.5 1t-84.5 -1h-7.5h-12h-11.5h-5q-2 2 -2 8.5t2 7.5
t8.5 1.5t14 0.5h15h10.5zM263 350q0 -2 -5.5 -5t-14 -6.5t-17 -6.5t-14.5 -6q-7 -3 -8.5 -0.5t-0.5 13.5q0 3 10.5 6.5t14.5 3.5zM266 335q1 0 1 -6t-1 -11q-1 -2 -7 -5t-13.5 -6l-15 -6t-10.5 -4l-6 -3t-7 -3t-5 2t0 13q1 4 13 9l17 7q7 3 17.5 7t16.5 6zM639 331h8.5h14
h14t8.5 -1q5 -4 3.5 -17.5t-1.5 -19.5q-2 -20 -1 -41t1 -44v-45q0 -11 1.5 -22.5t-3.5 -16.5q-2 -2 -8 -2.5t-13.5 -0.5t-14 0.5t-9.5 0.5q-6 0 -16 0.5t-11 3.5q-2 1 -2.5 8.5t-0.5 12.5q2 37 1 71.5t-1 69.5v8v12.5t0.5 12t2.5 6.5q2 4 12.5 4h14.5zM266 297v-11t-3 -7
q-5 -2 -16.5 -6t-17.5 -7q-6 -2 -12.5 -5t-13.5 -5v15q0 5 7 7l38 15q5 2 11.5 5t6.5 -1zM482 270q23 3 40 -3.5t27.5 -20.5t13.5 -33.5t-3 -41.5q-6 -23 -28.5 -38t-51.5 -11q-16 2 -30.5 13t-23.5 27t-10 35.5t10 38.5q8 12 22.5 21.5t33.5 12.5zM264 266q1 0 1 -6v-6
q-1 -1 -6 -1.5l-10.5 -1t-10 -0.5t-5.5 1q-2 2 6 4.5t10 3.5q4 2 7 3t8 3zM131 238q38 2 85.5 1t93.5 -1q4 0 12.5 0.5t17.5 0.5h17t11 -1q2 -1 2 -8t-1 -7q-4 -1 -11 -1h-12q-49 3 -105 1t-107 -1q-5 0 -15.5 -0.5t-12.5 1.5q-1 1 -1 7v6q2 4 11.5 3t14.5 -1zM262 209
q6 0 2 -3t-11.5 -7t-15.5 -7t-10 -4t-11.5 -4.5t-12.5 -3.5q-1 0 -1 7.5t2 8.5l32 12q5 2 11 1.5t15 -0.5zM264 188q3 1 2.5 -8t-1.5 -10q-6 -4 -14 -7l-19 -7q-4 -2 -9.5 -5.5t-10.5 -5t-8 1t-1 13.5q2 5 12.5 8.5t15.5 6.5q8 4 15 7t18 6zM263 154q4 2 4 -3.5v-11.5
q0 -2 -9 -6.5t-20.5 -9.5t-22 -8t-12.5 -1q-1 0 -1 4.5t1 7.5q2 4 12.5 8t15.5 7q8 5 16 7.5t16 5.5zM93 109h177.5h136h107h90.5q32 0 66.5 0.5t63.5 -1.5q16 -1 30.5 0t31.5 0h16t17 1h16t14 -1q1 0 1.5 -3.5t0.5 -7.5v-7.5v-4.5q-2 -1 -7 -1h-11.5t-12.5 0.5t-10 0.5
h-448q-40 0 -80.5 -1t-79.5 1q-28 2 -59.5 0.5t-57.5 0.5q-2 0 -11.5 -0.5t-12.5 1.5q-1 0 -1 3.5v7.5t1 11q2 1 10 0.5t12 -0.5z" />
    <glyph glyph-name="question" unicode="?" horiz-adv-x="561" 
d="M272 713q42 3 73 -4.5t56 -27.5q21 -17 33.5 -34.5t19.5 -36t8 -39t0 -44.5q-3 -39 -23.5 -71.5t-45.5 -57.5q-9 -9 -21 -17t-23 -16.5t-21 -18t-16 -22.5q-3 -6 -5.5 -14.5t-2.5 -17t3 -15.5t11 -10q5 -2 11.5 -1.5l13 1t12 0t8.5 -4.5q3 -5 3 -12t-2 -12
q-4 -12 -16 -21.5t-27.5 -14t-33 -4t-31.5 7.5q-12 6 -20.5 17.5t-13 26.5t-4 32t5.5 33q3 11 8 19.5l10 17.5q19 34 41.5 68t39 68.5t20.5 70t-15 72.5q-5 12 -18.5 23.5t-30.5 14.5q-32 2 -50.5 -11t-25.5 -33q-5 -12 -4.5 -30t5.5 -32q6 -18 14 -31.5t10 -35.5
q1 -15 -5.5 -28t-17.5 -21.5t-26.5 -11.5t-31.5 2q-17 5 -29 21t-15 33q-7 26 -4 53.5t8 50.5q7 21 18.5 39.5t26.5 31.5q24 24 56 34.5t64 12.5zM284 157q26 2 45.5 -11.5t30.5 -30.5q18 -29 10.5 -60.5t-32.5 -48.5q-13 -9 -33.5 -15.5t-48.5 0.5q-16 4 -27.5 13.5t-19 22
t-11 27t-1.5 28.5q4 34 25 53.5t62 21.5z" />
    <glyph glyph-name="at" unicode="@" horiz-adv-x="793" 
d="M410 622q9 0 5 -3.5t-9 -5.5q-4 -2 -8.5 -11t-4.5 -17q0 -2 0.5 -3.5t0.5 -3.5q-2 -3 -9 -4t-11 1q-5 2 -5.5 7t1 10.5t4.5 10.5t5 7q12 12 31 12zM437 621q4 1 8.5 0t-0.5 -5l-12.5 -12t-9.5 -15q-2 -5 -4 -8t-8 0q-10 4 -6 17q4 8 13.5 14.5t18.5 8.5zM363 620
q10 2 8 -7q-2 -5 -6.5 -11.5t-4.5 -16.5q0 -3 0.5 -6.5t-0.5 -5.5q-2 -5 -13 -6t-13 6q-1 3 -0.5 6t1.5 8q2 11 9.5 21t18.5 12zM467 614q3 1 7.5 0t5.5 -3q1 -4 -3 -6.5t-6 -4.5t-4.5 -5t-4.5 -6q-1 -2 -2 -6.5t-3 -6.5q-6 -5 -15 1t-6 15q2 8 12 14t19 8zM324 610
q7 2 8 -0.5t-0.5 -6.5t-4 -8.5t-3.5 -7.5q-2 -8 -2 -15.5t-5 -12.5q-2 -2 -10 -6t-11 2q-4 6 0 18.5t8 18.5q3 5 9 11t11 7zM505 608q3 0 9 -2.5t4 -7.5q-2 -3 -6 -3.5t-6 -1.5q-9 -4 -15 -13q-1 -2 -1.5 -4.5t-2.5 -3.5q-5 -2 -12.5 0t-7.5 9q0 5 2 7q5 7 15.5 13.5
t20.5 6.5zM291 600q8 1 7 -2t-3 -7q-2 -6 -5 -13.5t-3 -16.5q0 -5 1.5 -8t0.5 -7q-2 -6 -11.5 -8t-12.5 5q-2 5 -2.5 13t1.5 14q3 9 9.5 18.5t17.5 11.5zM531 590q6 1 15.5 -1t8.5 -9q0 -5 -6 -5.5t-8 -2.5q-2 -1 -5.5 -2.5t-5.5 -3.5t-4.5 -5t-4.5 -4q-4 -2 -9.5 -1.5
t-10 3t-6.5 6.5t2 9q5 6 15 10.5t19 5.5zM255 581q5 1 4.5 -2.5t-1.5 -5.5q-4 -9 -2 -22q1 -8 3 -9.5t0 -7.5q-2 -7 -10 -9q-8 -1 -12 6.5t-3 14.5q1 10 6 21.5t15 13.5zM558 568h7.5t9 -1.5t7 -3.5t1.5 -5q-2 -5 -8 -4.5t-8 -1.5q-7 -3 -12 -10t-13 -5t-8 9q-1 10 7.5 15
t16.5 7zM219 556q8 2 7.5 -5t0.5 -12q0 -8 4 -13q2 -3 6 -5.5t3 -7.5q0 -5 -7 -9t-11 -5q-8 0 -12.5 8t-5 18.5t3 19.5t11.5 11zM577 543q5 1 12.5 0.5t11.5 -2.5q2 -1 5 -3.5t2 -5.5q-2 -3 -7.5 -3t-8.5 -1q-8 -2 -16.5 -7.5t-16.5 1.5q-4 4 -3 8t5 6.5t8.5 4.5t7.5 2z
M194 526q4 2 4 -3t1 -9q1 -5 4.5 -11.5t6.5 -8.5q2 -1 4.5 -1.5t2.5 -3.5q0 -6 -10.5 -11t-16.5 0q-5 2 -8.5 8.5t-2.5 14.5q1 5 5.5 14t9.5 11zM607 520q2 0 9 -2t8 -6q1 -5 -9 -5.5t-14 -2.5t-6.5 -6t-6.5 -5q-5 -1 -8 2.5t-3 7.5q2 8 11 12.5t19 4.5zM617 496
q7 2 16 -1.5t11 -8.5q4 -9 -2.5 -8t-12.5 1q-7 -1 -11 -5.5t-11 -5.5q-6 -2 -10.5 3t-2.5 10q3 13 23 15zM400 495q3 1 9.5 1t5.5 -1q-8 -3 -7.5 -11t6.5 -12q1 -1 -5 -1h-8q-5 0 -9.5 -2.5t-7.5 -4.5q-2 -2 -5 -6t0 -5q2 -1 3.5 1t2.5 4t2.5 3t3.5 -1t1.5 -6.5t-1.5 -6.5
q-2 -5 -11 -6t-12 5q-2 4 -2 8v7q2 15 9.5 22.5t24.5 11.5zM169 493q2 0 3.5 -3.5t2.5 -5.5t3.5 -6.5t4.5 -6.5q3 -3 8 -4t6 -4q2 -7 -4 -10.5t-12 -1.5q-14 4 -19 16t3 23q3 3 4 3zM420 492q5 1 8.5 -2t1.5 -8q-3 -7 -7.5 -7t-7 3.5t-2 8t6.5 5.5zM356 486q5 0 5.5 -4
t-0.5 -9.5t-3 -10.5t-2 -7q2 -5 4.5 -10t2.5 -10q-1 -7 -10 -9.5t-14 2.5q-8 7 -6 22.5t7 23.5q2 4 6.5 7.5t9.5 4.5zM630 467q12 2 21.5 -3t11.5 -16q3 -10 -4.5 -7.5t-13.5 2.5t-11 -2.5t-10 -3.5t-9.5 3.5t-4.5 7.5q-1 9 5.5 13.5t14.5 5.5zM152 463q2 0 4.5 -5t4.5 -7
q5 -9 15 -11q2 -1 3.5 -0.5t3.5 -1.5q5 -6 -2.5 -10t-13.5 -2q-2 1 -6.5 4t-7.5 6q-4 5 -6.5 12.5t0.5 12.5q2 2 5 2zM320 460q5 1 4 -7.5t0 -13.5q0 -2 1.5 -6t2.5 -6q2 -3 5 -6.5t3 -5.5q0 -5 -5 -8.5t-10 -3.5q-7 0 -12 7.5t-7 16.5t4.5 20.5t13.5 12.5zM476 451
q6 1 12 -2t8 -8q2 -3 3.5 -7.5t2 -8t-1 -4.5t-5.5 3t-7.5 6.5t-10.5 4.5q-2 1 -6.5 0.5t-5.5 1.5q-3 5 2 9.5t9 4.5zM504 449q2 2 5.5 -1t5.5 -6q1 -3 0.5 -9t-2.5 -6t-6.5 10t-2.5 12zM139 437q5 2 7.5 -6t9.5 -12q5 -2 9 -2.5t6 -3.5q3 -5 -1.5 -11t-7.5 -6q-6 0 -11.5 4
t-9.5 10t-5 13.5t3 13.5zM647 433q10 0 18 -6q3 -2 5.5 -8t-2.5 -8q-2 -1 -6 1q-2 1 -3 2q-8 4 -15.5 2.5t-13.5 -3.5q-4 -1 -6 1q-3 5 2 10t7 6q6 3 14 3zM290 432q5 1 6 -8.5t4 -15.5t8 -11q3 -3 5 -3t3 -4q0 -9 -13 -9q-6 0 -13 7t-9 15q-3 8 0.5 17.5t8.5 11.5zM470 426
q8 1 15.5 -5t10.5 -12q2 -3 3 -10t-3 -9q-3 -1 -8.5 4.5l-7.5 7.5q-9 6 -17 4q-2 0 -5 -1t-5 1q-2 3 2 8.5t6 7.5q6 4 9 4zM521 423q2 1 3 -2t1 -6q0 -8 -2.5 -14.5l-4.5 -11.5q-2 -3 -6.5 -6t-6.5 3t2 14l7 12q1 2 3 6.5t4 4.5zM649 407q11 1 19 -9t5 -23q-2 -9 -7 -7.5
t-10 6.5q-9 8 -19 7q-3 -1 -6.5 -0.5t-4.5 4.5q-3 11 6 16.5t17 5.5zM135 402q2 1 6 -4.5t7 -7.5q4 -2 9 -2.5t6 -2.5q3 -7 -2 -13t-11 -4q-5 2 -12 11.5t-7 15.5q0 2 1 4.5t3 2.5zM269 402q4 1 6 -6t4 -9q4 -7 10 -10t11 -8q7 -9 -0.5 -14t-15.5 -2q-8 2 -14.5 11.5
t-6.5 20.5q0 5 1 10.5t5 6.5zM463 395q10 2 19.5 -7t9.5 -20q0 -5 -1.5 -5.5t-4 1t-5 4t-4.5 3.5q-6 3 -12 1.5t-12 -1.5q-2 0 -3.5 3t-1.5 6q0 6 4.5 10t10.5 5zM524 385q2 0 3 -1q3 -5 0 -13.5t-5 -12.5q-2 -3 -8 -8t-10 -3q-2 1 -2.5 7.5t2.5 11.5l4 3q4 2 8.5 8.5
t7.5 7.5zM125 379q3 0 7.5 -7.5t9.5 -10.5q3 -2 8.5 -3t7.5 -3q3 -4 -0.5 -9t-8.5 -6q-8 -1 -17.5 7t-11.5 14q-1 4 -0.5 11t5.5 7zM632 368q13 2 24 -8.5t9 -24.5q0 -2 -2.5 -6.5t-4.5 -4.5q-3 0 -5 4t-5 7t-8 6t-8 5q-2 1 -5 1.5t-5 3.5q-3 5 1.5 10.5t8.5 6.5zM257 367
q2 1 4 -3t3 -5q2 -3 8 -9.5t14 -6.5q5 0 8 -3q5 -7 -2.5 -11.5t-12.5 -4.5q-6 1 -13.5 6.5t-9.5 10.5q-2 3 -3 14t4 12zM458 363q9 2 18 -3t12 -10q2 -4 3.5 -12.5t-3.5 -9.5q-4 0 -7 4.5t-5 6.5q-6 6 -20 8q-2 0 -4.5 -1t-4.5 1q-4 5 1.5 10.5t9.5 5.5zM526 346
q6 2 3.5 -6.5t-5.5 -11.5q-2 -2 -12 -5.5t-12 2.5q-4 7 4 9t12 4q3 2 5 4.5t5 3.5zM117 345h2q4 -1 8.5 -6t12.5 -7q2 -1 7.5 -0.5t7.5 -0.5q5 -4 1 -10t-7 -8q-4 -2 -9 0t-10 5.5t-9.5 7.5t-5.5 7q-2 3 -1.5 7t2.5 5h1zM621 338q4 2 9.5 -1.5t7.5 -5.5q5 -4 9 -11.5
t3 -15.5q-1 -6 -4.5 -15.5t-9.5 -8.5q-2 1 -2.5 7t-1.5 11q-2 5 -4 11t-6 9q-2 2 -4 2.5t-3 4.5q-1 3 1.5 7.5t4.5 5.5zM455 337q7 0 13 -2q6 -3 13 -12.5t2 -20.5q-2 -5 -4.5 -2.5t-3.5 4.5q-2 5 -8 11t-13 8q-3 1 -7.5 0t-5.5 3q-1 6 4 8.5t10 2.5zM251 331q5 0 10.5 -6.5
t13.5 -7.5q5 -1 9 0t6 0q4 -1 4 -6.5t-2 -8.5q-3 -5 -9 -5t-13 2t-12.5 5t-7.5 6q-2 5 -2.5 13t3.5 8zM532 320q5 1 4 -3t-3 -7q-2 -2 -6.5 -5t-10.5 -5t-11.5 -2t-9.5 4q-2 2 -2 5.5t2 4.5q2 2 5.5 0.5t6.5 -1.5q9 0 14.5 4t10.5 5zM119 315q2 1 3.5 -1.5t2.5 -3.5
q6 -5 10.5 -6t10.5 -2q3 0 8 1t7 -3q3 -5 -0.5 -9.5t-6.5 -5.5q-11 -2 -23 5.5t-15 15.5q-2 7 3 9zM447 312q6 1 11 -2t8 -7q5 -6 7 -14.5t1 -16.5q0 -3 -2.5 -11t-6.5 -6q-2 1 -4.5 9t-3.5 10q-5 11 -14 15q-5 2 -11 3t-1 9q6 9 16 11zM608 309q3 1 6.5 -1t5.5 -4
q5 -8 4.5 -21.5t-6.5 -21.5q-2 -2 -8.5 -6.5t-7.5 2.5q0 3 3 8t3 10q1 8 -2.5 13t-5.5 11q-2 3 2 6.5t6 3.5zM543 306q5 0 8 -5q3 -6 -1 -11.5t-10 -8.5t-13.5 -3.5t-12.5 2.5q-2 0 -3 1q-2 2 -2 4q0 4 6.5 4.5t9.5 2.5q5 2 9.5 7.5t8.5 6.5zM256 294q2 0 7 -2.5t10 -2.5
q10 -2 18.5 -1.5t7.5 -10.5q-1 -6 -8 -8.5t-15 -1.5t-15.5 4t-9.5 8t-0.5 9.5t5.5 5.5zM565 293q5 1 8 -2.5t2 -8.5q-2 -10 -13 -16t-21 -6q-3 0 -7 2t-3 5q1 2 5.5 2.5t7.5 2.5t7 5t6 6t2.5 6t5.5 4zM590 291q5 2 7.5 -5.5t1.5 -12.5q-1 -9 -8 -14.5t-16 -8.5
q-2 -1 -8.5 -1.5t-7.5 4.5q0 2 4 3.5t6 2.5q11 5 16 24q1 2 1.5 4.5t3.5 3.5zM124 284q3 1 7 -2.5t8 -5.5q5 -2 12.5 -2h12.5q4 0 5.5 -6t0.5 -8q-2 -6 -12 -5t-16 3q-3 1 -6.5 3.5t-5.5 4.5t-6 9t0 9zM431 279q9 0 14.5 -5.5t7.5 -13t0.5 -15.5t-7.5 -14q-2 -2 -5 -3.5
t-4 -0.5t0 5.5t1 7.5q-1 5 -4 10.5t-5 7.5t-4 2.5t-3 3.5q-2 7 1 11t8 4zM308 268q3 2 6.5 -0.5t3.5 -7.5q0 -4 -4 -7t-6 -5q-8 -4 -18 -4t-17 3q-2 0 -7 5.5t-1 8.5q2 1 5 0t5 -1q10 -1 17.5 1.5t15.5 6.5zM412 255q11 2 14.5 -8t0.5 -21q-2 -8 -9 -14.5t-15 -8.5
q-10 -2 -7 2t5 9q2 4 4 11t0 14q-1 3 -2.5 4t-1.5 6q1 6 11 6zM327 251q5 1 8 -1.5t2 -7.5q-1 -3 -5.5 -7t-9.5 -6q-7 -4 -16.5 -6t-16.5 3q-2 1 -6 4t-2 5q1 2 10 1t18 2q5 2 9.5 7t8.5 6zM175 250q4 1 6.5 -2.5t2.5 -8.5t-2.5 -9.5t-6.5 -5.5q-10 -2 -20 1.5t-14 7.5
q-2 2 -5.5 8t1.5 8q3 1 10 -2t12 -3q6 -1 9 2t7 4zM350 243q5 1 9.5 -2.5t5.5 -8.5q1 -4 -2 -9t-5 -7q-7 -6 -17 -11t-21 0q-2 1 -5 3.5t-2 4.5q0 2 4.5 2.5t6.5 2.5q6 3 11.5 8t9.5 10q2 2 2 4t3 3zM383 242q7 1 10 -2.5t3 -9t-2 -11t-4 -8.5q-5 -8 -14 -12.5t-17 -2.5
q-1 0 -5 1.5t-3 3.5q0 1 5 3t7 4q5 3 9 13q2 6 2 13t9 8zM189 222q4 0 5.5 -3t1 -6.5t-2.5 -7.5t-4 -5q-7 -4 -18.5 -2.5t-16.5 5.5q-2 1 -4 3.5t-3.5 5t-0.5 4.5t6 2q8 -1 13 -3t13 0q3 2 5.5 4.5t5.5 2.5zM200 196q7 2 10 -5t-1 -12q-3 -4 -9.5 -5.5t-13.5 -1t-13 3
t-9 5.5q-7 8 1.5 7t14.5 -1q6 1 10.5 4.5t9.5 4.5zM596 186q12 0 16 -14q2 -6 0 -12t-8 -7q-2 0 -1.5 2.5t-0.5 4.5q-3 11 -9.5 14.5t-6.5 5.5q0 4 4 5t6 1zM230 157q-2 -4 -7.5 -6t-12.5 -2.5t-13 0.5t-9 3l-3.5 3.5t-1.5 5.5q1 2 4 2h6q10 2 15 5.5t10 5.5q8 3 11 -4.5
t1 -12.5zM574 171q9 2 15.5 -6t4.5 -18q0 -6 -4.5 -14t-9.5 -6q-2 1 -3 12t-4 14q-2 2 -5 4.5t-3 5.5t3.5 5t5.5 3zM554 153q8 2 12 -5.5t5 -14.5q0 -5 -2.5 -15t-9.5 -8q-2 2 -1.5 5.5t-0.5 7.5q0 9 -6 15q-2 2 -3.5 3t-2.5 4q0 3 3.5 5.5t5.5 2.5zM240 153q8 2 11.5 -7.5
t-1.5 -15.5q-3 -4 -10 -6.5t-14 -2.5t-13 2.5t-7 7.5q-2 6 6 7t13 3t7.5 6t7.5 6zM530 136q20 1 20 -21q0 -9 -5.5 -16.5t-11.5 -10.5t-7.5 -0.5t-2 7t0 9.5t-0.5 9t-3.5 6.5t-1.5 6.5q0 4 4 7t8 3zM265 133q5 0 9.5 -4t4.5 -9q1 -13 -13 -18.5t-28 -0.5q-2 1 -4.5 3.5
t-1.5 5.5t3.5 3h4.5q5 1 9.5 4l7.5 5q2 3 2.5 7t5.5 4zM498 121q12 1 16 -8t1 -20q-3 -13 -14 -20q-2 -2 -7 -3t-7 2q-2 2 0 5t3 6t1.5 8t-0.5 9q-1 5 -3 6t-1 6q1 7 11 9zM293 119q6 2 9.5 -3.5t3.5 -10.5t-3.5 -10.5t-8.5 -8.5t-14.5 -4.5t-14.5 1.5q-7 4 -3 7t9 5
q4 2 9 6t7 8q2 2 2 5.5t4 4.5zM466 109q6 1 11 -3t6 -9q2 -12 -6 -22.5t-15 -12.5q-3 -1 -7.5 -1t-5.5 2q-2 4 2 11t5 12t0 9t-1 7t2 5t9 2zM318 104q5 2 10 -4t4 -11q-2 -8 -10 -14t-21 -5q-4 0 -6 4q0 1 3 3q2 1 4 1q8 5 12 11q2 4 1.5 8.5t2.5 6.5zM432 101q10 1 13 -5
t1.5 -14t-6.5 -15.5t-9 -9.5q-2 -1 -5 -1.5t-5 0.5q-2 2 1 7t4 8q1 2 1.5 6t0.5 6q-1 5 -3 11.5t7 6.5zM347 97q8 1 12.5 -2t5.5 -8t-0.5 -10.5t-5.5 -8.5q-4 -4 -10.5 -5.5t-11.5 -1.5q-2 0 -5 1.5t-4 4.5q0 3 3 5t5 4q4 5 4.5 12t6.5 9zM376 96q7 3 11.5 -3t5.5 -11
q1 -4 -0.5 -10.5t-4.5 -9.5q-2 -2 -11 -4.5t-11 2.5q-1 2 2 4t5 5q2 4 2 10q1 5 -0.5 10.5t1.5 6.5zM406 94q10 1 11 -10t-3 -19q-2 -2 -8 -6.5t-9 -2.5q-2 2 0 6l3 6q3 6 3 13q0 4 -1 8t4 5z" />
    <glyph glyph-name="A" unicode="A" horiz-adv-x="679" 
d="M240 715q10 -2 14 -10t6 -17.5t5.5 -18t11.5 -9.5q16 -5 20.5 3.5t12.5 19.5q6 7 14 11.5t17 5.5t17 -2.5t13 -11.5q7 -13 4.5 -32.5t-6.5 -32.5q-8 -20 -9.5 -38.5t0.5 -37.5t8 -39l13 -42l20.5 -60l25 -68.5l27 -71l26.5 -66.5q13 -30 28.5 -59.5t26.5 -60.5
q1 -4 3.5 -9.5t6 -10.5t8.5 -7.5t11 -0.5q8 3 10 11t4 17q1 10 -0.5 21l-3 21.5t-0.5 19.5t8 14t12.5 3t9.5 -7.5t6.5 -12.5t3.5 -12q2 -11 3 -28t-3 -31q-3 -12 -9.5 -24t-16.5 -21.5t-24 -14t-30 -1.5q-8 1 -7.5 6.5t-4.5 11.5q-13 15 -30 30.5t-35 29.5q-2 1 -5.5 4t-7 5
t-6.5 2t-3 -5t7 -11.5t12 -10.5q6 -5 16.5 -13t20.5 -16.5t16 -17t3 -14.5q-2 -4 -9 -5t-15.5 -1t-16.5 0.5t-10 0.5q-35 1 -66 0t-55 -1.5t-39.5 1t-17.5 9.5q-4 16 7 21.5t22 7.5q13 2 26.5 1.5t26.5 -1.5q11 -1 20.5 -1.5t15.5 2.5t1.5 7t-8.5 8q-12 12 -26 24t-26 25.5
t-20.5 29.5t-10.5 37q-3 23 7.5 44.5t37.5 26.5q17 2 33 -5.5t27 -15.5q3 -3 7.5 -8t7.5 -2q5 5 -3 14q-5 5 -10 8.5t-13 8.5t-19.5 9t-24.5 4q-4 0 -11.5 -1t-11.5 -3q-1 1 -2 3l-3 6q-12 24 -19.5 45t-5.5 26l16 78l2.5 10t2.5 11.5t0.5 9t-4.5 2.5q-6 -1 -8.5 -12.5
t-3.5 -14.5q-20 -90 -42.5 -174l-45.5 -169q-4 -14 -11 -32.5t-16 -29.5q-4 -4 -11 -7.5t-15 -4.5t-15 1t-10 9q-4 14 4.5 23l14.5 15q5 5 12 18t10 23l28.5 107l27.5 107l27 108q6 26 5 36q-1 7 -8 8.5t-9 -5.5l-53.5 -193.5l-56.5 -199.5q-5 -18 -10.5 -27t-13.5 -17
q-5 -5 -12.5 -7.5t-15 -2.5t-14 3.5t-8.5 11.5q-3 11 6 20q8 8 14 13t11 16l9 25.5t9 27.5q16 62 32.5 115l33.5 110q11 38 20 73.5l20 77.5q5 13 4 24t-5 22q-12 20 -21.5 41.5t-8.5 55.5q1 17 2.5 26.5t6.5 21.5q6 12 13.5 22.5t20.5 7.5z" />
    <glyph glyph-name="B" unicode="B" horiz-adv-x="668" 
d="M299 708q35 0 66 -4t55 -15q31 -14 59 -39t38 -55q8 -26 9 -41t0 -32q0 -11 -2.5 -21.5t-5.5 -20.5q-5 -14 -12 -28t-17.5 -25.5t-24 -18.5t-30.5 -7q-11 0 -20.5 9t-5.5 23t12 23.5t13 19.5q11 16 16 39t-3 46q-10 30 -40 50t-65 27q-11 2 -25 4t-28 1.5t-26.5 -4
t-21.5 -10.5q-13 -11 -15.5 -28t-3.5 -40q-2 -51 0 -100.5t2 -97.5q0 -7 5 -5q33 6 69.5 9.5t71.5 -7.5q29 -8 56.5 -29t40.5 -47q5 -10 3 -12.5l-7 -8.5q-3 -4 -3.5 -9.5t-2.5 -5.5q-3 0 -8.5 7.5t-16.5 15.5q-6 5 -16 8.5t-18 3.5q-9 0 -16.5 -5t-12.5 -13
q-6 -11 -8.5 -25t-2.5 -30q0 -7 2 -15q2 -10 7 -8q4 2 3 14t0 20q1 9 3.5 19.5t7.5 18t13.5 10.5t21.5 -2q11 -5 22.5 -15t19.5 -21l4 -6t5 -3q5 0 1.5 7.5t-2.5 14.5q2 11 11.5 18.5t19.5 6.5q12 -2 26 -14.5t20 -23.5q12 -18 16 -46t-7 -51q-7 -14 -22 -24t-32 -15
q-13 -5 -27 -5h-32h-4.5t-3.5 -1q-1 -4 4.5 -5.5t13.5 -2.5t16 -0.5t12 0.5q10 1 16.5 4t11.5 3q5 -1 12 -9.5t9 -13.5q4 -10 5 -22.5t-2 -24t-10 -20t-19 -9.5q-11 -2 -19.5 2.5t-13 11t-4.5 15t7 16.5q5 9 19 9h7.5t4.5 4t-2.5 5t-9.5 1t-11.5 -1.5t-8.5 -3.5
q-6 -5 -8 -9.5t-4 -5.5t-3 1.5t-6 7.5q-10 8 -24.5 9.5t-27.5 -1.5q-3 -1 -5.5 -4.5t1.5 -6.5q3 -2 10.5 1.5t15.5 2.5q11 -1 21 -7t13 -14q5 -9 -1 -19.5t-14 -13.5q-17 -8 -41 -3t-39 16q-11 7 -24 20q-21 21 -40.5 27.5t-22.5 9.5q-2 2 3 4t7 3q23 14 37 39t19 49
q4 23 4 39.5t-9 40.5q-8 20 -24.5 36.5t-36.5 25.5q-10 3 -26.5 3.5t-28.5 -4.5q-4 -2 -7.5 -4t-5.5 -4q0 -2 2 -4q1 -1 2 -1q2 -2 10.5 3t14.5 6q20 2 34.5 -4t25.5 -14q20 -14 29.5 -35t9.5 -55q0 -15 -5 -32t-13 -31.5t-17 -26t-18 -16.5l-16.5 -8.5t-10.5 -11.5
q0 -2 5 -4.5t12 -5.5t14.5 -5.5t12.5 -4.5q3 -2 9.5 -6t12.5 -9t9.5 -11.5t0.5 -12.5q-4 -11 -23 -11q-9 1 -17.5 6.5t-15.5 10.5q-19 13 -38.5 20.5t-36.5 21.5q-11 8 -22.5 21.5t-15.5 27.5q-2 11 -3 21t-1 20v102.5t-0.5 110t-0.5 96v62.5q0 24 -0.5 44t0 37.5t3.5 33
t10 30.5q11 24 29 35t40 16q15 3 33.5 4t32.5 1z" />
    <glyph glyph-name="C" unicode="C" horiz-adv-x="827" 
d="M482 755q23 2 34.5 -14t4.5 -38q-3 -10 -2.5 -17.5t16.5 -2.5q5 1 10.5 5t11.5 7t12.5 4t14.5 -3q7 -3 10.5 -13.5t2.5 -20.5q0 -11 -6 -25.5t-10 -22.5q-5 -10 -8 -12t-11 -2q-13 0 -26.5 -1t-26.5 -1q-19 0 -38 1.5t-34 6.5l-29.5 8.5t-34.5 8.5q-1 0 -10 2t-10 -3
q-1 -3 3.5 -6t10.5 -5t11.5 -3t7.5 -2q15 -6 30 -10.5t35.5 -7.5t48 -4t67.5 1q12 1 24 1t24 -2q24 -2 43 -9.5t36 -18.5q12 -8 23 -23t16.5 -30t1.5 -26t-23 -11q-15 0 -27.5 5.5t-23.5 13l-21.5 14.5t-22.5 10q-14 4 -30 2.5t-30 -2.5q-26 -2 -50.5 -4.5t-53.5 3.5
q-30 7 -56.5 14.5t-49.5 15.5q-5 2 -10 5.5t-9 -0.5q-3 -5 3 -9.5t14.5 -9t17 -7.5l11.5 -4q4 -2 9.5 -3.5t-1.5 -8.5q-4 -5 -8 -11.5t-9 -12.5q-14 -16 -20 -34.5l-13 -41.5q-5 -14 -7.5 -32t-5.5 -34q0 -1 -0.5 -5t-2.5 -4t-7.5 1.5t-11.5 4l-11.5 5t-7.5 2.5t-7 2t-9.5 3
t-8 0.5t-3.5 -4.5q0 -2 4 -3.5t7 -2.5q21 -7 39 -16q16 -6 30.5 -12.5t26.5 -12.5q24 -11 36.5 -20t24.5 -23q20 -20 32 -36t27 -25q7 -5 16.5 -6t19 0.5t18.5 4t17 4.5q28 7 59 16t60 15q9 1 20.5 2t22.5 -0.5t19 -6.5t9 -15q0 -9 -4.5 -14t-11.5 -8t-16 -4.5t-16 -2.5
q-22 -2 -34 -7q-33 -8 -62 -16.5t-58 -19.5q-14 -6 -35 -13.5t-39 -12.5q-31 -6 -54 8l-37.5 25t-45.5 14q-17 1 -38.5 1t-38.5 4q-26 5 -43.5 18t-32.5 30q-14 14 -26 30.5t-20 36.5q-7 22 -8 47t1 54q3 51 18.5 94.5t40.5 79t57.5 63.5t69.5 48q10 5 20 9l20 8
q11 5 23 8.5t24 8.5q11 4 18 14t16 19t23 18.5t33 11.5zM142 222q2 1 6 -6.5t6 -9.5q15 -21 36 -36.5t49 -23.5q12 -2 20 -7l11 -9q8 -8 17.5 -15l20.5 -15l19 -14q22 -14 50 -24t58.5 -14.5t61.5 -2.5t59 12q17 6 33.5 15t33.5 17q8 4 14.5 10t14.5 11t19 9.5t23 -1.5
q8 -4 11.5 -15t-1.5 -19q-7 -12 -18.5 -21.5t-22.5 -14.5l-29.5 -15.5t-34.5 -16.5q-74 -33 -179 -21q-33 4 -66.5 16.5t-60.5 30.5q-17 11 -34.5 24t-32.5 26q-8 8 -12 12.5t-6 7.5t-4 5t-5 6l-27 33t-22 37q-1 1 -3.5 5.5t-4.5 10t-2.5 9.5t2.5 4z" />
    <glyph glyph-name="D" unicode="D" horiz-adv-x="817" 
d="M162 730q5 -14 10 -24.5t11 -20.5l13.5 -20t5.5 -27q0 -13 -3 -25t-1 -24q2 -3 7 -8.5t5 -8.5q0 -5 -2 -13.5l-3 -12.5q-1 -5 -2 -13.5t6 -7.5q2 0 3 4.5t2 9.5t2 9.5t2 8.5q3 15 8.5 31t12 32t15 29.5t17.5 23.5q26 28 70 35t92 -1t93 -27t74 -42q25 -20 44 -42
q31 -38 49.5 -85.5t21.5 -93.5q3 -45 0.5 -90t-12.5 -89q-19 -88 -75.5 -149.5t-152.5 -84.5q-13 -3 -31.5 -5t-36 -0.5t-31.5 6.5t-18 16q-2 6 0.5 12t5.5 10q6 8 16.5 12.5t22 6.5t23 2.5t19.5 1.5q40 5 71.5 24.5t54.5 48.5t38.5 65.5t23.5 75.5q5 25 6.5 49t1.5 49
q0 46 -13.5 85t-36.5 75q-14 21 -35 38.5t-42 28.5q-24 12 -51 21.5t-50 11.5q-26 3 -44.5 -2t-32 -16.5t-24 -27.5t-19.5 -35q-4 -11 -8.5 -25l-9 -29t-7 -31t-1.5 -29l4.5 -46t6.5 -46q3 -17 3.5 -34.5t6.5 -36.5q2 -5 8.5 -11t11.5 -9q8 -5 20 -7.5t24 -6t21 -8.5t11 -15
q2 -8 -2 -14t-9 -9q-3 -2 -7.5 -2t-9.5 -1t-8 -2.5t-3 -5.5q2 -4 7.5 -5.5t11.5 -3.5t12 -8t6 -15q1 -14 -9.5 -21.5t-21.5 -9.5q-16 -2 -33.5 1t-28.5 9l8.5 -30.5t10.5 -30.5l13 -29.5t9 -26.5q4 -14 -6.5 -18t-19.5 4q-7 6 -13 15t-10 17l-21 44t-19 47q-1 2 -2.5 9.5
t-7.5 7.5q-5 0 -7 -5.5t0 -11.5q4 -23 12 -45.5t17 -43.5q5 -12 12.5 -23.5t-1.5 -19.5q-7 -6 -18 -1t-15 10q-8 11 -14 25t-11 27q-20 50 -31 113.5t-19 125.5q-2 17 -3 31t-3 29q-1 10 -0.5 19.5t-1.5 16.5q-2 4 -6 8t-7 8l-20.5 23.5t-13.5 34.5q-2 15 0 28.5t6 25.5
l8 23.5t5 24.5q2 17 -5.5 30l-14.5 26q-8 14 -15.5 25t-9.5 25q-2 13 8 14q4 0 7.5 -3.5t7 -9t6.5 -11t5 -8.5l10 -15.5t11 -15.5q5 -7 9.5 -15t8.5 -18t4 -21.5t-0.5 -23t1 -21.5t8.5 -18q7 -9 18 -15t22 -11q4 -2 9.5 -3t6.5 2q1 2 -3.5 5t-9.5 5q-9 4 -22 12t-16 19
q-3 7 -3 18v21q0 17 -1.5 27.5t1.5 22.5q3 10 4.5 19.5t-0.5 23.5t-8 25t-11 23q-2 4 -4 11t-3 14.5t0 13.5t6 8q7 3 10.5 -6.5t4.5 -12.5z" />
    <glyph glyph-name="E" unicode="E" horiz-adv-x="782" 
d="M387 785q13 1 21.5 -5.5t9.5 -19.5q1 -9 0 -18t3 -11q5 -3 11 5t11 13q6 6 13 12t17 8q14 2 23 -9t11 -22q4 -23 -3 -44.5t-17 -36.5q-5 -7 -14.5 -17t-15.5 -11q-19 -3 -35.5 -2.5t-34.5 3.5q-13 2 -23 6t-21 6q-8 0 -8 -4q-1 -5 4 -6t8 -2q17 -4 36.5 -10.5t42.5 -6.5
t43 3.5t41 6.5q31 5 57.5 -1.5t45.5 -17.5l7.5 -5t6.5 -8q8 -15 -2 -25t-27 -8t-35 10.5t-41 5.5q-20 -3 -42 -10t-42 -10q-9 -2 -22 -1t-21 1q-3 2 -10 2.5t-10 -0.5q-2 -2 -2 -13v-17q-4 -40 -4 -81t-3 -88q0 -6 -0.5 -15.5t-0.5 -19.5t-0.5 -17t-0.5 -8q-2 -3 -7 -0.5
t-10 4.5q-14 4 -29 4t-30 -2q-5 -1 -13 -4t-6 -7q2 -5 9.5 -3t12.5 3q23 4 47 -1.5t41 -14.5q18 -8 34 -28t25 -41q11 -23 14.5 -54.5t-4.5 -63.5q-3 -12 -7.5 -22.5t7.5 -15.5q14 -5 33.5 -4.5t34.5 0.5t35.5 -0.5t39.5 -3t33 -8.5t17 -19q2 -10 -2 -14.5t-11 -6t-15 -0.5
t-15 2q-28 5 -54.5 4t-60.5 0h-43q-12 0 -26 -0.5t-26.5 -0.5t-23 2t-15.5 8q-10 10 -11 30t-4 37q-2 13 -3.5 26.5t-4.5 27.5q-1 7 -5 16.5t-9 7.5q-5 -1 -2.5 -10t2.5 -12q5 -24 8 -54t7 -57q1 -3 1.5 -9t-2.5 -8q-2 -4 -11 -4h-14q-37 0 -65.5 3.5t-53.5 18.5
q-35 17 -55.5 49.5t-28.5 67.5q-6 28 -6 56t4 54q9 61 48 100q3 2 11.5 10t18 15.5t17 10.5t7.5 -4q0 -13 -0.5 -28.5t0.5 -31.5v-8.5t-1 -9.5q-1 -6 -7 -11t-8 -10q-9 -14 -13.5 -32.5t-5 -39t3 -40.5t9.5 -36q2 -8 11 -19t17 -11q5 0 6.5 5.5t1.5 9.5q1 23 0 50.5t-1 45.5
q-1 20 -1 38.5v37.5v275q0 25 7.5 45t19.5 37q11 15 31.5 26t37.5 24q11 8 17 14t12 17l9 16.5t11 17.5t13.5 14t18.5 7zM531 669q38 0 78 -1.5t72 -9.5q14 -2 30 -12.5t14 -27.5q-1 -11 -8.5 -14.5t-17 -3t-20 3.5t-18.5 4q-14 2 -23 2t-17 2q-5 4 -12.5 8t-14.5 6
q-29 10 -54 9.5t-62 -5.5q8 8 15.5 18l13.5 18q2 3 10.5 3h13.5zM386 410q8 0 25 -0.5t28 -0.5q26 0 49.5 -2.5t41.5 -7.5q16 -5 32 -13.5t18 -25.5q2 -12 -3 -18.5t-14 -9.5t-20 -3h-22q-27 1 -54 4t-56 3q-5 0 -16.5 0.5t-13.5 2.5q-2 1 -1.5 5t0.5 5q0 11 1 20.5t1 21.5
q1 5 1 12t3 7z" />
    <glyph glyph-name="F" unicode="F" horiz-adv-x="702" 
d="M399 702q34 0 66 -1.5t58 -4.5q25 -5 44.5 -17t21.5 -40q1 -21 -14.5 -34.5t-35.5 -16.5q-24 -3 -52 0l-46 4.5t-50 1t-48 -7.5t-39 -21q-13 -11 -19.5 -30.5t-10.5 -39.5l-6 -46t-3 -51v-14t-2 -8q-1 -4 -5.5 -8t-9.5 -8t-9.5 -8.5t-5.5 -10.5q0 -4 3 -6q4 -2 9.5 4.5
t8.5 8.5q16 17 39.5 26.5t58.5 5.5q11 -1 22 -6t19 -4q8 0 10 4.5t2 11t-1 14t1 13.5q3 14 16.5 15.5t22.5 -5.5q5 -3 9.5 -7.5t7.5 -9.5l8 -10t8 -4q5 1 3.5 10.5t-1.5 14.5q0 11 6 20t19 3t27.5 -24.5t23.5 -35.5q2 -5 5.5 -13t4.5 -14q4 -21 -3.5 -36t-21 -26.5
t-28.5 -20t-25 -17.5q-4 -3 -8.5 -8t-5.5 -9q-5 -12 -1.5 -25.5t5.5 -27.5q4 -32 6 -63.5t9 -56.5q3 -10 8 -19.5t9 -18.5q5 -12 -2.5 -20t-18.5 0q-8 5 -13.5 21.5t-8.5 27.5q-6 24 -9.5 52t-5.5 58q0 3 -1 8t-6 5q-2 0 -3 -5t-1 -8q-2 -31 4 -62t14 -61q1 -6 4 -14.5
t3.5 -15.5t-3 -12t-15.5 -3q-6 1 -10 7.5t-7 14.5q-7 18 -10.5 43t-7.5 48q-3 19 3 39.5t8 38.5q2 26 -4.5 55.5t-25.5 48.5q-5 5 -13 10.5t-14 8.5q-19 11 -47 10t-48 -10q-17 -7 -31.5 -20t-26 -29.5t-18.5 -34t-8 -33.5q-1 -8 -0.5 -10.5t2.5 -3.5q3 -1 5 4.5t5 16
t8.5 23.5t14.5 27q14 21 34 37t49 20q42 5 64 -10.5t35 -44.5q7 -15 8.5 -35t-2.5 -40q-3 -19 -7.5 -33.5t-9.5 -27t-11.5 -25l-14.5 -27.5q-5 -11 -11 -19.5t-4 -10.5t12.5 -2t18.5 -1q13 -1 27 -4.5t12 -19.5q-1 -7 -6 -9t-11.5 -2t-13.5 1.5t-13 1.5q-32 2 -68 1.5
t-67 0.5q-20 1 -41.5 5.5t-31.5 18.5q-8 10 -12 25.5t-5 28.5q-2 29 -1.5 54.5t0.5 51.5q0 77 3 152v17q0 11 0.5 21t1 22t1.5 27.5t3 36.5q3 46 9 81t18 66q10 25 26.5 44.5t42.5 30.5q35 14 71 16.5t71 2.5zM400 105q0 -2 1 -11t2.5 -20l3 -21.5t3.5 -14.5q1 -2 -8 0
t-14 3q-6 1 -13 1t-5 5l6 12t8.5 16t8.5 16z" />
    <glyph glyph-name="G" unicode="G" horiz-adv-x="792" 
d="M427 706q41 1 69.5 -13.5t51.5 -34.5q3 -1 8 -4.5t8 -3.5l4 2.5t10.5 5.5t14 4.5t13.5 -1.5q13 -5 20.5 -17.5t12 -28.5t6.5 -34t5 -34q8 -54 9 -120.5t-2 -130.5q-2 -36 -9 -71t-17 -65q-2 -8 -5.5 -13t-6.5 -12q-9 -21 -24 -40t-32 -34.5t-36 -27.5t-37 -19
q-35 -14 -81 -18t-87 9q-16 3 -32 10t-30 16q-26 17 -45 44.5t-26 56.5q-5 18 -5.5 32t3.5 30q5 15 17.5 21.5t27.5 -1.5q14 -8 21 -26.5t10 -32.5t11.5 -27.5t18.5 -21.5q12 -9 26 -16.5t27 -10.5q35 -8 71 -3.5t63 21.5q46 28 68 72q12 19 18.5 38t9.5 48q4 23 4.5 49
t-1.5 52q0 4 -1 9.5t1 11.5q1 4 9.5 10.5t11.5 11.5q5 8 10.5 12t9.5 9q3 4 5 8t-1 7q-5 4 -11.5 -4.5l-10.5 -13.5q-11 -13 -24.5 -25.5l-28.5 -27.5q-14 -14 -30.5 -29l-32.5 -30l-15.5 -13t-18.5 -11l-10.5 -4t-7.5 3q-5 11 0.5 17.5t13.5 17.5q9 12 17 24l16 25
q6 9 11.5 15.5t8.5 14.5q2 10 1 22t-3 22q-2 32 -0.5 66t15.5 57q3 5 6.5 9t1.5 6q-5 4 -11 -0.5t-9 -11.5q-12 -27 -14 -52.5t0 -51.5q0 -13 0.5 -27.5t-2.5 -25.5q-2 -11 -8.5 -22t-13.5 -20q-12 -17 -30.5 -32t-39.5 -23q-19 -8 -46 -15t-53.5 -8t-49 7t-32.5 31
q-5 17 5.5 29t24.5 7q5 -1 8.5 -3.5t5.5 -4.5q2 -3 7 -4t7 3q2 3 -1 7t-8 7.5t-11 6.5t-9 3q-10 1 -16.5 -3.5t-8.5 -3.5q-4 1 -4.5 5t-2.5 7q-2 4 -8.5 11.5t-12.5 5.5q-5 -2 -5 -4t2 -4.5t5 -4.5t5 -3q7 -8 8 -22.5t-8 -23.5q-9 -8 -23.5 -6t-21.5 10q-9 9 -10.5 21.5
t1.5 27.5q5 23 17 44t17 47q1 4 2 12t2 10q2 -2 4 -4.5t7 -4.5q8 -5 14.5 -7t15.5 -3h10t12 1.5t10.5 3t5.5 4.5q0 3 -3 4t-7.5 0.5t-9 -2t-6.5 -1.5q-13 -1 -25 5q-8 3 -19 12t-16 17q-5 7 -9.5 15.5t-7.5 18.5q-8 25 -7 54.5t9 52.5q5 13 15.5 19t20.5 -2q5 -5 12 -14.5
t16 -9.5q5 0 7.5 7l5.5 15q3 7 8.5 13t13 8.5t14.5 0t13 -11.5q3 -6 4.5 -19t8.5 -14q7 -2 12 4t10 9q21 16 50 23.5t58 9.5z" />
    <glyph glyph-name="H" unicode="H" horiz-adv-x="958" 
d="M652 720q8 0 13 -5t9 -12.5t6.5 -16t5.5 -14.5q2 -5 7 -9t10 -4q8 0 15 11t14 19q3 4 10 8.5t15 5.5t16 -3.5t13 -18.5t3 -28.5t-6 -30t-9 -31t-6 -30.5q-1 -17 -1 -26.5v-17t-0.5 -14.5l-1.5 -20l-4.5 -50t-5.5 -54q-2 -15 -3 -27.5t-3 -27.5q-6 -61 -9 -115t-11 -106
q-1 -11 -3 -21t0 -22q3 -11 11.5 -24t5.5 -28q-1 -5 -9 -11t-18 -6q-15 0 -22.5 6.5t-11 17t-3.5 24.5t1 29l6 105q1 15 2 34.5l2 40.5l2 42.5t1 40.5q0 5 -1 11.5t-6 6.5q-6 0 -7 -9t-1 -14q-1 -58 -4 -114.5l-6 -113.5q-1 -20 -1 -35.5t-2 -27.5t-7 -21t-16 -15
q-8 -5 -22 -6t-20 9q-4 8 -3.5 14.5t3.5 12.5t6.5 11.5t6.5 11.5q9 19 9 48v55q2 16 1 32t0 35q2 41 0.5 84t-1.5 87q0 14 -0.5 28.5t-0.5 28.5q0 22 1.5 36.5t3.5 27t3.5 27t0.5 35.5q-1 17 -7.5 36t-5.5 37q0 11 1.5 23.5t5 23t10.5 17.5t18 7zM225 709q11 0 18 -7.5
t9 -19.5q1 -8 1.5 -17.5t8.5 -12.5q4 -2 7.5 3.5t6.5 13.5t6.5 16.5t7.5 13.5q13 14 26 8.5t20 -20.5q4 -11 4 -23t-3 -24.5t-7 -24t-8 -19.5q-11 -23 -19.5 -50t-7.5 -58q2 -17 5.5 -24t6.5 -24q0 -3 2.5 -9.5t0.5 -11.5q0 -2 -3.5 -5.5l-8 -8l-8 -8l-4.5 -4.5
q-43 -44 -66 -108.5t-34 -138.5q-1 -3 -2 -9l-2 -12.5t-0.5 -11.5t2.5 -6q3 -3 5 4t2 9l5.5 34.5t5.5 29.5q7 34 15.5 63.5t27.5 67.5q17 35 39 62t54 47q6 4 16 7.5t16 1.5q2 -2 2.5 -6t1.5 -8q3 -8 13.5 -12t23.5 -6t27 -3t26 -3l19 -2q6 -2 13 -5t3 -10
q-3 -7 -16.5 -11.5l-31.5 -10t-38 -14t-36 -23.5q-22 -20 -38 -47.5t-29 -55.5q-5 -14 -12 -28t-11 -31q-6 -24 -10 -47l-7 -39q0 -2 -1.5 -7.5t0.5 -7.5q2 -1 6 6q2 3 3 7q9 32 15 64.5t20 55.5q6 8 8.5 7.5t2.5 -6t-0.5 -13t-0.5 -13.5q0 -5 -0.5 -9t-0.5 -10q0 -8 3 -11
q4 -1 7 8t4 11q1 3 3.5 7.5t5.5 9t6.5 7.5t8.5 2q6 -2 8.5 -8.5t3 -14.5t0 -16t-1.5 -12l-4 -21t-5 -21q-3 -12 -5.5 -23.5t-3.5 -20.5q0 -3 0.5 -6.5t2.5 -5.5q2 -3 12 -4.5t20.5 -3.5t18.5 -6.5t7 -14.5q0 -6 -5 -7.5t-11 -0.5t-13 2.5t-11 1.5q-51 5 -98 4t-93 -1
q-23 0 -46.5 -1t-43.5 -5q-8 -2 -14.5 1.5t-6.5 8.5q0 7 6.5 11t16 6l19 4t14.5 5q2 2 3.5 8.5t1.5 8.5q1 18 -2 35.5t-7 35.5t-7.5 36.5t-2.5 38.5q0 5 1.5 11.5t4.5 11t8 5.5t11 -3q5 -4 9.5 -13.5t6.5 -18.5q1 -3 2.5 -8t3 -9t3 -5t2.5 4q3 9 3 16.5t1 16.5l4 50
q3 39 9.5 78l13.5 80q3 18 6.5 32l6.5 27t4.5 27t0.5 32q-2 19 -6 35t-8.5 32t-7.5 32t-1 34q3 16 10.5 32t23.5 17zM444 468q15 0 24.5 -1.5t18.5 -3.5q35 -8 56.5 -18.5t41.5 -29.5q3 -5 8 -10.5t3 -10.5l-6 -33q-1 -5 -2.5 -15.5t-1.5 -16.5q0 -4 -3 2.5t-5 8.5
q-4 9 -8.5 15t-10.5 12q-25 25 -66 34t-81 12q-7 0 -13.5 3t-11 7.5t-5 11.5t4.5 15q7 12 23 15t34 3zM777 368q2 -20 3 -38t2 -40q0 -8 0.5 -18t2 -18t5.5 -14t11 -7q5 0 9 4l7.5 7.5t8.5 6t11 -0.5q9 -5 12.5 -19t3.5 -28v-11t-2 -12q-3 -27 -9.5 -57l-11.5 -55
q-1 -7 -3 -15t0 -11q2 -9 13 -11t19 -6q6 -3 9 -10.5t-4 -13.5q-5 -5 -17 -3.5t-19 3.5q-18 4 -33 3t-32 0q-7 0 -6.5 3t-1.5 11q-2 14 -9 25.5t-7 27.5q0 8 1 16t2 15q2 27 6 54.5t6 59.5q0 7 0.5 11t1.5 15l4 39l4 45.5t5 44.5q2 11 4.5 7.5t3.5 -10.5zM607 379
q3 1 2.5 -12t-0.5 -21v-76q0 -36 0.5 -76t1.5 -76q0 -18 -1 -29t-3.5 -18.5t-6 -13t-6.5 -11.5l-5.5 -9t-3.5 -9q-2 -6 -1 -14t1 -12q-12 -1 -23 -1q-9 -1 -17 -1t-10 -1q-3 -1 -8.5 -3t-11.5 -2.5t-11 1t-6 7.5q-3 14 5 20t21 11q8 3 12.5 8t6.5 8q2 8 1 16.5t-3 19.5
q-8 32 -11.5 66.5t-5.5 66.5q-1 6 -1 13.5t1.5 15t4.5 13t8 6.5q7 0 11 -4.5t7.5 -10.5t7.5 -10.5t11 -3.5q10 0 13.5 14.5t5.5 24.5l3.5 41t3.5 38q2 13 2.5 18.5t4.5 5.5z" />
    <glyph glyph-name="I" unicode="I" horiz-adv-x="542" 
d="M168 708q15 2 23.5 -4.5t14.5 -14.5q9 -11 15.5 -22.5t14.5 -13.5q13 -4 21 5.5t14 17.5q4 6 11 12t15.5 9.5t18.5 4t21 -5.5q10 -6 12.5 -19.5t-1.5 -28.5t-11.5 -28t-14 -26t-11.5 -28t-4 -35q0 -12 2 -22.5l4 -20.5q9 -47 15 -95q5 -45 12 -89q0 -1 1 -6t1.5 -10.5
t0.5 -10t-1 -5.5q-2 -1 -6.5 5.5t-5.5 7.5q-4 4 -8 7t-11 7q-14 7 -25 8.5t-26 1.5q-1 0 -4.5 -0.5t-3.5 0.5q-2 3 0 11t2 10q3 10 4.5 18.5t6.5 19.5q2 5 3 12t-5 5q-4 -1 -7.5 -9t-6.5 -18t-5 -19.5t-3 -12.5q-2 -6 -3.5 -11.5t-3.5 -9.5q-5 -9 -9.5 -13.5t-12.5 -15.5
q-22 -31 -22 -81q0 -27 8 -49l6 -15q1 -10 -2 -24l-5 -24q-3 -15 -7 -28t-9 -24q-5 -13 -11.5 -22.5t-25.5 -12.5q-11 -2 -19 0q-9 2 -10.5 10t2.5 15q5 8 12.5 13.5t12.5 16.5q4 12 5.5 24.5t4.5 25.5q15 65 24 129t25 134q1 4 2 10t-5 6q-4 0 -6.5 -6t-4.5 -13.5t-3 -14.5
t-1 -9l-11 -61q-5 -27 -9 -56.5t-11 -55.5q-3 -14 -5 -28t-5 -28q-4 -16 -6 -28t-6 -23q-6 -11 -16 -18t-12 -23q-1 -2 -0.5 -7t-0.5 -7q-2 -2 -10 -3t-13 1q-4 2 -5.5 6t-0.5 9q2 14 15.5 22.5t18.5 25.5q1 4 2.5 9l3.5 12q2 12 5 22.5t5 24.5q1 8 4.5 30l7.5 46l7.5 44
l4.5 26q8 43 13.5 88t13.5 90q3 15 5 34t0 39q-2 16 -8.5 27t-13.5 25q-6 12 -13 32.5t-8.5 40.5t5.5 36t28 19zM461 146q3 -17 -1 -40t-16 -44.5t-33 -38.5t-51 -21q-35 -2 -77.5 -2h-80.5q-3 0 -12 1.5t-6 4.5q6 7 8 16.5t7 11.5q6 2 18 1t24.5 -1.5t22.5 0t11 5.5
q0 3 -4.5 8.5t-10.5 12l-11.5 13t-8.5 11.5q-9 15 -18 36t-14 44t-5 46.5t10 44.5q8 16 20.5 29t31.5 15q14 0 27.5 -4t21.5 -10q11 -10 22 -25.5t15 -32.5q8 -39 10.5 -77.5t11.5 -75.5q1 -3 2 -9.5t2.5 -12.5t4 -10t6.5 -3q4 2 2 11t-2 14t-2.5 13.5t-0.5 12.5q0 2 3 4.5
t5 4.5q9 8 12.5 25t-0.5 35q-3 13 -6 20t-11 20q-8 10 -14 15t-8 7q-1 2 -3 13.5t-3 19.5q0 1 -1 7.5t-1.5 13.5t-1.5 12.5t-1 4.5q0 3 5.5 0.5t12 -6.5t12.5 -9t8 -6q12 -9 23.5 -22t19.5 -27q19 -32 25 -76zM213 105q8 -11 12 -19.5t12 -18.5q2 -4 6.5 -8t6.5 -7t0 -5
t-12 -1q-5 0 -11 0.5t-11 1.5q-6 1 -13 1q-1 2 1 9t3 13z" />
    <glyph glyph-name="J" unicode="J" horiz-adv-x="774" 
d="M580 710q7 1 13 -2t10.5 -8.5t8 -12l6.5 -12.5q11 -15 19.5 -34t3.5 -42q-1 -9 -6 -19t-11 -19.5t-10.5 -18t-4.5 -15.5q0 -4 5.5 -10t7.5 -11q25 -36 23.5 -82.5t-13.5 -92.5l-21 -87.5t-17 -86.5q-2 -30 -6.5 -58.5t-4.5 -55.5q-1 -9 -1 -17.5t-2.5 -15.5t-8 -9.5
t-16.5 0.5t-15.5 15t-4.5 26v14.5t0.5 10.5t1 12t1.5 18q6 62 16 129t21 127q0 2 1 5.5t1.5 7t-1 6t-5.5 2.5q-4 -1 -7 -13.5l-5 -20.5l-6 -34t-5 -35q-8 -58 -14.5 -111.5t-8.5 -107.5v-18.5t-2 -19.5t-6.5 -15t-14.5 -4q-14 1 -20.5 17t-8.5 32q-1 11 -1.5 18.5l-1 15
t-0.5 16.5v21q0 38 2.5 77.5t8.5 77.5q0 1 1 5.5t2 10t0.5 9.5t-4.5 4q-5 0 -7 -8.5t-2 -13.5q-1 -5 -2 -15t-3 -10h-7t-10 -1q-11 -2 -20.5 -7t-16.5 -10q-3 -2 -2.5 -0.5t1.5 5.5t3 8t2 6l22 67.5t19 67.5l7 27.5t6.5 22t8 22t12.5 28.5q8 16 13.5 31t3.5 35
q-2 11 -5 21.5l-6 20.5q-6 22 -8 43q-1 16 3.5 32.5t15.5 22.5q11 4 19.5 -0.5t12.5 -10.5q5 -7 9.5 -16t10.5 -7q5 0 5 7.5v13.5q0 8 2.5 18t12.5 11zM170 316q14 2 23.5 -9.5t1.5 -35.5q-7 -21 -16 -35.5t-14 -39.5q-3 -16 -4 -30.5t1 -29.5q2 -24 10 -36.5t25 -22.5
q10 -6 23.5 -9.5t27.5 -4.5t27 1.5t21 9.5q26 20 45 43.5t36 53.5q11 20 26 40t35 27q5 2 14.5 3.5t11.5 -0.5l-1 -11q-1 -23 -2.5 -47.5t-3.5 -47.5q0 -3 -0.5 -9t-0.5 -11q0 -1 -2.5 -3.5t-4.5 -5.5q-5 -7 -10.5 -17t-7.5 -20q-7 -22 11 -25q5 -1 11 -0.5t8 0.5
q1 0 1.5 -9t1.5 -15q0 -4 1.5 -10.5t0.5 -8.5q-2 -2 -8 -1.5t-11 0.5q-22 1 -41.5 0.5t-42.5 -0.5q-11 0 -16 5.5t-2 17.5q3 10 9.5 20.5t12.5 22.5q1 3 6 10.5t9 15.5t5.5 14t-2.5 7q-2 1 -4.5 -2t-4.5 -6q-7 -13 -12 -20.5t-8 -15.5q-5 -11 -13.5 -23.5t-10.5 -22.5
q-1 -4 0 -9.5t0 -7.5q-3 -5 -20.5 -7t-39 -2t-41 1t-24.5 2q-25 5 -42 13.5t-31 22.5q-9 8 -17.5 19t-12.5 21q-9 20 -11 46t1 49q2 26 7.5 55t19.5 49q5 10 18 24.5t31 16.5zM457 100q2 0 2 -8.5v-11.5t1 -14t0 -13q-2 -4 -11 -2.5t-11 8.5q0 3 2 10t5 13.5t6.5 12t5.5 5.5
z" />
    <glyph glyph-name="K" unicode="K" horiz-adv-x="729" 
d="M300 720q17 3 34 -18q10 -12 19.5 -30t10.5 -32q2 -16 -2 -26.5t-9.5 -19.5l-11.5 -18.5t-7 -22.5q-1 -4 0 -13t0 -11q-2 -2 -9.5 -1t-9.5 1q-5 1 -14 4.5t-18 6.5t-15.5 2.5t-6.5 -8.5q0 -5 8.5 -8t13.5 -5q20 -5 32.5 -7t35.5 1q38 5 62 25.5t47 44.5l32 32t36.5 30
t40.5 20t43 4q10 -2 18.5 -10t6.5 -21q-2 -11 -16.5 -20l-26.5 -16q-21 -10 -39 -22q-21 -17 -36 -37.5t-34 -40.5q-33 -33 -78.5 -54.5t-90.5 -23.5l-41 -2q-16 -1 -34 -5t-31 -9q-3 -1 -3.5 0.5t-0.5 8.5q-2 28 -3 58t-3 57q-2 26 -1 50t-2 49q-1 11 -2 25.5t1 27.5
t7.5 22t17.5 10q15 2 23.5 -8t13.5 -19q5 -8 8 -14t9 -4q4 1 3.5 11.5t1.5 16.5q5 16 20 19zM318 411q30 0 60.5 -6t52.5 -17q33 -17 60.5 -40t49 -47.5t36.5 -48t23 -41.5q11 -29 24 -58.5t20 -61.5q3 -16 6.5 -32t0.5 -33q-2 -23 -20 -28t-34 4q-13 8 -20 33.5t-17 58.5
q-9 32 -16.5 51t-18.5 41q-10 21 -24 42t-33 40.5t-42.5 35.5t-52.5 25q-10 3 -19.5 5.5t-20.5 3.5q-39 2 -63.5 -5.5t-49.5 -24.5q-10 -6 -19.5 -16.5t-14.5 -18.5q-13 -23 -22 -57.5t-1 -71.5q0 -2 1 -6.5t3 -10t4.5 -9t5.5 -1.5q5 2 2.5 8.5t-3.5 12.5q-5 26 -1 57t14 51
q14 28 37 47t58 27q12 2 29 3t28 -5q17 -5 28.5 -24t15.5 -36q6 -27 4 -52.5t-10 -48t-20 -42t-24 -34.5q-2 -3 -6.5 -7.5t-8 -9.5t-4.5 -9.5t2 -7.5q3 -2 10.5 -2.5t16.5 0t17 1t11 0.5q23 0 43 -2t31 -11q7 -5 9 -15.5t-9 -16.5q-5 -2 -12 -2.5t-15 -0.5t-16 1t-13 1
q-31 2 -69.5 1t-75.5 -1q-8 0 -17 -0.5t-16 1t-10 6t0 13.5q4 17 14 37t18 39q3 5 6 12.5t1 12.5q0 4 -3 4q-5 0 -9.5 -10.5t-6.5 -14.5q-10 -18 -16.5 -33l-16.5 -37q-2 -3 -3.5 -7t-3.5 -6q-4 -2 -8.5 1.5t-9.5 6.5q-26 17 -46 46t-25 67q-8 54 2.5 102.5t30.5 80.5
q11 18 29 34t33 27q14 9 28 14.5t37 9.5q13 2 30 3.5t34 1.5z" />
    <glyph glyph-name="L" unicode="L" horiz-adv-x="682" 
d="M198 707q8 1 12.5 -2.5t7 -9.5t2.5 -13.5v-14.5v-14t4 -9q5 -1 8.5 4t6.5 10q8 13 18.5 25t26.5 15q11 1 17 -7t5 -19q-1 -14 -5 -26.5t-8.5 -24.5t-8 -24t-4.5 -25q-2 -20 7 -36.5l16 -30.5q12 -24 14.5 -46.5t3.5 -56.5q0 -24 -1.5 -44t-1.5 -39q0 -8 1.5 -17t-0.5 -11
l-13 6q-19 6 -31.5 0t-19 -19t-9 -31t-2.5 -37q1 -31 2.5 -55.5t3.5 -53.5q1 -14 0.5 -30t-4.5 -30q-1 -6 -4.5 -13t-7.5 -9q-5 -2 -9.5 -1t-5.5 4q-3 5 -0.5 13t3.5 13q6 18 5.5 44.5t-2.5 46.5q-2 38 -2.5 76.5t-0.5 80.5v26q0 5 0.5 14.5t-1.5 11.5q-4 4 -5.5 -0.5
t-1.5 -11.5q0 -36 0.5 -63.5t0.5 -61.5q0 -35 2 -69.5t2 -66.5q0 -11 -3.5 -27.5t-12.5 -19.5q-8 -3 -11 2.5t-3 14.5t2 17t3 19v43q-1 42 -1 85.5v83.5q0 48 -0.5 94t-2.5 91q-1 12 -4 25t-8 23q-6 12 -12.5 21t-13.5 22q-6 11 -8 22.5t0 25.5q2 13 8 22t11 21q3 6 6.5 14
t8 15t9.5 12.5t11 5.5zM289 287q11 1 19.5 -4t14.5 -12.5t9 -16.5t4 -18q4 -32 4.5 -69t2.5 -71q0 -6 0.5 -14t3.5 -11q3 -4 12 -4t17 -1q31 -2 64.5 -2t65.5 2q23 3 39.5 13t37.5 14q21 6 31.5 -8t4.5 -31q-9 -23 -32.5 -38t-54.5 -15h-216q-6 0 -11.5 -0.5t-0.5 4.5
q6 8 11 10q3 2 8 6.5t3 9.5q-2 4 -6 0q-3 -2 -5 -4l-31 -25q-9 -6 -17.5 -13.5t-19.5 -15.5q-4 -2 -14 -3t-12 5q-3 8 4 16.5t9 10.5q10 12 17.5 26.5t7.5 37.5q0 22 -1.5 46l-3 48t-1.5 46.5t3 42.5q2 13 9.5 24.5t23.5 13.5zM183 257q2 -1 2 -10.5v-11.5q1 -22 0.5 -42.5
t-0.5 -46.5q0 -14 1 -27.5t0 -25.5q-2 -23 -5 -40q-3 -9 -1.5 -15t-3.5 -11q-6 -4 -13.5 -6.5t-14.5 -6.5l-15 -7.5t-13 -4.5q-9 -2 -15 1t-6 11q0 6 6.5 10l11.5 7q13 10 23 18.5t11 31.5q1 15 1 33.5v33.5q0 17 1.5 30.5t2.5 28.5q2 32 18 48q4 4 9 2z" />
    <glyph glyph-name="M" unicode="M" horiz-adv-x="903" 
d="M645 713q18 0 29 -8t18 -20.5t11.5 -27.5t9.5 -28q9 -23 15.5 -47t1.5 -54q-3 -21 -12.5 -39.5t-22.5 -28.5q-7 -5 -16.5 -9t-19.5 -6q-2 0 -8 -1t-8 -2t-2 -4.5t5 -4.5q11 -2 25.5 2.5t21.5 9.5q4 2 7 4.5t7 1.5t5 -9t1 -10q6 -29 8 -58t8 -58q5 -26 9 -53.5t9 -53.5
q4 -20 6.5 -37t4.5 -37q1 -17 7.5 -27.5t14 -20t14.5 -19.5t10 -24q2 -8 -0.5 -16t-6.5 -11q-2 -3 -12 -7.5t-16 0.5q-2 2 -3 9.5t-2 10.5q-4 14 -11.5 22t-13.5 19q-5 12 -7.5 28l-5.5 35q-2 14 -4 31t-5 34q-4 26 -9 55t-10 55q0 2 -2 7.5t-6 4.5q-2 -1 -0.5 -12.5
t1.5 -16.5q2 -7 4 -16t3 -17q3 -28 8.5 -56t9.5 -59q3 -23 5 -43t12 -37q2 -5 7.5 -12.5t9.5 -16.5t4 -17t-8 -13q-14 -8 -25 -4t-15 7q-4 2 -6.5 5.5l-4.5 6.5q-3 4 -4 7q0 12 -6 22q-3 5 -8 7t-19 4q-8 1 -20 1.5t-12 4.5q0 6 8.5 13t15.5 18q11 17 15 44t4 54
q0 17 -1.5 29.5t-5 22t-9 18.5l-12.5 20q-3 5 -10.5 11.5t-15.5 11.5q-2 2 -12.5 7t-12.5 2q-3 -2 -0.5 -4.5t6.5 -5t8 -4t5 -2.5q8 -5 16.5 -13.5t13.5 -16.5q6 -9 11 -20t7 -25q4 -33 -0.5 -68t-18.5 -55q-3 -5 -7.5 -10l-9.5 -11l-8.5 -11.5t-4.5 -12.5q2 -7 12.5 -7.5
t17.5 -0.5q11 0 20.5 -1.5t14.5 -6.5q11 -11 4 -25t-19 -16q-74 -4 -150 -4h-148q-12 0 -27.5 0.5t-18.5 8.5q-1 2 -1 7v9q3 20 4.5 45.5t-0.5 48.5q-1 20 1 42.5t0 42.5q0 5 -1.5 10.5t-6.5 4.5q-2 -2 -1.5 -9t-0.5 -12q-1 -17 0 -34t1 -32q0 -13 0.5 -30t0 -34.5t-3 -33.5
t-7.5 -25q-5 -7 -18.5 -11t-20.5 8q-3 5 -3.5 19.5t-1.5 22.5l-11 134q0 1 -0.5 4t-1.5 6.5t-2.5 6t-3.5 2.5t-2.5 -4t-0.5 -10t0.5 -11.5t0.5 -8.5q3 -31 5 -59t4 -60q1 -14 0 -27.5t-9 -18.5q-11 -8 -21 -2.5t-12 11.5q-5 10 -6.5 25t-2.5 31q-1 17 -3 30.5t-2 27.5
q-3 38 -6.5 72.5t-9.5 68.5q-2 17 -5 34t-8 34l-9 42.5t-6 45.5q-2 11 -1 18t-1 13q-4 16 -11.5 27.5t-17.5 22.5l-26.5 31t-14.5 38q-1 13 3.5 23t14.5 12q10 4 20 3.5t19 -1t16.5 2t11.5 11.5q2 6 3.5 15t4 17.5t6 15t9.5 8.5q8 2 17 0t14 -7q11 -9 17 -23t10 -30.5
t6.5 -34.5t5.5 -35q6 -30 22.5 -52t28.5 -47q10 -21 14 -45.5t6 -50.5q1 -11 2.5 -26t6.5 -23q8 -18 21 -36t20 -40q5 -16 8.5 -35t12.5 -34q5 -8 19.5 -8t22.5 8q5 7 8 19.5t6 21.5q7 19 16 39q8 17 19.5 33.5t20.5 32.5q5 9 6.5 20.5t2 24.5l1 26t2.5 25q5 23 11.5 42.5
t15.5 38.5q1 2 3 7.5t2 7.5t-4.5 4t-8.5 7q-8 9 -14 19l-11 18q-6 10 -11.5 25t-7 29.5t3 26.5t20.5 16q10 2 18 0t16 -6l16 -8t17 -5q12 -1 17.5 7t7.5 20t3.5 24.5t6.5 20.5q3 7 11.5 13t17.5 7zM148 300q4 2 6 -3t3 -10q1 -7 2 -12t2 -11q4 -22 7.5 -51.5t5.5 -50.5
q2 -17 2.5 -33t2.5 -33t3 -34t4 -35q2 -13 0 -19q-2 -5 -12.5 -5t-19.5 1q-11 1 -26 2.5t-20 7.5q-6 7 -6.5 27t0.5 34q2 32 8.5 62t12.5 61q3 15 8.5 31t9.5 32q1 3 1.5 9.5l1 13t1.5 11.5t3 5z" />
    <glyph glyph-name="N" unicode="N" horiz-adv-x="855" 
d="M350 451q8 0 10 -11t4 -20q4 -40 4.5 -86.5t-9.5 -82.5q-8 -21 -20 -42t-19 -41q-6 -20 -2 -39.5t9 -38.5q5 -14 10 -26.5l10 -25.5q3 -6 9 -14.5t4 -16.5q-1 -6 -5.5 -7t-9.5 0.5t-9.5 4t-6.5 4.5q-16 20 -28 49.5l-23 54.5q-5 14 -11.5 28t-8.5 30q-2 14 1 23.5t5 22.5
q2 9 3.5 21t3.5 32q23 35 35 77t20 87q0 3 1 7t3 6q3 2 9.5 3t10.5 1zM643 306q12 -2 20.5 -2t7.5 -11l-7 -172q-1 -22 -0.5 -38t5.5 -33q2 -8 4 -20t-6 -20q-10 -11 -22.5 -4.5t-16.5 17.5q-7 20 -7.5 32.5t-2.5 29.5q-4 42 -2.5 85t1.5 85q0 6 -0.5 15.5t-0.5 19.5v17.5
t2 7.5q2 1 9.5 -3t15.5 -6zM688 318q-20 -1 -32.5 0.5t-21 4.5t-14 6t-9.5 4q-6 1 -8 -4.5t-3 -14.5t-0.5 -21t0.5 -22q0 -46 -1 -87t1 -84q0 -18 1 -30t3 -25q1 -5 3.5 -11t4 -12.5t0.5 -12t-8 -9.5q-11 -6 -18.5 -3.5t-13.5 9.5t-9.5 16.5t-4.5 18.5q-7 37 -10 66.5
l-7 69.5q-2 20 -3.5 40.5t-3.5 40.5q-2 16 -5.5 38t-8.5 46.5t-12 48.5t-17 43.5t-23 32t-30 14.5q-33 3 -56.5 -6t-34.5 -12q-13 -4 -16 -1q-2 2 -1 10t1 13q0 6 -0.5 15t-8.5 6q-2 0 -2.5 -6.5t-1 -14.5l-1 -16t-0.5 -12q-7 -47 -17 -87t-29 -75q-11 -21 -24.5 -43
t-27.5 -41q-10 -12 -20.5 -23t-18.5 -24t-13.5 -30t-5.5 -39v-26q0 -6 1.5 -16t1.5 -20t-1 -18.5t-5 -12.5q-3 -5 -8.5 -5t-8.5 3q-5 6 -7 21.5t-3 26.5l-6 93q-2 18 4.5 33t14.5 29q14 26 24.5 51t17.5 58q4 16 7 32t3 33q0 22 -1 44.5t-3 44.5q-2 11 -2.5 24.5t-2.5 27.5
q-3 26 -10 51t-9 54q-1 14 -1 31t3 32t9 25.5t18 12.5q13 2 21.5 -7.5t13.5 -24.5t8 -33.5t4 -33.5t2 -24.5t3 -7.5l41 42.5t44 38t55 26.5t74 8q45 -2 75 -25t50.5 -55.5t32.5 -67l20 -58.5q1 -2 2 -5t6 2q12 12 20 23.5t28 9.5q14 -1 19.5 -12.5t4.5 -28.5
q-2 -11 -2.5 -24t7.5 -15q7 -2 13.5 9t14.5 17q12 10 20.5 7.5t13 -12.5t5.5 -24t-1 -27q-7 -35 -20.5 -51t-32.5 -31l-13 -8t-16 -8q-5 -2 -10.5 -3.5t-11.5 -2.5z" />
    <glyph glyph-name="O" unicode="O" horiz-adv-x="1021" 
d="M660 709q29 2 51 -6t39 -24q26 -23 46.5 -53.5t36.5 -64.5t26.5 -70t15.5 -69q5 -32 6 -64.5t-2 -58.5q-2 -17 -5 -29.5t-2 -13.5q0 -2 5.5 -3t7.5 -2q9 -3 14.5 -4.5l11 -3t12 -3t16.5 -4.5q4 -1 10 -3.5t4 -6.5q-1 -5 -4 -6t-14 2q-5 1 -13.5 4t-17.5 5.5t-17.5 4
t-12.5 0.5q-5 -2 -7 -6.5t-5 -10.5l-4 -8t-6 -13l-5.5 -13t-1.5 -7q0 -3 8 -7.5l13 -7.5l18.5 -7t19.5 -8q2 -1 7 -3t9.5 -4.5t6 -6t-3.5 -6.5q-7 -5 -15.5 0.5t-15.5 8.5q-12 5 -17 7.5t-16 7.5q-11 4 -18 7t-16 -5q-3 -4 -5 -7.5t-6 -9.5q-2 -4 -5.5 -9.5t-0.5 -10.5
t6.5 -7.5t8.5 -6.5q8 -5 11 -9t7 -7q3 -2 7 -7.5t2 -10.5q-1 -2 -3.5 -3t-4.5 1q-7 2 -13.5 8l-12.5 12t-12.5 11t-13.5 4q-2 0 -5.5 -2.5t-5.5 -4.5q-26 -23 -50.5 -39.5t-49 -27.5t-50.5 -18.5t-56 -12.5q-15 -2 -33 -3t-36.5 -0.5t-35.5 1.5t-30 2q-42 6 -80 24.5
t-68 38.5q-6 4 -14.5 11.5l-17.5 15.5t-17 16.5t-14 15.5q-1 2 -4 -2t-5 -5q-11 -9 -22 -19.5l-21 -19.5q-2 -2 -8.5 -6t-8.5 2t4.5 10t8.5 6t9.5 8.5l15.5 14l14.5 14t6.5 8.5q-1 2 -6 8.5t-8 11.5l-7 11t-9 8q-2 0 -12.5 -6.5l-23.5 -14.5t-24 -15.5t-15 -9.5q-2 -2 -7 -1
t0 7q1 3 10 9l19.5 12.5l20.5 13t15 10.5l6 4t5 5q0 3 -4.5 10t-6.5 12q-3 5 -7 15t-9 11q-4 1 -12.5 -3l-14.5 -7l-20 -9q-2 -1 -7 -4t-10.5 -5.5t-10.5 -4t-7 1.5q-2 4 0 6.5t6 5t8 4t6 2.5q5 2 10.5 5t11.5 5q7 3 18.5 9t16.5 11q1 1 0 9.5t-3.5 21.5t-4 29.5t-1.5 34.5
q1 28 4.5 65.5t11.5 78t21.5 79.5t34.5 70t49.5 50.5t67.5 20.5q25 2 47.5 -5t42 -21t35 -32.5t26.5 -39.5q2 -4 5 -9t6.5 -8t8 -3t9.5 7q15 19 28 38.5t29.5 35.5t39 26.5t54.5 12.5zM647 401q-6 -8 -6.5 -16t13.5 -5q8 0 17.5 3.5t18 8.5t15 10.5t9.5 10.5q6 8 3 13.5
t-13 4.5q-14 -2 -32 -12t-25 -18zM312 406q3 -6 11 -13.5t15 -12.5q6 -5 12.5 -8t14.5 -4q15 -2 13.5 6t-6.5 15q-11 17 -23 25q-6 4 -14.5 9t-17.5 3q-7 -2 -8 -8t3 -12zM480 282q-6 -1 -8 -6t0 -10q3 -9 10.5 -18t13.5 -17q3 -5 8.5 -10t7.5 -9q3 -12 1.5 -29t-1.5 -28
q0 -8 -1.5 -13.5t-11.5 -3.5q-16 6 -26 19t-17 27q-3 8 -5.5 9.5t-5.5 1.5q-4 -1 -4.5 -4.5t1.5 -7.5l5 -10q7 -12 16 -23t21.5 -18.5t27.5 -8.5t34 7q11 5 24 19.5t20 25.5l5 10t3 11q1 5 -0.5 9.5t-5.5 3.5q-3 0 -6.5 -7t-5.5 -10q-7 -13 -14.5 -23.5t-17.5 -17.5
q-2 -2 -9 -7.5t-11 -3.5q-5 2 -4 14t1 20q0 13 0.5 23t2.5 18q6 18 16.5 29.5t15.5 27.5q0 8 -4 9q-4 2 -14.5 3t-15.5 1h-22t-24 -3zM529 272q13 1 13.5 -3.5t-4.5 -11.5q-5 -6 -9.5 -15t-11.5 -11q-6 -1 -11.5 7.5t-10.5 15.5q-1 2 -5 7t-3 8q1 1 6.5 2t12 1h13h10.5z" />
    <glyph glyph-name="P" unicode="P" horiz-adv-x="672" 
d="M409 700q5 -1 13 -3t10 -6q1 -2 -1 -9t-5 -15.5t-6.5 -16.5t-4.5 -10q-2 -2 -11 0.5t-12 3.5q-23 6 -45.5 9.5t-49.5 3.5h-17.5t-17.5 -2q-16 -4 -26 -9.5t-15 -18.5q-4 -8 -4.5 -17.5t-0.5 -19.5q0 -32 0.5 -59t0.5 -54q-1 -35 -0.5 -68.5t0.5 -68.5q0 -72 -0.5 -143
t-0.5 -131q0 -19 -0.5 -39.5t-10.5 -28.5q-17 -14 -32.5 -5.5t-15.5 28.5q0 128 -1 244t-1 231q0 38 -0.5 72t0.5 77q0 10 4 22t18 22q16 11 47.5 16t66 5t67 -3t51.5 -7zM446 686q10 3 16 -8q4 -8 6.5 -18t5.5 -20.5t6.5 -20t8.5 -15.5q5 -5 11.5 -4t13.5 -2q9 -4 14 -14.5
t6 -22.5t-3.5 -22.5t-16.5 -14.5q-6 -2 -16 1.5t-14 7.5q-4 3 -9 10t-10 18t-6.5 23t-5.5 29q-1 3 -1.5 9.5t-5.5 6.5q-4 0 -6.5 -8t-4.5 -13q-3 -8 -7 -16.5t-9 -13.5q-3 -3 -8 -4t-7 4t1 11t5 11q11 24 14.5 36l8.5 28l5 13t8 9zM398 632q7 0 8 -5t-1.5 -12t-5.5 -14
t-3 -10q-6 -26 17 -26q10 0 15.5 8t8.5 16q1 2 2 6t3 4q3 0 3.5 -4t0.5 -6q1 -13 3.5 -21t6.5 -16t12 -18.5t16 -14.5q6 -5 18.5 -7t23.5 3l7 4.5t6 6.5q2 2 4.5 9t5.5 7q4 0 7.5 -11.5t6 -27.5t3.5 -33.5t0 -28.5q-2 -45 -22 -79.5t-44 -60.5l-5 -5t-6 -4.5t-4.5 0
t-1.5 9.5q0 18 5 32q5 11 12.5 16t8.5 17q0 10 -6.5 15.5t-15.5 6.5t-18 -2t-15 -9q-5 -5 -11.5 -16.5t-7.5 -21.5q-2 -11 -1 -23t-4 -21q-2 -2 -7.5 -8t0.5 -9q5 -2 9.5 4.5t6.5 11.5q3 8 3.5 14.5t0.5 15.5q0 17 8 33.5t23 21.5q8 3 14.5 0.5t7.5 -7.5q3 -10 -6 -18.5
t-12 -16.5q-7 -17 -7 -35t-9 -32q-9 -13 -22 -21t-27 -15l-44.5 -27.5t-45.5 -22.5q-7 -2 -19 -4.5t-14 7.5q-1 4 1 9l4 10.5t3 11t-2 9.5q-2 3 -7 3t-10.5 -0.5t-10.5 0t-6 5.5q-2 8 2 17t6 13q5 10 14.5 21t21.5 14q13 3 29 -1t24 4q5 4 7 12.5t2 17t-1.5 16t-3.5 9.5
q-5 6 -13 6.5t-11 8.5q-2 6 -3 21.5t1 22.5q2 8 10 13t16 0q5 -3 5.5 -8.5t0.5 -11.5t0.5 -11.5t5.5 -8.5q5 -4 11.5 -3t9.5 -4q2 -3 2 -9.5t0.5 -13t2.5 -11.5t8 -5q5 0 7 3l6 9q11 17 22 38.5t15 48.5q2 12 2 26.5t-2 25.5q0 1 -0.5 7t-1.5 7q-1 2 -5.5 -2.5t-9.5 -6.5
q-19 -9 -35.5 -6.5t-27.5 14t-15.5 29t1.5 37.5q1 5 3.5 14t-5.5 11q-3 1 -7 0.5t-7 -1.5l-21.5 -7.5t-21.5 -5.5q-8 -1 -15.5 2t-1.5 13q2 4 11 5t16 3q15 4 40 11.5z" />
    <glyph glyph-name="Q" unicode="Q" horiz-adv-x="906" 
d="M536 692q35 -11 63 -29t54 -38q33 -26 58 -58.5t42 -69.5t25.5 -76t9.5 -77q1 -27 -2.5 -50t-8.5 -44.5t-9 -41.5t-5 -41q-1 -34 6.5 -55.5t21.5 -41.5q7 -12 18.5 -26t20 -30t11 -32t-9.5 -32q-7 -9 -18.5 -12t-23.5 -2t-23.5 5t-19.5 10q-32 19 -51 50.5t-29 64.5
q-2 8 -4.5 24.5t-2.5 24.5q0 6 -1 16.5t-9 8.5q-3 0 -4 -6t-1 -14t1 -16.5t2 -12.5q2 -12 5 -24.5t1 -26.5q-1 -11 -11 -15t-18 -8q-31 -14 -56 -22t-55 -20q-13 -5 -31 -11t-29 -10l-21.5 -5t-23.5 -3t-18.5 5.5t-6.5 20.5q4 19 18.5 23t27.5 9q7 3 23.5 9t33 14t27 18
t4.5 21q-5 8 -11 15t-11 16q-5 8 -10.5 18t-8.5 21q-5 22 -9.5 44.5t-2.5 52.5q1 22 6.5 48t15 51t23.5 46t32 34t44.5 19.5t56.5 -1.5q26 -8 42 -18t33 -26q3 -2 6 -7.5t8 -3.5q3 2 2.5 5.5t-2.5 6.5t-4.5 5.5t-2.5 3.5q-37 32 -77.5 46.5t-88.5 -5.5q-23 -10 -40 -28
t-29 -39.5t-20 -45.5t-12 -45q-6 -27 -6 -59t5 -61q5 -27 13 -44t19 -34q5 -8 9 -11.5t4 -10.5q0 -2 -3 -5q-8 -8 -27 -17t-39.5 -16t-37.5 -11t-19 -2q-2 3 2.5 9t5.5 19q1 22 -6.5 32.5t-8.5 15.5t6 4t12 1q11 2 23.5 10.5t19.5 20.5q10 18 10 33q4 30 -6.5 54.5
t-25.5 38.5q-3 3 -9.5 11.5t-11.5 6.5q-6 -2 -5 -6.5t6 -9.5l10.5 -10.5t8.5 -9.5q6 -10 14.5 -28.5t5.5 -41.5t-15.5 -37t-29.5 -19q-5 -2 -15.5 -2t-17.5 2q-4 2 -14 5.5t-12 0.5q-6 -5 1.5 -10t11.5 -7q14 -8 26.5 -19t9.5 -35q-4 -36 -49 -36q-30 0 -57 12t-49 31.5
t-39.5 43.5t-29.5 48l-18 45.5t-14 47.5q-5 29 -6 57.5t-1 56.5q0 18 2 33t5 29.5t8 30.5t12 36q8 24 22 49t31 48t35.5 42.5t36.5 32.5q63 46 134 56t142 -8z" />
    <glyph glyph-name="R" unicode="R" horiz-adv-x="741" 
d="M342 703q31 -1 60 -3t54 -9q43 -11 71 -33.5t54 -51.5q19 -24 32.5 -54.5t17.5 -72.5q2 -23 -1.5 -44t-8.5 -41q-8 -23 -27.5 -32t-36.5 3q-5 4 -8.5 14t-1.5 21q19 80 -9 135t-103 80q-35 11 -71.5 11.5t-75.5 -1.5q-23 0 -39 -17t-18 -37q-1 -15 -2 -46l-2 -64
t-0.5 -62t2.5 -39q0 -5 5.5 -6t9.5 -3q18 -5 30.5 -17t24 -25.5l23 -27t27.5 -20.5q11 -6 29 -12t35 -2q7 2 6.5 14t-0.5 25q0 10 1.5 20t5.5 18.5t10.5 13.5t16.5 5q17 0 25 -15q3 -5 6 -11.5t9 -4.5q3 0 4.5 6t1.5 12q0 10 4.5 18t17.5 8q4 0 9 -1.5t10 -6.5
q16 -15 26 -42t0 -54q-7 -18 -21 -36.5t-28 -29.5q-3 -2 -7.5 -6t-4.5 -9q-1 -4 2.5 -10.5l5.5 -10.5l18 -30t21 -29q9 -14 22 -24q5 -5 13 -9.5t15 -10.5t10 -14t-1 -19q-2 -6 -5.5 -8t-6.5 -4q-4 -2 -13.5 -2t-11.5 3q-1 2 1.5 5t2.5 9q0 12 -6.5 20t-15.5 14t-18.5 11.5
t-16.5 11.5q-16 18 -29 35.5t-26 37.5q-2 2 -3.5 6.5t-5.5 3.5q-4 -2 -1.5 -8.5t3.5 -7.5q16 -29 38 -54q10 -13 19.5 -23.5t26.5 -20.5q6 -2 10 -4.5t8 -8.5q5 -8 1.5 -18t-10.5 -12q-14 -4 -29 3.5t-22 12.5q-11 7 -22 17t-20 19l-14 17q-7 8 -13.5 16.5t-12.5 18.5
q-3 4 -6.5 10.5t-7.5 6.5q-2 0 -5 -2t-8 -3q-38 -5 -57 5t-35 25q-5 5 -11.5 13t-7.5 17v10q0 6 0.5 13t0.5 15v12t-6 7q-3 -1 -3 -8v-10q-1 -26 -5 -44.5t-12 -33.5q-10 -20 -28 -34.5t-30 -34.5q-8 -12 -11.5 -25.5t-10.5 -28.5q-4 -8 -13.5 -14.5t-14.5 4.5q-4 10 -2 21
t3 19q1 13 3.5 26t7.5 23t10.5 19t7.5 22q2 11 0 21t-6 19t-8.5 18t-6.5 18q-4 14 -5.5 32t-1.5 38q0 65 0.5 128t2.5 128q1 38 6 71.5t24 55.5q13 15 33 23.5t42 12t44 4t40 0.5zM296 137q2 -3 0 -8.5t-5 -11.5t-7 -12l-6 -9q-7 -9 -14 -14.5t-15 -16.5q-9 -11 -14 -27.5
t-10 -28.5q-3 -7 -8.5 -10.5t-9.5 1.5q-5 5 -2.5 16t3.5 19q2 17 5 29.5t12 23.5l14 14q10 8 17 19.5t13 22.5q2 3 4 9t4 4z" />
    <glyph glyph-name="S" unicode="S" horiz-adv-x="639" 
d="M298 708q25 0 57 -7.5t61 -22t51 -35t28 -46.5q4 -18 -6.5 -30.5t-22.5 -16.5q-19 -6 -34.5 0t-30 17t-28.5 23.5t-30 19.5q-20 7 -44 7t-44 -8q-12 -5 -22 -14t-16 -21.5t-6.5 -27.5t7.5 -33q11 -23 32 -38t42 -28q19 -12 33.5 -19l27 -12.5l24.5 -11t26 -13.5
q17 -13 33 -31t27 -40q3 -4 5.5 -11t1.5 -9t-6 -2t-10 -2q-10 -2 -16.5 -5.5t-14.5 -8.5q-23 -16 -28.5 -41.5t-3.5 -58.5q2 -13 9 -29t8 -30q0 -8 -3 -16t-10 -13q-11 -11 -24 -22.5t-18 -23.5q-2 -5 -2.5 -11.5t-1.5 -9.5q-2 -4 -12 -8.5t-17 -8.5q-25 -12 -53 -15.5
t-52 5.5q-6 3 -10 10t-1 17q2 8 10.5 14t18 8.5t19 0t14.5 -11.5q2 -3 2 -4.5t3 -1.5q5 0 5.5 2.5t0.5 4.5q-2 10 -9 15t-15.5 6.5t-16.5 0.5t-12 -2q-8 -3 -16 -8t-10 -5q-6 7 -10 11t-7.5 5t-4.5 -3q-2 -5 4 -9t8 -7q6 -6 5.5 -14t-5 -15t-12.5 -11.5t-17 -2.5t-17 8.5
t-7 17.5q0 13 10 21.5t15 16.5q5 13 -4 22q-6 8 -19 16t-14 23q-2 21 5 39t20 28q3 2 8.5 4t10.5 -1q8 -4 11 -13t6 -17q2 -5 4.5 -7.5t7.5 3.5q4 5 4.5 11.5t3.5 13.5q4 10 16.5 19.5t26.5 -0.5q7 -6 7.5 -19.5t7.5 -21.5q6 -8 14 -10t16.5 -1t15.5 5.5t11 10.5
q6 11 7.5 24t2.5 27q4 36 32 54q4 2 6.5 3.5t3.5 3.5q4 4 -4 13q-23 23 -57 41.5l-66 35.5q-51 27 -79.5 58.5t-40.5 79.5q-4 15 -4.5 32.5t3.5 34.5q5 20 13.5 40.5t31.5 41.5q17 16 31.5 25t29 14t31.5 7t38 4zM480 288q22 0 32.5 -13.5t13.5 -32.5t0 -39.5t-8 -34.5
q-17 -37 -41 -62.5t-53 -51.5q-9 -8 -21.5 -16.5t-23.5 -11.5q-11 -2 -14 4t1 13q7 14 23.5 26t24.5 26q8 20 4 45q-3 16 -9.5 37t-4.5 40q2 12 6 26t15 25q8 8 22.5 14.5t32.5 5.5z" />
    <glyph glyph-name="T" unicode="T" horiz-adv-x="739" 
d="M393 756q8 -1 16 -8t12 -12q15 -20 22.5 -35.5t0.5 -37.5q-3 -10 -7 -15.5l-7 -9.5t-5 -8t0 -12q2 -11 15 -16.5t29 -7.5t31 -1t20 3q17 6 32.5 13t35.5 15q14 6 29 7t33 -4q11 -3 20.5 -10.5t14 -17t3.5 -19.5t-11 -18q-6 -5 -16.5 -3.5t-15.5 2.5q-26 5 -43.5 -4
t-34.5 -19q-21 -14 -55.5 -19.5t-62.5 2.5q-8 2 -14.5 2.5t-8.5 -16.5q0 -21 0.5 -43.5t4.5 -45.5l4.5 -30t7.5 -27q7 -15 20 -26.5l26 -22t24.5 -21.5t16.5 -26q6 -14 -2 -28.5t-16 -24.5l-20.5 -25.5t-16 -23.5t-9 -26t1.5 -35l8 -27t11 -26q4 -7 14.5 -19t10.5 -22
q0 -9 -8.5 -11.5t-16.5 2.5q-8 4 -16.5 17t-13.5 23q-10 20 -21 46.5t-15 54.5q-2 11 0 21.5t5.5 20.5t6 19.5t1.5 20.5t-8.5 20.5t-14.5 17.5l-8.5 11t-10 9.5t-12 5t-14.5 -2.5q-6 -3 -13 -9t-14 -13t-12.5 -15t-7.5 -14q-4 -15 -2.5 -28t5 -25t8 -23.5t7.5 -22.5
q2 -12 0 -20t-7 -17q-9 -23 -27 -47.5t-38 -40.5q-2 -2 -8.5 -5t-13.5 -5t-12.5 -1t-6.5 9q-1 7 7 14t12 12q14 11 29 27.5t18 35.5q1 10 -2.5 20.5t-6.5 18.5q-7 15 -16.5 33t-20.5 35l-10.5 23t-7.5 24q-3 15 3.5 25t13.5 19q14 19 29.5 36t23.5 40q6 12 10 31t6 39.5
t2 40t-2 31.5q-4 13 -15 12q-19 -1 -41 -3t-41 4q-13 4 -23.5 11l-21 14.5t-22 13.5t-25.5 8q-14 3 -26.5 2.5t-24.5 2.5q-10 2 -14.5 10.5t-4 18.5t6.5 20t18 15q19 8 40 7.5t38 -7.5q12 -4 20.5 -11l17 -13.5t18.5 -11t25 -4.5q8 0 21.5 0.5t26.5 2.5t22.5 6t10.5 10
q1 8 -1 14.5t-5 14.5t-6.5 19t-4.5 29q-1 14 1.5 29t16.5 17q8 1 14.5 -4.5t11.5 -12.5l9 -13t7 -6q6 0 8.5 4t3.5 10t1.5 12.5t2.5 11.5q3 7 8 9.5t8 2.5z" />
    <glyph glyph-name="U" unicode="U" 
d="M652 721q10 0 9 -12.5t-2 -21.5q-1 -8 -1 -16.5v-13.5q-1 -19 0 -39.5t-1 -38.5q-3 -14 -9.5 -25l-12.5 -22q-11 -26 -12 -56t7 -58q5 -16 9 -32l8 -33q4 -20 6.5 -31.5l5.5 -25.5t6.5 -27t6.5 -29t2 -35.5t-3 -34.5q-8 -32 -27.5 -64t-42.5 -56q-27 -27 -75 -40
t-98.5 -15t-95 4.5t-65.5 18.5q-29 17 -49.5 40.5t-38.5 54.5q-15 26 -23.5 59.5t-14.5 68.5q-7 35 -10 74t-7 76q-5 38 -3.5 79.5t3.5 81.5q1 20 -0.5 40t-6.5 37q-2 8 -4.5 16t-4.5 16q-2 6 -3 13.5t0 14t4.5 11t12.5 3.5q11 -2 18.5 -12.5t11.5 -21.5l8 -24t6 -26
q3 -15 4 -30t1 -31l2 -29t-1 -32q-2 -22 0.5 -48.5t7.5 -46.5q2 -4 5.5 -13.5t9.5 -6.5q5 2 1.5 9t-4.5 10q-7 25 -8 51t0 54v20t3 19q2 5 8 8.5l13 7.5q17 7 32.5 18t35.5 13q21 2 32 -7t6 -29q-2 -8 -8 -15.5t-10 -15.5q-2 -4 -0.5 -4.5t4 0t5.5 2t4 2.5q8 6 19.5 10.5
t22 5t19 -4t11.5 -17.5q4 -15 -1.5 -29.5t-10.5 -24.5q-7 -13 -15.5 -24.5t-15.5 -25.5q-11 -27 -18 -64.5t0 -76.5q3 -20 6.5 -33t11.5 -29q11 -22 31 -36t52 -8q19 3 31.5 13.5t20 25.5t11.5 33.5t7 38.5q4 21 7 40.5t5 39.5q2 21 6 40.5t7 38.5l8 38.5t13 34.5
q13 21 32 38t33 36q8 10 11.5 23t6 27.5t4 29.5t6.5 30q3 8 7.5 16.5t14.5 9.5zM214 704q12 2 15 -11.5t5 -24.5l4 -20t4 -23q2 -14 2 -20t-1 -8q-1 -3 -8.5 -8t-16.5 -10q-2 -1 -6 -3.5t-6 -1.5q-1 1 -1.5 12.5t-0.5 16.5q-1 15 -1 26t-2 22q0 7 -0.5 15.5t0.5 16.5t4 13.5
t9 7.5zM769 698q7 0 9 -3.5t2 -8.5t-2 -10.5t-3 -8.5q-5 -15 -8.5 -27t-6.5 -29q-3 -15 -6.5 -29.5t-5.5 -28.5q-3 -26 -13.5 -45t-20.5 -39q-16 -35 -20 -85l-8 -100l-2 -28v-6t-2 -4q-2 -1 -3 6.5t-1 9.5q-2 14 -6 28.5t-7 30.5q-4 24 -9.5 49t-12.5 48l-6.5 20.5
t-2.5 21.5q1 5 5 11t7 10q11 12 28 25.5t27 30.5q16 31 23 68t20 68q3 7 9.5 15t15.5 10z" />
    <glyph glyph-name="V" unicode="V" horiz-adv-x="688" 
d="M393 134q2 -3 3.5 -6t5.5 -1q3 2 2.5 8t-2.5 11q-2 13 -4.5 21.5l-5.5 19.5q-1 4 -2.5 9t-1.5 8q0 5 1.5 9t2.5 9q1 7 3 13t4 15q2 13 5.5 24.5t5.5 23.5l20 88l21 88l16 67q6 22 13.5 46t18 45.5t25 39t32.5 28.5q23 11 43.5 4t25.5 -27q4 -14 -1.5 -31.5t-14.5 -36
t-18.5 -35.5t-13.5 -30q-13 -31 -21 -61q-27 -91 -45.5 -178.5t-46.5 -175.5q-6 -17 -10.5 -35.5t-12 -35t-18.5 -29.5t-30 -19q-52 -15 -102 -14q-8 0 -10 3t-1 7.5t3 10.5t3 13q1 8 1.5 17t0.5 18v44.5t-1 42.5q0 13 -1 25.5t-3 27.5l-11 128q0 3 -1 14t-5 13q-6 3 -8 -6
q-1 -5 0 -13.5t1 -16.5q3 -42 7.5 -85.5t7.5 -87.5q1 -14 1.5 -27t0.5 -28q0 -14 -0.5 -25t-1.5 -23q-1 -16 -4 -31.5t-16 -20.5q-5 -2 -10.5 -2t-10 2t-6.5 7t0 13q2 5 4 9.5t4 10.5q3 10 3 24q1 27 -1.5 55.5t-4.5 57.5q-3 43 -6.5 84t-6.5 90q0 7 -1 13t-4 7
q-5 1 -6.5 -1.5t-2 -6.5t0 -7.5t0.5 -4.5q2 -38 4.5 -72t4.5 -68q2 -38 5.5 -70t3.5 -64q0 -17 -2 -33t-11 -26q-5 -5 -14 -7.5t-16 1.5q-13 7 -9 22q2 8 6 12.5t6 12.5q2 9 2.5 21t-1.5 25q-10 86 -14.5 162t-13.5 158q-3 30 -7.5 48t-15.5 41q-7 12 -15 21t-15 21
q-20 32 -12 79q3 19 12 37.5t21 28.5q11 12 26.5 8.5t19.5 -17.5q1 -5 1.5 -15t1.5 -19.5t4 -14.5t9 1q6 5 8 14.5t6 15.5q8 13 15 16.5t15 5.5q23 4 32 -8t7 -32q0 -9 -2 -18t-4 -19q-2 -18 -1.5 -38.5t6.5 -36.5q3 -7 8 -13.5t9 -13.5q8 -17 14 -31.5t10.5 -29.5t7.5 -31
t5 -37q4 -32 13 -56.5t20 -51.5q3 -8 6 -17.5t5 -17.5l11 -49q5 -19 9 -36t6 -22z" />
    <glyph glyph-name="W" unicode="W" horiz-adv-x="1260" 
d="M163 706q14 2 20 -2.5t7.5 -13t1 -19t1.5 -21.5q2 -12 7 -12q7 -2 11 6.5t7 15.5q6 12 15 27.5t24 17.5q12 1 20.5 -4.5t13.5 -11.5q11 -17 12.5 -48.5t-0.5 -60.5q-2 -18 -1.5 -33t2.5 -31q2 -23 12 -52.5t19 -51.5q11 -33 24.5 -61.5l27.5 -58.5l5.5 -10.5t2.5 -11.5
q-1 -1 -4.5 -0.5t-6.5 -0.5q-15 -2 -24.5 -8.5t-19.5 -16.5q-2 -2 -4.5 -6.5t-4.5 -5.5q-4 -1 -6 7t-3 10l-25 76q-5 13 -8 25.5t-7 26.5q-2 8 -8.5 9t-4.5 -7q1 -4 1 -7.5t2 -8.5q3 -11 5 -19.5t5 -18.5l22 -66t21 -68l18 -69q8 -29 13.5 -60t-5.5 -54q-3 -6 -10 -10.5
t-15 -5t-14.5 3t-7.5 13.5q-2 13 3 24t3 25q-1 21 -6.5 39t-10.5 38q-8 33 -18 65t-20 69q-6 24 -13 48t-15 56q-1 4 -3.5 13t-9.5 6q-2 -1 -2.5 -5t0.5 -9l2 -10.5t2 -8.5l11 -48.5t13 -45.5q3 -9 6.5 -22t7.5 -26t7 -24.5t5 -17.5l19 -66q7 -24 10.5 -47t-4.5 -43
q-3 -6 -9 -11t-12.5 -7t-12.5 0.5t-7 12.5q-2 12 2 21t5 19q1 8 0 16.5t-3 13.5q-11 48 -23 93t-26 88q-8 24 -13.5 44l-11 39.5t-10.5 40t-12 44.5q-2 7 -2.5 17t-2.5 17q-8 22 -24.5 38.5t-27.5 36.5q-10 20 -3.5 38t13.5 34q4 12 7.5 26.5t8 28t13 24t23.5 13.5zM756 610
q19 4 30.5 -8t11.5 -29q0 -26 -8.5 -47.5t-13.5 -42.5q-11 -32 -29 -70l-31 -67q-20 -39 -44 -77q-12 -22 -25 -43.5t-27 -41.5q-14 -18 -30.5 -42t-36 -47t-41 -42.5t-43.5 -29.5q-18 -8 -41 -16.5t-50 -4.5q-12 2 -11.5 6t2.5 11q7 32 -1 63l-15 57l-8 29q-3 12 -5 19
t-2 17q2 8 5 17t8 13q11 13 30.5 17.5t39.5 -5.5q10 -5 17 -15.5t12.5 -23t9.5 -26.5t9 -25q1 -3 4.5 -7t9.5 -2q5 1 12.5 11t13.5 16q23 29 43 60t43 61q14 20 25 41.5t24 44.5l22.5 44.5t19.5 47.5q6 20 14.5 39.5t14.5 41.5q5 18 13.5 34.5t27.5 21.5zM696 279q2 0 3 -3
t3 -5l27 -43t30 -41q6 -8 16.5 -19t19.5 -11q2 1 3.5 7t4.5 13q10 23 29 47t50 31q11 2 26 2.5t25 -4.5q7 -3 11.5 -10t2.5 -17q0 -3 -1 -11.5l-2 -17.5l-2 -17.5t-1 -11.5q-4 -27 -7 -55.5t-1 -52.5q0 -7 1.5 -17t3.5 -18q0 -5 3 -11t1 -10q-2 -5 -10.5 -4t-12.5 1
q-18 0 -37.5 -1t-38.5 0t-35 5.5t-28 13.5q-17 10 -32.5 26.5t-30 34.5t-27.5 36.5l-25 34.5l-13.5 17.5t-10.5 16.5q-1 3 6 15t12 19q3 5 8.5 15l11.5 20t11 17.5t6 7.5zM625 405q2 -5 4.5 -10t1.5 -8q-2 -6 -8.5 -18t-14.5 -25l-15.5 -25.5l-11.5 -19.5q-2 0 -4 6.5
t-4 10.5q-18 38 -33 77t-28 85q-8 29 -11 55q-1 12 -1 25t2 24.5t7 20t16 10.5q7 2 16.5 0.5t14.5 -5.5q16 -14 20 -40.5t10 -48.5q6 -16 11 -34.5t11 -36.5q2 -8 7.5 -20.5t9.5 -22.5zM1119 702q14 2 22.5 -8t13.5 -21l21.5 -41.5t6.5 -49.5q-5 -24 -18 -37.5t-25 -32.5
q-6 -10 -12 -24t-10.5 -29t-8 -29.5l-6.5 -26.5q-7 -29 -13.5 -60t-14.5 -60q-2 -8 -4 -18.5l-4 -20.5l-6.5 -27t-6.5 -29l-8 -40t-5 -34q0 -4 -0.5 -9.5t-0.5 -7.5q-2 -18 4 -30.5t10 -23.5t1 -21t-12 -14q-2 -2 -10 -3.5t-9 1.5q-1 2 0 8.5t1 12.5q-1 10 -5.5 18t-8.5 16
q-8 19 -5.5 43.5t5.5 44.5l8 54q6 40 11 77t13 73q1 4 2.5 9.5t2 10.5t-1 8.5t-5.5 3.5q-5 0 -9 -13.5t-5 -19.5q-2 -11 -3.5 -20.5t-3.5 -20.5q-1 -9 -2.5 -18.5t-3.5 -20.5q-9 -53 -14.5 -91t-7.5 -78q-2 -18 2.5 -29.5t9.5 -22.5q6 -12 7.5 -26.5t-9.5 -24.5
q-6 -6 -19 -4t-18 7q-11 11 -13.5 30.5t-1.5 37.5v18t1 16q1 7 1 15t2 18q4 42 9 82.5t9 82.5q2 14 5.5 31t-0.5 29q0 2 -2.5 4.5t-5.5 1.5q-5 0 -6 -12t-3 -20q-3 -20 -4.5 -32.5l-3.5 -29.5q0 -4 0.5 -8.5t-2.5 -6.5q-3 -1 -8 3t-10 6q-13 5 -27 4.5t-28 -4.5
q-1 0 -7 -2.5t-7 -1.5q-1 0 1 6q1 3 3 6q15 47 33.5 91l36.5 88l26 66q6 14 9 24t5 18.5t2.5 16.5t0.5 18v31.5t2.5 31t9 25t19.5 14.5q12 3 20.5 -0.5t15.5 -10.5t11.5 -16t8.5 -16q3 -6 6.5 -14.5t8.5 -5.5q5 1 5.5 10t1.5 15q2 15 9 25.5t21 13.5z" />
    <glyph glyph-name="X" unicode="X" horiz-adv-x="814" 
d="M705 703q22 1 38 -11t9 -36q-4 -10 -10.5 -18.5t-14.5 -13.5q-12 -8 -25.5 -13t-26.5 -13q-10 -7 -18 -17t-14.5 -22t-13.5 -23.5t-15 -21.5q-17 -20 -36 -39.5t-41 -33.5q-7 -5 -20 -11t-15 -16q0 -10 -1 -22.5t-1.5 -25.5t-0.5 -24.5t3 -19.5q2 -5 9.5 -8.5t12.5 -5.5
q23 -11 41 -25.5t31 -37.5q9 -17 12 -35.5t8 -44.5q3 -18 10.5 -39.5t19.5 -31.5q19 -17 42 -31.5t37 -36.5q6 -10 4.5 -16.5t-7 -9.5t-13.5 -3t-17 3q-11 3 -27 10t-31.5 15.5l-30 17t-22.5 16.5q-11 9 -17.5 20.5t-12 22.5t-12 22.5t-15.5 20.5q-36 30 -75 55q-9 5 -21 10
t-23 6q-10 0 -21 -3.5t-19 -6.5q-12 -5 -22.5 -10.5t-20.5 -13.5q-29 -25 -48 -59l-28.5 -41.5t-35.5 -33.5q-9 -6 -18 -9t-20 -6q-8 -3 -15.5 -4.5t-18.5 -5.5q-16 -5 -33 -14.5t-31 -10.5q-14 -2 -16.5 7t3.5 18q10 13 24.5 21.5l30 17l30 17t24.5 21.5q15 19 20 48t14 56
q7 21 18 36.5t24.5 26.5t29 20l32.5 18q11 7 13 19t4 28q0 18 1.5 35.5t-7.5 28.5q-5 6 -12.5 9.5t-14.5 8.5q-14 11 -28.5 20.5t-27 20t-24 23t-19.5 29.5l-15.5 32t-15.5 28q-7 10 -16.5 16.5t-20.5 11.5t-21.5 10.5t-18.5 13.5q-8 9 -11.5 23t4.5 26t26.5 14t35.5 -3
q15 -3 27 -11t22 -16q15 -11 26.5 -29l22.5 -36.5t23 -36.5t27 -29q8 -6 20.5 -12t13.5 -11q1 -1 0.5 -3.5t0.5 -4.5q8 -45 38.5 -67.5t85.5 -4.5q7 2 16 9.5t15 14.5q5 5 10.5 14.5l10.5 17.5q4 8 7 16.5t9 15.5q6 8 14.5 14.5l16.5 12.5q14 11 23 22t21 32q13 22 25 40
t32 34q10 8 25 14t33 8zM391 630q15 2 21.5 -7t6.5 -23q0 -4 -1 -11t-1 -13.5t2 -10.5t8 -3q4 1 7.5 9.5t8.5 13.5l12.5 17t16.5 14q15 6 23 0.5t11 -17t2.5 -26t-2.5 -25.5q-5 -22 -12 -37t-15 -29q-14 -23 -38 -35t-60 -2q-6 2 -14 8t-11 10q-6 8 -13 21.5t-8 25.5
q-4 22 2.5 46t14.5 40q6 11 14 21.5t25 12.5z" />
    <glyph glyph-name="Y" unicode="Y" horiz-adv-x="687" 
d="M158 706q16 1 21 -9t0 -26q-2 -5 -5 -11t-1 -8q4 -5 10 -0.5l10 7.5q3 3 8.5 7t12 6.5t13.5 2.5t13 -5q5 -5 5.5 -11.5t-1.5 -14t-5 -14.5l-5 -12q-8 -18 -9 -31t2 -25t9.5 -23.5t13.5 -25.5q8 -14 19.5 -25.5t27.5 -15.5q23 -6 37.5 8t25.5 26q11 11 18.5 22.5
t15.5 22.5q3 5 4 3t1 -6.5t-0.5 -10t-0.5 -8.5q-2 -23 -0.5 -41t3.5 -39q3 -22 4.5 -41t-10.5 -33q-8 -9 -18.5 -19t-23.5 -16t-28.5 -7.5t-31.5 6.5q-17 5 -33.5 16.5t-21.5 28.5q-5 18 -10.5 40.5l-10.5 42.5q-2 5 -3 9.5t-3 9.5q-1 3 -4.5 9t-8.5 4q-2 -1 0 -6.5t2 -6.5
l7.5 -29l7.5 -31q3 -16 8 -32t8 -33q5 -23 6 -44t-4 -38q-5 -14 -13 -18.5t-14 1.5q-4 5 -1 12t3 12q0 24 -2.5 43.5t-7.5 38.5q-7 29 -16 58.5l-17 57.5q0 1 -1 5t-2.5 8.5t-3.5 8t-4 2.5t-0.5 -10t4 -20.5t5.5 -22t4 -13.5q2 -8 4 -14t5 -20q8 -29 13.5 -51t5.5 -51
q0 -5 -1 -12t-3 -13t-6.5 -9t-11.5 0q-8 3 -5.5 15t0.5 26q-2 11 -4.5 23t-5.5 23q-5 24 -12 48t-14.5 45.5t-14.5 39.5t-11 30q-5 16 -15.5 30.5t-15.5 31.5q-5 20 4.5 39t21.5 31q6 7 12 15.5t12.5 16t14.5 13.5t18 7zM515 667q39 2 62.5 -21.5t28.5 -54.5q3 -18 1.5 -39
t-6 -41.5t-11.5 -39t-15 -33.5q-4 -8 -10 -17t-11 -18l-39.5 -66l-39.5 -65q-11 -18 -24 -35.5t-25 -36.5q-16 -26 -35 -53t-38 -50q-10 -12 -20.5 -27.5t-22 -29.5t-24.5 -25t-28 -15q-9 -3 -22 -5t-23 0q-9 2 -18 8t-15 14t-6.5 17.5t8.5 18.5q6 6 14.5 6.5t18 0t18 -0.5
t13.5 3q12 7 23.5 21t20.5 27l57.5 79l54.5 81q25 43 53 83t52 82q3 4 5 9.5t-2 6.5q-5 2 -10.5 -6l-7.5 -11l-25 -39.5l-24 -39.5l-14.5 -22.5t-15.5 -22.5l-10.5 -13t-13.5 -13q-3 -2 -8 -3.5t-8.5 -0.5t-5.5 4.5t0 11.5q1 5 5 10t9 12q13 18 23 39t12 53v11.5t-2 13.5
q-4 33 -4.5 72.5t9 74t32 59t64.5 26.5z" />
    <glyph glyph-name="Z" unicode="Z" horiz-adv-x="815" 
d="M649 729q5 -1 13 -8t8 -17q2 -13 -7.5 -25.5l-15.5 -20.5q-5 -7 -11 -14t-12 -6t-13 1h-12q-26 1 -53.5 -1t-53.5 -3q-11 0 -20.5 -0.5t-19.5 1.5q-5 3 -8.5 10t-5.5 15.5t-2 17.5t4 16q9 17 28.5 26l37.5 17q14 5 21.5 11t21.5 13q10 5 22 5t15 -8q4 -8 1 -16.5
t-7.5 -15.5l-8 -12t-1.5 -6q8 -4 17 -1t19 8.5t20.5 10t22.5 2.5zM196 647q29 2 57.5 -3.5t52.5 -9.5l48.5 -10t52.5 -5q15 0 29 1.5t28 1.5q25 1 48 1t49 2q24 1 48.5 1t45.5 -4.5t35.5 -15t18.5 -29.5q3 -15 -3 -31t-16 -31t-22 -27.5t-22 -21.5q-33 -29 -64 -65.5
t-56.5 -70.5l-44.5 -61.5t-29 -38.5l-17 -21q-1 -2 -2 -3t-2.5 -2t-2.5 1q-2 1 -1 9.5t0 12.5q-4 38 -33.5 52.5t-88.5 10.5q-5 0 -15.5 -2t-12.5 0q-2 1 0.5 4l5.5 6.5t6.5 6.5t4.5 3l28 22t25 23q15 18 25 41t18 48q6 25 16.5 49t25.5 40q7 7 16.5 6t21.5 -1
q22 -1 44.5 0.5t42.5 3.5q5 1 13 1.5t9 3.5q0 4 -4 5t-10 0.5t-13 -1.5t-12 -1h-98.5t-97.5 9q-34 7 -66.5 18.5t-74.5 8.5q-18 -1 -35 -4t-35 -5q-14 -2 -22 5t-10.5 16.5t1 19.5t12.5 15q15 8 37 11.5t45 4.5zM291 430q15 3 19.5 -3t3.5 -19q-2 -24 -16 -43q-5 -7 -17 -21
l-24.5 -29t-21.5 -29t-7 -20q2 -5 12.5 -1.5t27.5 7.5q24 4 50.5 6.5t49 -3t36 -20.5t10.5 -46q-2 -22 -16 -39.5t-28 -30.5q-12 -11 -31.5 -24.5t-38 -25l-31.5 -19.5l-13 -8q8 -1 25 -1.5t35.5 -0.5h34.5h22q30 0 64 -0.5t67.5 0t63.5 3t52 8.5q19 5 31.5 13.5t26.5 12.5
q10 3 20 1.5t16 -7t7.5 -14.5t-3.5 -20q-2 -5 -9.5 -13.5t-13.5 -11.5q-24 -13 -58.5 -22t-71.5 -11q-34 -2 -69.5 -1.5t-70.5 0.5q-69 0 -126.5 1.5t-115.5 1.5q-28 0 -55.5 4.5t-40.5 22.5q-8 8 -12 21.5t-5 26.5q0 12 3 30.5t11 23.5l11 2l47.5 12t47.5 13l35 10
q7 2 18 6t10 9q-1 4 -5 4.5t-8.5 -1l-9 -3t-5.5 -2.5q-22 -8 -40.5 -12t-46.5 -12q-3 -1 -10 -3t-13.5 -3.5t-12.5 -2t-7 1.5q-1 3 2 9t7.5 13t8.5 12.5t5 6.5l39.5 51.5t37.5 52.5l23 35.5t24 33.5q6 8 11.5 19t11.5 21t12 17.5t14 9.5z" />
    <glyph glyph-name="underscore" unicode="_" horiz-adv-x="576" 
d="M75 56q12 2 23.5 -10.5t23.5 -16.5q5 -2 12.5 -3t15.5 -1q29 2 60 3.5t64 1.5h65t66 -1q16 0 31 -1t28 2q5 1 10.5 5l10.5 8t10.5 7t11.5 2q9 -2 9 -13q0 -5 -3.5 -9t-7.5 -7t-7.5 -6t-3.5 -7q0 -5 3.5 -9.5t6.5 -9t5 -9t-1 -8.5q-4 -5 -13 -5t-16 4q-8 4 -13.5 8
t-10.5 6q-19 8 -43.5 6t-47.5 -3l-99 -2t-102 3q-11 2 -24 1.5t-24 -2.5q-7 -1 -11.5 -4l-9 -6t-10 -5.5t-12.5 -2.5q-3 0 -7 1.5t-6 4.5q-2 7 1 11.5t8 8.5l9 7.5t3 9.5q0 4 -4 7t-8 7t-6.5 8.5t0.5 11.5t13 7z" />
    <glyph glyph-name="a" unicode="a" horiz-adv-x="800" 
d="M399 708q19 -1 30 -12t18 -23q2 -4 5.5 -9t6.5 -7q7 0 10 11t5 14q5 11 15 19.5t24 2.5q9 -3 19 -15.5t15 -23.5q6 -15 9.5 -33t3 -35.5t-5.5 -34t-15 -29.5q-5 -7 -11.5 -14.5t-10.5 -15.5q-8 -18 -3 -32.5t12 -28.5l11 -28q7 -14 12 -29t11 -29l24.5 -53t15.5 -36
t10.5 -25l8.5 -19q3 -7 7 -13.5t7 -13.5q13 -30 27 -57.5l28 -56.5l12 -23.5t15 -19.5l16.5 -10t7.5 -16q-1 -8 -7.5 -11t-15 -2.5t-17 3.5t-12.5 6q-10 7 -18.5 20.5l-15.5 25.5q-14 26 -27 53l-26 53q-10 20 -18 39t-18 38l-10 20q-11 25 -20.5 50.5t-21.5 51.5l-10.5 22
l-10.5 22l-6 16q-2 -5 -4 -8t-8 -16l-25 -49t-24 -51q-7 -16 -15 -30t-15 -31l-7 -14q-2 -3 -4 -8t-4 -4q-5 2 -11 6t-11 6l-12.5 3.5t-10.5 3.5q-23 8 -47 2t-38 -17l-8.5 -5.5t-4.5 -7.5t5 -3.5t8.5 3.5l9.5 6.5t9 5.5q20 8 41.5 7t38.5 -9q12 -4 21 -12.5t13 -19.5
q12 -35 0.5 -65.5t-30.5 -50.5q-3 -5 -9 -12t-5 -13q0 -4 6 -5.5t14 -1.5t16 1t13 1q15 1 30 -0.5t22 -7.5q3 -2 7 -8t1 -11q-1 -2 -6 -3.5t-10 -1.5q-50 -2 -91.5 0t-83.5 1q-4 0 -14.5 -1t-12.5 4t3.5 11t7.5 11q10 14 20 26t21 27q3 5 11 12.5t6 14.5q-2 4 -5 3.5t-6 -3
t-5 -6t-3 -4.5q-12 -18 -27.5 -35.5t-26.5 -36.5q-2 -2 -3.5 -4.5t-4.5 -6.5q-2 -2 -5 -6.5t-4 -4.5q-2 -1 -8.5 -1h-11.5q-17 -1 -31 0t-26 0q-23 -1 -40 -1t-35 1q-9 0 -15 6t-5 13q1 11 10.5 15.5t21.5 6t24.5 2t20.5 4.5q6 4 13 14.5l12 17.5q11 22 21.5 46l21.5 47
q2 5 6 11t7 12l92.5 191l94.5 186q6 15 2 29.5t-9 29t-7.5 29.5t5.5 30q8 17 27 17zM477 367q2 -2 3.5 -5l2.5 -5l22 -42t19 -44q5 -13 11 -24.5t11 -24.5q6 -15 11.5 -26l10.5 -22l30.5 -69.5t29.5 -55.5q5 -8 17.5 -15t14.5 -18q1 -7 -2.5 -11t-9 -6t-12 -2t-12.5 2
q-20 7 -30 22.5t-19 34.5l-44 95.5l-44 96.5l-15 30.5t-13 29.5q-2 3 -3.5 9t-1.5 8q0 4 4 9.5t6 10.5t6.5 14t6.5 8z" />
    <glyph glyph-name="b" unicode="b" horiz-adv-x="683" 
d="M156 712q18 4 27.5 -6.5t13.5 -22.5q2 -7 3.5 -17.5t8.5 -11.5q4 0 7.5 4t7 11l7 14.5t8.5 13.5q7 9 16.5 12t18.5 1t15.5 -9t8.5 -19q3 -20 -2 -35.5t-13 -29t-15 -27t-7 -30.5q0 -20 13 -35t21 -32q8 -15 11 -32q6 -22 8 -45.5t4 -49.5q4 -49 6 -101t2 -103v-27
t1.5 -26.5t5.5 -23t12 -16.5q10 -7 22.5 -7.5t29.5 1.5q33 5 54 21t33 38.5t16.5 48.5t4.5 51q0 19 -4.5 41t-13 42.5t-20 38t-25.5 29.5q14 7 29 16.5t23 20.5q19 -13 28.5 -28l14.5 -23q23 -47 30 -88.5t6 -83.5q0 -42 -17.5 -78.5t-38.5 -59.5q-21 -26 -53 -37.5
t-73 -11.5q-27 0 -48.5 0.5t-50.5 0.5h-18.5t-15.5 1q-5 2 -1 11t5 24q1 10 2 23t1 24q0 43 -0.5 92.5t-0.5 93.5q-2 32 -2.5 69t-2.5 66q-1 3 -1.5 6.5t-4.5 3.5q-5 -1 -4.5 -7.5t0.5 -7.5q0 -29 0.5 -62t1.5 -61v-37v-24.5t0.5 -20t0.5 -23.5q1 -30 1.5 -55t-1.5 -60
q-2 -38 -17 -55q-6 -8 -18 -15.5t-29 -2.5q-6 2 -10 10t-2 17q3 10 8 18l10 16t9 18t4 25q-1 34 0.5 81t-0.5 90q-1 35 -1 70t-2 69q0 7 -0.5 18t-5.5 12q-7 2 -7 -5v-12q0 -11 0.5 -23t0.5 -22l2 -73t1 -77v-68t-1 -65q0 -11 -3 -18.5t-7.5 -14l-9.5 -13.5t-9 -17
q-2 -4 -3.5 -11.5t-6.5 -11.5q-9 -8 -18.5 -5t-14.5 11t-2 16t8.5 16t12 15.5t9.5 14.5q5 8 5 17q1 74 0.5 138t-0.5 133v55t-1 55q-1 23 -1.5 47t-6.5 46q-5 17 -10 32t-6 38q0 11 0.5 25t3.5 26.5t8 22t14 12.5zM376 709q29 0 57 -10.5t45 -28.5q34 -31 46 -81.5
t-3 -104.5q-6 -21 -13 -36.5t-23 -33.5q-12 -14 -29 -23.5t-29 -14.5q-39 -14 -72 10q-11 8 -15.5 23t0 30t17.5 25.5t36 10.5q11 0 21 -4t21 -10q-1 -4 -6.5 -9t-12 -9t-14 -6.5t-13.5 -0.5q-4 1 -7 2.5t-4 -3.5q-2 -8 5 -9.5t12 -0.5q15 1 30.5 12t24.5 28
q18 32 22.5 71.5t-20.5 80.5q-8 11 -16 19t-19 13t-26.5 8t-38.5 5q-12 1 -18 6t-8 13q-2 9 2.5 14.5t12 8.5t17 4t18.5 1z" />
    <glyph glyph-name="c" unicode="c" horiz-adv-x="840" 
d="M411 771q12 1 20 -5t9 -14q1 -10 0.5 -24.5t4.5 -14.5q5 -1 9.5 3.5l9.5 9.5q7 7 22 12.5t24 -7.5q6 -7 5.5 -19.5t-2.5 -23.5q-2 -10 -7 -21t-12 -21.5t-15.5 -19t-15.5 -12.5q-4 -2 -14 -5.5t-15 -1.5q-3 2 -5.5 7t-4.5 10q-5 11 -14 23t-14 16q-2 2 -6 3t-5 -3
q-1 -2 2 -6t5 -7q8 -10 14.5 -20t11.5 -20q12 -21 26.5 -34t38.5 -20q5 -1 13.5 -2.5t12.5 -3.5q21 -4 38 -15.5t25 -28.5q4 -7 4.5 -18.5t-8.5 -13.5q-12 -4 -21.5 -1t-17 9t-14.5 13t-15 11q-7 4 -17 5t-22 3q-26 3 -41.5 12.5t-32.5 22.5l-9.5 9.5t-13.5 -3.5l-6.5 -6.5
l-6.5 -6.5l-21 -29t-19 -31l-7.5 -15t-6.5 -14q-2 -5 -6 -16.5t-9 -12.5q-5 0 -10 3t-11 6q-4 2 -10.5 4.5t-7.5 -3.5q-1 -5 8 -8t14 -6q29 -16 54 -41q11 -13 18 -33.5t1 -46.5q-1 -5 -3.5 -12t-4.5 -12q-4 -9 -11 -18t-5 -17q0 -2 4 -7.5t7 -7.5q20 -14 43.5 -27.5
t41.5 -33.5q3 -3 8 -11t7.5 -17t1 -16.5t-11.5 -10.5q-3 -1 -8 -0.5t-9 2.5q-15 9 -30 21t-31 23q-34 22 -58 33t-47 29q-5 5 -11 15t-8 18q-1 4 -3 10.5t-5 12.5t-5.5 10.5t-5.5 3.5q-8 -2 -3 -19q4 -14 11 -29.5t15 -28.5l4.5 -7t4.5 -8q21 -35 50.5 -63t64.5 -46
t72.5 -25t73.5 -1q73 12 116.5 51t69.5 106l9 25t7 21q2 7 5.5 15t9 14.5t13.5 10t18 1.5q15 -2 18.5 -13.5t3.5 -28.5q-1 -17 -5.5 -33t-9.5 -30q-5 -17 -13.5 -32.5l-16.5 -30.5q-8 -14 -20 -29l-22 -27q-13 -13 -28.5 -24.5t-29.5 -19.5q-32 -20 -69.5 -30.5t-76 -13
t-76 4t-69.5 21.5q-22 11 -43.5 24t-38.5 28q-17 17 -36 40.5t-30 43.5q-16 33 -29 63.5t-20 68.5q-7 36 -2 71.5t14 66.5q21 70 59.5 119t87.5 89q19 16 32 29.5t23.5 27t19.5 27t20 28.5l14 16t19 11zM523 664q14 0 26.5 -3t23.5 -6q25 -6 46.5 -17.5t40.5 -24.5
q15 -11 29 -27t18 -33q1 -5 0 -11t-5 -10t-10 -5.5t-13 1.5t-13.5 8t-13.5 11q-11 10 -23 18l-26 18q-39 25 -106 31q-8 1 -12 1t2 5q6 6 10.5 12.5t10.5 16.5l7 14q2 1 4.5 1h3.5z" />
    <glyph glyph-name="d" unicode="d" horiz-adv-x="843" 
d="M249 729q13 2 17 -4t3 -15t-3 -19.5t0 -17.5t9 -7q5 1 7.5 6t5.5 10q5 9 15 20.5t24 10.5q19 -2 22 -16q2 -7 0.5 -15.5t-4.5 -15.5q-8 -19 -13 -41t-7 -38q-5 -49 -8.5 -88t-4.5 -88q-1 -36 3 -72.5t7 -72.5q1 -13 4.5 -34.5t9 -44t12 -42t13.5 -27.5q23 -26 51 -34
t57 -3t57.5 21t52 38.5t39.5 48.5t21 52q8 38 10.5 67t-2.5 58q-5 34 -13.5 65.5t-22.5 64.5q-5 13 -12 23.5t-14 19.5q-18 21 -34 35t-31.5 22.5t-31 13.5t-33.5 9q-21 5 -39 17.5t-18 35.5q0 15 11 23.5t29 10.5q34 3 63 -3t52 -17q31 -14 57 -35.5t47 -48t36 -56
t25 -58.5q16 -49 23.5 -98t0.5 -100q-5 -44 -16.5 -80.5t-28.5 -65.5q-11 -20 -26.5 -40t-33.5 -38t-38 -32.5t-40 -21.5q-13 -4 -27 -7.5t-28 -5.5q-23 -2 -55 -2t-62 2l-73 4q2 4 2.5 6t0.5 7q0 6 -2 11.5l-5 13.5q-10 26 -23 48q-3 7 -13 5q-3 -2 0 -8.5t5 -9.5l13 -27.5
t8 -23.5q3 -13 -3 -18.5t-18 -7.5q-17 -2 -37 0.5t-36 2.5h-54q-6 0 -16 -2t-19 -2.5t-14.5 3t-2.5 15.5q3 11 17 16t28 6q27 3 59 3q3 0 10.5 -0.5t7.5 4.5t-4.5 6.5t-10.5 1.5t-11.5 -0.5t-6.5 0.5t-4 10t-5 12q-6 12 -14 29.5t-13.5 36.5t-5.5 38.5t9 36.5q17 31 61 31
q24 -1 40.5 -10.5t31.5 -26.5q3 -4 6 -7t5 -1q6 4 1 11.5t-14 15.5t-19.5 15t-16.5 9q-24 9 -45 6q-1 0 -5 -1t-4 0q-3 1 -4.5 12.5t-1.5 14.5q-6 33 -8 69.5t0 68.5v9t1 7q2 2 6 -2l7 -7t8 -7t10.5 -7t9.5 -3.5t5 4.5q1 4 -4 7.5l-8 5.5q-14 11 -29.5 27.5t-25.5 31.5
q-8 13 -14 28.5l-12 30.5t-13 28.5t-18 24.5q-8 8 -20 15t-17 15q-6 13 2 23t22 8q18 -1 33.5 -13.5t23.5 -23.5q14 -20 21 -45.5t21 -47.5q6 -10 12 -17t11 -14q6 -8 14.5 -15t17.5 -12q8 -4 13 -0.5t-3 9.5q-11 8 -20.5 16.5t-18.5 19.5q-3 3 -8.5 11t-7.5 14q0 4 2 9.5
t2 9.5q-1 14 -8 25.5t-10 23.5q-3 20 1 36.5t10 29.5q7 13 18 30.5t32 20.5zM62 615q13 -7 24 -14t19 -18q9 -11 14 -24.5t11 -27.5q4 -10 7 -18.5t9 -19.5q5 -10 11.5 -17t11.5 -14q5 -6 5 -9t-1 -10t-1.5 -14t-0.5 -12q-5 3 -9 7q-4 3 -7.5 5t-4.5 4q-19 19 -28 44t-21 53
q-7 20 -15 32.5t-23 24.5q-5 3 -8.5 8.5t-1.5 11.5q1 6 9 8z" />
    <glyph glyph-name="e" unicode="e" horiz-adv-x="633" 
d="M358 771q11 -3 20 -16t15 -27q8 -18 6 -38t-10 -36l-5.5 -10.5t-6.5 -7.5l-43 -5q-5 -1 -14 -3t-9 -5q0 -4 4.5 -4t9.5 1q45 6 91 9t90 -1q17 -2 33 -5.5t20 -15.5q3 -9 -2.5 -14t-15.5 -6q-8 0 -14.5 1t-12.5 1q-25 2 -52.5 1.5t-50.5 -2.5t-43 -4t-43 -5
q-6 -1 -13.5 -3.5t-12.5 -4.5q-4 -2 -8 -8t-7 -11q-13 -18 -21 -35.5l-17 -37.5l-7.5 -15.5t-5.5 -17.5q-1 -3 -6.5 -2t-10.5 1q-16 -1 -24.5 -4t-16.5 -8q-13 -6 -7 -12q4 -4 13.5 2t15.5 8q17 5 33 1.5t30.5 -12.5t27 -21l23.5 -22q11 -11 25 -20t34 -11q17 -2 35 4l35 12
l18.5 7t21.5 6.5t22 2.5t20 -6q6 -4 8.5 -10.5t-2.5 -12.5q-3 -4 -10 -6t-12 -3q-26 -6 -50 -14l-49 -16l-31 -12q-17 -5 -29.5 -3.5t-24 6t-22.5 9.5t-24 8q-16 2 -38.5 3t-39.5 -6q-6 -3 -7.5 -6t-3.5 -14q-5 -20 -5 -40.5t2 -37.5l5 -44.5t10 -42.5q11 -28 33 -44.5
t58 -20.5q35 -3 67.5 0.5t61.5 5.5q30 2 50 -8.5t12 -34.5q-4 -12 -16 -18.5t-28 -10t-32.5 -4.5t-29.5 -2q-17 -2 -33.5 -2t-35.5 1q-20 1 -40.5 3t-37.5 7q-19 3 -35 14q-14 9 -24 21.5t-19 26.5q-19 30 -28.5 74.5t-11.5 89.5q-2 28 -2 65.5t3 78t9 81.5t17.5 78t29.5 66
t43 46q7 5 18.5 9.5t16.5 13.5q4 7 4 17.5v18.5l2 15.5t6 15.5q6 10 18.5 16t23.5 0q5 -3 7.5 -9t4.5 -10q2 -6 4.5 -10.5t8.5 -4.5q5 0 6 9.5t2 15.5q2 10 7 19.5t15 11.5h4zM418 672h46.5t45.5 -2q13 -2 25.5 -4.5t19.5 -9.5q6 -6 5 -13.5t-11 -7.5q-14 0 -26.5 1.5
t-29.5 2.5t-27 1h-17.5t-15 -0.5t-18.5 -0.5q-12 -1 -16.5 -1t-5.5 2l6 12q3 6 4.5 11.5t2.5 7.5q0 1 5 1h7zM249 462q3 3 10 -1q15 -9 28 -15.5t24 -14.5q15 -11 27 -24t28 -18q4 -2 10.5 -1.5t13.5 2t13 3.5t11 3q17 4 34 14t40 13q16 2 23 -7.5t-5 -19.5q-7 -5 -14.5 -7
t-20.5 -6l-55 -17l-22.5 -6.5t-23.5 -0.5q-15 3 -29.5 12t-24.5 19q-14 14 -32 27.5t-37 22.5q-8 4 -5.5 11t7.5 11z" />
    <glyph glyph-name="f" unicode="f" horiz-adv-x="719" 
d="M356 693q20 5 49 7t59 2t57 -2t42 -5q10 -2 23 -6t25 -10t21.5 -14.5t13.5 -18.5q10 -23 -3.5 -40.5t-40.5 -22.5q-31 -5 -65.5 1.5l-69 13t-67.5 7t-60 -16.5q-15 -10 -23 -30.5t-4 -47.5q2 -13 6 -26t6 -27q3 -21 3.5 -44.5t-4.5 -41.5q-2 -3 -3 -5.5t0 -5.5
q1 -6 4.5 -6t9 2.5t12 6t12.5 4.5q12 2 26 1.5t25 -5t17 -13t3 -23.5q-2 -8 -9.5 -14.5t-15.5 -9.5q-5 -2 -9.5 -3.5t-4.5 -6.5t8 -9t16.5 -10t14 -15t0.5 -22q-6 -12 -15.5 -20t-21.5 -12.5t-25 -6t-25 -1.5q-14 1 -34.5 9.5t-31.5 16.5q-3 2 -6 5.5t-5 1.5q-2 -1 -3 -12
t-1 -14q-1 -21 -2.5 -46t-2 -49t0.5 -44t4 -31q4 -12 6.5 -22.5t-8.5 -16.5q-8 -4 -14 -2t-11 7.5t-8 13t-4 14.5q-2 13 -2 28t-1 27q0 35 0.5 73.5t-1.5 72.5q-1 16 -8 25.5t-10 21.5q-4 16 -2.5 36.5t6 41.5t10.5 40.5t11 33.5q0 1 4.5 0t9.5 0t10.5 6t8.5 10q1 2 3 7.5
t0 7.5q-2 1 -3.5 -1l-4 -5.5t-5.5 -7t-7 -4.5q-19 -6 -35 5.5t-21 24.5q-5 11 -7 28t-4 36q-1 8 -0.5 17.5t-4.5 9.5q-5 1 -7.5 -4.5t-4.5 -11.5q-5 -14 -10.5 -31.5t-13.5 -33.5q-4 -8 -9.5 -16t-11.5 -12q-7 -5 -15 -5t-10 7q-1 4 2 10t5 12q7 19 14.5 36.5l15.5 35.5
q13 29 22.5 55.5l18.5 53.5q2 7 7 12.5t10 5.5q10 1 18 -9.5l13 -17.5q14 -19 23 -32.5l18 -27.5q3 -4 8.5 -13.5t10.5 -9.5q6 1 1 10.5t-7 11.5q-2 5 -7 11.5t-5 11.5q0 2 3.5 7.5l5.5 8.5q15 23 36.5 40.5t54.5 25.5zM276 210l4.5 -2t10 -5l10.5 -5.5t6 -3.5q2 -5 0 -16.5
t-2 -13.5q-3 -23 -2.5 -47.5t1.5 -47.5q0 -7 3 -16t5.5 -18.5t2 -18t-7.5 -13.5q-3 -3 -13 -3t-12 5q-1 2 -1 8q-1 16 -5.5 25t-4.5 30q0 18 -0.5 46.5t1.5 49.5q1 13 1.5 25t2.5 21z" />
    <glyph glyph-name="g" unicode="g" horiz-adv-x="837" 
d="M598 711q17 2 28 -9.5t16 -23.5q2 -5 3.5 -14t5.5 -9q3 -1 4.5 5.5t3.5 9.5q4 7 10.5 13t16.5 3q8 -3 14.5 -12t8.5 -16q5 -19 5 -39.5t-6 -37.5t-19 -29t-34 -13q-14 -1 -31.5 2.5t-33.5 10.5t-28.5 17.5t-18.5 23.5l-9.5 25t-13.5 23q-2 3 -6.5 6t-7.5 -1t3 -12t7 -10
q8 -14 12 -31.5t18 -28.5q20 -17 47 -23.5t53 -19.5q9 -5 17.5 -15.5t0.5 -22.5q-3 -5 -7 -5.5t-8 1t-7.5 4.5t-6.5 5q-20 12 -44 18t-48 16q-19 6 -37.5 12.5t-26.5 25.5q-2 5 -4.5 10.5t-4.5 13.5q-1 3 -2 9t-2.5 10.5t-3.5 6.5t-5 -4q-3 -8 0.5 -17.5t1.5 -15.5
q-2 -2 -6.5 -2t-8.5 -1q-38 -7 -66.5 -28l-54.5 -41q-2 -2 -6.5 3t-6.5 8q-14 14 -35.5 26.5t-49.5 10.5q-5 0 -12 -1t-5 -8q0 -2 4.5 -3t10.5 -1h12t9 -1q38 -6 62.5 -37.5t29.5 -73.5q3 -29 -5 -52t-19 -42q-5 -9 -10.5 -16t-4.5 -18q2 -9 7 -17l9 -15q8 -13 16.5 -25
t14.5 -27q3 -5 4 -12.5t-0.5 -13.5t-6 -8.5t-12.5 3.5q-5 5 -11 13.5l-12 16.5l-42 59.5t-42 63.5q-4 6 -5.5 8l-4.5 6l-4 2q-4 2 -6 1q-2 -3 3.5 -11.5t6.5 -9.5q3 -5 6.5 -11.5t4.5 -11.5q2 -8 1 -16.5t-1 -16.5q0 -10 2.5 -25.5t7.5 -27.5q5 -15 14.5 -28.5l17.5 -25.5
q5 -7 10.5 -10t12.5 -13q5 -7 11.5 -13t12.5 -10q17 -12 39 -22.5t42 -12.5q17 -3 34 -2.5t37 2.5q29 2 54.5 12t47.5 21q22 12 41 36t32 47q8 16 11.5 37.5t-1.5 44.5q-4 20 -23 33q-11 9 -24 11.5t-27.5 3.5l-29.5 2t-29 6q-8 3 -13 10t-7 16t0 17.5t8 14.5q15 16 41 21
t53 2q29 -4 53.5 -16t42.5 -29q28 -26 38 -64.5t5 -79.5q-5 -38 -15 -66t-24.5 -49t-32.5 -37t-39 -32q-23 -17 -52.5 -28.5t-60 -17.5t-61.5 -8t-57 1q-51 5 -95 27t-79 56.5t-60 79.5t-38 96q-5 19 -8 37.5t-4 38.5t0.5 42.5t6.5 48.5q10 58 40.5 112t74.5 94t99 61.5
t115 13.5q32 -2 58 -9.5t49 -18.5q6 -3 8 -5.5t6 -2.5q5 1 4.5 8t0.5 11q2 11 8 18.5t17 7.5z" />
    <glyph glyph-name="h" unicode="h" 
d="M676 740q23 2 33.5 -14t7.5 -42q-3 -31 -8 -62.5t-7 -64.5q-2 -17 -1 -33.5t1 -31.5q1 -66 -1.5 -129.5t-15.5 -118.5q-3 -12 -8 -26t-8.5 -28.5t-3.5 -28t8 -23.5q5 -8 14 -12.5t12 -15.5q3 -16 2 -36t-3 -37q-1 -9 -2.5 -18.5t-3.5 -16.5q-4 -8 -13.5 -7.5t-13.5 4.5
q-6 7 -7.5 18t-2 22l-1 22t-3.5 20q-5 9 -13.5 15.5t-19 11.5t-20.5 10.5t-16 13.5q-20 26 -23.5 65t1.5 78v9t-5 7q-4 0 -6.5 -3.5t-3.5 -9t-1.5 -11t-0.5 -8.5q-2 -17 -1 -42.5t6 -41.5q5 -18 15 -35t23 -28q3 -2 6.5 -4t5.5 -5q2 -4 1 -11.5t-1 -12.5q-2 -11 -2.5 -24
t-1.5 -24q0 -5 -0.5 -11.5t-2.5 -12.5q-6 -11 -17 -8.5t-14 13.5q-4 11 -4.5 22.5t-2.5 23.5q0 9 1 19.5t-3 19.5q-3 7 -10.5 10t-13.5 8q-10 6 -22 16q-11 12 -16 30.5t-6.5 38.5t0 40t3.5 34q1 4 1 15t4 13q1 1 6 1.5l10.5 1t10 1.5t4.5 4q1 5 -9 5h-13q-17 -2 -35.5 -6
t-34.5 -8q-26 -5 -51 -12.5l-47 -14.5q-17 -5 -28 -11t-16 -23t-7.5 -34.5t-5.5 -34.5q-4 -19 -7 -38t-7 -37l-7.5 -35t-8.5 -34q-5 -14 -15 -22.5t-25 -6.5q-13 1 -14.5 6.5t1.5 13t8.5 16.5t7.5 18q5 23 8.5 51t7.5 55q2 13 3.5 26.5t0.5 26.5q0 15 -10 13t-13 -13
q-4 -13 -5.5 -28.5t-3.5 -29.5l-9.5 -59.5t-14.5 -53.5q-5 -14 -14 -27.5t-31 -11.5q-12 1 -13.5 6.5t1.5 13t8 14.5l7 10q8 15 11 31.5t5 37.5q3 23 5.5 46.5t4.5 48.5q1 14 3 30t3 33q2 83 -18 143q-4 13 -8 23t-9 20q-11 21 -23 49t-19 51q-8 26 0.5 50t19.5 41
q11 21 25 35q4 5 10.5 10t14 8t14.5 2t12 -7q3 -4 3 -11.5t-0.5 -15t0 -14t4.5 -7.5q3 -1 6 2t6 7.5l6 9t6 7.5q5 6 14 11t18.5 6.5t17.5 -2.5t11 -17q3 -15 -1.5 -29.5t-10.5 -29.5t-10.5 -31t-1.5 -34q1 -7 4 -16t7.5 -17t10.5 -14t13 -8l102 -22.5t102 -17.5
q28 -2 57.5 -3.5t55.5 1.5q11 1 11.5 13t0.5 26q-1 27 1 54.5t3 50.5q1 36 6.5 70.5t19.5 54.5q5 8 13.5 13.5t19.5 5.5z" />
    <glyph glyph-name="i" unicode="i" horiz-adv-x="555" 
d="M239 708q14 1 22.5 -7t13.5 -17q4 -6 7 -18.5t8 -13.5t11.5 6.5l15 16.5t19 15t24.5 3q12 -4 17.5 -15t6.5 -25.5t-1 -29t-5 -25.5q-7 -23 -18 -38t-11 -23q0 -5 6.5 -10.5t10.5 -13.5q12 -23 16.5 -58t0.5 -73q-2 -25 -7 -48t-11 -46q-13 -50 -23 -99.5t-19 -99.5
q-1 -8 -4 -17t-1 -16q1 -8 6 -14l10 -12t7 -13t-4 -17q-4 -8 -12 -11t-16.5 -2.5t-16.5 4t-12 10.5q-7 9 -7 21q0 45 1.5 90.5t4.5 89.5q0 24 1.5 46.5t1.5 47.5q0 8 -0.5 17t-3.5 10q-10 2 -10 -9.5v-21.5q0 -26 -0.5 -58t-2.5 -61q0 -12 -0.5 -24t-0.5 -26v-58t-8 -54
q-2 -5 -7 -10t-12.5 -9t-16 -5t-16.5 3q-6 5 -10 11t-2 14q2 10 7.5 15t10.5 16q7 15 5.5 39.5t-3.5 43.5q-2 23 -5.5 41t-5.5 35l-14 122l-3.5 35t-1.5 32q-2 21 -2 41.5t4 43.5q2 13 8.5 22.5t13.5 16l12.5 11.5t6.5 9q2 9 -6 17.5t-13 16.5q-14 22 -14.5 56.5t15.5 60.5
q10 16 32 19zM176 276q3 1 4 -4t3 -10l4.5 -41l4.5 -39q4 -25 7.5 -51.5t5.5 -55.5q1 -14 -4.5 -23t-12.5 -17q-4 -5 -4.5 -8t-2.5 -8q-1 -2 -9.5 -3t-17.5 -3l-29 -7q-11 -2 -24 -3.5t-15 12.5q-2 11 6.5 17.5t19.5 10.5l21.5 7.5t14.5 8.5t3 11l-2 12q-5 19 -9 42t-5 46
t2 45t12 39q2 6 10 14t17 8zM379 273q6 0 15 -8t11 -13q9 -13 11.5 -29.5t1 -34.5t-5.5 -35.5l-8 -33.5l-5 -18l-6 -22t-4 -21t3 -14q5 -7 13 -9l16 -4t15.5 -5t10.5 -12q4 -12 -5.5 -15t-23 -1t-27 6t-18.5 5q-5 2 -12 2.5t-9 3.5q-2 2 -2.5 6.5t-3.5 9.5q-5 8 -11.5 13.5
t-5.5 16.5q3 24 7.5 44.5l9.5 43.5l11.5 57t12.5 54q1 3 2.5 8t6.5 5z" />
    <glyph glyph-name="j" unicode="j" horiz-adv-x="783" 
d="M511 707q9 -2 16 -8.5t12 -15.5t8.5 -19l6.5 -18q3 -13 0.5 -25.5t-7.5 -24.5l-10.5 -24.5t-7.5 -25.5q-1 -4 -2 -11.5t-1 -13.5q1 -4 -2 -2t-5 3l-21 13.5t-24 14.5q-5 2 -14 5t-11 -5q-1 -4 5.5 -5t10.5 -3q7 -3 20.5 -12t28 -17t27 -13.5t17.5 -1.5q8 6 18 15t22 16.5
t25 11.5t28 -1q16 -5 18.5 -19t-11.5 -20q-2 -1 -5 -1h-4q-14 -2 -24.5 -7.5t-20.5 -13.5q-8 -6 -14.5 -13t-13.5 -13t-16.5 -9t-23.5 0q-9 3 -21 6.5t-22 7.5q-3 2 -11 4.5t-6 -4.5q1 -3 9 -7.5t12 -6.5q5 -2 12 -4.5t8 -4.5q2 -2 2 -6v-6q1 -15 1 -34.5t1 -30.5
q0 -8 3 -21t1 -18q-1 -3 -5.5 -7.5l-6.5 -6.5l-7.5 -10t-8.5 -12.5t-6.5 -13t-1.5 -10.5q2 -6 5 -5t5.5 4.5t5 8t4.5 6.5q9 11 17 22.5t19 21.5q8 7 19 13t21 5q16 0 21 -16t3.5 -36.5t-5.5 -40t-6 -26.5q-2 -6 -4.5 -16t-3 -19t3 -13t13.5 2l9 6q15 14 32 27.5t36 20.5
q5 2 13 3.5t15.5 1t12.5 -4t4 -12.5q-2 -8 -13 -13.5l-22 -10.5q-18 -8 -33.5 -19t-30.5 -24q-16 -14 -30 -29t-31 -23q-5 -2 -7.5 -2.5t-9.5 0.5q-10 1 -15.5 7.5t-9.5 13.5t-8.5 14t-11.5 10q-9 3 -22 0t-19 -7q-5 -5 -11 -15.5t-13 -20.5q-17 -23 -39.5 -44t-46.5 -34
q-42 -21 -82 -21t-77 18q-17 9 -26 17q-24 19 -42.5 45.5t-30.5 56.5t-16 62.5t0 63.5q4 24 8.5 44t13.5 43l9 17.5t11 17t13.5 11.5t17.5 3q11 -2 17.5 -8t8.5 -14t1.5 -17t-2.5 -17q-8 -27 -17.5 -53.5t-9.5 -55.5q2 -30 10 -55t21 -50q17 -33 44 -45t56 -8.5t55.5 20.5
t41.5 41q15 25 23 53t12 57.5t4.5 58.5t0.5 56q0 22 -0.5 40.5t-0.5 35.5q0 35 -2 68t-6 64q-3 16 -6.5 25.5t-8.5 24.5q-3 10 -2 23.5t6 25t14.5 17.5t23.5 1q8 -3 19 -15q1 -2 3.5 -6t5.5 -7t6 -4t5 4q2 3 2 9t1 9q3 16 9 27t21 9z" />
    <glyph glyph-name="k" unicode="k" horiz-adv-x="604" 
d="M433 701q13 0 13 -11.5t-7 -21.5q-9 -12 -23.5 -22t-28.5 -21q-7 -5 -17 -13.5t-15 -16.5q-7 -11 -8.5 -22.5t-5.5 -18.5q-3 -8 -13 -18.5l-19 -20.5q-11 -12 -30 -18t-34 -8q-12 -2 -7.5 2.5t7.5 6.5q12 9 22 24.5t16 32.5l14 37q5 13 15.5 23t23 18l25 15.5t23.5 15.5
t17.5 16.5t16.5 15.5q3 2 6 3.5t9 1.5zM278 183l11.5 -5.5t15 -8l14.5 -8.5l12 -7q21 -13 31.5 -29.5t26.5 -37.5q15 -15 31 -27t35 -22q4 -3 9.5 -5.5t10 -5.5t7 -7t0.5 -10q-3 -6 -9 -8.5t-12 -1.5q-14 2 -28.5 11t-27.5 20.5t-23.5 24t-16.5 23.5q-11 20 -25.5 37
t-37.5 28q-7 3 -10.5 3t-5.5 8q-2 5 -2.5 10t-2.5 9t-3 9zM195 709q19 2 28 -9.5t11 -25.5q5 -32 2 -70.5t-6 -69.5q-1 -12 -1.5 -22.5t-0.5 -23.5q0 -10 2 -11q3 -1 8.5 -0.5t10.5 1.5q18 3 34 8t28 16q7 6 12 12.5l13 16.5q7 8 14 15l13 13q8 10 22 16t30 10t32 6.5
t30 5.5q12 4 23 9.5t25 7.5q13 2 13.5 -8t-6.5 -19q-10 -13 -27 -20l-33 -13q-17 -6 -36 -12t-33 -17q-12 -11 -19 -24l-15 -29t-15 -27q-13 -20 -30.5 -34.5t-36.5 -26.5l-20 -13.5t-22 -10.5q-3 -2 -11 -5t-8 -8q2 -4 7.5 -2t9.5 4q2 1 9 3.5t9 1.5q2 -2 2.5 -11t0.5 -13
q2 -14 3 -27.5t7 -24.5q3 -4 11 -9.5l17.5 -11.5t18.5 -10.5t13 -7.5q26 -16 45 -30.5t34 -39.5q9 -20 21 -37.5t29 -29.5q15 -11 33.5 -18t29.5 -18q9 -11 4 -24t-23 -11q-15 2 -28.5 9t-24.5 14q-13 7 -24 16t-18 17q-6 7 -12.5 12t-12.5 13q-8 14 -17.5 26t-23.5 23
l-13.5 8t-17.5 9.5l-17 8.5t-14 6q-11 6 -22.5 11l-22.5 10l-15 7.5t-15 3.5q-5 0 -5 -4q0 -3 6 -6.5t14 -7t15.5 -6t9.5 -3.5q4 -2 9 -3.5t6 -4.5l19 -65q4 -12 8 -26.5t3 -28.5q-2 -21 -11 -37.5t-22 -27.5q-4 -3 -11 -7t-12 -5q-16 -3 -30 1.5t-32 1.5q-9 -1 -19.5 -2
t-18.5 0.5t-13.5 6t-5.5 15.5q0 10 7.5 16.5t16.5 11.5t16.5 8.5t7.5 7.5q-2 7 -11 4t-13 -3q-9 -2 -19.5 -0.5t-18.5 5.5t-11 12t3 20q4 9 14.5 14.5t21.5 10.5t19 13t8 22q0 5 -1 14.5t-3 14.5q-6 48 -10.5 103t0.5 113q0 8 1 14.5t1 15.5q2 50 7 98t8 99q2 18 4.5 38.5
t11.5 31.5q2 3 6.5 6t9.5 3z" />
    <glyph glyph-name="l" unicode="l" horiz-adv-x="683" 
d="M243 719q11 0 14.5 -8t4.5 -18t1.5 -20t5.5 -15q6 -7 17.5 -3.5l23.5 7.5t22.5 4t15.5 -12q3 -7 2 -17t-4 -15q-8 -17 -22.5 -28t-22.5 -25q-6 -11 -9.5 -24.5t-2.5 -30.5q1 -24 12.5 -45.5t18.5 -42.5q5 -16 7 -36.5t2.5 -42.5t0 -44t-0.5 -42v-6t-1 -7t-2 -3.5t-3 4.5
q-9 24 -25 45t-46 25q-22 2 -35 -8t-21 -22q-11 -18 -15.5 -43t-7.5 -52q-2 -13 -3 -29.5t1 -29.5q1 -18 5 -38.5t8 -36.5q3 -12 0 -13q-5 -2 -13 -2.5t-13 -0.5h-6q-6 0 -6 2q-2 3 -0.5 13t1.5 13q0 60 3.5 115.5t6.5 110.5q2 39 5 74.5t11 68.5q14 54 5 110l-5.5 28t-4 26
t0 26t6.5 29q3 9 9.5 19.5t15.5 19.5t20 14.5t23 5.5zM244 305q11 1 23 -5t19 -12q18 -14 29.5 -45.5t11.5 -69.5q0 -25 -3.5 -58t-3.5 -60q0 -5 0.5 -9.5t2.5 -4.5q3 0 4.5 4.5t1.5 10.5v12v9q1 4 7.5 5.5t21.5 1.5h39t60 1q17 0 39.5 2.5t45 3.5t43 -1t32.5 -10
q9 -8 13 -18.5t3 -21t-7 -20t-17 -13.5q-14 -4 -33.5 -4.5t-36.5 -0.5q-93 0 -180 -1.5t-174 -1.5q-8 0 -16 -0.5t-20 -0.5h-26.5t-15.5 12q-1 13 11 17q5 2 16.5 4.5t22.5 2.5h10.5h12.5t11 1t7 4q3 5 -0.5 18.5t-5.5 19.5l-5 22t-3 18q-2 26 -0.5 52.5t5.5 48.5
q6 24 10.5 45t19.5 34q5 3 11 5t14 3z" />
    <glyph glyph-name="m" unicode="m" horiz-adv-x="986" 
d="M586 709q29 1 54 -11t40 -26q18 -17 27.5 -35t16.5 -41q4 -13 7.5 -28t14.5 -15q8 0 14 9.5t11 13.5q5 5 15.5 10.5t19.5 -1.5q13 -8 12.5 -25.5t-3.5 -32.5q-1 -3 -3 -10t0 -9q1 -2 5 2q2 2 3 4q3 4 6.5 10.5t8 12.5t10.5 9.5t14 2.5q12 -3 14 -18.5t2 -29.5
q0 -26 -5.5 -48t-14.5 -41q-9 -17 -29.5 -34t-49.5 -14q-7 1 -18.5 4t-16.5 5l-9 3.5t-9 4.5q-4 2 -9 5t-7 2q-3 -2 -2 -10t2 -14l13.5 -75.5t12.5 -64.5q7 -32 13 -68t13 -67l5.5 -22.5t8.5 -19.5q5 -6 13 -14.5t7 -19.5q-2 -10 -13 -14t-22 0q-14 5 -22 16t-13 25
t-8.5 30.5t-7.5 33.5q-9 36 -16.5 71.5l-15.5 70.5l-15 69q-8 27 -13 55.5t-12 54.5q-2 9 -5.5 20.5t-10.5 14.5q-8 4 -19.5 7t-20.5 0q-7 -3 -8 -14t-2 -19q-2 -25 3 -49.5t9 -46.5q4 -24 11 -46.5t10 -48.5q6 -58 -29 -79q-9 -6 -16 -10t-15 -8l-28 -14t-14 -27
q-2 -22 6 -43t11 -41q2 -11 -0.5 -18t-16.5 -3q-2 1 -4 3.5t-4 4.5q-7 13 -11 28.5l-8 31.5q-5 17 -9 32.5t-7 29.5q-2 6 -3 12.5t1 10.5q2 6 13 11.5l19 9.5q25 12 42 35.5t13 64.5l-4 21q-4 22 -8.5 40t-6.5 42q-2 22 -1.5 44t0.5 42q0 4 1 10t-5 6q-5 -2 -6 -10.5
t-1 -17.5q-2 -20 -2 -39.5t2 -39.5q2 -16 5 -31.5l6 -32.5q3 -14 5.5 -27.5t1.5 -29.5q0 -14 -5 -26.5t-12 -20.5q-7 -6 -16 -11.5t-19 -10.5q-8 -4 -21 -9.5t-17 -13.5q-5 -11 -6.5 -26t-0.5 -30.5t3 -31t4 -27.5q2 -11 2.5 -26t-7.5 -20q-9 -6 -14.5 -2t-8.5 12.5t-4 19
t-2 16.5q-2 13 -3.5 25t-3.5 22q-3 28 -8.5 58t2.5 58q3 9 8.5 16l11.5 14t11.5 14.5t7.5 16.5q2 23 -5.5 43.5t-12.5 40.5q-7 28 -16 56.5t-19 54.5q-9 19 -20.5 38.5t-28.5 26.5q-13 6 -23.5 2.5t-15.5 -15.5q-17 -40 -24.5 -84.5t-18.5 -84.5l-14 -73t-16 -71
t-15.5 -65.5t-14.5 -55.5q-5 -17 -11 -35.5t-15 -29.5q-11 -13 -31.5 -16t-32.5 11q-7 7 -10.5 21t-2.5 25q0 28 4 50.5t9 56.5q11 68 28 134.5t28 133.5q8 52 19 89.5t25 77.5q12 33 32.5 53.5t43.5 26.5q33 8 56.5 0.5t45.5 -20.5q15 -8 28 -19t27 -25q2 -3 7.5 -7t5.5 -9
q0 -4 -3 -9.5t-5 -8.5t-6.5 -13t-8 -21t-5 -20.5t1.5 -10.5q5 -1 6.5 5t2.5 8q11 28 23 53.5t27 48.5l19 27t22.5 25.5t29 18.5t39.5 7zM733 364q3 1 11 -2t16 -5q13 -2 16 -6q5 -11 6 -26.5t4 -26.5q5 -22 7.5 -46t7.5 -44q4 -23 8.5 -46t10.5 -46q4 -16 8.5 -27t12.5 -23
q3 -6 8 -12t8.5 -13t4 -14.5t-5.5 -15.5q-4 -5 -11.5 -8.5t-17.5 0.5q-9 5 -17 16t-12 19q-10 24 -16.5 50t-11.5 55q-8 46 -18.5 93.5t-16.5 95.5q-2 12 -3 21.5t1 10.5z" />
    <glyph glyph-name="n" unicode="n" horiz-adv-x="805" 
d="M678 704q20 0 25 -15t-6 -29q-5 -5 -13.5 -11t-6.5 -11q0 -8 11.5 -8t17.5 1q17 2 28.5 -4t10.5 -24q-1 -14 -10.5 -22t-21.5 -16q-11 -7 -21 -11.5t-18 -11t-13.5 -16.5t-7.5 -26q-3 -40 1 -89.5t3 -92.5q-2 -55 -1 -101.5t0 -99.5q0 -20 1 -34t5 -25q4 -9 10 -19t4 -23
q-3 -15 -18 -16t-22 10q-8 13 -12 30.5t-6 31.5q0 11 -0.5 20.5t-1 24t-0.5 35.5v55v77q0 3 0.5 8.5t0 11t-2 9.5t-4.5 4q-7 1 -6 -9.5t1 -16.5v-119v-63t3 -54q1 -6 4 -15t5 -17t1.5 -15t-7.5 -10q-10 -5 -17.5 -2t-12.5 9t-7.5 14.5t-3.5 16.5q-7 32 -5.5 63.5t1.5 67.5
q0 35 -0.5 68t2.5 71q0 5 -1 11t-7 5q-5 0 -5 -12.5v-19.5q-1 -17 -1 -36.5v-40.5v-59q0 -30 -0.5 -54.5t2.5 -55.5q2 -12 3.5 -25.5t-8.5 -18.5q-3 -2 -8.5 -2.5t-10.5 -0.5q-24 2 -43 16.5t-29 31.5q-20 31 -37 66l-33 69l-37 81t-39 80q-16 30 -28.5 59.5l-27.5 62.5
q-2 3 -4.5 9t-5.5 12.5t-6.5 11t-6.5 4.5q-8 0 -10 -15t-2 -26q0 -34 1.5 -66.5t1.5 -66.5q0 -59 3 -119.5t-2 -116.5q-2 -29 -12 -51.5t-24 -34.5q-8 -7 -20.5 -11t-25 -3.5t-23 6.5t-13.5 19q-4 14 0 23t12 23q6 11 11.5 17.5t8.5 17.5q5 14 7 31t2 40v35t-1 38
q-2 45 -1.5 87t0.5 84q0 45 -1.5 96.5t0.5 93.5q0 17 2.5 35t9 32t17.5 23.5t29 9.5q20 0 40 -21t37 -49.5t30.5 -57.5l20.5 -43q34 -67 63 -132.5t61 -130.5q5 -11 11.5 -18t5.5 -14q0 -8 -5 -15t-9 -12l-9.5 -11.5t-6.5 -11.5q-2 -3 -3.5 -10t3.5 -8q3 -1 5.5 3t5.5 9.5
l6.5 11.5t7.5 10q18 23 32.5 56t18.5 68q5 47 3.5 92t3.5 94q4 41 16 80t38 69q18 21 40 32.5t57 11.5z" />
    <glyph glyph-name="o" unicode="o" horiz-adv-x="885" 
d="M445 706q66 4 127 -23.5t107 -70.5q33 -35 58 -79t38 -92t12.5 -98t-17.5 -97q-17 -49 -42.5 -90t-63.5 -73l-34 -27.5t-38 -24.5q-48 -26 -105.5 -33.5t-114 3t-105.5 38.5t-79 73q-5 7 -9.5 16.5t-7 19.5t-3 19t4.5 14q11 13 30.5 5.5t36.5 -32.5q26 -38 69.5 -65.5
t109.5 -25.5q19 0 40 3q27 4 49.5 11.5t42.5 18.5q27 14 46 28.5t42 38.5q15 16 29 39t20 49q1 4 3 11t-2 9q-7 4 -8.5 -3.5t-3.5 -11.5l-6 -18q-2 -3 -4 -10.5t-5 -7.5t-6 6l-5 10l-12 19.5t-10 20.5q-2 4 -4.5 10.5t-7.5 6.5q-8 0 -4.5 -9l5.5 -14l11 -25t14 -24
q3 -6 7 -10.5t-1 -11.5q-4 -5 -6 -8t-3.5 -5.5t-4 -5.5l-6.5 -8q-10 -11 -18.5 -18.5t-19.5 -11.5q-8 -3 -18 -3q-23 1 -50 0.5t-52 -0.5q-14 -1 -27 -3t-28 -3q-11 -1 -19.5 4t-5.5 18q3 9 14.5 14.5t25.5 9.5t27 5.5t20 2.5q5 0 16 1t22 2.5t19 4.5t8 8t-8.5 9.5
t-13.5 8.5q-14 10 -21 21q-9 10 -17 24.5t-9 31.5q-2 28 2 54t12 44q10 19 27 33t34 22q13 5 30.5 9.5t35.5 4.5q27 -2 50 -11t41 -19q11 -6 18 -10.5t9 0.5t-5.5 11.5t-16.5 11.5l-44 20.5t-53 9.5q-47 0 -75 -17.5t-47 -36.5q-8 -8 -12 -16.5t-9 -10.5q-7 -2 -8.5 0.5
t0 7.5t3 12.5t0.5 16.5q-2 10 -8.5 16t-14.5 9q-4 2 -8.5 2t-5.5 3q-2 3 -1 5.5t1 7.5q0 9 -1 13q-3 11 -9 17t-18 8q-3 1 -7.5 1t-7.5 3q-2 3 -1 7.5t0 9.5q-3 23 -23 33q-5 2 -9.5 4t-6.5 5q-1 5 2 9t5 13q5 18 -0.5 34t-15.5 26q-3 3 -6.5 4.5t-3.5 4.5q0 9 14 16
t33.5 11.5t39.5 7t31 2.5zM297 660q24 2 38 -15.5t6 -43.5q-2 -5 -4 -12.5t-5 -10.5t-10 -5t-13.5 -3.5t-12 -4t-6.5 -8.5q0 -5 1 -6.5t3.5 -1t5 2.5t4.5 3q9 4 19 7t23 0q11 -2 22 -10.5t7 -23.5q-3 -14 -17.5 -26.5t-25.5 -17.5q-9 -6 -22.5 -10.5t-24.5 -4.5
q-21 -2 -34.5 11t-11.5 37q2 17 8 35.5t14 33.5q1 2 1.5 8t-2.5 7q-5 1 -8.5 -6t-5.5 -12q-8 -20 -13.5 -40.5t-3.5 -43.5q2 -11 9.5 -21.5t15.5 -14.5q4 -2 10 -4t12 -2q5 -1 10 -0.5t7 -1.5q2 -3 0 -6t-2 -6q-1 -2 -0.5 -7.5t-1.5 -7.5q-3 -3 -8.5 2.5t-7.5 6.5
q-4 2 -5.5 3.5t-4.5 3.5t-9 3t-8 -3q-1 -4 4.5 -6t8.5 -3q11 -4 22.5 -15.5t17.5 -21.5q4 -7 5.5 -15t2.5 -18q4 -30 -4 -61q-4 -17 -14.5 -32t-23.5 -25q-6 -7 -21.5 -14.5t-29.5 -1.5q-13 6 -13 21q0 4 1.5 10.5t2 13t-0.5 11.5t-6 5q-4 0 -8 -7t-7 -10q-5 -5 -12.5 -10
t-16.5 -8t-19 -3t-19 5q-9 4 -14.5 14.5t-8 23t-1.5 26.5t6 25q9 30 29 48q3 2 8 7t6 7q2 9 1.5 19t-0.5 19q5 61 28 111t70 81q11 7 25.5 13t31.5 7zM387 503q13 2 21.5 -3.5t10.5 -15.5q1 -18 -11 -31.5t-22 -17.5q-2 -2 -10.5 -5t-8.5 -7q0 -5 5 -4.5t11.5 3t12.5 5.5
t8 5q5 4 8.5 10.5t10.5 8.5q11 3 18.5 -0.5t11.5 -11t3.5 -16.5t-4.5 -17q-6 -9 -19.5 -19t-24.5 -13q-9 -4 -25 -7t-27 -3q-9 0 -19.5 1t-15.5 6q-1 1 -5 10.5t0 11.5q2 1 8 -2t9 -5q3 -1 6.5 -2.5t8.5 -2.5q4 -1 12 0.5t2 7.5q-2 3 -5.5 3t-7.5 1q-9 2 -19 6.5t-17 12
t-9.5 18t3.5 22.5t19.5 17t26.5 13q9 6 15 12t19 9zM454 321q8 1 7.5 -10t0.5 -18q4 -23 18.5 -43t30.5 -34q2 -2 6.5 -5.5t4.5 -4.5q2 -5 -9.5 -6t-15.5 -1l-29.5 -2.5t-34.5 -5t-31 -10t-20 -17.5q-5 -10 -3.5 -16.5t4.5 -12.5q1 -2 3 -4t2 -3q-1 -3 -10 -4.5t-17 -2.5
q-14 -2 -30 -5t-35 -3q-2 0 -6.5 3.5t-9 8.5t-8.5 10t-4 7t5.5 3.5t8.5 2.5q20 5 32.5 9t17.5 12q9 13 12 27t10 34t18.5 34.5t25.5 28.5q10 10 23.5 18t32.5 10z" />
    <glyph glyph-name="p" unicode="p" horiz-adv-x="802" 
d="M247 818q7 1 11.5 -3.5t7.5 -11.5t4.5 -14t3.5 -11q8 -18 17.5 -35t15.5 -35q7 -20 7 -34t-2 -34q-2 -12 -3 -16t0 -9q2 -8 5.5 -16t6.5 -16l7 -17t10 -12q3 0 3.5 2.5t0 5.5t-2 6t-1.5 4l-8.5 17.5t-3.5 20.5q2 10 9 21q13 21 35 36.5t49 24.5t57 12t59 -1
q51 -7 91.5 -35t60.5 -73q16 -35 20.5 -71t-6.5 -71q-9 -29 -25.5 -56.5t-40 -49t-53.5 -33t-66 -8.5q-12 1 -27.5 5.5t-25.5 12.5q-22 17 -38.5 41.5t-17.5 57.5q0 19 8 34t27 17q10 1 18 -3t13 -9q10 -10 11 -25.5t7 -26.5q8 -13 24 -18t33 0q15 4 27 13.5t21 23t14.5 30
t5.5 33.5q1 53 -22 84t-57 42q-12 4 -26.5 4t-29 -2t-28 -6t-22.5 -8q-15 -8 -28.5 -17t-23 -28t-15 -53.5t-5.5 -93.5v-86q0 -2 1.5 -10.5t-1.5 -10.5q-5 -1 -7.5 7.5t-4.5 14.5q-3 9 -8 18l-11 20q-3 5 -12 16.5t-15 16.5q-7 7 -15.5 12t-16.5 7q-10 4 -20.5 5t-15.5 8
t-6.5 14.5t-4.5 12.5q-7 12 -16.5 24t-18.5 25t-15.5 28t-7.5 33q-2 12 2 25t8 21q4 11 12 22t8 21q0 11 -6.5 21t-12.5 21l-9 17.5t-8 20.5q-2 8 -3.5 20.5t5.5 14.5q12 1 21 -21q10 -24 22.5 -46t26.5 -43q3 -4 8 -9.5t5 -9.5q0 -7 -3 -13.5l-6 -13.5q-2 -6 -4.5 -12.5
t-3.5 -12.5q-4 -19 -2.5 -46.5t6.5 -43.5q1 -5 4 -9t8 -2q3 1 0.5 7.5t-3.5 8.5q-6 32 -1.5 65t17.5 59l11 20t7 23q1 16 -4 31t-11 29l-12 27t-8 26q-2 9 -0.5 19.5t9.5 11.5zM158 459q9 1 16 -3t13 -10t11 -12.5t11 -9.5q15 -8 27 -11q17 -5 30 -7.5t24 -11.5
q14 -11 27 -32.5t22 -41.5q7 -17 15.5 -34.5t9.5 -38.5q2 -46 2 -91.5t-1 -93.5q0 -10 -2 -21t-5 -20.5t-8.5 -16t-12.5 -7.5q-16 -3 -24.5 11t-11.5 27q-1 5 -2 13.5t-4 9.5q-4 1 -4 -4.5v-11.5q0 -8 -2.5 -17.5t-8 -18t-13.5 -13t-19 -1.5q-8 3 -17 15.5t-13 19.5
q-13 25 -6 58q5 14 13 28.5t13 26.5q8 15 2 28.5l-13 28.5l-8 12.5t-11 6.5q-5 -1 -6 -8t-2 -15q-2 -15 -6 -31.5t-12 -30.5t-20 -24t-28 -12q-15 -2 -24 4.5t-6 19.5q2 9 8 16t13 13.5l13.5 13t9.5 14.5q3 6 4.5 15t2.5 16q2 23 5 43t11 34q3 6 8 11.5t15 5.5q14 2 26 -7
t14 -22v-11.5v-12.5t1.5 -10.5t4.5 -4.5q6 0 5 11t-1 19q-1 10 -0.5 16.5t-0.5 14.5q0 2 -0.5 7.5t-1.5 11.5t-1 11t2 7q5 3 14.5 -4.5t12.5 -12.5l14 -26t13 -26q3 -8 6.5 -16t8.5 -6q5 1 2.5 6.5t-4.5 11.5q-7 14 -13.5 29.5t-16.5 32.5q-6 10 -17 16.5t-24.5 12
t-27.5 10.5t-27 11q-6 3 -15 11t-11 11q-4 5 -9.5 15.5t-7.5 21.5t1 19.5t17 10.5z" />
    <glyph glyph-name="q" unicode="q" horiz-adv-x="927" 
d="M463 705q42 2 81 -3.5t68 -19.5q40 -18 74 -46.5t59 -64t40 -76.5t17 -84q2 -38 -15.5 -59t-46.5 -11q-18 6 -19 22.5t-2 39.5q-2 35 -18.5 71.5t-36.5 62.5q-23 35 -60 56t-79.5 29t-86.5 4t-81 -18q-36 -14 -65.5 -39t-48.5 -53q-19 -29 -30.5 -73.5t-10.5 -92.5
q-1 -4 0 -14t2 -13q3 -3 14 -1.5t16 0.5q30 0 58.5 -1t52 -9.5t40.5 -27.5t24 -55q2 -11 -1 -19.5t-8 -16.5q-7 -13 -20 -24t-29.5 -18.5t-36.5 -12t-40 -3.5q-5 0 -11.5 0.5t-12 -0.5t-9 -4t-1.5 -10q3 -11 13 -19t15 -15l21 -24l19 -23l9.5 -13.5t7.5 -15.5
q4 -12 -1 -24.5t-16 -12.5q-8 -1 -13.5 2.5t-9.5 9.5t-7 12.5l-6 12.5q-10 17 -25 29t-28 26l-40.5 44t-31.5 45q-6 13 -5.5 23.5t15.5 12.5q14 2 27 3.5t29 4.5q6 2 15.5 4t7.5 9q0 4 -7.5 4t-13.5 -2q-7 -1 -16.5 -3l-19.5 -4t-19 -2.5t-15 1.5q-6 5 -11 28l-3.5 20.5
l-3 17t-3 18.5t-2.5 26q-8 90 13.5 162t67.5 122.5t112.5 77.5t147.5 27zM721 306q7 1 15 -1.5t13 -7.5q14 -14 24.5 -35.5t12.5 -50.5q-1 -37 -18 -65t-48 -36q-14 -4 -32 -3t-31 6q-17 8 -30.5 24.5t-21.5 32.5q-5 12 -9.5 27.5t-4.5 30.5q0 24 8.5 43.5t26.5 25.5
q17 5 29.5 -5.5t18.5 -21.5q2 -3 4 -8t4 -9t5 -6.5t6 0.5q5 3 1 13t-3 21t8.5 18t21.5 7zM564 205q11 0 13.5 -4t7.5 -15q8 -20 19 -39.5t29 -34.5q8 -7 20 -12.5t25 -7.5h5.5t5.5 -1q4 -3 8.5 -12t9.5 -14l25.5 -31t28.5 -31q7 -8 20.5 -16.5t15.5 -21.5q2 -10 -5.5 -15
t-17.5 -6q-6 -1 -9 1t-4.5 5.5t-3 7.5t-4.5 7q-10 10 -23.5 13.5t-30.5 18.5q-19 17 -30.5 33t-30.5 39l-11.5 12t-8.5 -2q-1 -4 7 -14.5t10 -13.5q5 -7 13.5 -17t18.5 -20.5t20.5 -20t20.5 -15.5q6 -4 15.5 -8.5t17 -10t10 -13.5t-3.5 -19q-4 -7 -16.5 -8.5t-22.5 3.5
q-31 14 -53.5 34l-47.5 42q-8 7 -15.5 16t-14.5 10q-5 1 -9.5 -4t-10.5 -8q-23 -11 -53.5 -15t-62 -1.5t-61 10.5t-48.5 22l-35.5 45t-33.5 37l-3.5 3.5t-1.5 6.5q1 5 11 4t17 -1q37 0 69.5 15t49.5 37q3 4 5.5 9.5t6.5 7.5q7 3 14 2t12 -3t12.5 -7l15 -10t14.5 -8.5
t11 -3.5q7 1 8.5 4t4.5 8q8 13 21.5 21.5t33.5 9.5z" />
    <glyph glyph-name="r" unicode="r" horiz-adv-x="715" 
d="M505 683q27 -17 44.5 -35t30.5 -41q13 -20 21 -51.5t4 -67.5q-3 -26 -12.5 -48.5t-22.5 -42t-28.5 -37l-29.5 -32.5q-6 -8 -15.5 -16.5t-8.5 -25.5q2 -14 7.5 -25.5t10.5 -20.5q10 -20 28.5 -47.5t36 -56.5t28.5 -57t8 -50q-2 -10 -8 -17.5t-15 -11t-20 -3t-23 6.5
q-8 4 -19.5 18.5t-24 34l-26 42l-25 43l-20 37t-11.5 23.5l-17 32l-16 30.5t-5 40.5q3 19 17 34.5t28 29.5q19 22 39.5 49t31.5 55t7.5 55t-30.5 50q-13 11 -33.5 18.5t-41 8t-37 -6.5t-22.5 -25q-5 -12 0 -21.5t10 -16.5q6 -11 14 -21t10 -24q1 -18 -4.5 -32t-15.5 -21
q-8 -7 -20 -11t-26 -3q-20 2 -38 16.5l-32 26.5q-10 11 -18.5 22t-18.5 18q-7 5 -10 2.5t-4.5 -8.5t-1.5 -14v-15v-23t-1.5 -25t-7 -21t-15.5 -11q-8 -1 -11.5 3.5t-4 11.5t0.5 15.5t2 15.5q4 32 4.5 67.5t0.5 68.5q0 6 -1 17.5t-1 22t3.5 17.5t12.5 6q7 -2 16 -10t14 -12
l27.5 -24t28.5 -27q4 -4 11.5 -8t8.5 4q1 7 -8 13t-14 10t-13 11t-9 13q-2 5 3.5 12t9.5 13q16 20 29.5 34t40.5 26q25 11 53 14.5t55 1.5t50.5 -8.5t38.5 -15.5zM195 488q3 3 9 -5t15 -18t20 -19q13 -13 28 -23.5t36 -12.5q11 -1 12 -3.5t2 -13.5v-121q0 -12 -0.5 -29.5
t-0.5 -34t0.5 -29t2.5 -16.5q2 -10 17.5 -16.5t22.5 -10.5q13 -7 16 -23q2 -16 -7.5 -27t-20.5 -13q-5 -1 -12.5 -1h-12.5t-7 -1t4 -5q8 -5 15.5 -8.5t12.5 -10.5q5 -9 2 -18.5t-8 -15.5q-7 -8 -19.5 -11.5t-26.5 -4.5q-45 -2 -71.5 22t-34.5 63q-3 16 1 30.5t10 28.5
q7 16 15.5 22t31.5 4q4 0 14.5 -1.5t10.5 4.5q0 3 -4.5 4t-7.5 2q-11 3 -21 3.5t-17 -0.5q-13 -2 -20 -10.5t-12 -22.5q-8 -20 -13.5 -38.5t-19.5 -29.5q-5 -4 -11.5 -8t-17.5 -5t-18 6t-7 15q-1 14 9 26t16 21q4 6 8 17q3 10 4.5 21.5t3.5 22.5t6.5 21t12.5 16
q16 11 36 11.5t40 -2.5q3 0 8 -1.5t10 -2.5t8.5 -0.5t3.5 4.5q0 5 -5.5 7l-10.5 4q-13 4 -24 6t-27 2q-4 0 -8 -0.5t-5 2.5q-1 2 -1 7v4q3 44 3.5 87t0.5 86v10v14t0.5 12.5t2.5 6.5z" />
    <glyph glyph-name="s" unicode="s" horiz-adv-x="667" 
d="M279 705q38 1 51 -0.5t17 -5.5q2 -5 -3.5 -8.5t-7.5 -6.5q-6 -8 -5.5 -19.5t4.5 -19.5q8 -16 24 -30t28 -31q4 -5 7 -12t7 -14t8.5 -12.5t11.5 -6.5q11 -2 16 3t6 12.5t-0.5 16t-3.5 14.5q-2 5 -4 9t2 6q3 1 6.5 -0.5t8.5 -1.5q12 1 16 7t6 15q1 5 0 9.5t1 6.5
q4 2 10 -7.5t8 -11.5q6 -8 13.5 -16.5t13.5 -19.5q4 -7 6.5 -14t3.5 -11q1 -3 -8 -8.5t-14 -13.5q-11 -17 -12.5 -33.5t-8.5 -28.5q-2 -4 -8.5 -8.5t-13.5 -7t-13.5 -1.5t-9.5 9q-1 4 1 8q5 9 12.5 14.5t10.5 17.5q3 11 2.5 26.5t8.5 26.5q1 1 3 3.5t4.5 5t3 5t-1.5 2.5
q-5 1 -9 -2t-7.5 -7t-6 -9t-3.5 -9q-2 -9 -1.5 -19.5t-2.5 -20.5q-2 -8 -6.5 -12t-6.5 -1q-2 2 -3 6.5t-6 5.5q-9 1 -16 -9.5t-9 -19.5q-1 -11 2.5 -20t1.5 -20q-1 -10 -7.5 -19t-19.5 -9q-7 0 -11 6q-3 5 -1.5 9t4 8.5t4.5 9.5t1 11q-1 8 -3 15t-2 16q1 14 7 22t7 18
q2 12 -4.5 25t-13.5 21q-2 2 -5.5 4t-6.5 1q-4 -2 -3.5 -8t-1.5 -11q-4 -11 -14 -18t-11 -16t2 -17l6 -16.5t5.5 -17t-0.5 -17.5q-1 -6 -7 -9t-11 2q-4 5 -7 15l-5 17q-5 13 -12.5 26t-12.5 24t-0.5 22t6.5 22q1 12 -3 23.5t-8 21.5q-4 9 -7 14t-16 5q-12 -1 -27 -7.5
t-24 -17.5q-13 -15 -20.5 -41t-2.5 -52q6 -30 29.5 -54t54 -43t63 -32.5l55.5 -23.5q35 -15 64 -33.5t51 -44.5q29 -40 39 -84.5t-11 -90.5q-15 -33 -39.5 -55.5t-54.5 -36.5t-63.5 -20t-65.5 -6q-33 0 -64.5 6t-59.5 19q-17 9 -30 19.5l-27 22.5q-14 15 -29 37.5t-17 47.5
q-2 20 7.5 38t32.5 18q15 0 27 -10.5t20 -19.5l32.5 -31t40.5 -23q15 -3 31 -5.5t33 -2.5q18 0 31 2.5t31 8.5q16 6 31 21t17 34q1 17 -8 31t-19 22q-23 18 -49.5 30.5t-53.5 27.5q-29 13 -57.5 28.5t-52.5 35.5t-42.5 46t-27.5 59q-13 51 -4.5 103.5t50.5 90.5
q24 23 54.5 38t71.5 17zM369 688q20 1 40 -8.5t33 -17.5q4 -2 9.5 -8t9 -13.5t3.5 -15t-6 -13.5q-4 -3 -9 -3t-10 1.5t-9.5 3.5t-7.5 2q-5 0 -5 -4q0 -2 5 -12.5l7 -14.5t4 -10t2 -12t-2.5 -10t-8.5 -4q-9 0 -14 14t-11 23q-5 9 -15 18t-18 18q-7 8 -17 20.5t-8 28.5
q1 10 9 13t19 4zM535 544q2 2 5.5 -6.5t4.5 -11.5q5 -18 10 -38.5t1 -44.5q0 -6 -4 -12.5t-9 -11t-12 -5t-13 5.5q-2 2 -3.5 6.5t-3.5 9.5l-3.5 9t-3.5 4q-2 -1 -3 -10t-3 -12q-1 -5 -4 -10.5t-7.5 -9.5t-10 -4.5t-10.5 4.5q-3 3 -7 16t-2 20q1 2 8.5 3.5t12.5 4.5
q20 12 26 37q2 17 5.5 26.5t11.5 18.5q4 5 7.5 7t6.5 4z" />
    <glyph glyph-name="t" unicode="t" horiz-adv-x="656" 
d="M154 728q10 2 14 -5.5t3 -18.5q0 -4 -1.5 -9.5t1.5 -6.5t6 2l6 6q7 7 14.5 12t20.5 4q11 -1 13 -8.5t0 -17.5t-4.5 -20t-0.5 -16q2 -4 7.5 -3t7.5 3q11 9 24 11.5t24 -4.5q2 -1 4.5 -3.5t5.5 -4.5q8 -4 23.5 -4h29.5q13 -1 26.5 -1h26.5h9.5t6.5 -1q2 -3 -2 -8.5
t-6 -11.5l-4 -16t-4 -14q-3 -7 -18 -8t-23 -2q-11 -2 -19 -2t-19 -5q-7 -3 -11 -7t-9 -6q-8 -4 -21.5 -3t-23.5 2q-22 1 -47 -1t-48 -2q-7 0 -16 -0.5t-17 0t-14 3t-6 8.5q-2 6 4 10.5t13 6.5q14 3 33.5 5t36.5 7q5 2 10.5 2.5t10.5 2.5q9 4 7 7q-4 5 -14.5 1t-20.5 -6
l-22 -4.5t-23 -0.5q-5 1 -9 4l-8 6q-9 8 -19 22.5t-7 29.5q1 6 5 16t10 20t14.5 18t19.5 11zM438 702q28 1 55 -3.5t49 -15t36.5 -28.5t16.5 -45q2 -29 -8.5 -43.5t-30.5 -21.5q-10 -4 -22.5 -3t-23.5 1q-20 2 -44 0q-11 -2 -22.5 -1t-22.5 -1l-70 -2q-6 -1 -12.5 -1.5
t-12 0.5t-9 4t-2.5 11q2 6 10 10t15 6q8 2 20 2.5t24 2.5t21.5 5.5t12.5 11.5q1 4 1 8.5t2 9.5q6 30 31 47.5t61 9.5q7 -2 15.5 -6.5t14.5 -9.5q4 -2 6.5 -7.5t6.5 -3.5q3 2 1 6.5t-5 7.5q-9 9 -25.5 17t-35.5 8q-16 0 -28.5 -5.5t-23.5 -11.5q-6 -3 -9.5 -5.5t-15.5 -2.5
q-20 0 -39.5 -0.5t-40.5 1.5q-8 1 -10 3t-0.5 4.5t5 5.5t6.5 6q17 15 43 22t60 7zM119 608q4 1 9.5 -4t3.5 -7q-1 -1 -10 -3q-4 -1 -9 -4t-7 -8q-2 -3 -2 -6.5t-2 -4.5q-2 -2 -14 -1t-17 1h-9.5t-8.5 3q-2 2 -2.5 6.5t4.5 8.5q3 3 15 7t18 5zM299 552q5 0 6 -9t8 -14
q3 -3 12 -3.5t18.5 -0.5h17t7.5 -1v-10.5t-1 -9.5q-2 -8 -2 -16t-1 -16q-2 -48 -2.5 -93.5t-1.5 -93.5q0 -47 1.5 -96.5t-3.5 -94.5q-3 -22 -9.5 -43.5t-20.5 -33.5q-5 -4 -14 -8t-19.5 -6.5t-21 -3t-17.5 3.5q-11 5 -12 15.5t4 18.5q5 10 13.5 14.5t11.5 15.5
q10 32 9.5 72.5t-2.5 80.5q0 10 1 19.5t-1 20.5q-1 38 -1.5 76.5t0.5 76.5q0 21 1 48.5t3 57.5q1 11 3 22t13 11z" />
    <glyph glyph-name="u" unicode="u" horiz-adv-x="740" 
d="M198 708q27 2 44.5 -8.5t28 -29t16 -42t8.5 -47.5q7 -69 -3 -133.5l-20 -124.5q-5 -32 -8 -66t3 -68q4 -20 12.5 -45t19.5 -42q5 -8 8.5 -9.5t5.5 -5.5q2 -3 -1 -10t-4 -12q-2 -11 -5 -19.5t-5 -20.5q-1 -3 -2.5 -10t-3.5 -7q-5 -2 -12.5 4t-12.5 9q-30 20 -54.5 43
t-45.5 54q-19 28 -31 55.5t-19.5 57t-11 61.5t-5.5 68q-5 78 1 152t28 132q8 20 20.5 37t32.5 23q5 2 8.5 3t7.5 1zM613 700q14 0 20 -5t10 -10q7 -11 10.5 -26t3.5 -32t-2 -33.5t-5 -28.5q-8 -32 -26.5 -58.5t-53.5 -30.5q-28 -3 -49.5 9.5t-32.5 29.5q-9 14 -14 36.5
t-6 47t3.5 47t13.5 37.5q5 8 17 14t25 -2q8 -5 13.5 -16t9.5 -22q2 -5 4 -13t8 -8q2 0 5 4t5.5 9.5t4.5 10.5t3 7q5 11 12 22t21 11zM523 472q17 -6 37 -7.5t40 6.5q4 2 10 5.5t8 3.5q3 0 5 -6t3.5 -14t2 -16t1.5 -11q1 -15 2 -32.5t0.5 -35t-2.5 -33t-8 -27.5
q-7 -14 -17 -24.5t-16 -24.5q-5 -11 -9 -26.5t-14 -22.5q-14 -11 -25 -2.5t-13 23.5q-1 11 1.5 19.5t5.5 15.5q5 14 14.5 24.5t17.5 24.5q9 18 15 42t2 47q-1 10 -5 10q-3 0 -3.5 -5t-0.5 -9q0 -35 -9.5 -57.5t-24.5 -45.5q-1 -2 -5 -7t-7 -5q-2 0 -3.5 6t-1.5 10
q-3 23 -4 47t3 52q2 11 -2.5 13t-6.5 -7q-7 -29 -3.5 -62.5l6.5 -61.5q1 -9 1 -20.5t-2.5 -21t-8 -16t-15.5 -5.5q-13 1 -15.5 13.5t-4.5 26.5q-2 15 -6 31t-7 31q-3 17 0 39t5 44q3 24 7 43t17 33q5 6 10 6t9.5 -2t8.5 -5t7 -4zM288 329q5 2 10 -3.5t7 -10.5
q2 -13 -3.5 -24t-8.5 -23q-3 -11 -5 -24.5t-7 -26.5q-2 -6 -3.5 -3.5t-2 8t-0.5 12v8.5q0 4 1 18.5t3 29.5t4.5 27t4.5 12zM454 290q3 -7 4 -15t3 -19q1 -10 3 -19t5.5 -15.5t10 -10.5t17.5 -4q7 0 13.5 4.5t8.5 3.5t4 -5.5t4 -6.5q6 -8 17.5 -12.5t23.5 3.5q16 10 22 29.5
t15 36.5q3 6 8.5 15t12.5 7q2 -1 0 -8t-3 -11q-5 -23 -12.5 -45t-17.5 -42q-9 -18 -17.5 -33l-17.5 -30q-2 -4 -6.5 -11t-6.5 -5q-1 1 -0.5 7.5t-0.5 10.5q-2 15 -6.5 28t-12.5 22.5t-21 14.5t-32 2q-8 -1 -15.5 -4.5t-11.5 -3.5q-1 0 -2 6t-2 14.5t-2 18t-2 16.5
q-1 6 -4 15t-3 17q1 7 3.5 15.5t5.5 14.5t6.5 6.5t8.5 -7.5zM385 280q11 1 19.5 -6.5t13.5 -15.5q8 -15 10.5 -36t4.5 -42q2 -12 -3 -16t-11 -12q-10 -10 -18 -21.5l-17 -23.5l-2 -3l-4 -6t-4 -5.5t-3 -1.5t1 11t5.5 25t7 32.5t5.5 33.5q2 13 -4.5 25t-17.5 15
q-8 1 -15.5 -3.5t-10.5 -9.5q-6 -11 -10 -28.5t-7 -36.5q-2 -11 -2.5 -16t-2.5 -16q-1 -4 -2 -11.5t-2 -8.5t-4 2t-6 7.5l-5.5 8.5t-2.5 5q-3 6 -4.5 12t-4.5 13q-2 6 -4.5 12.5t-0.5 11.5q1 2 3 5t4 5l15 23q7 10 14.5 22t17 22.5t21 18t26.5 9.5zM379 198q1 -13 -3 -26.5
t-6 -25.5t-4.5 -23.5t-5.5 -23.5q-1 -5 -4 -17.5t3 -14.5q2 -1 5.5 1t7 5t7 6.5l4.5 4.5q14 17 28.5 40.5t38.5 38.5q8 5 20.5 8t23.5 1q6 -1 13.5 -6t11.5 -10q5 -7 9.5 -19.5t6.5 -24.5q1 -7 1 -16t-1 -14q-3 -8 -14.5 -17l-17.5 -14q-21 -15 -44.5 -28.5t-46.5 -22.5
q-4 -2 -12.5 -3t-11.5 1q-2 2 1.5 4.5t6.5 5.5q8 8 13 12.5t13 14.5q1 1 4.5 5.5t6 9t3 8.5t-3.5 5q-6 0 -12.5 -9.5t-10.5 -14.5l-10.5 -12.5t-10.5 -10.5q-9 -8 -20 -15.5t-22 -9.5q-10 -1 -24.5 0.5t-16.5 11.5q-2 7 1.5 18.5t5.5 19.5q6 22 9 37l9.5 41.5t7.5 40.5
l4.5 27t7.5 24q8 14 18 6.5t11 -19.5z" />
    <glyph glyph-name="v" unicode="v" horiz-adv-x="782" 
d="M168 719q9 -2 15 -9.5t10 -17t7 -19.5l5 -17q8 -20 13.5 -42.5t15.5 -40.5q3 -7 8 -12l10 -10l34 -33q13 -11 22 -23l17 -23q7 -10 13 -23t10 -24q6 -16 7.5 -41.5l3 -52.5t5.5 -52t13 -40q5 -8 16 -12.5t19 7.5q19 29 30.5 66.5t25.5 69.5l15.5 43.5t6.5 50.5
q-1 16 -6 29t-10.5 25t-10 26t-4.5 33q0 9 2.5 18t7.5 16.5t12.5 11t17.5 1.5q12 -4 14.5 -16t7.5 -22q2 -3 5.5 -7.5t6.5 -2.5q4 0 4 10.5v16.5q0 14 3.5 25t13.5 15q8 4 16.5 0.5t13.5 -8.5q7 -5 13 -16t10 -20q2 -6 4.5 -15t0.5 -16q-3 -15 -10 -29.5l-14 -30.5
q-3 -7 -7 -14t-5 -15q-1 -2 -1 -5.5t2 -3.5q4 -1 6.5 4l4.5 9q24 52 50.5 103.5l53.5 100.5q4 7 10 12t12 0q4 -3 4 -11.5t-1.5 -17.5t-4 -17l-3.5 -11l-37 -94l-17.5 -45.5l-30 -77.5l-38.5 -97l-43 -103.5t-44 -98t-40 -79.5q-12 -21 -32 -38t-50 -17q-23 0 -41.5 16
t-29.5 31q-17 24 -29.5 55t-22 65t-15.5 68t-10 63q-3 23 -9 40t-13 34q-13 32 -38.5 55.5t-47.5 48.5q-10 10 -14.5 23.5t-8.5 29.5q-8 29 -22 52.5t-25 46.5q-1 3 -4 9t-5.5 12t-2 11t6.5 7q8 3 15.5 -2t11.5 -10q17 -23 31 -47.5t26 -48.5q8 -16 20.5 -27t26.5 -20
l28.5 -18t28.5 -19q19 -15 38.5 -40t27.5 -50q2 -5 5 -10.5t7 -0.5q2 3 -0.5 9.5t-3.5 10.5q-7 23 -19.5 39.5t-27.5 32.5q-13 13 -30.5 24t-31.5 25q-2 2 -3.5 12t-3 23.5l-3 28t-4.5 24.5q-6 26 -11.5 45l-12.5 44l-2.5 10t-1.5 11.5t2 9.5t9 4zM676 715q8 1 9 -3
t-1.5 -10t-6.5 -11.5t-5 -8.5q-9 -17 -16.5 -34.5t-16.5 -32.5q-3 -5 -7.5 -13.5t-6.5 -8.5q-1 0 -7 14q-4 8 -6 11.5t-2 7.5q0 6 4.5 13t6.5 11q4 8 10 18.5t13 20.5t15 17.5t17 8.5z" />
    <glyph glyph-name="w" unicode="w" horiz-adv-x="1156" 
d="M646 707q16 1 17 -13t-4 -27q-2 -3 -5 -11.5t-1 -11.5q3 -5 13 5t19 14q6 3 15 4.5t17 0.5t14 -5.5t7 -13.5q1 -18 -4.5 -32t-11.5 -27.5t-10 -27.5t0 -31q5 -16 12.5 -34t15.5 -35q14 -42 29 -79.5l29 -75.5q2 -4 5.5 -12t6.5 -13q2 -4 -3.5 -2.5t-10.5 0.5
q-30 -5 -38.5 -29t-11.5 -55q-4 -44 4.5 -79.5t20.5 -65.5q2 -4 4.5 -11.5t-0.5 -12.5l-4.5 -2t-9.5 -4t-9.5 -3t-5.5 -1q-1 5 -2 13q-2 7 -3.5 16.5t-3.5 23.5q-3 19 -4.5 32t-6.5 33q-7 35 -11.5 69.5t-10.5 72.5q-1 6 -2.5 17t-9.5 9q-5 0 -3.5 -10t1.5 -15l10 -60.5
t11 -60.5l9.5 -54l9.5 -55q3 -12 3 -26q0 -11 -9 -21.5t-23 -8.5q-8 1 -9 5t0.5 9.5t5 11t4.5 8.5q2 7 1.5 12.5t-2.5 16.5q-10 65 -21.5 122.5t-21.5 116.5q-1 8 -3.5 18.5t-9.5 4.5q-2 -1 -1 -8.5t1 -10.5q7 -45 15.5 -87.5l16.5 -84.5l12 -71q2 -14 0 -27t-12 -21
q-4 -3 -11 -3.5t-12 1.5q-4 2 -3.5 6t2 8.5t4 9t3.5 7.5t1.5 7.5t-1.5 12.5l-12.5 64t-14.5 61q-2 11 -5.5 28.5l-7 35.5l-7 35l-5.5 27q-5 24 -10.5 43.5t-0.5 42.5q4 17 7.5 39.5t-3.5 49.5q-5 17 -14.5 31t-20.5 25l-5 5t-5 7q-11 22 -6 51q5 20 15.5 40.5t23.5 33.5
q10 10 24 20t33 12zM1082 701q20 -1 28 -17t-9 -29q-10 -10 -21.5 -16.5t-21.5 -16.5q-14 -14 -22.5 -36.5l-16.5 -43.5q-10 -35 -17.5 -69.5t-16.5 -70.5q-12 -47 -20 -84t-19 -77q-6 -29 -13.5 -59.5l-15.5 -60.5q-5 -22 -10.5 -41t-18.5 -42q-2 -4 -7.5 -12t-10.5 -6
q-4 1 -4.5 5.5t-2.5 9.5l-10 33.5t-9 35.5q-2 5 -3 12t-8 5q-5 -1 -3 -11.5t3 -14.5l10.5 -34.5t9.5 -34.5q3 -14 -9 -18.5t-22 -7.5q-15 -4 -29 -6.5t-27 -6.5q-4 -1 -10.5 -3.5t-11.5 -3.5t-8 1t-1 11q1 6 6.5 10t12.5 7t14.5 4.5t12.5 3.5q7 3 8.5 8.5t0 12.5t-5 13.5
t-5.5 11.5q-7 17 -12 38t-8 42q-2 20 -1 46.5t9 51.5q6 18 19 22.5t27 1t27 -14.5t19 -24q1 -2 3 -5q4 -6 8 -5q2 2 4 10.5t4 12.5l35 126.5t31 129.5q14 68 37 125q13 33 38 57.5t63 23.5zM170 710q7 1 16.5 -3t11.5 -11q1 -3 0.5 -7.5t-0.5 -8.5t2 -6.5t8 -1.5q6 0 10.5 4
t9.5 9.5l10.5 11t13.5 8.5q19 7 31.5 -4t11.5 -31q-1 -25 -14 -45.5t-20 -40.5q-3 -11 -3 -30t6 -30q14 -17 32.5 -28.5t29.5 -33.5q10 -24 11.5 -57.5t4.5 -61.5q1 -8 5 -12.5t5 -10.5l-14 -3q-16 -3 -26.5 -13t-16.5 -24.5t-8.5 -32.5t-3.5 -36q-2 -36 7.5 -69.5
t20.5 -59.5q4 -11 10 -20.5t4 -17.5q-1 -3 -8 -4t-15 -2l-14.5 -2.5t-10.5 1.5q-2 1 -1 10t0 14q-2 9 -3 18t-3 17l-23 126q-2 10 -4 26t-9 17q-3 0 -3.5 -3.5t-0.5 -8.5t1 -10.5t2 -8.5q7 -34 13 -70.5t13 -68.5q5 -23 5 -46.5t-14 -39.5q-3 -3 -8 -6t-10.5 -3.5t-10 2.5
t-4.5 11t2.5 13.5t5.5 11t5 12.5t1 18q-1 10 -2 18t-4 22q-8 39 -14.5 75t-15.5 75q-1 5 -4 10.5t-8 3.5q-4 -1 -2 -9.5t2 -10.5l17 -84l6 -26t5 -26l6 -28.5t3 -26.5q0 -13 -6 -27.5t-16 -16.5q-8 -1 -14.5 3t-4.5 15q2 10 7.5 17.5t3.5 21.5q-5 42 -17 84.5t-20 84.5
q-4 20 -9.5 33t-11.5 23t-11 20t-7 24q-2 25 3.5 47.5t8.5 42.5q2 11 3.5 24t0.5 24q0 15 -5.5 29.5t-12 29.5t-11 31t-3.5 34q0 8 2 16.5t4 15.5q6 16 18 33.5t25 27.5q5 4 11.5 7.5t11.5 4.5zM512 550q13 1 25.5 -6.5t20.5 -15.5q17 -17 27 -44.5t3 -64.5
q-6 -25 -14 -49.5l-16 -50.5q-10 -25 -17 -50.5t-16 -49.5q-17 -47 -32 -93t-37 -84q-2 -4 -8 -12t-11 -4q-5 3 -8.5 16.5t-7.5 21.5l-14 36q-2 4 -3 10.5t-7 4.5q-5 -1 -2.5 -12t7 -24t10 -25.5t7.5 -16.5q4 -11 4.5 -16.5t-11.5 -7.5q-49 -14 -108 -22q-5 -1 -13 -3
t-15 -2t-12 3t-5 11q0 7 4.5 11.5t11.5 7.5t15.5 4.5t15.5 2.5q11 2 20.5 3t11.5 10q1 7 -3 16t-7 17q-12 30 -21 58t-11 60q-1 17 0 34.5t5.5 33t12.5 27.5t21 18q16 6 31 1t24 -14q12 -10 24 -30t16 -39q5 -16 9 -34.5t6 -35.5q3 11 7 20q3 8 5 14.5t3 8.5l28.5 73.5
t25.5 78.5q7 26 16.5 52.5t9.5 55.5q0 10 -4.5 18t-11 14t-14 11.5t-12.5 10.5q-10 10 -6.5 25.5t20.5 16.5z" />
    <glyph glyph-name="x" unicode="x" horiz-adv-x="879" 
d="M708 708q12 1 30 0t35 -6t30 -14.5t15 -25.5q3 -26 -9.5 -41.5t-29.5 -27.5q-32 -23 -71 -39.5l-79 -34.5q-3 -2 -7 -4t-6 0q-9 9 -20 18l-19 16q-12 10 -27 16t-28.5 6t-23.5 -7.5t-12 -23.5q-4 -32 3.5 -61.5t16.5 -56.5q3 -9 5.5 -11.5t5.5 -1.5q4 1 2.5 6t-2.5 7
q-3 8 -7 20.5t-6 20.5q-3 14 -7 31t-3.5 32t6.5 25.5t23 11.5q9 1 17.5 -2.5t16.5 -8.5t14.5 -11t11.5 -10q20 -21 39 -36.5t36 -32.5q8 -7 20.5 -19.5t12.5 -27.5q0 -9 -5.5 -16t-11.5 -9q-10 -3 -21 5t-17 14q-20 17 -35.5 35t-36.5 35q-5 4 -7 2t1 -6t8.5 -9.5
l12.5 -12.5q5 -5 8.5 -9t5.5 -7q2 -6 3 -11l2 -10q3 -19 3.5 -38t-4 -35t-15.5 -27t-30 -13q-20 -3 -40.5 5.5t-33.5 16.5q-15 9 -29.5 23t-21.5 28q-1 2 -1.5 7.5t-4.5 5.5q-3 0 -3.5 -3t0 -7t1.5 -7t2 -4q7 -13 18 -24t22 -20l11.5 -7t10.5 -7q2 -2 1 -5.5t0 -6.5
q4 -7 17 -14q9 -7 21.5 -12.5t20.5 -9.5l38 -19.5t31 -23.5q9 -9 17.5 -22.5l16.5 -27.5t17 -27t20 -22q10 -7 23.5 -13.5l26.5 -12.5q8 -4 17.5 -9.5t17 -13.5t11.5 -18t3 -23q-3 -16 -16 -25t-30 -10q-23 -3 -43.5 7t-36.5 19q-17 10 -29 25t-22.5 32t-20 34t-22.5 31
q-5 5 -17.5 7t-14.5 8q-7 17 -19 34.5t-33 28.5q-23 12 -48.5 17t-54.5 -4q-13 -4 -22.5 -12.5t-16.5 -19.5t-12.5 -23t-9.5 -24q-2 -7 -5.5 -10t-8.5 -6l-18.5 -9t-16.5 -10q-9 -6 -16 -14.5t-12 -16.5q-17 -26 -38 -51t-54 -35q-13 -4 -28.5 -5.5t-29 1.5t-21.5 13t-6 29
q2 8 9 16t17 12q23 8 45 19t36 28q19 24 29.5 40.5t20.5 29.5t24 25t42 27l12 7.5t6 10.5q4 15 4 39q1 19 1 38t-2 33q-2 11 -9.5 18t-15.5 12q-25 18 -42.5 40t-27.5 54q-6 17 -9 34t-6.5 33t-10.5 29t-20 22q-10 7 -24 14.5t-27 17t-23 20.5t-12 24q-2 14 8 20t24 1
q11 -5 22 -11.5l22 -13.5q18 -9 35.5 -16t33.5 -16t29 -21.5t21 -30.5q12 -26 29.5 -41t42.5 -31q16 -10 35.5 -14.5t37.5 6.5q11 8 22 19.5t22 21.5l77 65.5t85 56.5l38.5 18.5t46.5 10.5zM409 228q32 -2 60 -18t41 -43q5 -11 8 -23.5t1 -23.5q-1 -17 -12.5 -25.5
t-30.5 -5.5q-5 0 -13 4t-15.5 6.5t-13.5 1.5t-7 -10q-1 -10 2.5 -22.5t1.5 -23.5q-5 -23 -21.5 -28t-35.5 7q-17 11 -29 33t-18 45q-2 13 -1.5 27.5t4 28t9.5 25.5t14 20q10 10 23.5 17t32.5 8z" />
    <glyph glyph-name="y" unicode="y" horiz-adv-x="686" 
d="M545 711q6 1 14 -2t12 -6q9 -6 16.5 -14t14.5 -17q11 -14 20.5 -32t6.5 -38q-2 -11 -8.5 -24t-14.5 -22q-13 -14 -33.5 -24t-39.5 -22q-12 -8 -22.5 -17t-18.5 -20t-14.5 -23t-11.5 -24q-2 -4 -4.5 -8.5t-6.5 -2.5q-3 1 -5.5 7.5t-4 14.5l-3 15.5t-1.5 10.5q-2 11 -5 25
t-7 24t-12 14.5t-10 -3.5q0 -3 3.5 -6t5.5 -7q8 -20 11 -45.5t11 -48.5q6 -18 18 -33l23 -30t19.5 -32t8.5 -40q0 -17 -5 -30t-17 -16q-10 -2 -16 1t-10 8t-6 12t-3 14q-3 21 -10 35.5t-19 25.5l-19.5 16t-17.5 16q-9 8 -12 18.5t-9 25.5q-1 4 -5 6t-7 0q-3 -1 -3 -5.5
t1.5 -10t3.5 -10.5t3 -7q2 -2 4 -7t3 -9q1 -2 -7.5 -2t-14.5 -2q-34 -7 -54 -27t-28 -47t-5 -40l2 -6t4 -3q5 0 7.5 12.5t4.5 20.5q5 26 22.5 48t44.5 27q32 7 52 -5.5t32 -32.5q14 -22 19 -50t4 -58q-1 -22 -10 -43.5t-17 -35.5q-17 -29 -42 -56q-2 -2 -5.5 -6t-5.5 -8
t-2 -8t5 -6q8 -4 22 -1t24 3q16 0 34.5 -4t21.5 -17q1 -8 -3 -12q-6 -7 -16.5 -8.5t-23 -0.5t-25 3t-22.5 2q-11 1 -20.5 0.5t-18.5 -0.5q-11 0 -23.5 -0.5t-23 0.5t-18 4.5t-8.5 12.5q-2 15 5 30q9 21 20 41.5l21 40.5q2 5 7.5 14.5t3.5 15.5q0 3 -4.5 4t-6.5 -3
q-13 -20 -24.5 -45l-21.5 -46q-3 -6 -8 -18.5t-6 -12.5q-5 0 -9.5 7.5t-6.5 17.5q-13 56 -11.5 112.5t0.5 115.5q-2 48 -14 89.5t-27 76.5q-13 32 -36 60.5t-46 53.5q-12 14 -25 32t-15 42q-2 18 4 30.5t17 19t26 7.5t32 -4q38 -11 69 -36.5t52 -55.5l28 -41t20 -45
q2 -11 -3.5 -19t-10.5 -17q-13 -23 -25.5 -49t-19.5 -53q-1 -3 -2 -8.5t-1.5 -10t0.5 -8t5 -1.5q3 1 5 6.5t4 12.5l4 14t4 12q13 34 28 62t35 54q16 20 35.5 35.5t29.5 38.5q5 11 8 25.5t5 22.5q2 10 4.5 21t7 21t11.5 16t19 6q20 -2 29 -14l8 -13.5t10.5 -14.5t9.5 -6t6 13
q2 14 6 28.5t20 15.5z" />
    <glyph glyph-name="z" unicode="z" horiz-adv-x="768" 
d="M406 700q32 1 63.5 0t60.5 -1q30 -2 53 -14.5t37 -31.5q9 -11 15.5 -26t9 -32t0 -34t-10.5 -32q-22 -38 -56.5 -61.5t-72.5 -44.5l-43 -24.5l-31 -18.5l-23 -14t-20 -11q-23 -14 -54.5 -31.5t-62 -37t-55 -42t-34.5 -46.5q-4 -14 -1.5 -23t8.5 -12t14.5 0t16.5 12
q14 17 40 31t50 19q23 5 47 2.5t42 -8.5q20 -6 36 -14.5l31 -16.5q3 -2 8.5 -5t11 -5.5t11 -2.5t8.5 6q4 8 3 17t1 17q2 14 12 27.5t27 15.5q13 1 22.5 -8t13.5 -22q2 -3 4.5 -10.5t9.5 -1.5q4 4 4.5 12t2.5 15q5 12 16.5 16.5t25.5 -5.5q13 -10 19.5 -26t7.5 -34t-3 -36.5
t-12 -32.5q-3 -5 -8 -10.5l-10.5 -11t-11 -9t-9.5 -3.5q-2 0 -6 3t-6 4q-15 6 -31.5 2t-21.5 -15q-3 -6 2 -8q4 -3 12 3.5t15 7.5q14 3 24.5 -3.5t11.5 -18.5q2 -17 -13 -30t-35 -12q-10 1 -22.5 5.5t-23.5 7.5q-12 4 -25 9.5t-19 13.5l-8 11.5t-10 15.5q-14 23 -27 40
t-32 34q-13 11 -29.5 19.5t-39.5 10.5q-4 0 -9.5 -1t-10 -2.5t-5.5 -3.5t4 -5q6 -3 18 -3.5t20 -3.5q15 -4 29 -13.5t24 -19.5q20 -21 32.5 -41l26.5 -42q8 -13 22 -20t30.5 -11.5t32.5 -8t29 -10.5q3 -2 7 -6.5t5.5 -9t-0.5 -8.5t-10 -5q-7 -1 -16 1.5t-16 2.5
q-33 3 -66 4.5t-65 5.5q-21 3 -43.5 3.5l-44 1t-42.5 2.5t-39 7q-23 6 -33 17.5t-23 28.5q-3 5 -12.5 7.5t-23 6.5t-29.5 11.5t-32 22.5q-21 20 -24 50t3 59q8 39 30.5 70t52.5 56.5t64 45.5l64 37q48 26 88.5 56t85.5 54q27 15 46.5 28t20.5 21q1 9 -5 13t-15 5.5t-20 1
t-19 -0.5q-56 0 -110 -0.5t-109 -0.5q-14 0 -30.5 -0.5t-32 0t-29.5 2.5t-23 7q-11 6 -15.5 18.5t-3.5 26t7 26t16 17.5q10 6 24.5 7t28.5 1h111.5t103.5 1zM672 122q7 1 12 -8.5t4.5 -22.5t-7.5 -25t-23 -16q-5 -2 -11 -1t-11 7q-6 8 -5 16.5t7 13.5q4 3 8 3t7 2
q10 5 11.5 14t7.5 17z" />
    <glyph glyph-name="bar" unicode="|" horiz-adv-x="334" 
d="M90 346q0 6 8 6.5t17.5 0t17 0t6.5 5.5q-1 6 -15.5 5.5t-23.5 -0.5q-11 0 -10.5 8t14.5 8q3 0 10 -0.5t13.5 0.5t11.5 2.5t4 6.5q-1 4 -7.5 5t-14.5 1t-16 -0.5t-12 1.5q-2 1 -3 4.5t1 5.5q2 3 10.5 3h18.5t17 1.5t6 7.5q0 4 -7 4.5t-15.5 0l-17 -1t-12.5 2.5q-2 2 -3 6
t4 6q4 2 11.5 1.5t13.5 -0.5q6 1 16.5 1.5t8.5 6.5q0 5 -6 4.5t-11 -0.5q-7 0 -18 -0.5t-14 1.5q-4 2 -4 5t2 5q5 3 10 3h7q3 0 9.5 -0.5t12.5 0t10 2.5t3 7q-1 4 -7.5 4h-11.5h-17.5t-14.5 3q-6 6 -1 11q3 3 8.5 3h12.5h13.5t11.5 2q4 2 4.5 4t0.5 4q-1 5 -8.5 4.5
t-12.5 -0.5h-16.5t-13.5 2q-6 4 -1 11q2 3 9.5 3t15.5 -1t15 -1t9 4q1 4 -1.5 5.5t-7 2t-9 0.5h-6.5h-13t-10 3q-4 8 3 12q4 2 12 1.5t16 -0.5t13.5 1t5.5 7q0 5 -9 5h-13q-5 0 -13.5 -0.5t-11.5 3.5q-5 7 2 8.5t12 1.5h10t11.5 0.5t9 2.5t2.5 6t-11 4q-8 -1 -19.5 -1
t-13.5 4q-2 2 -2.5 6t3.5 6q5 3 17 3.5t18 0.5q8 0 12 4.5t7.5 10t9 10t15.5 3.5q6 -1 8.5 -3.5t4.5 -6t3.5 -7t5.5 -5.5q6 -2 14 -2h13q8 0 12.5 -3.5t-0.5 -9.5q-2 -2 -8.5 -1.5t-13.5 0.5t-12.5 -0.5t-6.5 -3.5q0 -6 3 -6.5t7 -0.5q6 0 19 -0.5t15 -4.5q3 -8 -4.5 -9.5
t-17 -1.5t-18 -0.5t-6.5 -6.5q1 -4 8 -4q8 -1 21.5 0.5t16.5 -3.5q5 -7 0 -9.5t-13 -3t-17 0.5t-12 1q-7 0 -7 -5q-1 -5 6 -6.5t16 -1.5h17.5t10.5 -3q6 -10 -2.5 -11.5t-16.5 -2.5q-3 0 -8.5 0.5t-10.5 0t-8.5 -2t-2.5 -6.5q1 -2 6.5 -2h7.5q4 -1 11.5 -1t13.5 -1t9.5 -4
t0.5 -9q-2 -3 -7.5 -3t-12 0.5l-12.5 1t-9 -0.5t-5.5 -3.5t1.5 -5.5q1 -2 8 -2.5t9 -0.5q5 0 15 -0.5t13 -4.5q4 -3 2.5 -7.5t-7.5 -4.5q-7 -1 -18 0t-16 1q-8 0 -11 -3.5t3 -6.5q7 -2 14.5 -2h14.5h10.5t7.5 -3q5 -6 1 -10q-3 -3 -12 -2.5t-15 0.5q-4 0 -13.5 0.5
t-9.5 -4.5q0 -4 6.5 -5t15.5 -1.5l17.5 -1t11.5 -3.5q5 -5 0 -10q-3 -3 -10.5 -3h-10.5t-8.5 0.5t-11 0.5t-9.5 -1t-4 -4q0 -4 5 -5.5t11.5 -2.5t13 -1h9.5t7.5 -0.5t7.5 -4.5q4 -6 -2 -11q-3 -2 -9 -2h-14q-7 0 -18 1.5t-12 -5.5q0 -4 4 -5.5t9 -2t10.5 -0.5h7.5q4 0 11 -1
t9 -3q3 -2 3 -7t-3 -7q-6 -3 -16 -2.5t-18 0.5q-11 -1 -20 -1t-10 -5q-2 -17 3 -28q4 -8 11 -15t5 -21q-1 -7 -5 -10.5t-6 -10.5q-2 -11 5 -17.5t9 -16.5q1 -11 -6.5 -16t-7.5 -13q-1 -5 1 -8.5l4.5 -7.5t4 -8t0.5 -8q-1 -5 -5.5 -8.5t-4.5 -8.5q-1 -5 1.5 -9.5t5.5 -9
t5.5 -10t0.5 -12.5q-2 -4 -5.5 -7t-5.5 -7q-2 -6 0.5 -11t5 -11t4 -12t-2.5 -13q-5 -12 -21 -15.5t-29 4.5q-2 2 -5.5 6.5t-4.5 10.5q-1 10 4.5 18.5t5.5 16.5q2 10 -4 16t-6 14q0 7 4.5 12t5.5 13q2 9 -2.5 15.5t-4.5 14.5q1 8 6 11.5t5 11.5q0 9 -4.5 16.5t-1.5 17.5
q2 7 5.5 12t3.5 13t-5 15t-7 15q-2 10 4.5 14.5t8.5 12.5t2.5 21t-2.5 14q-7 2 -17.5 1.5t-19.5 -0.5q-8 0 -17 -0.5t-8 9.5z" />
    <glyph glyph-name="asciitilde" unicode="~" horiz-adv-x="568" 
d="M415 459q17 2 25 -6t19 -18q1 -1 5 -2.5t8.5 -3t8 -3t3.5 -2.5q0 -4 -4 -4t-9.5 1l-10.5 2t-6 -1q-1 -3 5 -5t7 -3q3 -1 8 -3t5 -4q0 -3 -3.5 -4t-8 0t-8.5 2t-6 1q-7 -1 -14 -8t-12 -11l-30 -25.5t-34 -21.5l-28 -13t-36 -9q-8 -1 -9.5 0.5t0 4t4.5 5t5 4.5l10.5 10.5
l17.5 18t15 18t4 11.5t-6 -1.5t-7 -7.5l-34.5 -34t-31.5 -35q-9 -11 -17.5 -23.5t-18.5 -25.5q-6 -8 -10 -14t-10 -13q-5 -5 -15 -14t-19 -6q-8 3 -6 18t4 25l6 24.5t8 23.5l14 31.5t16.5 28.5t22.5 22.5t31 13.5q25 5 47.5 9t40.5 14q7 3 12.5 8.5l11.5 11t13 9.5t17 4z
M104 377q6 2 11 0.5t13 -3.5q14 -5 30.5 -7.5t37.5 1.5q4 1 8.5 1.5t1.5 -3.5q-8 -11 -13.5 -22.5t-8.5 -12.5q-10 -3 -23 -4.5t-26 -0.5t-24 4.5t-17 10.5q-7 9 -3 21.5t13 14.5zM396 348q2 -1 0 -9.5t-4 -14.5l-11.5 -29.5t-12.5 -26.5q-8 -17 -21.5 -30t-27.5 -23
q-3 -3 -8.5 -5t-10 -1.5t-7 4t-1.5 11.5q1 19 8.5 43l13.5 43q2 2 8 3t9 2q20 5 31 11.5l26 15.5z" />
    <glyph glyph-name="Ccedilla" unicode="&#xc7;" horiz-adv-x="827" 
d="M142 223q2 2 5 -3.5l7 -12.5q13 -23 35.5 -38.5t51.5 -23.5q4 -2 11 -2t12 -2q3 -2 4.5 -5t5.5 -7q12 -12 25 -22l27 -20q29 -20 56 -30t50 -24q1 0 -4.5 -3t-12 -6l-13 -6t-8.5 -4q-4 -2 -11 -6.5t-10 -4.5t-9.5 2.5l-11.5 4.5l-21 11t-21 12q-15 11 -29 18
q-17 9 -30.5 20.5l-26.5 22.5q-23 23 -40.5 47t-30.5 52q-1 1 -3 6l-4 10l-3.5 9t-0.5 5zM680 119q11 0 16.5 -6.5t6 -15t-2.5 -17.5t-9 -16q-5 -5 -12.5 -11.5t-13.5 -10.5q-32 -21 -68.5 -30t-76.5 -22q-20 -5 -41 -12t-41.5 -17.5t-37.5 -24.5t-27 -32q-7 -12 -8.5 -26
t1.5 -27t10 -23.5t18 -14.5q12 -5 24.5 -3t19.5 5q20 6 30 26t9 46q-2 17 -8.5 32t-16.5 26q-2 2 0.5 4.5t6.5 5t8.5 4.5t6.5 3l14 5.5t16 3.5q2 0 6.5 -8l7.5 -13q39 -62 13 -123q-5 -13 -18 -30.5t-31 -28.5q-13 -8 -30 -13t-35 -6t-36 3.5t-33 16.5q-17 14 -31 34.5
t-16 47.5q-4 38 8.5 66.5t34.5 49t50.5 34.5t56.5 24q33 12 58.5 19t48.5 14.5t45.5 18t48.5 28.5q5 4 12.5 9t15.5 5zM482 755q23 2 34 -14t6 -39q-2 -10 -2.5 -17t15.5 -2q5 1 10.5 5t11.5 7t12.5 4t14.5 -3q7 -3 10.5 -13.5t2.5 -20.5q0 -11 -6 -25.5t-10 -22.5
q-5 -10 -8 -12t-11 -2q-13 0 -26.5 -1t-26.5 -1q-19 0 -38 1.5t-34 6.5l-29.5 8.5t-34.5 8.5q-1 0 -10 2t-10 -3q-1 -3 3.5 -5.5t10.5 -4t11.5 -2.5t7.5 -2q30 -11 57 -19t56 -6q31 1 50.5 1.5t31.5 0.5h19.5t14.5 -1q24 -2 43 -9.5t36 -18.5q12 -8 23 -23t16.5 -30t1.5 -26
t-23 -11q-15 0 -27.5 5.5t-23.5 13l-21.5 14.5t-22.5 10q-14 4 -30 2.5t-30 -2.5q-26 -2 -50.5 -4.5t-53.5 3.5q-30 7 -56.5 14t-49.5 16q-2 2 -8.5 5.5t-10.5 -0.5q-3 -5 2.5 -10.5t14.5 -9.5t18 -7t11 -3l9 -3t-1 -9q-29 -35 -43.5 -77t-19.5 -89q0 -1 -0.5 -5t-2.5 -4
t-7.5 1.5t-11.5 4l-11.5 5t-7.5 2.5t-7 2t-9.5 3t-8 0.5t-3.5 -4.5q0 -2 4 -3.5t7 -2.5q24 -8 49.5 -19t46.5 -22q24 -11 36.5 -20t24.5 -23q20 -20 32 -36t27 -25q7 -5 16.5 -6t19 0.5t18.5 4t17 4.5q28 7 59 16t60 15q9 1 20.5 2t22.5 -0.5t19 -6.5t9 -15q0 -9 -4.5 -14
t-11.5 -8t-16 -4.5t-16 -2.5q-10 -1 -19.5 -4t-17.5 -5q-34 -5 -61 -14t-56 -20q-14 -6 -35 -13.5t-39 -12.5q-31 -6 -54 8l-37.5 25t-45.5 14q-17 1 -38.5 1t-38.5 4q-26 5 -43.5 18t-32.5 30q-14 14 -26 30.5t-20 36.5q-7 22 -8 47t1 54q3 51 18.5 94.5t40.5 79t57.5 63.5
t69.5 48q10 5 20 9l20 8q11 5 23 8.5t24 8.5q11 4 18 14t16 19t23 18.5t33 11.5z" />
    <glyph glyph-name="Eacute" unicode="&#xc9;" horiz-adv-x="782" 
d="M580 933q15 -5 9 -14.5t-21 -18.5t-31.5 -16t-20.5 -8q-49 -20 -96 -29.5t-98 -9.5q-9 0 -20.5 1t-22.5 1t-22 -2t-18 -8q-9 -9 -19 -21t-21 -17q-4 -2 -11.5 -2t-9.5 5q-3 9 4 15t17 12l19.5 11.5t11.5 13.5q-1 3 -12.5 3.5t-16.5 0.5h-17.5t-13.5 3q-8 3 -9 6.5
t1.5 6.5t8 5t11.5 2q17 0 32.5 -4t32.5 -4t32.5 10t29.5 16l63 25q33 13 66.5 18t69.5 6q16 0 35 -0.5t37 -6.5zM387 785q13 1 21.5 -5.5t9.5 -19.5q1 -9 0 -18t3 -11q5 -3 11 5t11 13q6 6 13 12t17 8q14 2 23 -9t11 -22q4 -23 -3 -44.5t-17 -36.5q-5 -7 -14.5 -17
t-15.5 -11q-19 -3 -35.5 -2.5t-34.5 3.5q-13 2 -23 6t-21 6q-8 0 -8 -4q-1 -5 4 -6t8 -2q17 -4 36.5 -10.5t42.5 -6.5t43 3.5t41 6.5q31 5 57.5 -1.5t45.5 -17.5l7.5 -5t6.5 -8q8 -15 -2 -25t-27 -8t-35 10.5t-41 5.5q-20 -3 -42 -10t-42 -10q-9 -2 -22 -1t-21 1
q-3 2 -10 2.5t-10 -0.5q-2 -2 -2 -13v-17q-4 -40 -4 -81t-3 -88q0 -6 -0.5 -15.5t-0.5 -19.5t-0.5 -17t-0.5 -8q-2 -3 -7 -0.5t-10 4.5q-14 4 -29 4t-30 -2q-5 -1 -13 -4t-6 -7q2 -5 9.5 -3t12.5 3q23 4 47 -1.5t41 -14.5q18 -8 34 -28t25 -41q11 -23 14.5 -54.5t-4.5 -63.5
q-3 -12 -7.5 -22.5t7.5 -15.5q14 -5 33.5 -4.5t34.5 0.5t35.5 -0.5t39.5 -3t33 -8.5t17 -19q2 -10 -2 -14.5t-11 -6t-15 -0.5t-15 2q-28 5 -54.5 4t-60.5 0h-43q-12 0 -26 -0.5t-26.5 -0.5t-23 2t-15.5 8q-10 10 -11 30t-4 37q-2 13 -3.5 26.5t-4.5 27.5q-1 7 -5 16.5
t-9 7.5q-5 -1 -2.5 -10t2.5 -12q5 -24 8 -54t7 -57q1 -3 1.5 -9t-2.5 -8q-2 -4 -11 -4h-14q-37 0 -65.5 3.5t-53.5 18.5q-35 17 -55.5 49.5t-28.5 67.5q-6 28 -6 56t4 54q9 61 48 100q3 2 11.5 10t18 15.5t17 10.5t7.5 -4q0 -13 -0.5 -28.5t0.5 -31.5v-8.5t-1 -9.5
q-1 -6 -7 -11t-8 -10q-9 -14 -13.5 -32.5t-5 -39t3 -40.5t9.5 -36q2 -8 11 -19t17 -11q5 0 6.5 5.5t1.5 9.5q1 23 0 50.5t-1 45.5q-1 20 -1 38.5v37.5v275q0 25 7.5 45t19.5 37q11 15 31.5 26t37.5 24q11 8 17 14t12 17l9 16.5t11 17.5t13.5 14t18.5 7zM531 669
q38 0 78 -1.5t72 -9.5q14 -2 30 -12.5t14 -27.5q-1 -11 -8.5 -14.5t-17 -3t-20 3.5t-18.5 4q-14 2 -23 2t-17 2q-5 4 -12.5 8t-14.5 6q-29 10 -54 9.5t-62 -5.5q8 8 15.5 18l13.5 18q2 3 10.5 3h13.5zM386 410q8 0 25 -0.5t28 -0.5q26 0 49.5 -2.5t41.5 -7.5q16 -5 32 -13.5
t18 -25.5q2 -12 -3 -18.5t-14 -9.5t-20 -3h-22q-27 1 -54 4t-56 3q-5 0 -16.5 0.5t-13.5 2.5q-2 1 -1.5 5t0.5 5q0 11 1 20.5t1 21.5q1 5 1 12t3 7z" />
    <glyph glyph-name="Ntilde" unicode="&#xd1;" horiz-adv-x="900" 
d="M745 882q5 -2 6 -6t-0.5 -8.5t-4.5 -9t-5 -6.5q-18 -15 -40 -23t-45 -12t-46 -4.5t-44 1.5q-24 2 -49.5 9.5t-43.5 14.5q-14 6 -28.5 13t-31 12.5t-35 8.5t-38.5 1q-8 -1 -15.5 -2.5t-7.5 7.5q0 8 14 12t23 3q40 1 70 -12.5t60 -24.5q20 -9 45 -14t51 -5.5t50.5 2
t44.5 8.5q9 3 18.5 9.5t18 13.5t17 11t16.5 1zM250 910q8 -1 9.5 -3.5t0.5 -12.5q1 -22 2.5 -52t3.5 -52q0 -6 -5 -12.5t-11 -3.5q-1 1 -1.5 6.5t-1 12.5l-1 13.5t-0.5 8.5q0 17 -1.5 32t-1.5 37q0 5 1 15.5t6 10.5zM230 906q5 0 5.5 -8t0.5 -15q1 -8 -2.5 -15t-11.5 -6
q-3 1 -3.5 7.5t1.5 14.5t4.5 15t5.5 7zM270 901q2 4 7 -1.5t6 -7.5t0.5 -4.5t-0.5 -9.5q0 -12 1.5 -32t1.5 -31q0 -4 -1 -10t-3 -11t-4 -7t-4 1q-2 5 -2 16v17q-1 24 -3 48t1 32zM212 898q3 1 3 -3t-1 -9t-2.5 -10.5t-1.5 -8.5q0 -6 -3 -14.5t-13 -5.5q-2 1 -2 7t1.5 12.5
l3 12.5t1.5 8q5 9 14 11zM293 885q3 1 5.5 -2.5t5 -8t4.5 -9.5t2 -8q2 -12 -0.5 -25.5t-6.5 -18.5q-5 -5 -7 -4t-2.5 5t-0.5 10v11q-2 16 -3.5 32t3.5 18zM186 883q3 1 3.5 -2.5t0 -9t-2 -11.5l-2.5 -10l-3.5 -10.5t-10.5 -2.5q-3 2 -2.5 9t3 14.5t6.5 14t8 8.5zM233 858
q4 0 3.5 -9.5t-5.5 -12.5q-4 -3 -8 -5t-12 -7q-3 -2 -8 -5l-9.5 -5.5t-8 -4t-4.5 -0.5q-2 0 -5 6t-3 10q2 5 14 9.5t20 9.5q7 4 14 9.5t12 4.5zM237 829q3 -1 2.5 -10.5t-1.5 -12.5q-1 -2 -5.5 -5.5l-10 -7.5t-11 -6.5t-7.5 -2.5t-8.5 4.5t-7.5 7.5q-1 6 9.5 11.5t15.5 8.5
q4 2 12 6.5t12 6.5zM662 721q9 2 14 -1.5t7 -10.5t2.5 -15.5t0.5 -15.5q0 -6 0.5 -11t7.5 -7q5 0 11 7t11 11q11 11 25 10t21 -18q3 -11 4 -23.5t-2 -26.5q-4 -18 -10.5 -29t-13 -20.5t-11 -19.5t-3.5 -25q1 -20 5.5 -38.5l9 -37t8 -37.5t2.5 -40q-1 -23 -3 -38.5
t-3.5 -29.5l-3 -29t-1.5 -36q0 -37 1 -75t1 -74q0 -14 0.5 -19t0.5 -19q0 -8 1 -18t0.5 -19t-3.5 -14.5t-10 -5.5q-5 0 -8 7t-4.5 16t-2.5 19t-1 17l-10 206q0 3 0.5 9t0 11.5t-2.5 9t-6 2.5q-5 -1 -4 -13t1 -17q0 -26 1 -52t3 -52q1 -17 1.5 -30.5l1 -26.5l1 -26.5
t1.5 -29.5q1 -8 2.5 -17t1.5 -17.5t-2.5 -14t-8.5 -5.5q-8 0 -12.5 7.5t-6.5 18t-3 21.5t-1 17l-5.5 52.5t-4.5 48l-4 47t-4 49.5l-2 29q0 1 -1 5t-2.5 8t-4 6t-5.5 -1q-3 -2 -1.5 -13t1.5 -16q5 -64 11 -124.5t11 -120.5q0 -5 1 -13.5t-1 -12.5q-2 -2 -8.5 -2.5t-14 -0.5
h-14.5h-10q-17 1 -21.5 5t-8.5 9q-5 7 -9.5 16.5t-7.5 17.5q-7 13 -11 23.5t-9 21.5q-8 16 -17.5 39.5l-20 48l-20 47.5l-16.5 40l-16.5 40l-15.5 38t-18 39t-24 43q-25 40 -56 73q-5 5 -13 10.5t-14.5 13t-9 17.5t2.5 22q4 9 11.5 11.5t15.5 1t16.5 -5.5t15.5 -8
q37 -22 60 -58q22 -31 40 -63.5t35 -67.5q5 -10 12.5 -27l15.5 -35l15 -34.5l11 -26.5l14.5 -35.5t8.5 -35.5q1 -12 1.5 -25t2.5 -26v-8t2 -7q3 -2 4.5 -1t2.5 4t1 6v4q-1 19 -2 33.5t-1 30.5q-1 42 2 83t-3 79q-5 27 -2 46t9.5 36l13.5 35t12 42q4 19 -4 34.5t-14 30.5
q-11 29 -6 57.5t17 50.5q8 14 18 24t27 15zM237 793q2 0 3.5 -8.5t-1.5 -11.5q-2 -2 -11.5 0t-9.5 4q-2 1 0.5 4t6 6t7 4.5t5.5 1.5zM329 211q2 0 3 -5.5t1.5 -12t0.5 -13.5t1 -10q5 -24 8 -53q3 -17 4 -36.5t-2 -36t-11 -28t-23 -13.5q-9 -1 -11 6.5t-1 17.5t3 20t2 14
q3 17 4.5 34.5t3.5 36.5l9 65q1 8 2 11.5t6 2.5zM238 703q8 2 14.5 -2.5t12 -12t10 -15.5t7.5 -14q5 -14 8.5 -29.5t1.5 -32.5q-2 -20 -8.5 -41t-1.5 -44q3 -22 11 -41.5l16 -37.5q16 -37 12 -93q0 -15 -2 -32.5l-4 -35.5q-2 -40 -8.5 -78t-11.5 -76q-3 -25 -5 -44t-6 -46
q-1 -12 -4 -22t-11 -14q-7 -4 -13 0t-6 13q-1 12 -1.5 20t-0.5 15v14.5v18.5q0 46 -2 89t-2 85q0 11 -2 14.5t-4 4.5q-3 1 -6 -2q-2 -8 -2.5 -23.5t-0.5 -32.5t1 -32.5t2 -23.5q2 -32 3 -64t3 -67q1 -12 -4 -24t-18 -5q-5 3 -8 12t-4 20t-1.5 22.5t-1.5 17.5l-8 55.5
t-11 53.5q-11 45 -18 94.5t-11 99.5q-2 18 1.5 35l7 33.5t6.5 33.5t2 34q-1 14 -6.5 28t-9.5 28l-8.5 24t-7.5 26.5t-2.5 27.5t6.5 27q5 11 15.5 15t21.5 -5q3 -2 6.5 -7.5l7 -10.5t7 -8.5t7.5 -1.5t5 11t3 15q2 10 7.5 19.5t15.5 11.5zM155 219q11 -33 17.5 -73t13.5 -75
q4 -19 4 -33.5t2 -25.5q1 -11 -0.5 -12.5t-9.5 -1.5q-21 0 -37 11t-20 33q-3 31 6 62.5t11 56.5q2 6 2.5 13.5t1.5 15.5q1 3 1 8t1 10t2.5 8.5t4.5 2.5z" />
    <glyph glyph-name="Udieresis" unicode="&#xdc;" horiz-adv-x="740" 
d="M525 937q7 -1 12.5 -7t8.5 -12q4 -10 6 -22t3.5 -24t4.5 -24t10 -22q5 -6 9.5 -9.5l10.5 -8.5q8 -9 9 -16t-3 -10.5t-11 -2t-15 9.5q-2 2 -5 5.5t-6 6t-6 2t-4 -5.5q-2 -9 0.5 -19t0.5 -21q-1 -6 -6.5 -12t-14.5 -4q-9 1 -12.5 7.5t-6 14t-4.5 15.5t-6 13q-6 9 -16 13.5
t-21.5 7.5t-22 6.5t-18.5 11.5q-5 5 -8.5 14.5t-2.5 20.5q3 13 11.5 18.5t19 5t22 -5.5t20.5 -11q2 -2 5 -4.5t5 -0.5t-2.5 7.5t-2.5 11.5q2 8 9.5 1.5t11.5 -11.5q6 -8 5 -1.5t-3 11.5q-2 6 -3 15t0 17.5t4.5 14t11.5 4.5zM232 915q14 4 22.5 -9t6.5 -28q0 -6 -3.5 -13
t2.5 -9q5 -2 9.5 1t9.5 6q8 4 19.5 6.5t22 1t17.5 -7t7 -17.5q0 -18 -7.5 -26.5t-18.5 -13t-23 -8t-22 -13.5q-7 -8 -9.5 -18.5t-8.5 -18.5q-5 -7 -10 -6q-12 -1 -17 10.5t-4 23.5q0 4 0.5 8t-4.5 5q-7 1 -14.5 -5.5t-18.5 -6.5q-8 -1 -13.5 3t-7.5 10q-2 5 1.5 10l6.5 9
q6 6 12.5 13.5t10.5 18.5q3 12 5 23.5t5 22t8 18t16 10.5zM198 708q27 2 44.5 -8.5t28 -29t16 -42t8.5 -47.5q7 -69 -3 -133.5l-20 -124.5q-5 -32 -8 -66t3 -68q4 -20 12.5 -45t19.5 -42q5 -8 8.5 -9.5t5.5 -5.5q2 -3 -1 -10t-4 -12q-2 -11 -5 -19.5t-5 -20.5
q-1 -3 -2.5 -10t-3.5 -7q-5 -2 -12.5 4t-12.5 9q-30 20 -54.5 43t-45.5 54q-19 28 -31 55.5t-19.5 57t-11 61.5t-5.5 68q-5 78 1 152t28 132q8 20 20.5 37t32.5 23q5 2 8.5 3t7.5 1zM613 700q14 0 20 -5t10 -10q7 -11 10.5 -26t3.5 -32t-2 -33.5t-5 -28.5
q-8 -32 -26.5 -58.5t-53.5 -30.5q-28 -3 -49.5 9.5t-32.5 29.5q-9 14 -14 36.5t-6 47t3.5 47t13.5 37.5q5 8 17 14t25 -2q8 -5 13.5 -16t9.5 -22q2 -5 4 -13t8 -8q2 0 5 4t5.5 9.5t4.5 10.5t3 7q5 11 12 22t21 11zM523 472q17 -6 37 -7.5t40 6.5q4 2 10 5.5t8 3.5q3 0 5 -6
t3.5 -14t2 -16t1.5 -11q1 -15 2 -32.5t0.5 -35t-2.5 -33t-8 -27.5q-7 -14 -17 -24.5t-16 -24.5q-5 -11 -9 -26.5t-14 -22.5q-14 -11 -25 -2.5t-13 23.5q-1 11 1.5 19.5t5.5 15.5q5 14 14.5 24.5t17.5 24.5q9 18 15 42t2 47q-1 10 -5 10q-3 0 -3.5 -5t-0.5 -9
q0 -35 -9.5 -57.5t-24.5 -45.5q-1 -2 -5 -7t-7 -5q-2 0 -3.5 6t-1.5 10q-3 23 -4 47t3 52q2 11 -2.5 13t-6.5 -7q-7 -29 -3.5 -62.5l6.5 -61.5q1 -9 1 -20.5t-2.5 -21t-8 -16t-15.5 -5.5q-13 1 -15.5 13.5t-4.5 26.5q-2 15 -6 31t-7 31q-3 17 0 39t5 44q3 24 7 43t17 33
q5 6 10 6t9.5 -2t8.5 -5t7 -4zM288 329q5 2 10 -3.5t7 -10.5q2 -13 -3.5 -24t-8.5 -23q-3 -11 -5 -24.5t-7 -26.5q-2 -6 -3.5 -3.5t-2 8t-0.5 12v8.5q0 4 1 18.5t3 29.5t4.5 27t4.5 12zM454 290q3 -7 4 -15t3 -19q1 -10 3 -19t5.5 -15.5t10 -10.5t17.5 -4q7 0 13.5 4.5
t8.5 3.5t4 -5.5t4 -6.5q6 -8 17.5 -12.5t23.5 3.5q16 10 22 29.5t15 36.5q3 6 8.5 15t12.5 7q2 -1 0 -8t-3 -11q-5 -23 -12.5 -45t-17.5 -42q-9 -18 -17.5 -33l-17.5 -30q-2 -4 -6.5 -11t-6.5 -5q-1 1 -0.5 7.5t-0.5 10.5q-2 15 -6.5 28t-12.5 22.5t-21 14.5t-32 2
q-8 -1 -15.5 -4.5t-11.5 -3.5q-1 0 -2 6t-2 14.5t-2 18t-2 16.5q-1 6 -4 15t-3 17q1 7 3.5 15.5t5.5 14.5t6.5 6.5t8.5 -7.5zM385 280q11 1 19.5 -6.5t13.5 -15.5q8 -15 10.5 -36t4.5 -42q2 -12 -3 -16t-11 -12q-10 -10 -18 -21.5l-17 -23.5l-2 -3l-4 -6t-4 -5.5t-3 -1.5
t1 11t5.5 25t7 32.5t5.5 33.5q2 13 -4.5 25t-17.5 15q-8 1 -15.5 -3.5t-10.5 -9.5q-6 -11 -10 -28.5t-7 -36.5q-2 -11 -2.5 -16t-2.5 -16q-1 -4 -2 -11.5t-2 -8.5t-4 2t-6 7.5l-5.5 8.5t-2.5 5q-3 6 -4.5 12t-4.5 13q-2 6 -4.5 12.5t-0.5 11.5q1 2 3 5t4 5l15 23
q7 10 14.5 22t17 22.5t21 18t26.5 9.5zM379 198q1 -13 -3 -26.5t-6 -25.5t-4.5 -23.5t-5.5 -23.5q-1 -5 -4 -17.5t3 -14.5q2 -1 5.5 1t7 5t7 6.5l4.5 4.5q14 17 28.5 40.5t38.5 38.5q8 5 20.5 8t23.5 1q6 -1 13.5 -6t11.5 -10q5 -7 9.5 -19.5t6.5 -24.5q1 -7 1 -16t-1 -14
q-3 -8 -14.5 -17l-17.5 -14q-21 -15 -44.5 -28.5t-46.5 -22.5q-4 -2 -12.5 -3t-11.5 1q-2 2 1.5 4.5t6.5 5.5q8 8 13 12.5t13 14.5q1 1 4.5 5.5t6 9t3 8.5t-3.5 5q-6 0 -12.5 -9.5t-10.5 -14.5l-10.5 -12.5t-10.5 -10.5q-9 -8 -20 -15.5t-22 -9.5q-10 -1 -24.5 0.5
t-16.5 11.5q-2 7 1.5 18.5t5.5 19.5q6 22 9 37l9.5 41.5t7.5 40.5l4.5 27t7.5 24q8 14 18 6.5t11 -19.5z" />
    <glyph glyph-name="aacute" unicode="&#xe1;" horiz-adv-x="810" 
d="M564 935q24 0 38.5 -10t11.5 -32q-2 -10 -6 -17.5t-9 -15.5q-15 -23 -42.5 -38t-50.5 -32q-6 -5 -11.5 -11l-10.5 -12q-5 -5 -9 -10t-10 -6q-10 -1 -15.5 3.5t-7 10.5t1 13t8.5 10q4 2 7 4t3 3q-26 -8 -58.5 -11t-66.5 2q-11 2 -24 5t-22 1q-21 -3 -35 -13.5t-31 -15.5
q-5 -2 -14.5 -2t-10.5 8q-2 10 8.5 13t16.5 6q3 2 8.5 5t4.5 8q1 5 -9 7.5t-17 3.5q-14 2 -21 9.5t3 15.5q4 3 13.5 2.5t16.5 -2.5l30.5 -8.5t30.5 0.5q8 4 16 10t16 11l39 22.5t47 17.5q8 2 8 3q-2 4 -12.5 0t-13.5 -4q-13 1 -11.5 12t11.5 14q9 3 22 1.5t25 -0.5
q11 0 22.5 1l22.5 2q26 3 44 9t43 7zM399 708q19 -1 30 -12t18 -23q2 -4 5.5 -9t6.5 -7q7 0 10 11t5 14q5 11 15 19.5t24 2.5q9 -3 19 -15.5t15 -23.5q6 -15 9.5 -33t3 -35.5t-5.5 -34t-15 -29.5q-5 -7 -11.5 -14.5t-10.5 -15.5q-8 -18 -3 -32.5t12 -28.5l11 -28
q7 -14 12 -29t11 -29l24.5 -53t15.5 -36t10.5 -25l8.5 -19q3 -7 7 -13.5t7 -13.5q13 -30 27 -57.5l28 -56.5l12 -23.5t15 -19.5l16.5 -10t7.5 -16q-1 -8 -7.5 -11t-15 -2.5t-17 3.5t-12.5 6q-10 7 -18.5 20.5l-15.5 25.5q-14 26 -27 53l-26 53q-10 20 -18 39t-18 38l-10 20
q-11 25 -20.5 50.5t-21.5 51.5l-10.5 22l-10.5 22l-6 16q-2 -5 -4 -8t-8 -16l-25 -49t-24 -51q-7 -16 -15 -30t-15 -31l-7 -14q-2 -3 -4 -8t-4 -4q-5 2 -11 6t-11 6l-12.5 3.5t-10.5 3.5q-23 8 -47 2t-38 -17l-8.5 -5.5t-4.5 -7.5t5 -3.5t8.5 3.5l9.5 6.5t9 5.5q20 8 41.5 7
t38.5 -9q12 -4 21 -12.5t13 -19.5q12 -35 0.5 -65.5t-30.5 -50.5q-3 -5 -9 -12t-5 -13q0 -4 6 -5.5t14 -1.5t16 1t13 1q15 1 30 -0.5t22 -7.5q3 -2 7 -8t1 -11q-1 -2 -6 -3.5t-10 -1.5q-50 -2 -91.5 0t-83.5 1q-4 0 -14.5 -1t-12.5 4t3.5 11t7.5 11q10 14 20 26t21 27
q3 5 11 12.5t6 14.5q-2 4 -5 3.5t-6 -3t-5 -6t-3 -4.5q-12 -18 -27.5 -35.5t-26.5 -36.5q-2 -2 -3.5 -4.5t-4.5 -6.5q-2 -2 -5 -6.5t-4 -4.5q-2 -1 -8.5 -1h-11.5q-17 -1 -31 0t-26 0q-23 -1 -40 -1t-35 1q-9 0 -15 6t-5 13q1 11 10.5 15.5t21.5 6t24.5 2t20.5 4.5
q6 4 13 14.5l12 17.5q11 22 21.5 46l21.5 47q2 5 6 11t7 12l92.5 191l94.5 186q6 15 2 29.5t-9 29t-7.5 29.5t5.5 30q8 17 27 17zM477 367q2 -2 3.5 -5l2.5 -5l22 -42t19 -44q5 -13 11 -24.5t11 -24.5q6 -15 11.5 -26l10.5 -22l30.5 -69.5t29.5 -55.5q5 -8 17.5 -15
t14.5 -18q1 -7 -2.5 -11t-9 -6t-12 -2t-12.5 2q-20 7 -30 22.5t-19 34.5l-44 95.5l-44 96.5l-15 30.5t-13 29.5q-2 3 -3.5 9t-1.5 8q0 4 4 9.5t6 10.5t6.5 14t6.5 8z" />
    <glyph glyph-name="agrave" unicode="&#xe0;" horiz-adv-x="810" 
d="M235 935q25 -1 43 -7t44 -9l22.5 -2t22.5 -1q12 -1 25 0.5t22 -1.5q10 -3 11.5 -14t-11.5 -12q-3 0 -13.5 4t-12.5 0q0 -1 8 -3q28 -7 47 -17.5l39 -22.5q8 -5 16 -11t16 -10q15 -5 30.5 -0.5l30.5 8.5q7 2 16.5 2.5t13.5 -2.5q10 -8 3 -15.5t-21 -9.5q-7 -1 -17 -3.5
t-9 -7.5q-1 -5 4.5 -8t8.5 -5q6 -3 16 -6t9 -13q-1 -8 -10.5 -8t-14.5 2q-17 5 -31 15.5t-35 13.5q-9 2 -22 -1t-24 -5q-34 -5 -66.5 -2t-58.5 11q0 -1 3 -3t7 -4q6 -3 8.5 -10t1 -13t-7 -10.5t-15.5 -3.5q-6 1 -10 6t-9 10l-10.5 12t-11.5 11q-23 17 -50.5 32t-42.5 38
q-5 8 -9 15.5t-6 17.5q-3 22 11.5 32t38.5 10zM399 708q19 -1 30 -12t18 -23q2 -4 5.5 -9t6.5 -7q7 0 10 11t5 14q5 11 15 19.5t24 2.5q9 -3 19 -15.5t15 -23.5q6 -15 9.5 -33t3 -35.5t-5.5 -34t-15 -29.5q-5 -7 -11.5 -14.5t-10.5 -15.5q-8 -18 -3 -32.5t12 -28.5l11 -28
q7 -14 12 -29t11 -29l24.5 -53t15.5 -36t10.5 -25l8.5 -19q3 -7 7 -13.5t7 -13.5q13 -30 27 -57.5l28 -56.5l12 -23.5t15 -19.5l16.5 -10t7.5 -16q-1 -8 -7.5 -11t-15 -2.5t-17 3.5t-12.5 6q-10 7 -18.5 20.5l-15.5 25.5q-14 26 -27 53l-26 53q-10 20 -18 39t-18 38l-10 20
q-11 25 -20.5 50.5t-21.5 51.5l-10.5 22l-10.5 22l-6 16q-2 -5 -4 -8t-8 -16l-25 -49t-24 -51q-7 -16 -15 -30t-15 -31l-7 -14q-2 -3 -4 -8t-4 -4q-5 2 -11 6t-11 6l-12.5 3.5t-10.5 3.5q-23 8 -47 2t-38 -17l-8.5 -5.5t-4.5 -7.5t5 -3.5t8.5 3.5l9.5 6.5t9 5.5q20 8 41.5 7
t38.5 -9q12 -4 21 -12.5t13 -19.5q12 -35 0.5 -65.5t-30.5 -50.5q-3 -5 -9 -12t-5 -13q0 -4 6 -5.5t14 -1.5t16 1t13 1q15 1 30 -0.5t22 -7.5q3 -2 7 -8t1 -11q-1 -2 -6 -3.5t-10 -1.5q-50 -2 -91.5 0t-83.5 1q-4 0 -14.5 -1t-12.5 4t3.5 11t7.5 11q10 14 20 26t21 27
q3 5 11 12.5t6 14.5q-2 4 -5 3.5t-6 -3t-5 -6t-3 -4.5q-12 -18 -27.5 -35.5t-26.5 -36.5q-2 -2 -3.5 -4.5t-4.5 -6.5q-2 -2 -5 -6.5t-4 -4.5q-2 -1 -8.5 -1h-11.5q-17 -1 -31 0t-26 0q-23 -1 -40 -1t-35 1q-9 0 -15 6t-5 13q1 11 10.5 15.5t21.5 6t24.5 2t20.5 4.5
q6 4 13 14.5l12 17.5q11 22 21.5 46l21.5 47q2 5 6 11t7 12l92.5 191l94.5 186q6 15 2 29.5t-9 29t-7.5 29.5t5.5 30q8 17 27 17zM477 367q2 -2 3.5 -5l2.5 -5l22 -42t19 -44q5 -13 11 -24.5t11 -24.5q6 -15 11.5 -26l10.5 -22l30.5 -69.5t29.5 -55.5q5 -8 17.5 -15
t14.5 -18q1 -7 -2.5 -11t-9 -6t-12 -2t-12.5 2q-20 7 -30 22.5t-19 34.5l-44 95.5l-44 96.5l-15 30.5t-13 29.5q-2 3 -3.5 9t-1.5 8q0 4 4 9.5t6 10.5t6.5 14t6.5 8z" />
    <glyph glyph-name="ccedilla" unicode="&#xe7;" horiz-adv-x="839" 
d="M241 76q-10 7 -18.5 15t-18 19.5t-20 28t-24.5 41.5t-23 50t-14 56q-7 36 -2 71.5t14 66.5q21 70 59.5 119t87.5 89q19 16 32 29.5t23.5 27t19.5 27t20 28.5l14 16t19 11q12 1 20 -5t9 -14q1 -10 0.5 -24.5t4.5 -14.5q5 -1 9.5 3.5l9.5 9.5q7 7 22 12.5t24 -7.5
q6 -7 5.5 -19.5t-2.5 -23.5q-2 -10 -7 -21t-12 -21.5t-15.5 -19t-15.5 -12.5q-4 -2 -13.5 -5.5t-14.5 -1.5q-3 2 -6 7t-5 10q-5 11 -12.5 22.5t-13.5 16.5q-3 3 -8 4.5t-6 -3.5q-1 -2 3 -7t6 -7l13.5 -20.5t11.5 -19.5q12 -21 26.5 -34t38.5 -20q5 -1 13.5 -2.5t12.5 -3.5
q21 -4 38 -15.5t25 -28.5q4 -7 4.5 -18.5t-8.5 -13.5q-12 -4 -21.5 -1t-17 9t-14.5 13t-15 11q-7 4 -17 5t-22 3q-26 3 -41.5 12.5t-32.5 22.5l-9.5 9.5t-13.5 -3.5l-6.5 -6.5l-6.5 -6.5l-21 -29t-19 -31l-7.5 -15t-6.5 -14q-2 -5 -6 -16.5t-9 -12.5q-5 0 -10 3t-11 6
q-4 2 -10.5 4.5t-7.5 -3.5q-1 -5 8 -8t14 -6q29 -16 54 -41q11 -13 18 -33.5t1 -46.5q-1 -5 -3.5 -12t-4.5 -12q-4 -9 -11 -18t-5 -17q0 -2 4 -7.5t7 -7.5q20 -14 43.5 -27.5t41.5 -33.5q3 -3 8 -11t7.5 -17t1 -16.5t-11.5 -10.5q-3 -1 -8 -0.5t-9 2.5q-15 9 -30 21t-31 23
q-34 22 -58 33t-47 29q-5 5 -11 15t-8 18q-1 4 -3 10.5t-5 12.5t-5.5 10.5t-5.5 3.5q-8 -2 -3 -19q6 -21 12.5 -41t23 -42t48 -48t86.5 -60l39 -22t35 -20.5t33.5 -23.5t33.5 -32q21 -23 31.5 -48t13.5 -61t-7.5 -61t-26.5 -42q-18 -15 -42.5 -23.5t-57.5 -3.5
q-23 3 -40.5 15.5t-28.5 32t-15 44.5t0 52q1 6 4.5 17.5t9.5 24.5t15.5 26.5t22.5 23.5q0 1 5 -1.5t7 -4.5q9 -6 17 -13t14 -14q2 -2 4.5 -5.5t2.5 -5.5q0 -1 -3 -5.5t-4 -6.5q-5 -9 -10.5 -22t-8.5 -27t-1 -27.5t12 -23.5q9 -7 20 -6.5t19 6.5q9 8 12.5 20.5t3 27.5t-5 30
t-10.5 27q-4 7 -9.5 14.5t-10.5 12.5q-17 17 -42.5 33.5t-53 32l-53.5 30t-44 28.5zM571 88q35 20 60.5 49.5t42.5 72.5q7 17 9 29.5t5 23.5q2 7 5.5 15t9 14.5t13.5 10t18 1.5q15 -2 18.5 -13.5t3.5 -28.5q-1 -17 -5.5 -33t-9.5 -30q-5 -17 -13.5 -32.5l-16.5 -30.5
q-8 -14 -19 -27.5l-21 -25.5q-13 -13 -30.5 -26.5t-31.5 -22.5q-11 -8 -27.5 -15.5l-31.5 -14t-26 -10t-12 -2.5q-3 4 -11 11l-16.5 14.5t-15.5 13t-9 7.5l12 4t29 10.5t36 16t34 19.5zM522 664q14 0 26.5 -3t23.5 -6q25 -6 46.5 -17.5t40.5 -24.5q15 -11 29 -27t18 -33
q1 -5 0 -11t-5 -10t-10 -5.5t-13 1.5t-13.5 8t-13.5 11q-11 10 -23 18l-26 18q-39 25 -106 31q-8 1 -12 1t2 5q6 6 10.5 12.5t10.5 16.5l7 14q2 1 4.5 1h3.5z" />
    <glyph glyph-name="eacute" unicode="&#xe9;" horiz-adv-x="633" 
d="M416 952q13 1 21 -4.5t12 -15t3 -21.5t-6 -22q-5 -11 -13.5 -18.5t-12.5 -17.5q-6 -12 -6.5 -24.5t-8.5 -18.5q-7 -4 -12 -3t-5 12q0 3 1.5 7t-1.5 5q-4 2 -7 -1.5t-6 -5.5q-13 -9 -32.5 -14t-37.5 -5t-31 4.5t-28 7.5q-7 1 -16.5 1h-18.5q-10 0 -18.5 1t-10.5 8
q-1 9 6.5 16t14.5 10q9 4 15.5 1t12.5 -8l11.5 -9.5t12.5 -3.5q5 0 8.5 4t7.5 7q13 12 29.5 19.5t30.5 19.5l3 3q2 5 2 6q-2 1 -8 -5q-4 -4 -9 -5q-6 -2 -10.5 1t-6 6.5t0 7.5t7.5 5q11 2 22 4.5t21 7.5q15 9 28.5 22t34.5 16zM358 771q11 -3 20 -16t15 -27q8 -18 6 -38
t-10 -36l-5.5 -10.5t-6.5 -7.5l-43 -5q-5 -1 -14 -3t-9 -5q0 -4 4.5 -4t9.5 1q45 6 91 9t90 -1q17 -2 33 -5.5t20 -15.5q3 -9 -2.5 -14t-15.5 -6q-8 0 -14.5 1t-12.5 1q-25 2 -52.5 1.5t-50.5 -2.5t-43 -4t-43 -5q-6 -1 -13.5 -3.5t-12.5 -4.5q-4 -2 -8 -8t-7 -11
q-13 -18 -21 -35.5l-17 -37.5l-7.5 -15.5t-5.5 -17.5q-1 -3 -6.5 -2t-10.5 1q-16 -1 -24.5 -4t-16.5 -8q-13 -6 -7 -12q4 -4 13.5 2t15.5 8q17 5 33 1.5t30.5 -12.5t27 -21l23.5 -22q11 -11 25 -20t34 -11q17 -2 35 4l35 12l18.5 7t21.5 6.5t22 2.5t20 -6q6 -4 8.5 -10.5
t-2.5 -12.5q-3 -4 -10 -6t-12 -3q-26 -6 -50 -14l-49 -16l-31 -12q-17 -5 -29.5 -3.5t-24 6t-22.5 9.5t-24 8q-16 2 -38.5 3t-39.5 -6q-6 -3 -7.5 -6t-3.5 -14q-5 -20 -5 -40.5t2 -37.5l5 -44.5t10 -42.5q11 -28 33 -44.5t58 -20.5q35 -3 67.5 0.5t61.5 5.5q30 2 50 -8.5
t12 -34.5q-4 -12 -16 -18.5t-28 -10t-32.5 -4.5t-29.5 -2q-17 -2 -33.5 -2t-35.5 1q-20 1 -40.5 3t-37.5 7q-19 3 -35 14q-14 9 -24 21.5t-19 26.5q-19 30 -28.5 74.5t-11.5 89.5q-2 28 -2 65.5t3 78t9 81.5t17.5 78t29.5 66t43 46q7 5 18.5 9.5t16.5 13.5q4 7 4 17.5v18.5
l2 15.5t6 15.5q6 10 18.5 16t23.5 0q5 -3 7.5 -9t4.5 -10q2 -6 4.5 -10.5t8.5 -4.5q5 0 6 9.5t2 15.5q2 10 7 19.5t15 11.5h4zM418 672h46.5t45.5 -2q13 -2 25.5 -4.5t19.5 -9.5q6 -6 5 -13.5t-11 -7.5q-14 0 -26.5 1.5t-29.5 2.5t-27 1h-17.5t-15 -0.5t-18.5 -0.5
q-12 -1 -16.5 -1t-5.5 2l6 12q3 6 4.5 11.5t2.5 7.5q0 1 5 1h7zM249 462q3 3 10 -1q15 -9 28 -15.5t24 -14.5q15 -11 27 -24t28 -18q4 -2 10.5 -1.5t13.5 2t13 3.5t11 3q17 4 34 14t40 13q16 2 23 -7.5t-5 -19.5q-7 -5 -14.5 -7t-20.5 -6l-55 -17l-22.5 -6.5t-23.5 -0.5
q-15 3 -29.5 12t-24.5 19q-14 14 -32 27.5t-37 22.5q-8 4 -5.5 11t7.5 11z" />
    <glyph glyph-name="egrave" unicode="&#xe8;" horiz-adv-x="633" 
d="M224 952q21 -3 34.5 -16t28.5 -22q10 -5 21 -7.5t22 -4.5q6 -1 7.5 -5t0 -7.5t-6 -6.5t-10.5 -1q-5 1 -9 5q-6 6 -8 5q-1 -3 2 -6q1 -2 3 -3q14 -12 30.5 -19.5t29.5 -19.5q4 -3 7.5 -7t8.5 -4q7 -1 12.5 3.5l11.5 9.5t12.5 8t15.5 -1q7 -3 14.5 -10t6.5 -16
q-2 -7 -10.5 -8t-18.5 -1h-18.5t-16.5 -1q-15 -3 -28 -7.5t-31 -4.5t-37.5 5t-32.5 14q-3 2 -6 5.5t-7 1.5q-3 -1 -1.5 -5t1.5 -7q0 -11 -5 -12t-12 3q-8 6 -8.5 18.5t-6.5 24.5q-4 10 -12.5 17.5t-13.5 18.5q-5 10 -6 22t3 21.5t12 15t21 4.5zM358 771q11 -3 20 -16t15 -27
q8 -18 6 -38t-10 -36l-5.5 -10.5t-6.5 -7.5l-43 -5q-5 -1 -14 -3t-9 -5q0 -4 4.5 -4t9.5 1q45 6 91 9t90 -1q17 -2 33 -5.5t20 -15.5q3 -9 -2.5 -14t-15.5 -6q-8 0 -14.5 1t-12.5 1q-25 2 -52.5 1.5t-50.5 -2.5t-43 -4t-43 -5q-6 -1 -13.5 -3.5t-12.5 -4.5q-4 -2 -8 -8
t-7 -11q-13 -18 -21 -35.5l-17 -37.5l-7.5 -15.5t-5.5 -17.5q-1 -3 -6.5 -2t-10.5 1q-16 -1 -24.5 -4t-16.5 -8q-13 -6 -7 -12q4 -4 13.5 2t15.5 8q17 5 33 1.5t30.5 -12.5t27 -21l23.5 -22q11 -11 25 -20t34 -11q17 -2 35 4l35 12l18.5 7t21.5 6.5t22 2.5t20 -6
q6 -4 8.5 -10.5t-2.5 -12.5q-3 -4 -10 -6t-12 -3q-26 -6 -50 -14l-49 -16l-31 -12q-17 -5 -29.5 -3.5t-24 6t-22.5 9.5t-24 8q-16 2 -38.5 3t-39.5 -6q-6 -3 -7.5 -6t-3.5 -14q-5 -20 -5 -40.5t2 -37.5l5 -44.5t10 -42.5q11 -28 33 -44.5t58 -20.5q35 -3 67.5 0.5t61.5 5.5
q30 2 50 -8.5t12 -34.5q-4 -12 -16 -18.5t-28 -10t-32.5 -4.5t-29.5 -2q-17 -2 -33.5 -2t-35.5 1q-20 1 -40.5 3t-37.5 7q-19 3 -35 14q-14 9 -24 21.5t-19 26.5q-19 30 -28.5 74.5t-11.5 89.5q-2 28 -2 65.5t3 78t9 81.5t17.5 78t29.5 66t43 46q7 5 18.5 9.5t16.5 13.5
q4 7 4 17.5v18.5l2 15.5t6 15.5q6 10 18.5 16t23.5 0q5 -3 7.5 -9t4.5 -10q2 -6 4.5 -10.5t8.5 -4.5q5 0 6 9.5t2 15.5q2 10 7 19.5t15 11.5h4zM418 672h46.5t45.5 -2q13 -2 25.5 -4.5t19.5 -9.5q6 -6 5 -13.5t-11 -7.5q-14 0 -26.5 1.5t-29.5 2.5t-27 1h-17.5t-15 -0.5
t-18.5 -0.5q-12 -1 -16.5 -1t-5.5 2l6 12q3 6 4.5 11.5t2.5 7.5q0 1 5 1h7zM249 462q3 3 10 -1q15 -9 28 -15.5t24 -14.5q15 -11 27 -24t28 -18q4 -2 10.5 -1.5t13.5 2t13 3.5t11 3q17 4 34 14t40 13q16 2 23 -7.5t-5 -19.5q-7 -5 -14.5 -7t-20.5 -6l-55 -17l-22.5 -6.5
t-23.5 -0.5q-15 3 -29.5 12t-24.5 19q-14 14 -32 27.5t-37 22.5q-8 4 -5.5 11t7.5 11z" />
    <glyph glyph-name="iacute" unicode="&#xed;" horiz-adv-x="555" 
d="M239 708q14 1 22.5 -7t13.5 -17q4 -6 7 -18.5t8 -13.5t11.5 6.5l15 16.5t19 15t24.5 3q12 -4 17.5 -15t6.5 -25.5t-1 -29t-5 -25.5q-7 -23 -18 -38t-11 -23q0 -5 7.5 -12t9.5 -12q11 -24 15 -58.5t1 -72.5q-2 -23 -6.5 -47t-10.5 -47q-13 -50 -23 -99.5t-19 -99.5
q-1 -8 -4 -17t-1 -16q1 -8 6 -14l10 -12t7 -13t-4 -17q-4 -8 -12 -11t-16.5 -2.5t-16.5 4t-12 10.5q-7 9 -7 21q0 45 1.5 90.5t4.5 89.5q0 24 1.5 46.5t1.5 47.5q0 8 -0.5 17t-3.5 10q-10 2 -10 -9.5v-21.5q0 -26 -0.5 -58t-2.5 -61q0 -12 -0.5 -24t-0.5 -26v-58t-8 -54
q-2 -5 -7 -10t-12.5 -9t-16 -5t-16.5 3q-6 5 -10 11t-2 14q2 10 7.5 15t10.5 16q7 15 5.5 39.5t-3.5 43.5q-2 23 -5.5 41t-5.5 35l-14 122l-3.5 35t-1.5 32q-3 41 3 85q1 13 7.5 22.5t13.5 16.5t12.5 11.5t6.5 8.5q2 9 -6 17.5t-13 16.5q-14 22 -14.5 56.5t15.5 60.5
q10 16 32 19zM176 276q3 1 4 -4t3 -10l4.5 -41l4.5 -39q4 -25 7.5 -51.5t5.5 -55.5q1 -14 -4.5 -21.5t-12.5 -18.5q-5 -9 -5 -14q-3 -5 -11.5 -5.5t-17.5 -2.5l-29 -7q-11 -2 -24 -3.5t-15 12.5q-2 11 6.5 17.5t19.5 10.5l21.5 7.5t14.5 8.5t3 11l-2 12q-5 19 -9 42t-5 46
t2 45t12 39q2 6 10 14t17 8zM381 273q5 0 12 -5.5t12 -15.5q6 -15 8 -31.5t1.5 -34t-3.5 -34.5t-7 -33l-5 -18l-6 -22t-4 -21t3 -14q5 -7 13 -9l16 -4t15.5 -5t10.5 -12q4 -12 -5.5 -15t-23 -1t-27 6t-18.5 5q-5 2 -12.5 2.5t-9.5 3.5q-2 2 -2.5 6.5t-2.5 9.5q-4 8 -11 13.5
t-6 16.5q3 24 7.5 45l9.5 43q7 30 12 57t12 54q1 3 3.5 8t7.5 5zM368 899q5 0 12 -1.5t13.5 -3.5t12 -5t6.5 -6q2 -3 0 -7.5t-4 -9.5q-8 -15 -19 -28.5t-22 -24.5q-17 -17 -43 -29.5t-59 -5.5q-11 2 -25.5 7t-21.5 -3q-3 -3 -4 -9.5t-3 -12.5t-5 -10.5t-10 -2.5t-8 10t2 16
q1 5 5.5 11.5t2.5 10.5q0 3 -7 2.5t-12 1.5q-7 2 -14.5 6.5t-7.5 12.5q0 4 1.5 8t6.5 5q6 1 12.5 -2.5l12.5 -7t11.5 -5t11.5 3.5q4 2 8 7t6 9q6 11 13 19q24 28 60 36.5t68 7.5z" />
    <glyph glyph-name="igrave" unicode="&#xec;" horiz-adv-x="555" 
d="M204 899q16 1 33.5 -0.5t34.5 -6.5t32.5 -14t27.5 -23q7 -8 13 -19q2 -4 6 -9t8 -7q6 -5 11.5 -3.5t11.5 5l12.5 7t12.5 2.5q5 -1 6.5 -5t1.5 -8q0 -8 -7.5 -12.5t-14.5 -6.5q-5 -2 -12 -1.5t-7 -2.5q-2 -4 2.5 -10.5t5.5 -11.5q3 -8 2 -16t-8 -10t-10 2.5t-5 10.5
t-3 12.5t-4 9.5q-7 8 -21.5 3t-25.5 -7q-33 -7 -59 5.5t-43 29.5q-11 11 -22 24.5t-19 28.5q-2 5 -4 9.5t0 7.5q1 3 6 6t12 5t14 3.5t12 1.5zM239 708q14 1 22.5 -7t13.5 -17q4 -6 7 -18.5t8 -13.5t11.5 6.5l15 16.5t19 15t24.5 3q12 -4 17.5 -15t6.5 -25.5t-1 -29t-5 -25.5
q-7 -23 -18 -38t-11 -23q0 -5 7.5 -12t9.5 -12q11 -24 15 -58.5t1 -72.5q-2 -23 -6.5 -47t-10.5 -47q-13 -50 -23 -99.5t-19 -99.5q-1 -8 -4 -17t-1 -16q1 -8 6 -14l10 -12t7 -13t-4 -17q-4 -8 -12 -11t-16.5 -2.5t-16.5 4t-12 10.5q-7 9 -7 21q0 45 1.5 90.5t4.5 89.5
q0 24 1.5 46.5t1.5 47.5q0 8 -0.5 17t-3.5 10q-10 2 -10 -9.5v-21.5q0 -26 -0.5 -58t-2.5 -61q0 -12 -0.5 -24t-0.5 -26v-58t-8 -54q-2 -5 -7 -10t-12.5 -9t-16 -5t-16.5 3q-6 5 -10 11t-2 14q2 10 7.5 15t10.5 16q7 15 5.5 39.5t-3.5 43.5q-2 23 -5.5 41t-5.5 35l-14 122
l-3.5 35t-1.5 32q-3 41 3 85q1 13 7.5 22.5t13.5 16.5t12.5 11.5t6.5 8.5q2 9 -6 17.5t-13 16.5q-14 22 -14.5 56.5t15.5 60.5q10 16 32 19zM176 276q3 1 4 -4t3 -10l4.5 -41l4.5 -39q4 -25 7.5 -51.5t5.5 -55.5q1 -14 -4.5 -21.5t-12.5 -18.5q-5 -9 -5 -14
q-3 -5 -11.5 -5.5t-17.5 -2.5l-29 -7q-11 -2 -24 -3.5t-15 12.5q-2 11 6.5 17.5t19.5 10.5l21.5 7.5t14.5 8.5t3 11l-2 12q-5 19 -9 42t-5 46t2 45t12 39q2 6 10 14t17 8zM381 273q5 0 12 -5.5t12 -15.5q6 -15 8 -31.5t1.5 -34t-3.5 -34.5t-7 -33l-5 -18l-6 -22t-4 -21
t3 -14q5 -7 13 -9l16 -4t15.5 -5t10.5 -12q4 -12 -5.5 -15t-23 -1t-27 6t-18.5 5q-5 2 -12.5 2.5t-9.5 3.5q-2 2 -2.5 6.5t-2.5 9.5q-4 8 -11 13.5t-6 16.5q3 24 7.5 45l9.5 43q7 30 12 57t12 54q1 3 3.5 8t7.5 5z" />
    <glyph glyph-name="idieresis" unicode="&#xef;" horiz-adv-x="555" 
d="M282 789q-2 -11 -9 -15t-17 -3t-19.5 5t-15.5 10q-3 3 -7 8t-8 3q-5 -3 -2 -13t2 -19q-1 -11 -5.5 -20.5t-16.5 -9.5q-10 0 -15 8t-6.5 18.5t-2 20.5t-1.5 15l-4 10t-10 11q-5 4 -11.5 10t-8.5 11q-5 17 6.5 22t24.5 2q6 -2 10.5 -6t9.5 -4q13 0 12.5 10t1.5 21
q3 14 15.5 26t31.5 6q13 -5 16 -17t3 -27t0.5 -30.5t8.5 -26.5q5 -8 12 -11t5 -15zM398 903q13 -2 19 -13t6 -25q0 -8 -1.5 -15t1.5 -8q2 -1 6 1.5t8 6l7.5 6.5t5.5 4q16 9 26 -1t1 -27q-7 -14 -22 -22t-22 -21q-5 -12 -4.5 -29.5t-6.5 -26.5q-8 -10 -18 -4.5t-11 16.5
q-1 8 0 19.5t-4 12.5q-3 0 -8.5 -5.5l-8.5 -8.5q-4 -3 -11 -6.5t-13.5 -5t-12.5 1t-8 11.5q-2 8 1.5 14.5t9 12t11.5 10.5t9 10q8 13 11.5 24t1.5 33q-1 11 4.5 22t17.5 13h5zM239 708q14 1 22.5 -7t13.5 -17q4 -6 7 -18.5t8 -13.5t11.5 6.5l15 16.5t19 15t24.5 3
q12 -4 17.5 -15t6.5 -25.5t-1 -29t-5 -25.5q-7 -23 -18 -38t-11 -23q0 -5 7.5 -12t9.5 -12q11 -24 15 -58.5t1 -72.5q-2 -23 -6.5 -47t-10.5 -47q-13 -50 -23 -99.5t-19 -99.5q-1 -8 -4 -17t-1 -16q1 -8 6 -14l10 -12t7 -13t-4 -17q-4 -8 -12 -11t-16.5 -2.5t-16.5 4
t-12 10.5q-7 9 -7 21q0 45 1.5 90.5t4.5 89.5q0 24 1.5 46.5t1.5 47.5q0 8 -0.5 17t-3.5 10q-10 2 -10 -9.5v-21.5q0 -26 -0.5 -58t-2.5 -61q0 -12 -0.5 -24t-0.5 -26v-58t-8 -54q-2 -5 -7 -10t-12.5 -9t-16 -5t-16.5 3q-6 5 -10 11t-2 14q2 10 7.5 15t10.5 16
q7 15 5.5 39.5t-3.5 43.5q-2 23 -5.5 41t-5.5 35l-14 122l-3.5 35t-1.5 32q-3 41 3 85q1 13 7.5 22.5t13.5 16.5t12.5 11.5t6.5 8.5q2 9 -6 17.5t-13 16.5q-14 22 -14.5 56.5t15.5 60.5q10 16 32 19zM176 276q3 1 4 -4t3 -10l4.5 -41l4.5 -39q4 -25 7.5 -51.5t5.5 -55.5
q1 -14 -4.5 -21.5t-12.5 -18.5q-5 -9 -5 -14q-3 -5 -11.5 -5.5t-17.5 -2.5l-29 -7q-11 -2 -24 -3.5t-15 12.5q-2 11 6.5 17.5t19.5 10.5l21.5 7.5t14.5 8.5t3 11l-2 12q-5 19 -9 42t-5 46t2 45t12 39q2 6 10 14t17 8zM381 273q5 0 12 -5.5t12 -15.5q6 -15 8 -31.5t1.5 -34
t-3.5 -34.5t-7 -33l-5 -18l-6 -22t-4 -21t3 -14q5 -7 13 -9l16 -4t15.5 -5t10.5 -12q4 -12 -5.5 -15t-23 -1t-27 6t-18.5 5q-5 2 -12.5 2.5t-9.5 3.5q-2 2 -2.5 6.5t-2.5 9.5q-4 8 -11 13.5t-6 16.5q3 24 7.5 45l9.5 43q7 30 12 57t12 54q1 3 3.5 8t7.5 5z" />
    <glyph glyph-name="ntilde" unicode="&#xf1;" horiz-adv-x="966" 
d="M756 271q5 0 6 -7.5t3 -14.5l16.5 -86t22.5 -80l5 -15t5 -18.5t1.5 -19t-4.5 -16.5q-10 -16 -25.5 -12t-23.5 20q-12 24 -20.5 53t-15.5 60t-13 62.5t-11 61.5l-1 9q-1 7 3.5 8t13 0t18.5 -3t20 -2zM687 297q-8 0 -9 -8.5t0 -11.5q3 -33 10.5 -65.5t12.5 -62.5
l15.5 -51.5t16.5 -50.5q2 -6 3 -15t-1 -17.5t-7.5 -14t-17.5 -5.5q-10 0 -18 7t-14.5 17t-11 21.5t-7.5 20.5l-24 83q-8 39 -17 75.5l-19 77.5q-8 30 -14.5 59.5t-16.5 53.5t-23.5 39t-34.5 15q-32 2 -46 -7.5t-19 -38.5q-3 -17 -1.5 -37t2.5 -41q1 -18 2.5 -41.5
t-2.5 -43.5q-2 -15 -8 -28l-13 -27l-14.5 -28t-10.5 -31q-2 -19 5.5 -36t11.5 -31t11.5 -32.5t4.5 -31.5q-2 -9 -9 -11t-13 3q-14 12 -20.5 31.5t-14.5 36.5q-17 41 -25 79q-5 24 0.5 47t4.5 49q-1 24 -6 50.5t-13 43.5q-7 13 -18 13q-5 -1 -8 -6.5t-5 -12t-3.5 -13.5
l-2.5 -12q-5 -19 -12.5 -33.5t-16.5 -27.5t-19.5 -25t-20.5 -25q-12 -17 -18 -38.5t-2 -56.5l6 -52l2.5 -15.5t1.5 -18.5t-3 -16t-11 -7q-12 0 -16.5 15.5t-5.5 26.5q-4 23 -10 44t-10.5 40.5t-6 37.5t3.5 36l16 49.5t8 54.5q0 59 -13.5 106t-37.5 98q-11 21 -18 50.5
t-8 58.5q-2 64 10 109t34 83q11 19 28 36.5t37.5 31.5t43 23t43.5 12q27 4 51.5 3.5t50.5 -5.5q34 -3 69.5 -15l71.5 -23.5t72 -17.5t71 4q22 6 43.5 14.5t38.5 21.5l29.5 20t19.5 13t13.5 7t10.5 2q18 1 25.5 -7t7.5 -20t-6 -25t-14 -20q-41 -39 -96 -66.5t-120 -21.5
q-48 5 -93.5 18.5l-84.5 24.5q-15 4 -33 9.5t-36.5 9.5t-36.5 4.5t-34 -3.5q-35 -10 -58 -26t-37.5 -37t-23.5 -45t-16 -49q-3 -17 -2.5 -39t5.5 -42.5t14 -35t23 -17.5q16 -5 26.5 5.5t21.5 24.5q19 23 41 45t45 36q33 20 71 32.5t92 12.5q29 0 54 -10t45.5 -25t35.5 -32
t24 -31q11 -18 19.5 -38t14.5 -36.5l9.5 -25.5t6.5 -5q9 13 18 17t16.5 3t13 -5.5t7.5 -8.5q4 -9 5.5 -19.5t2.5 -19.5t1 -14t1 -3q1 1 4.5 8t8.5 14.5t11.5 13.5t13.5 7q12 1 17.5 -8t8.5 -23.5t4 -31t3 -29.5q4 -29 -3.5 -47t-16.5 -28q-16 -18 -38.5 -24t-45.5 -5.5
t-44.5 3.5t-36.5 3z" />
    <glyph glyph-name="oacute" unicode="&#xf3;" horiz-adv-x="885" 
d="M687 911q4 -4 1 -7.5t-14 -5.5q-15 -2 -30 -5.5t-26 -8.5q-18 -8 -31.5 -25.5t-31.5 -29.5q-20 -14 -40 -19.5t-43 -6.5h-8q-8 0 -11 -3q-8 -5 -19 -17.5t-18 -21.5q-3 -3 -8 -7.5t-11 -2.5q-4 3 -3.5 9.5t3.5 12.5q3 7 9.5 18t2.5 16q-5 3 -12.5 1.5l-12.5 -2.5
q-15 -2 -32.5 -6.5t-31.5 -13.5t-24 -17.5t-20 -20.5q-8 -8 -16 -10.5t-11 1.5q-5 6 -1.5 14.5t7.5 14.5q8 14 18 25t12 28q0 11 -5.5 21t-11.5 18q-4 8 -9 14.5t-5 16.5q1 9 6 10t12 -2q10 -4 19.5 -16l14.5 -18q7 -8 11 -12t11 -10q13 -12 24.5 -11t20.5 7.5t17 16.5
t16 18q23 27 55.5 42t73.5 10q17 -2 34.5 -8.5t36.5 -10.5q5 -2 18 -1t26.5 2.5t24.5 2.5t12 0zM445 706q66 4 127 -23.5t107 -70.5q33 -35 58 -79t38 -92t12.5 -98t-17.5 -97q-17 -49 -42.5 -90t-63.5 -73l-34 -27.5t-38 -24.5q-48 -26 -105.5 -33.5t-114 3t-105.5 38.5
t-79 73q-5 7 -9.5 16.5t-7 19.5t-3 19t4.5 14q11 13 30.5 5.5t36.5 -32.5q26 -38 69.5 -65.5t109.5 -25.5q19 0 40 3q27 4 49.5 11.5t42.5 18.5q27 14 46 28.5t42 38.5q15 16 29 39t20 49q1 4 3 11t-2 9q-7 4 -8.5 -3.5t-3.5 -11.5l-6 -18q-2 -3 -4 -10.5t-5 -7.5t-6 6
l-5 10l-12 19.5t-10 20.5q-2 4 -4.5 10.5t-7.5 6.5q-8 0 -4.5 -9l5.5 -14l11 -25t14 -24q3 -6 7 -10.5t-1 -11.5q-4 -5 -6 -8t-3.5 -5.5t-4 -5.5l-6.5 -8q-10 -11 -18.5 -18.5t-19.5 -11.5q-8 -3 -18 -3q-23 1 -50 0.5t-52 -0.5q-14 -1 -27 -3t-28 -3q-11 -1 -19.5 4
t-5.5 18q3 9 14.5 14.5t25.5 9.5t27 5.5t20 2.5q5 0 16 1t22 2.5t19 4.5t8 8t-8.5 9.5t-13.5 8.5q-14 10 -21 21q-9 10 -17 24.5t-9 31.5q-2 28 2 54t12 44q10 19 27 33t34 22q13 5 30.5 9.5t35.5 4.5q27 -2 50 -11t41 -19q11 -6 18 -10.5t9 0.5t-5.5 11.5t-16.5 11.5
l-44 20.5t-53 9.5q-47 0 -75 -17.5t-47 -36.5q-8 -8 -12 -16.5t-9 -10.5q-7 -2 -8.5 0.5t0 7.5t3 12.5t0.5 16.5q-2 10 -8.5 16t-14.5 9q-4 2 -8.5 2t-5.5 3q-2 3 -1 5.5t1 7.5q0 9 -1 13q-3 11 -9 17t-18 8q-3 1 -7.5 1t-7.5 3q-2 3 -1 7.5t0 9.5q-3 23 -23 33q-5 2 -9.5 4
t-6.5 5q-1 5 2 9t5 13q5 18 -0.5 34t-15.5 26q-3 3 -6.5 4.5t-3.5 4.5q0 9 14 16t33.5 11.5t39.5 7t31 2.5zM297 660q24 2 38 -15.5t6 -43.5q-2 -5 -4 -12.5t-5 -10.5t-10 -5t-13.5 -3.5t-12 -4t-6.5 -8.5q0 -5 1 -6.5t3.5 -1t5 2.5t4.5 3q9 4 19 7t23 0q11 -2 22 -10.5
t7 -23.5q-3 -14 -17.5 -26.5t-25.5 -17.5q-9 -6 -22.5 -10.5t-24.5 -4.5q-21 -2 -34.5 11t-11.5 37q2 17 8 35.5t14 33.5q1 2 1.5 8t-2.5 7q-5 1 -8.5 -6t-5.5 -12q-8 -20 -13.5 -40.5t-3.5 -43.5q2 -11 9.5 -21.5t15.5 -14.5q4 -2 10 -4t12 -2q5 -1 10 -0.5t7 -1.5
q2 -3 0 -6t-2 -6q-1 -2 -0.5 -7.5t-1.5 -7.5q-3 -3 -8.5 2.5t-7.5 6.5q-4 2 -5.5 3.5t-4.5 3.5t-9 3t-8 -3q-1 -4 4.5 -6t8.5 -3q11 -4 22.5 -15.5t17.5 -21.5q4 -7 5.5 -15t2.5 -18q4 -30 -4 -61q-4 -17 -14.5 -32t-23.5 -25q-6 -7 -21.5 -14.5t-29.5 -1.5q-13 6 -13 21
q0 4 1.5 10.5t2 13t-0.5 11.5t-6 5q-4 0 -8 -7t-7 -10q-5 -5 -12.5 -10t-16.5 -8t-19 -3t-19 5q-9 4 -14.5 14.5t-8 23t-1.5 26.5t6 25q9 30 29 48q3 2 8 7t6 7q2 9 1.5 19t-0.5 19q5 61 28 111t70 81q11 7 25.5 13t31.5 7zM387 503q13 2 21.5 -3.5t10.5 -15.5
q1 -18 -11 -31.5t-22 -17.5q-2 -2 -10.5 -5t-8.5 -7q0 -5 5 -4.5t11.5 3t12.5 5.5t8 5q5 4 8.5 10.5t10.5 8.5q11 3 18.5 -0.5t11.5 -11t3.5 -16.5t-4.5 -17q-6 -9 -19.5 -19t-24.5 -13q-9 -4 -25 -7t-27 -3q-9 0 -19.5 1t-15.5 6q-1 1 -5 10.5t0 11.5q2 1 8 -2t9 -5
q3 -1 6.5 -2.5t8.5 -2.5q4 -1 12 0.5t2 7.5q-2 3 -5.5 3t-7.5 1q-9 2 -19 6.5t-17 12t-9.5 18t3.5 22.5t19.5 17t26.5 13q9 6 15 12t19 9zM454 321q8 1 7.5 -10t0.5 -18q4 -23 18.5 -43t30.5 -34q2 -2 6.5 -5.5t4.5 -4.5q2 -5 -9.5 -6t-15.5 -1l-29.5 -2.5t-34.5 -5t-31 -10
t-20 -17.5q-5 -10 -3.5 -16.5t4.5 -12.5q1 -2 3 -4t2 -3q-1 -3 -10 -4.5t-17 -2.5q-14 -2 -30 -5t-35 -3q-2 0 -6.5 3.5t-9 8.5t-8.5 10t-4 7t5.5 3.5t8.5 2.5q20 5 32.5 9t17.5 12q9 13 12 27t10 34t18.5 34.5t25.5 28.5q10 10 23.5 18t32.5 10z" />
    <glyph glyph-name="ograve" unicode="&#xf2;" horiz-adv-x="916" 
d="M267 911q1 1 12 0t24.5 -2.5t26.5 -2.5t18 1q19 4 36.5 10.5t34.5 8.5q41 5 73.5 -10t55.5 -42l15.5 -18t17.5 -16.5t20 -7.5t25 11q7 6 11 10t11 12l14.5 18t19.5 16q7 3 12 2t6 -10q0 -10 -5 -16.5t-9 -14.5q-6 -8 -11.5 -18t-5.5 -21q2 -17 12 -28t18 -25
q4 -6 7.5 -14.5t-1.5 -14.5q-3 -4 -11 -1.5t-16 10.5q-10 12 -20 20.5t-24 17.5t-31.5 13.5t-32.5 6.5l-12.5 2.5t-12.5 -1.5q-2 -3 -1 -7t3.5 -9l5 -10t4.5 -8q3 -6 3.5 -12.5t-3.5 -9.5q-6 -2 -11 2.5t-8 7.5q-7 9 -18 21.5t-19 17.5q-3 3 -11 3h-8q-23 1 -43 6.5
t-40 19.5q-18 12 -31.5 29.5t-31.5 25.5q-11 5 -26 8.5t-30 5.5q-11 2 -14 5.5t1 7.5zM465 706q66 4 127 -23.5t107 -70.5q33 -35 58 -79t38 -92t12.5 -98t-17.5 -97q-17 -49 -42.5 -90t-63.5 -73l-34 -27.5t-38 -24.5q-48 -26 -105.5 -33.5t-114 3t-105.5 38.5t-79 73
q-5 7 -9.5 16.5t-7 19.5t-3 19t4.5 14q11 13 30.5 5.5t36.5 -32.5q26 -38 69.5 -65.5t109.5 -25.5q19 0 40 3q27 4 49.5 11.5t42.5 18.5q27 14 46 28.5t42 38.5q15 16 29 39t20 49q1 4 3 11t-2 9q-7 4 -8.5 -3.5t-3.5 -11.5l-6 -18q-2 -3 -4 -10.5t-5 -7.5t-6 6l-5 10
l-12 19.5t-10 20.5q-2 4 -4.5 10.5t-7.5 6.5q-8 0 -4.5 -9l5.5 -14l11 -25t14 -24q3 -6 7 -10.5t-1 -11.5q-4 -5 -6 -8t-3.5 -5.5t-4 -5.5l-6.5 -8q-10 -11 -18.5 -18.5t-19.5 -11.5q-8 -3 -18 -3q-23 1 -50 0.5t-52 -0.5q-14 -1 -27 -3t-28 -3q-11 -1 -19.5 4t-5.5 18
q3 9 14.5 14.5t25.5 9.5t27 5.5t20 2.5q5 0 16 1t22 2.5t19 4.5t8 8t-8.5 9.5t-13.5 8.5q-14 10 -21 21q-9 10 -17 24.5t-9 31.5q-2 28 2 54t12 44q10 19 27 33t34 22q13 5 30.5 9.5t35.5 4.5q27 -2 50 -11t41 -19q11 -6 18 -10.5t9 0.5t-5.5 11.5t-16.5 11.5l-44 20.5
t-53 9.5q-47 0 -75 -17.5t-47 -36.5q-8 -8 -12 -16.5t-9 -10.5q-7 -2 -8.5 0.5t0 7.5t3 12.5t0.5 16.5q-2 10 -8.5 16t-14.5 9q-4 2 -8.5 2t-5.5 3q-2 3 -1 5.5t1 7.5q0 9 -1 13q-3 11 -9 17t-18 8q-3 1 -7.5 1t-7.5 3q-2 3 -1 7.5t0 9.5q-3 23 -23 33q-5 2 -9.5 4t-6.5 5
q-1 5 2 9t5 13q5 18 -0.5 34t-15.5 26q-3 3 -6.5 4.5t-3.5 4.5q0 9 14 16t33.5 11.5t39.5 7t31 2.5zM317 660q24 2 38 -15.5t6 -43.5q-2 -5 -4 -12.5t-5 -10.5t-10 -5t-13.5 -3.5t-12 -4t-6.5 -8.5q0 -5 1 -6.5t3.5 -1t5 2.5t4.5 3q9 4 19 7t23 0q11 -2 22 -10.5t7 -23.5
q-3 -14 -17.5 -26.5t-25.5 -17.5q-9 -6 -22.5 -10.5t-24.5 -4.5q-21 -2 -34.5 11t-11.5 37q2 17 8 35.5t14 33.5q1 2 1.5 8t-2.5 7q-5 1 -8.5 -6t-5.5 -12q-8 -20 -13.5 -40.5t-3.5 -43.5q2 -11 9.5 -21.5t15.5 -14.5q4 -2 10 -4t12 -2q5 -1 10 -0.5t7 -1.5q2 -3 0 -6t-2 -6
q-1 -2 -0.5 -7.5t-1.5 -7.5q-3 -3 -8.5 2.5t-7.5 6.5q-4 2 -5.5 3.5t-4.5 3.5t-9 3t-8 -3q-1 -4 4.5 -6t8.5 -3q11 -4 22.5 -15.5t17.5 -21.5q4 -7 5.5 -15t2.5 -18q4 -30 -4 -61q-4 -17 -14.5 -32t-23.5 -25q-6 -7 -21.5 -14.5t-29.5 -1.5q-13 6 -13 21q0 4 1.5 10.5t2 13
t-0.5 11.5t-6 5q-4 0 -8 -7t-7 -10q-5 -5 -12.5 -10t-16.5 -8t-19 -3t-19 5q-9 4 -14.5 14.5t-8 23t-1.5 26.5t6 25q9 30 29 48q3 2 8 7t6 7q2 9 1.5 19t-0.5 19q5 61 28 111t70 81q11 7 25.5 13t31.5 7zM407 503q13 2 21.5 -3.5t10.5 -15.5q1 -18 -11 -31.5t-22 -17.5
q-2 -2 -10.5 -5t-8.5 -7q0 -5 5 -4.5t11.5 3t12.5 5.5t8 5q5 4 8.5 10.5t10.5 8.5q11 3 18.5 -0.5t11.5 -11t3.5 -16.5t-4.5 -17q-6 -9 -19.5 -19t-24.5 -13q-9 -4 -25 -7t-27 -3q-9 0 -19.5 1t-15.5 6q-1 1 -5 10.5t0 11.5q2 1 8 -2t9 -5q3 -1 6.5 -2.5t8.5 -2.5
q4 -1 12 0.5t2 7.5q-2 3 -5.5 3t-7.5 1q-9 2 -19 6.5t-17 12t-9.5 18t3.5 22.5t19.5 17t26.5 13q9 6 15 12t19 9zM474 321q8 1 7.5 -10t0.5 -18q4 -23 18.5 -43t30.5 -34q2 -2 6.5 -5.5t4.5 -4.5q2 -5 -9.5 -6t-15.5 -1l-29.5 -2.5t-34.5 -5t-31 -10t-20 -17.5
q-5 -10 -3.5 -16.5t4.5 -12.5q1 -2 3 -4t2 -3q-1 -3 -10 -4.5t-17 -2.5q-14 -2 -30 -5t-35 -3q-2 0 -6.5 3.5t-9 8.5t-8.5 10t-4 7t5.5 3.5t8.5 2.5q20 5 32.5 9t17.5 12q9 13 12 27t10 34t18.5 34.5t25.5 28.5q10 10 23.5 18t32.5 10z" />
    <glyph glyph-name="uacute" unicode="&#xfa;" 
d="M596 913q5 -1 12.5 -3.5t11.5 -6.5q3 -2 7 -9t2 -12q-1 -2 -4 -2h-6t-5.5 -1t-2.5 -4q1 -4 4.5 -4t8 0.5t8 1t5.5 -1.5q3 -5 -4.5 -12t-13.5 -10q-50 -28 -101 -42.5t-90 -16.5q-11 -2 -23 -3t-24 1q-20 2 -34 10t-36 8q-9 1 -17.5 -1.5t-17 -7t-16 -9l-14.5 -8.5
q-8 -3 -15 0t-13.5 9t-11.5 13.5t-8 13.5q-2 3 -5 9t-5 13.5t-3 15t1 12.5q3 9 14.5 10t22.5 -1t18.5 -8.5t12.5 -8.5q14 -8 31.5 -10t31.5 5q11 4 17.5 13.5t14.5 17.5q12 12 36.5 18t53 8.5t55 2.5h43.5q15 0 29 0.5t30 -0.5zM652 721q10 0 9 -12.5t-2 -21.5
q-1 -8 -1 -16.5v-13.5q-1 -19 0 -39.5t-1 -38.5q-3 -14 -9.5 -25l-12.5 -22q-11 -26 -12 -56t7 -58q5 -16 9 -32l8 -33q4 -20 6.5 -31.5l5.5 -25.5t6.5 -27t6.5 -29t2 -35.5t-3 -34.5q-8 -32 -27.5 -64t-42.5 -56q-27 -27 -75 -40t-98.5 -15t-95 4.5t-65.5 18.5
q-29 17 -49.5 40.5t-38.5 54.5q-15 26 -23.5 59.5t-14.5 68.5q-7 35 -10 74t-7 76q-5 38 -3.5 79.5t3.5 81.5q1 20 -0.5 40t-6.5 37q-2 8 -4.5 16t-4.5 16q-2 6 -3 13.5t0 14t4.5 11t12.5 3.5q11 -2 18.5 -12.5t11.5 -21.5l8 -24t6 -26q3 -15 4 -30t1 -31l2 -29t-1 -32
q-2 -22 0.5 -48.5t7.5 -46.5q2 -4 5.5 -13.5t9.5 -6.5q5 2 1.5 9t-4.5 10q-7 25 -8 51t0 54v20t3 19q2 5 8 8.5l13 7.5q17 7 32.5 18t35.5 13q21 2 32 -7t6 -29q-2 -8 -8 -15.5t-10 -15.5q-2 -4 -0.5 -4.5t4 0t5.5 2t4 2.5q8 6 19.5 10.5t22 5t19 -4t11.5 -17.5
q4 -15 -1.5 -29.5t-10.5 -24.5q-7 -13 -15.5 -24.5t-15.5 -25.5q-11 -27 -18 -64.5t0 -76.5q3 -20 6.5 -33t11.5 -29q11 -22 31 -36t52 -8q19 3 31.5 13.5t20 25.5t11.5 33.5t7 38.5q4 21 7 40.5t5 39.5q2 21 6 40.5t7 38.5l8 38.5t13 34.5q13 21 32 38t33 36q8 10 11.5 23
t6 27.5t4 29.5t6.5 30q3 8 7.5 16.5t14.5 9.5zM214 704q12 2 15 -11.5t5 -24.5l4 -20t4 -23q2 -14 2 -20t-1 -8q-1 -3 -8.5 -8t-16.5 -10q-2 -1 -6 -3.5t-6 -1.5q-1 1 -1.5 12.5t-0.5 16.5q-1 15 -1 26t-2 22q0 7 -0.5 15.5t0.5 16.5t4 13.5t9 7.5zM769 698q7 0 9 -3.5
t2 -8.5t-2 -10.5t-3 -8.5q-5 -15 -8.5 -27t-6.5 -29q-3 -15 -6.5 -29.5t-5.5 -28.5q-3 -26 -13.5 -45t-20.5 -39q-16 -35 -20 -85l-8 -100l-2 -28v-6t-2 -4q-2 -1 -3 6.5t-1 9.5q-2 14 -6 28.5t-7 30.5q-4 24 -9.5 49t-12.5 48l-6.5 20.5t-2.5 21.5q1 5 5 11t7 10
q11 12 28 25.5t27 30.5q16 31 23 68t20 68q3 7 9.5 15t15.5 10z" />
    <glyph glyph-name="ugrave" unicode="&#xf9;" 
d="M226 913q16 1 30 0.5t29 -0.5h43t55.5 -2.5t53 -8.5t36.5 -18q8 -8 14.5 -17.5t17.5 -13.5q14 -7 31.5 -5t31.5 10q5 2 12.5 8.5t18.5 8.5t22.5 1t14.5 -10q2 -5 1 -12.5t-3.5 -15t-5 -13.5t-4.5 -9q-3 -6 -8 -13.5t-11.5 -13.5t-13.5 -9t-15 0q-14 7 -31 17t-34 9
q-11 0 -19.5 -2.5t-16.5 -5.5l-16 -6t-18 -4q-12 -2 -24 -1t-23 3q-39 2 -90 16.5t-101 42.5q-6 3 -13.5 10t-4.5 12q1 2 5 1.5t8.5 -1t8 -0.5t4.5 4q0 3 -2.5 4t-5.5 1h-6t-4 2q-2 5 2 12t7 9q4 4 11.5 6.5t12.5 3.5zM652 721q10 0 9 -12.5t-2 -21.5q-1 -8 -1 -16.5v-13.5
q-1 -19 0 -39.5t-1 -38.5q-3 -14 -9.5 -25l-12.5 -22q-11 -26 -12 -56t7 -58q5 -16 9 -32l8 -33q4 -20 6.5 -31.5l5.5 -25.5t6.5 -27t6.5 -29t2 -35.5t-3 -34.5q-8 -32 -27.5 -64t-42.5 -56q-27 -27 -75 -40t-98.5 -15t-95 4.5t-65.5 18.5q-29 17 -49.5 40.5t-38.5 54.5
q-15 26 -23.5 59.5t-14.5 68.5q-7 35 -10 74t-7 76q-5 38 -3.5 79.5t3.5 81.5q1 20 -0.5 40t-6.5 37q-2 8 -4.5 16t-4.5 16q-2 6 -3 13.5t0 14t4.5 11t12.5 3.5q11 -2 18.5 -12.5t11.5 -21.5l8 -24t6 -26q3 -15 4 -30t1 -31l2 -29t-1 -32q-2 -22 0.5 -48.5t7.5 -46.5
q2 -4 5.5 -13.5t9.5 -6.5q5 2 1.5 9t-4.5 10q-7 25 -8 51t0 54v20t3 19q2 5 8 8.5l13 7.5q17 7 32.5 18t35.5 13q21 2 32 -7t6 -29q-2 -8 -8 -15.5t-10 -15.5q-2 -4 -0.5 -4.5t4 0t5.5 2t4 2.5q8 6 19.5 10.5t22 5t19 -4t11.5 -17.5q4 -15 -1.5 -29.5t-10.5 -24.5
q-7 -13 -15.5 -24.5t-15.5 -25.5q-11 -27 -18 -64.5t0 -76.5q3 -20 6.5 -33t11.5 -29q11 -22 31 -36t52 -8q19 3 31.5 13.5t20 25.5t11.5 33.5t7 38.5q4 21 7 40.5t5 39.5q2 21 6 40.5t7 38.5l8 38.5t13 34.5q13 21 32 38t33 36q8 10 11.5 23t6 27.5t4 29.5t6.5 30
q3 8 7.5 16.5t14.5 9.5zM214 704q12 2 15 -11.5t5 -24.5l4 -20t4 -23q2 -14 2 -20t-1 -8q-1 -3 -8.5 -8t-16.5 -10q-2 -1 -6 -3.5t-6 -1.5q-1 1 -1.5 12.5t-0.5 16.5q-1 15 -1 26t-2 22q0 7 -0.5 15.5t0.5 16.5t4 13.5t9 7.5zM769 698q7 0 9 -3.5t2 -8.5t-2 -10.5t-3 -8.5
q-5 -15 -8.5 -27t-6.5 -29q-3 -15 -6.5 -29.5t-5.5 -28.5q-3 -26 -13.5 -45t-20.5 -39q-16 -35 -20 -85l-8 -100l-2 -28v-6t-2 -4q-2 -1 -3 6.5t-1 9.5q-2 14 -6 28.5t-7 30.5q-4 24 -9.5 49t-12.5 48l-6.5 20.5t-2.5 21.5q1 5 5 11t7 10q11 12 28 25.5t27 30.5q16 31 23 68
t20 68q3 7 9.5 15t15.5 10z" />
    <glyph glyph-name="udieresis" unicode="&#xfc;" 
d="M582 931q3 -1 5 -8q5 -13 4 -29t-6 -27q-8 -21 -27.5 -36.5t-42.5 -18.5q-6 -1 -12 -1t-9 4q-1 1 -4 6t-1 5q17 -4 32 0.5t26.5 14t18.5 24t8 30.5q0 9 -0.5 20.5t-5.5 17.5q2 -1 5 -1q2 0 4.5 -0.5t4.5 -0.5zM554 931q5 0 8 -10.5t2 -18.5q0 -29 -20 -48.5t-49 -17.5
h-3.5t-4.5 2q-1 1 -1.5 6t0.5 5q0 -1 1 -1h3q2 -1 3 -1q10 -2 17.5 0.5t15.5 6.5t14 13.5t9 20.5t1.5 22t-7.5 17q-2 2 3 3t8 1zM613 919q5 -6 6 -15t-1 -20q-5 -32 -22 -54t-40 -33q-10 -4 -20.5 -7.5t-21.5 -1.5q-12 10 -12 12h5q23 2 41 9.5t29 19.5q5 5 9.5 12.5
t7.5 13.5q7 12 9 34.5t-6 38.5q-1 1 1.5 -0.5t5.5 -3.5q4 -3 9 -5zM530 923q3 0 6.5 -6t4.5 -11q2 -18 -11.5 -34t-33.5 -14q-2 0 -5.5 1t-3.5 3v5q0 5 2 5q4 -3 11 -3q12 2 21.5 15.5t4.5 26.5q0 2 -1 3q-2 2 -4 3q-1 1 4 4q2 1 5 2zM513 910q6 2 6 -6q0 -4 -3 -10
t-7.5 -11t-9 -6.5t-6.5 3.5q-2 1 0.5 6t6.5 10.5t7.5 9.5t5.5 4zM630 889q-1 6 -1.5 9.5t-0.5 5.5v3q8 -7 11.5 -14.5t1.5 -21.5q-2 -41 -25.5 -65t-56.5 -32q-9 -2 -15 -2t-15 5q-5 2 -1 1.5t10 1.5q37 9 64 36.5t28 72.5zM651 845q0 -2 -0.5 -4t-0.5 -4q-3 -23 -17 -40
t-33 -25q-10 -5 -26 -5q-2 0 -7 -0.5t2 1.5q34 8 53 29.5t28 49.5l1 4v-6zM248 792q2 0 -4 -0.5t-10 -0.5q-8 1 -12 7.5t2 14.5q4 4 2 5t-4 3q-8 6 -5 15t17 7q5 -1 1 1.5t-5 4.5q-7 8 -4 18.5t16 5.5q4 -2 7.5 -4.5t5.5 -0.5q-2 2 -4 7t-2.5 10t2 8.5t10.5 2.5q5 -1 8.5 -5
t6.5 -7q2 -1 0 6t0 13.5t9 6.5q8 0 11.5 -5t6.5 -10q2 -2 1.5 3.5t0.5 8.5q1 5 6.5 9.5t12.5 -0.5q5 -3 5 -15q0 -8 2 -2l3 6t5 7.5t7 5t9 -0.5q5 -3 3.5 -10.5t-3.5 -12.5t-4 -9t3 -2q5 3 15.5 7.5t11.5 -6.5q1 -5 -4.5 -12t-9.5 -11q-5 -3 1.5 -1.5t8.5 1.5h8.5t8 -1.5
t5 -4.5t-0.5 -7q-3 -5 -11.5 -7.5t-16.5 -4.5q-1 -1 7 -1h10q5 0 10.5 -1.5t4.5 -7.5q-2 -5 -6.5 -6.5t-9.5 -2.5q-4 -1 -6.5 -1.5t1.5 -2.5t12 -6.5t3 -10.5q-2 -2 -9 -1.5t-11 1.5q-2 1 1.5 -5t3.5 -11t-6 -5t-11 2q-4 2 -1.5 -3t2.5 -9q0 -7 -5.5 -7.5t-9.5 4.5l-7 8
q0 -1 0.5 -7t-0.5 -9q-2 -11 -9.5 -7.5t-12.5 11.5q-2 4 -3.5 1.5t-1.5 -7.5q0 -16 -11.5 -17.5t-15.5 13.5q-1 3 0 6.5t0 3.5t-5 -3t-8.5 -5.5t-8.5 -1.5t-4 9v7q0 3 1 5q-3 -2 -7 -3q-8 -2 -10 -2q-10 0 -12 5q-3 8 3 13.5t10 9.5zM652 721q10 0 9 -12.5t-2 -21.5
q-1 -8 -1 -16.5v-13.5q-1 -19 0 -39.5t-1 -38.5q-3 -14 -9.5 -25l-12.5 -22q-11 -26 -12 -56t7 -58q5 -16 9 -32l8 -33q4 -20 6.5 -31.5l5.5 -25.5t6.5 -27t6.5 -29t2 -35.5t-3 -34.5q-8 -32 -27.5 -64t-42.5 -56q-27 -27 -75 -40t-98.5 -15t-95 4.5t-65.5 18.5
q-29 17 -49.5 40.5t-38.5 54.5q-15 26 -23.5 59.5t-14.5 68.5q-7 35 -10 74t-7 76q-5 38 -3.5 79.5t3.5 81.5q1 20 -0.5 40t-6.5 37q-2 8 -4.5 16t-4.5 16q-2 6 -3 13.5t0 14t4.5 11t12.5 3.5q11 -2 18.5 -12.5t11.5 -21.5l8 -24t6 -26q3 -15 4 -30t1 -31l2 -29t-1 -32
q-2 -22 0.5 -48.5t7.5 -46.5q2 -4 5.5 -13.5t9.5 -6.5q5 2 1.5 9t-4.5 10q-7 25 -8 51t0 54v20t3 19q2 5 8 8.5l13 7.5q17 7 32.5 18t35.5 13q21 2 32 -7t6 -29q-2 -8 -8 -15.5t-10 -15.5q-2 -4 -0.5 -4.5t4 0t5.5 2t4 2.5q8 6 19.5 10.5t22 5t19 -4t11.5 -17.5
q4 -15 -1.5 -29.5t-10.5 -24.5q-7 -13 -15.5 -24.5t-15.5 -25.5q-11 -27 -18 -64.5t0 -76.5q3 -20 6.5 -33t11.5 -29q11 -22 31 -36t52 -8q19 3 31.5 13.5t20 25.5t11.5 33.5t7 38.5q4 21 7 40.5t5 39.5q2 21 6 40.5t7 38.5l8 38.5t13 34.5q13 21 32 38t33 36q8 10 11.5 23
t6 27.5t4 29.5t6.5 30q3 8 7.5 16.5t14.5 9.5zM214 704q12 2 15 -11.5t5 -24.5l4 -20t4 -23q2 -14 2 -20t-1 -8q-1 -3 -8.5 -8t-16.5 -10q-2 -1 -6 -3.5t-6 -1.5q-1 1 -1.5 12.5t-0.5 16.5q-1 15 -1 26t-2 22q0 7 -0.5 15.5t0.5 16.5t4 13.5t9 7.5zM769 698q7 0 9 -3.5
t2 -8.5t-2 -10.5t-3 -8.5q-5 -15 -8.5 -27t-6.5 -29q-3 -15 -6.5 -29.5t-5.5 -28.5q-3 -26 -13.5 -45t-20.5 -39q-16 -35 -20 -85l-8 -100l-2 -28v-6t-2 -4q-2 -1 -3 6.5t-1 9.5q-2 14 -6 28.5t-7 30.5q-4 24 -9.5 49t-12.5 48l-6.5 20.5t-2.5 21.5q1 5 5 11t7 10
q11 12 28 25.5t27 30.5q16 31 23 68t20 68q3 7 9.5 15t15.5 10z" />
    <glyph glyph-name="bullet" unicode="&#x2022;" horiz-adv-x="501" 
d="M234 538q5 2 7.5 0t3.5 -6t0 -8t-3 -6q0 -1 -3.5 -4t-2.5 -4q1 -2 3 0t4 2q7 0 3 -9t-8 -11q-5 -4 -11 -6t-11 -4q-16 -5 -30.5 -15.5t-22.5 -26.5q-6 -11 -7 -25t1 -28.5t5.5 -28t6.5 -23.5q1 -2 3 -5t2 -2t-0.5 7.5t0.5 9.5q1 5 4.5 14t10.5 3q3 -2 3 -9.5v-9.5v-18.5
t2 -15.5q2 -3 4.5 -7.5t4.5 -7.5q7 -10 13 -17.5t11 -16.5q8 -17 -1.5 -32t-29.5 -12q-29 4 -46 18t-31 34q-9 13 -21.5 20t-20.5 20q-2 3 -3.5 7.5t-1.5 8.5t2 6.5t8 0.5q8 -3 15 -10l13 -13l7.5 -7.5t5.5 0.5q0 5 -6 11.5l-10 10.5l-6 6l-5 5q-2 4 -2 11q-3 44 22 80.5
t60 56.5q17 10 29 24.5t24 27.5zM293 470q15 -1 29.5 -4t25.5 -8q19 -8 32 -21l27 -27l12.5 -10.5t6.5 -14.5q-1 -5 -4.5 -5t-7.5 2t-8 4.5t-6 3.5l-9 8q-2 2 -4 5t-5 3t-2 -3t4 -6.5t7.5 -7.5t7.5 -6l8 -5q2 -2 2.5 -7t0.5 -7q4 -38 -6.5 -64.5t-27.5 -47.5
q-16 -20 -40 -35q-13 -9 -30 -15t-31 -14q-8 -4 -16 -12.5t-17 -8.5q-5 0 -8 3.5t-1 8.5q1 2 2 3.5t6 3.5q4 2 9 4t5 4t-4 0.5t-7 -2.5q-4 -1 -9.5 -1t-10 1.5t-6 4.5t1.5 9q3 5 9.5 6t14 1t15.5 -0.5t13 1.5q14 5 26 17t20 24q11 17 16 39.5t0 47.5q-2 13 -11 21t-21 13
t-26 8l-27 6t-21.5 11.5t-6.5 24.5q2 23 24 33.5t48 10.5zM287 374q1 1 9 -2.5t9 -4.5q3 -2 3 -9t-2 -13t-5.5 -8.5t-7.5 4.5q-4 6 -5 15.5t-1 17.5z" />
    </font>
</defs>
</svg>
